<svg xmlns="http://www.w3.org/2000/svg" viewBox="0 0 143.25 108.02"><defs><style>.cls-1{fill:#00adb5;fill-rule:evenodd;}.cls-2{fill:#ededed;}.cls-3{fill:#adadad;}.cls-4{fill:#ababab;}.cls-5{fill:#03f4f4;}</style></defs><title>1</title><g id="Capa_2" data-name="Capa 2"><g id="objetos"><path class="cls-1" d="M8.39,55.88V52.15a2.61,2.61,0,0,0,0-1.34v-.45a17.7,17.7,0,0,0,.21-2.58A50.67,50.67,0,0,1,14.81,28.2a52.56,52.56,0,0,1,8.46-11.43A53.29,53.29,0,0,1,53.18,1,66.64,66.64,0,0,1,65.52.44,44.45,44.45,0,0,1,77.85,2.51,53.12,53.12,0,0,1,97.45,13.32a53.73,53.73,0,0,1,18.23,33.41c.17,1.2.05,2.42.26,3.62v.9a2,2,0,0,0,0,1.2V56a4,4,0,0,0-.08,1.19v.84A43.77,43.77,0,0,1,113,72.69a52.58,52.58,0,0,1-10.52,17.57,53.95,53.95,0,0,1-32.55,17.46c-1.32.19-2.67.06-4,.3h-.45a2,2,0,0,0-1.19,0H60.52a4,4,0,0,0-1.19-.08H58.5a43.31,43.31,0,0,1-14.57-2.83A52.48,52.48,0,0,1,27.5,95.68,53.59,53.59,0,0,1,10.45,69.9a54.55,54.55,0,0,1-1.77-8c-.17-1.2,0-2.42-.29-3.62v-.45c.16-.29,0-.61.08-.91S8.55,56.21,8.39,55.88Z"/><path d="M143.25,56.94c-.4-5.08-.73-10-1.19-15,0-.09,0-.18,0-.26V40l-.15-.13a1.67,1.67,0,0,1-.54-.7c0-.6-.35-.82-1.14-1.29l-.75-.45a11.37,11.37,0,0,1-2.67-3.07c-.18-.26-.34-.49-.46-.66a1.86,1.86,0,0,0-1.89-.78h-.14l-4.87.36c-5.81.44-15.55,1.18-16.34,1-.55-.21-1.2-1.82-1.42-3.11a11.74,11.74,0,0,1,0-2.67l0-.17-.1-.14a62.73,62.73,0,0,1-3.74-6.25,54.52,54.52,0,0,0-6.69-9.25,3.44,3.44,0,0,0-1.6-.85A26.46,26.46,0,0,0,88.49,3C79.09-1.29,70-1.41,61.59,5.58c-5.72,4.78-8.33,11.4-11.13,18C41.14,28.47,31,35.95,27,38.92c-3.32,2.46-10.29,8.2-14.33,11.56h0l-1,.83L9.91,52.8a2.41,2.41,0,0,0-1.23-.51,14.43,14.43,0,0,0-5.47,1l-.1.05C1.73,54.06-.16,55,0,61.78c.15,5.86,3.56,13.44,6.25,15.54,2,1.57,5.92,1.87,8.62,1.87.81,0,1.51,0,2-.05a32,32,0,0,0,8.25.09c9.84-.79,19.15-3.86,28.53-6.61a3.76,3.76,0,0,1,2.7.41c3.07,1.87,6,4,9.05,5.84s6.23,3.35,9.36,5l-.11.18c.08,0,7.84,4.85,15.44,6.11a67.52,67.52,0,0,0,10.46.78c1.52,0,2.89-.05,4-.14,1.54-.13,3.7-.46,6.14-.88,6.83-.54,13.67-1.08,20-4.17l.71-.2A13,13,0,0,0,136.1,83l.12-.1c.43-.36,4.29-4.5,4.83-5.1a1.16,1.16,0,0,0,.36-1,.86.86,0,0,0-.12-.31l.45-.7V74.35a7.82,7.82,0,0,0,.14-1C142.34,67.87,142.81,62.36,143.25,56.94ZM17.69,78.27v-.06c-.07,0-7.13.63-10.37-1.23a2.73,2.73,0,0,1-.39-.54,1.57,1.57,0,0,1-.2-.65c0-.07,0-.14,0-.21a1.28,1.28,0,0,0,0-.16A2.54,2.54,0,0,1,6.89,75a11.9,11.9,0,0,1,1-1.62c.38-.57.81-1.16,1.22-1.79a21.78,21.78,0,0,0,1.21-2,11.89,11.89,0,0,0,.51-1.12l.11-.28,0-.07s0-.06,0-.09l0-.16a4.54,4.54,0,0,0,.14-.64,8.65,8.65,0,0,0-.09-2.51,16.62,16.62,0,0,0-.58-2.3c-.23-.73-.5-1.41-.77-2.05s-.55-1.24-.82-1.78c-.54-1.08-1-2-1.41-2.55s-.6-.93-.6-.93l.45,1c.28.64.67,1.56,1.11,2.68s.92,2.42,1.31,3.85a18.82,18.82,0,0,1,.48,2.21,7.74,7.74,0,0,1,.06,2.26,7.37,7.37,0,0,1-.76,2.11c-.35.68-.72,1.35-1.11,2L7.31,73.08a10.19,10.19,0,0,0-.89,1.79,3,3,0,0,0-.11.47c0,.09,0,.14,0,.26s0,.14,0,.21a2,2,0,0,0,.19.57C4.05,74.12,1,67.08.87,61.76c-.15-6.24,1.45-7,2.62-7.61l.1-.05a14.11,14.11,0,0,1,5-1,1.58,1.58,0,0,1,.67.24l-.37.33c-.41.43-.11,1.12.45,2.38.25.57.54,1.23.82,2,.2.53.41,1.2.61,1.84.67,2.1.85,2.56,1.26,2.65h.11a.49.49,0,0,0,.36-.16S13,61.83,13.82,61a18.39,18.39,0,0,0-.06,3c0,1.07.3,2.29-.13,3.23A6.56,6.56,0,0,1,11.49,70c-1.23.8-2.28,1.82-2.23,3.29a3.08,3.08,0,0,0,2.67,2.8,23.32,23.32,0,0,0,5.67.49A87.82,87.82,0,0,0,43.08,71.4c3.12-1.14,6.25-2.23,9.38-3.35l.17.56A135.77,135.77,0,0,1,17.69,78.27Zm2.43-8.79a2.6,2.6,0,0,0,1.29,1,7.06,7.06,0,0,0,1.77.39c1.26.12,2.56.12,3.87.11s2.61-.08,3.89-.17,2.54-.21,3.75-.39a31.42,31.42,0,0,0,3.46-.64c1.07-.27,2.11-.61,3.05-.88s1.8-.56,2.57-.79,1.43-.45,2-.64l1.72-.56s-.6.26-1.67.7c-.53.21-1.18.48-1.94.76s-1.59.63-2.53.95-1.92.69-3,1a31.69,31.69,0,0,1-3.5.79,53.48,53.48,0,0,1-7.74.69,33.29,33.29,0,0,1-4-.13,7.74,7.74,0,0,1-2-.46,3.39,3.39,0,0,1-1.64-1.29A3.7,3.7,0,0,1,19,68a8.19,8.19,0,0,1,.2-1.81,23.58,23.58,0,0,0,.79-3,3.93,3.93,0,0,0,0-.67c0-.11,0-.23-.05-.34s0-.22-.07-.32l-.27-1.25-.43-2-.26-1.31-.09-.46.14.45.39,1.28.59,2,.36,1.23c0,.11.06.21.09.34s.05.22.07.35a4.35,4.35,0,0,1,.06.77,20.1,20.1,0,0,1-.67,3.15,7.93,7.93,0,0,0-.12,1.65A3,3,0,0,0,20.12,69.48Zm15.49,3.63a.84.84,0,0,0-.45-.15,6.71,6.71,0,0,0-1.33,0c-.51,0-1.09.13-1.72.23s-1.31.24-2,.33-1.5.17-2.3.22c-1.6.1-3.3.15-5,.14s-3.41-.1-5-.26a13,13,0,0,1-2.29-.41,2.34,2.34,0,0,1-.54-.23,1.54,1.54,0,0,1-.4-.4,2.28,2.28,0,0,1-.37-1,9,9,0,0,1,0-1.76,1,1,0,0,0-.11-.65.82.82,0,0,0-.54-.17,3.29,3.29,0,0,0-.85.12l-.29.09.29-.11a3,3,0,0,1,.85-.18.9.9,0,0,1,.62.17,1.06,1.06,0,0,1,.19.73,10.3,10.3,0,0,0,.06,1.72,1.51,1.51,0,0,0,1.16,1.36,15.09,15.09,0,0,0,2.24.33c1.58.14,3.28.19,5,.2s3.4,0,5-.08c.8,0,1.56-.07,2.29-.14s1.4-.18,2-.26,1.22-.13,1.74-.15a6.88,6.88,0,0,1,1.35,0,.88.88,0,0,1,.47.19.26.26,0,0,1,0,.35.94.94,0,0,1-.23.21,1,1,0,0,0,.21-.22C35.66,73.35,35.72,73.21,35.61,73.11Zm19.87-26c-1.48.69-2.74,1.88-4.25,2.45a133.11,133.11,0,0,1-14.41,5.07A149.6,149.6,0,0,1,21.17,57.3c-.73.11-1.31-.29-2.31-.67l2.88-2.5c2.11-1.85,8.7-6.31,8.77-6.35l-.06-.09,4.43-3.16a6,6,0,0,1,4.61-1.22,8.44,8.44,0,0,0,6.11-1.51c5.18-3.49,10.31-7.15,16.61-8.46a88.11,88.11,0,0,1,22.07-2,16.32,16.32,0,0,1,1.85.34C84.24,33.28,83,34.79,83.77,37c-.69.15-1.3.31-1.79.45-3,.91-5,1.66-5.76,2A47.56,47.56,0,0,0,68,41.52,50.85,50.85,0,0,0,55.48,47.13Zm84.93,30.08c-.67.74-4.4,4.73-4.74,5l-.13.11a12.21,12.21,0,0,1-4.41,2.37c-1.27.45-19.93,4.62-26.64,5.21a65.6,65.6,0,0,1-14.21-.63c-7-1.17-14.19-5.43-15-5.94a3.58,3.58,0,0,0-.68-.74,31.63,31.63,0,0,1-9.45-15.2c-2.4-7.92-.51-15.4,4.58-21.89a27.39,27.39,0,0,1,6.56-5.68c.62-.24,2.7-1,5.88-2a68.14,68.14,0,0,1,7.47-1.49l6.15-.8.34-.63c-1.28-.8-2.47-2-3.87-2.33a47.93,47.93,0,0,0-9.49-1.67c-10.26-.49-20.42.33-30.27,3.5C45.21,36.75,39,40.94,32.81,45.13c-.94.63-1.85,1.3-2.76,2l0,0c-.27.18-6.71,4.53-8.86,6.42L17.8,56.4a48.79,48.79,0,0,0-5.61,5.05c-.18-.45-.42-1.21-.61-1.81s-.42-1.33-.63-1.88c-.29-.78-.6-1.47-.84-2a8,8,0,0,1-.56-1.47c.31-.29,1.61-1.39,2.79-2.38C16.16,48.71,24,42.25,27.53,39.61c4.36-3.22,15.92-11.78,25.81-16.51v0c2.44-1,5.38-2.85,7.82-3.73C73.3,15,84.88,11.23,98.29,12.27l0,.18a4.21,4.21,0,0,1,2.26.79,53.63,53.63,0,0,1,6.56,9.07,66.44,66.44,0,0,0,3.7,6.21,11.93,11.93,0,0,0,0,2.75c.15.9.79,3.33,2,3.77.64.24,5.9-.1,16.72-.92l4.87-.36.16,0a1,1,0,0,1,1.12.43c.12.16.27.37.44.63A12,12,0,0,0,139,38.12l.77.46a3.55,3.55,0,0,1,.71.48.17.17,0,0,1,0,0,1,1,0,0,0,.06.36,6.63,6.63,0,0,0-1.73,0c-10.29,1.08-20.58,2.3-30.9,3.09-8.6.66-17.24,1.1-25.86,1.1-8,0-13.47,6-14.62,13.18A26.88,26.88,0,0,0,68.68,71.1C70.81,76.52,74.49,81,80.76,82c5.38.83,10.82,1.28,16.24,1.73,14.07,1.16,27.59-1.84,41-5.54a5.45,5.45,0,0,0,2.4-1.29l.13.07S140.55,77.06,140.41,77.21Zm-8.51-13.7c-2,.6-4,.93-5.32,1.21-2.4.15-3.7-.59-3.69-2.19,0-1.81.36-2.92,2-3.35a35.72,35.72,0,0,1,7.38-1.25c.72,0,1.62,1.25,1.48,2.41C134,62.13,133.25,63.11,131.9,63.51ZM106.32,43.87,82.6,45l0-.75,23.73-.69C106.3,43.66,106.31,43.77,106.32,43.87Z"/><path class="cls-2" d="M140.41,77.21c-.67.74-4.4,4.73-4.74,5l-.13.11a12.21,12.21,0,0,1-4.41,2.37c-1.27.45-19.93,4.62-26.64,5.21a65.6,65.6,0,0,1-14.21-.63c-7-1.17-14.19-5.43-15-5.94a3.58,3.58,0,0,0-.68-.74,31.63,31.63,0,0,1-9.45-15.2c-2.4-7.92-.51-15.4,4.58-21.89a27.39,27.39,0,0,1,6.56-5.68c.62-.24,2.7-1,5.88-2a68.14,68.14,0,0,1,7.47-1.49l6.15-.8.34-.63c-1.28-.8-2.47-2-3.87-2.33a47.93,47.93,0,0,0-9.49-1.67c-10.26-.49-20.42.33-30.27,3.5C45.21,36.75,39,40.94,32.81,45.13c-.94.63-1.85,1.3-2.76,2l0,0c-.27.18-6.71,4.53-8.86,6.42L17.8,56.4a48.79,48.79,0,0,0-5.61,5.05c-.18-.45-.42-1.21-.61-1.81s-.42-1.33-.63-1.88c-.29-.78-.6-1.47-.84-2a8,8,0,0,1-.56-1.47c.31-.29,1.61-1.39,2.79-2.38C16.16,48.71,24,42.25,27.53,39.61c4.36-3.22,15.92-11.78,25.81-16.51v0c2.44-1,5.38-2.85,7.82-3.73C73.3,15,84.88,11.23,98.29,12.27l0,.18a4.21,4.21,0,0,1,2.26.79,53.63,53.63,0,0,1,6.56,9.07,66.44,66.44,0,0,0,3.7,6.21,11.93,11.93,0,0,0,0,2.75c.15.9.79,3.33,2,3.77.64.24,5.9-.1,16.72-.92l4.87-.36.16,0a1,1,0,0,1,1.12.43c.12.16.27.37.44.63A12,12,0,0,0,139,38.12l.77.46a3.55,3.55,0,0,1,.71.48.17.17,0,0,1,0,0,1,1,0,0,0,.06.36,6.63,6.63,0,0,0-1.73,0c-10.29,1.08-20.58,2.3-30.9,3.09-8.6.66-17.24,1.1-25.86,1.1-8,0-13.47,6-14.62,13.18A26.88,26.88,0,0,0,68.68,71.1C70.81,76.52,74.49,81,80.76,82c5.38.83,10.82,1.28,16.24,1.73,14.07,1.16,27.59-1.84,41-5.54a5.45,5.45,0,0,0,2.4-1.29l.13.07S140.55,77.06,140.41,77.21Z"/><path class="cls-3" d="M17.69,78.27v-.06c-.07,0-7.13.63-10.37-1.23a2.73,2.73,0,0,1-.39-.54,1.57,1.57,0,0,1-.2-.65c0-.07,0-.14,0-.21a1.28,1.28,0,0,0,0-.16A2.54,2.54,0,0,1,6.89,75a11.9,11.9,0,0,1,1-1.62c.38-.57.81-1.16,1.22-1.79a21.78,21.78,0,0,0,1.21-2,11.89,11.89,0,0,0,.51-1.12l.11-.28,0-.07s0-.06,0-.09l0-.16a4.54,4.54,0,0,0,.14-.64,8.65,8.65,0,0,0-.09-2.51,16.62,16.62,0,0,0-.58-2.3c-.23-.73-.5-1.41-.77-2.05s-.55-1.24-.82-1.78c-.54-1.08-1-2-1.41-2.55s-.6-.93-.6-.93l.45,1c.28.64.67,1.56,1.11,2.68s.92,2.42,1.31,3.85a18.82,18.82,0,0,1,.48,2.21,7.74,7.74,0,0,1,.06,2.26,7.37,7.37,0,0,1-.76,2.11c-.35.68-.72,1.35-1.11,2L7.31,73.08a10.19,10.19,0,0,0-.89,1.79,3,3,0,0,0-.11.47c0,.09,0,.14,0,.26s0,.14,0,.21a2,2,0,0,0,.19.57C4.05,74.12,1,67.08.87,61.76c-.15-6.24,1.45-7,2.62-7.61l.1-.05a14.11,14.11,0,0,1,5-1,1.58,1.58,0,0,1,.67.24l-.37.33c-.41.43-.11,1.12.45,2.38.25.57.54,1.23.82,2,.2.53.41,1.2.61,1.84.67,2.1.85,2.56,1.26,2.65h.11a.49.49,0,0,0,.36-.16S13,61.83,13.82,61a18.39,18.39,0,0,0-.06,3c0,1.07.3,2.29-.13,3.23A6.56,6.56,0,0,1,11.49,70c-1.23.8-2.28,1.82-2.23,3.29a3.08,3.08,0,0,0,2.67,2.8,23.32,23.32,0,0,0,5.67.49A87.82,87.82,0,0,0,43.08,71.4c3.12-1.14,6.25-2.23,9.38-3.35l.17.56A135.77,135.77,0,0,1,17.69,78.27Z"/><path class="cls-4" d="M20.12,69.48a2.6,2.6,0,0,0,1.29,1,7.06,7.06,0,0,0,1.77.39c1.26.12,2.56.12,3.87.11s2.61-.08,3.89-.17,2.54-.21,3.75-.39a31.42,31.42,0,0,0,3.46-.64c1.07-.27,2.11-.61,3.05-.88s1.8-.56,2.57-.79,1.43-.45,2-.64l1.72-.56s-.6.26-1.67.7c-.53.21-1.18.48-1.94.76s-1.59.63-2.53.95-1.92.69-3,1a31.69,31.69,0,0,1-3.5.79,53.48,53.48,0,0,1-7.74.69,33.29,33.29,0,0,1-4-.13,7.74,7.74,0,0,1-2-.46,3.39,3.39,0,0,1-1.64-1.29A3.7,3.7,0,0,1,19,68a8.19,8.19,0,0,1,.2-1.81,23.58,23.58,0,0,0,.79-3,3.93,3.93,0,0,0,0-.67c0-.11,0-.23-.05-.34s0-.22-.07-.32l-.27-1.25-.43-2-.26-1.31-.09-.46.14.45.39,1.28.59,2,.36,1.23c0,.11.06.21.09.34s.05.22.07.35a4.35,4.35,0,0,1,.06.77,20.1,20.1,0,0,1-.67,3.15,7.93,7.93,0,0,0-.12,1.65A3,3,0,0,0,20.12,69.48Z"/><path class="cls-4" d="M35.61,73.11a.84.84,0,0,0-.45-.15,6.71,6.71,0,0,0-1.33,0c-.51,0-1.09.13-1.72.23s-1.31.24-2,.33-1.5.17-2.3.22c-1.6.1-3.3.15-5,.14s-3.41-.1-5-.26a13,13,0,0,1-2.29-.41,2.34,2.34,0,0,1-.54-.23,1.54,1.54,0,0,1-.4-.4,2.28,2.28,0,0,1-.37-1,9,9,0,0,1,0-1.76,1,1,0,0,0-.11-.65.82.82,0,0,0-.54-.17,3.29,3.29,0,0,0-.85.12l-.29.09.29-.11a3,3,0,0,1,.85-.18.9.9,0,0,1,.62.17,1.06,1.06,0,0,1,.19.73,10.3,10.3,0,0,0,.06,1.72,1.51,1.51,0,0,0,1.16,1.36,15.09,15.09,0,0,0,2.24.33c1.58.14,3.28.19,5,.2s3.4,0,5-.08c.8,0,1.56-.07,2.29-.14s1.4-.18,2-.26,1.22-.13,1.74-.15a6.88,6.88,0,0,1,1.35,0,.88.88,0,0,1,.47.19.26.26,0,0,1,0,.35.94.94,0,0,1-.23.21,1,1,0,0,0,.21-.22C35.66,73.35,35.72,73.21,35.61,73.11Z"/><rect class="cls-5" x="81.85" y="37.32" width="13.47" height="5.58" rx="1.5" ry="1.5" transform="translate(-2.81 6.91) rotate(-4.4)"/><rect class="cls-5" x="125.42" y="34.55" width="10.71" height="5.34" rx="1.5" ry="1.5" transform="translate(-2.47 10.14) rotate(-4.4)"/><rect class="cls-5" x="83.13" y="83.2" width="9.95" height="5.11" rx="1.5" ry="1.5" transform="translate(17.37 -14.81) rotate(10.65)"/></g></g></svg>