<svg xmlns="http://www.w3.org/2000/svg" viewBox="0 0 133.34 108.42"><defs><style>.cls-1{fill:#515151;}.cls-2{fill:#454545;}.cls-3{fill:#363636;}.cls-4{fill:#191919;}.cls-5{fill:#0f0f0f;}.cls-6{fill:#575757;}.cls-7{fill:#2d2d2d;}.cls-8{fill:#1d1d1d;}.cls-9{fill:#404040;}.cls-10{fill:#020202;}.cls-11{fill:#636363;}.cls-12,.cls-22{fill:#494949;}.cls-12{stroke:#2a2a2a;stroke-width:1.18px;}.cls-12,.cls-15{stroke-miterlimit:10;}.cls-13{fill:#1c1c1c;}.cls-14{fill:#303030;}.cls-15,.cls-20{fill:none;}.cls-15{stroke:#303030;stroke-width:2.36px;}.cls-16{fill:#2b2b2b;}.cls-17{fill:#2a2a2a;}.cls-18{fill:#727272;}.cls-19{fill:#999;}.cls-21{fill:#282828;}.cls-23{fill:#1e1e1e;}.cls-24{fill:#f2f2f2;}.cls-25{fill:#333;}.cls-26{fill:#848484;}</style></defs><title>ico2of</title><g id="Capa_2" data-name="Capa 2"><g id="objetos"><g id="Layer_2" data-name="Layer 2"><g id="vive"><g id="Layer_29" data-name="Layer 29"><path class="cls-1" d="M10.33,16.73l1.09-1A9.84,9.84,0,0,0,10.33,16.73Zm74.91,9.73a20.3,20.3,0,0,1,2,3.62h.08a2.68,2.68,0,0,1,1.07.24,3.87,3.87,0,0,1,1,.59l2,1.44q-.06-.27-.13-.54a.21.21,0,0,0,0,0l-.08-.31L91,31l-.07-.26-.13-.43-.07-.22L90.67,30q-.15-.41-.34-.84l-.13-.28L90,28.42l-.07-.14-.08-.14-.16-.29-.17-.29-.17-.29L89,26.84,89,26.7c-.15-.23-.31-.46-.47-.69l-2.54.36ZM74.79,17.33l1.44,1.38.15.14a79.16,79.16,0,0,1,6.75,7.29l1.77-.2a54,54,0,0,0-6.44-7.4h0L78,18.17s-.86-.86-2.28-2.17A1.47,1.47,0,0,0,74.79,17.33Zm4.1,1.13.2,0-.2,0a58.19,58.19,0,0,1,6.7,7.41l2.59-.29,1.24-.12h.13l-.07-.08-.16-.2-.05-.06L89,24.76l-.25-.3-.16-.19L88.33,24l-.22-.24-.29-.32-.5-.55-.5-.53-.25-.26-.5-.5-.25-.24c-.61-.6-1.2-1.16-1.75-1.66l-.22-.2-1-.89-.19-.16-.1-.08-.25-.21-.12-.1-.09-.07-.27-.22-.14-.11-.14-.11-.06-.05-.06,0-.08-.06,0,0-.11-.08,0,0,0,0L80.89,17l0,0-.16-.12s-.57-.49-1.54-1.28l-.67.06L77,15.78l-.74.09-.2,0q1.5,1.31,2.81,2.56Zm4.63,8.24a18.25,18.25,0,0,1,2.41,4.45,1.29,1.29,0,0,1,1.29-1.08h.08a2.68,2.68,0,0,1,1.07.24,3.87,3.87,0,0,1,1,.59l2,1.44.12.09,3.14,2.25a41.36,41.36,0,0,0-1.83-4.27l-.15-.3-.1-.19-.05-.1-.17-.31-.15-.26L92,29.09l-.19-.32-.18-.3-.14-.23L91.36,28h0L91,27.49l0-.07-.07-.11L90.74,27l-.23-.32-.28-.39-.16-.21-.24-.32L88.48,26l-2.54.36-.7.1Z"/><path class="cls-2" d="M1.08,60.84c.17,1.49.45,4.43,3.44,5.1,2,.46,10.78.09,10.78.09l18,.14L70.87,47.07l33.37-6.12L92.85,27.18a1.3,1.3,0,0,0,0-1.21A9,9,0,0,0,91,24.13a.79.79,0,0,0-.32-.15,3.42,3.42,0,0,0-.41-.82S74.2,8.44,61.7,3.66A53.49,53.49,0,0,0,38,.19l-1.15,0s-2.23-.45-8.81,2.35-7.36,5.92-7.36,5.92a61.35,61.35,0,0,0-9.29,7.19l18.65,3.23L49.3,26.07l6,10.3L44,46.91,20.8,52.39l-5.5-5.32s-9-10-9.16-18.6a16.87,16.87,0,0,1,4.18-11.74C6.4,20.54,2.78,24.67.84,35.78-1,46.39.72,57.58,1.08,60.84ZM59.77,24.25c-4.59-3.68-15.64-8.09-19.68-9.9S36.7,9.88,37.31,8.91A7,7,0,0,1,39.48,7c5.19,1.09,10.93,3.68,17.75,7.73S72.08,27.21,72.63,27.69s1.75-.6,2.17-.6c.24,0,4.46-.49,8.32-.94a78.62,78.62,0,0,0-6.75-7.29l-.15-.14-1.44-1.38a1.46,1.46,0,0,1,1-1.33C77.19,17.31,78,18.17,78,18.17l.39.37h0a53.76,53.76,0,0,1,6.44,7.4l.7-.08a57.52,57.52,0,0,0-6.69-7.4l.2,0-.2,0q-1.32-1.25-2.81-2.55l.2,0,.74-.09,1.46-.16.67-.06c1,.8,1.54,1.28,1.54,1.28l.16.12,0,0,.24.18,0,0,0,0,.11.08,0,0,.08.06.06,0,.06.05.14.11.14.11.27.22.09.07.12.1.25.21.1.08.19.16,1,.89q1,.9,2,1.86l.25.24.5.5.25.26.5.53.5.55.29.32.22.25.25.29.16.19.25.3.28.34.05.06.16.2.07.08c.87-.05,1.05-.13,1.16-.61l.7.74-1.58.23.24.32.16.21.28.39.23.32.19.27.07.11,0,.07.31.46h0l.17.27.14.23.18.3.19.32.09.16.15.26.17.31.05.1.1.19.15.3a41.36,41.36,0,0,1,1.83,4.26c2.12,1.52,4.13,3,4.42,3.19.63.48.45,2.16.45,2.16l-3.2.49-2.51.37-1.85.25c-.83.11-1.58.2-2.15.25a4.7,4.7,0,0,1-1.11,0l-.09,0a10.38,10.38,0,0,1-2-1.56,1.81,1.81,0,0,1-.54-.75c0-.42-.19-7.35-.14-7.92a18.35,18.35,0,0,0-2.41-4.45c-3.66.51-7.32,1-7.88,1-1.15,0-1.15.42-1.39.91s.06.91.48,1.21a2.6,2.6,0,0,0,1.33.24l10.2,12.74s-3.68-2.05-8.94-5-13-9.84-17.57-13.53Z"/><path class="cls-3" d="M87.31,30.07a3.49,3.49,0,0,1,2,.82s9.06,6.49,9.69,7,.45,2.16.45,2.16-9,1.42-10.61,1.42l-.2,0c-.56-.21-2.58-1.93-2.58-2.35s-.19-7.35-.14-7.92c.1-1.08,1.37-1.08,1.37-1.08h0m0-.84h0a2.73,2.73,0,0,0-1,.2,1.92,1.92,0,0,0-1.25,1.64c0,.39,0,2.67.1,6.47,0,.77,0,1.43,0,1.53,0,.34.1.77,1.37,1.89a8.25,8.25,0,0,0,1.76,1.26,1.37,1.37,0,0,0,.51.07c1.59,0,9.81-1.28,10.74-1.43a.84.84,0,0,0,.71-.74c.05-.51.16-2.21-.78-2.92-.62-.48-9-6.49-9.68-7a4.24,4.24,0,0,0-2.53-1Z"/><path class="cls-4" d="M19.63,22.34S16.3,37.21,17.75,51.62,13,61.12,13,61.12,11.35,45,12.2,37.05s2.15-16,2.15-16Z"/><path class="cls-5" d="M39.48,7S32.37,4.35,27.73,6s-6,1.88-7,2.52-8,5.61-11,8.9A15.31,15.31,0,0,0,6.14,28.46S10.86,24.37,20,23.85s20.25,2.43,23.87,4.62,5,4.71,5,7-.8,4.4-3.9,6.53-14.53,6.72-18.59,7.89a56.7,56.7,0,0,1-7.06,1.58l10.1,9.34L61.58,50l10-3.62L86.47,43l-1.57-1.88-9-4.48-2.81-1.93S61.85,25.49,59.83,24a46,46,0,0,0-7.7-4.77,87.79,87.79,0,0,0-9-3.92c-3.08-1.18-5.06-2.27-5.68-3.35a3.07,3.07,0,0,1-.18-3A6.32,6.32,0,0,1,39.48,7Z"/><path class="cls-6" d="M82.27,43.9s-12.51,1.84-20.35,1.72S42,45.53,36.53,49.4s-10,9.51-8.51,22.79S33.81,91.39,38.64,94s7.61,2.54,10.75,2.78,11.42,0,11.42,0Z"/><path class="cls-7" d="M82.27,43.9S70.15,47,62.3,46.83s-20.29-.12-25.24,3C31.91,53.12,26.56,58.91,28,72.19S33.81,91.39,38.64,94s7.61,2.54,10.75,2.78,11.42,0,11.42,0Z"/><path class="cls-8" d="M73.26,49.13S50.44,50.21,46.34,64.7s-.72,22,2.17,26.2,11.47,7,11.47,7Z"/><path class="cls-9" d="M75.22,49.13S52.4,50.21,48.3,64.7s-.72,22,2.17,26.2,11.47,7,11.47,7Z"/><ellipse class="cls-9" cx="37.7" cy="74.56" rx="7.91" ry="9.92" transform="translate(-11.42 6.98) rotate(-9.19)"/><ellipse class="cls-10" cx="36.12" cy="75.12" rx="6.26" ry="9.62" transform="matrix(0.99, -0.16, 0.16, 0.99, -11.53, 6.73)"/><path class="cls-8" d="M37.66,84.61A4.49,4.49,0,0,0,39.12,84a5.17,5.17,0,0,0,1.18-1,7.74,7.74,0,0,0,1.5-2.72,11.92,11.92,0,0,0,.56-3.07,14.7,14.7,0,0,0-1-6.13,11.91,11.91,0,0,0-1.5-2.73,7.74,7.74,0,0,0-2.28-2.11,5.17,5.17,0,0,0-1.44-.59,4.49,4.49,0,0,0-1.56-.08,4.3,4.3,0,0,1,1.57,0,5.26,5.26,0,0,1,1.48.55A7.85,7.85,0,0,1,40,68.28,11.58,11.58,0,0,1,41.57,71a14.38,14.38,0,0,1,1,6.23A11.58,11.58,0,0,1,42,80.38a7.86,7.86,0,0,1-1.58,2.74,5.26,5.26,0,0,1-1.24,1,4.3,4.3,0,0,1-1.48.51Z"/><path class="cls-5" d="M13,62.28s-4.52-4.46-5.34-5.09-2-1.09-3,.21a12.78,12.78,0,0,0-2.11,4.74c-.06,1-.09,3.14,1.9,3.8s9.15.15,9.15.15L15.3,66,13.91,62.5Z"/><path class="cls-11" d="M1.08,60.84C.72,57.58-1,46.39.84,35.78,3,23.65,7.08,19.85,11.41,15.68c0,0-7.53,6.27-3.81,18.92C9.3,40.38,15,46.72,15,46.72l13.69,13.4-1.37,6L15.3,66,13,62.28S7.86,57,7.24,56.81s-2.17-1.13-3.61,1.71-1.86,4.08-1.59,5a3,3,0,0,0,2.48,2.48A3.49,3.49,0,0,1,1.9,64.29a12.91,12.91,0,0,1-.82-3.45Z"/><path class="cls-12" d="M15.15,46.71h-.86S11.5,60.27,11.5,60.36v.48L18.08,67l6,1.75-.41-13.39Z"/><path class="cls-5" d="M15.59,51.11a40.88,40.88,0,0,0-5.18-4.64A13.48,13.48,0,0,1,9,44.84C8.48,44.3,7.69,43.48,7.24,43a1.51,1.51,0,0,0-2.45.45,7.91,7.91,0,0,0-.94,4.44,6.38,6.38,0,0,0,1.36,4c.57.66,1.66,2,1.66,2S7.45,54.5,8,55.1s2.23,1.81,2.64,2.17,2.74,3.21,2.74,3.21Z"/><path d="M15.59,51.11l-1.27-1.19c-.43-.39-.85-.79-1.29-1.17s-.87-.76-1.32-1.13-.9-.72-1.37-1.05h0a6.46,6.46,0,0,1-.82-.87c-.24-.31-.47-.62-.73-.91L8,43.91,7.24,43c.29.26.57.53.85.8s.55.55.83.83.52.6.76.89a6.72,6.72,0,0,0,.8.82h0c.48.33.95.69,1.39,1.06s.88.76,1.31,1.16.84.81,1.24,1.23c.2.2.4.42.6.64s.39.43.58.65Z"/><path class="cls-13" d="M25.88,76l-9.58-9.1,3-15.44,9.8,8.84-1.37,16.3L25.88,76Z"/><path class="cls-9" d="M30.42,79.44,27,76.78s-.46.22-1.16-.41a1.87,1.87,0,0,1-.29-1.66c.23-.9.44-1.8.61-2.71l2.25-11.76s-.42,0-.42-.18.15-.27-.31-.66S15,47.31,14.42,47s.72-.31.72-.31,3.79,4,4.46,4.67,9.49,8.9,9.49,8.9Z"/><path class="cls-8" d="M28.25,61.68s7.35,5.44,9,7.1,4,6.23,2.09,10.66-4.47,4-5.72,3c-.89-.74-4.57-4-6.62-5.84,0,0-.42.19-1-.34a1.05,1.05,0,0,1-.24-.32,1.28,1.28,0,0,1-.1-.81Z"/><path class="cls-2" d="M133.19,73.4q0,.74-.1,1.45a4,4,0,0,0-1.18,2.89,4.89,4.89,0,0,0,.41,2.33c-3,14.31-12.4,17.11-16.64,18.7-2.05.77-7.25,2.63-13.65,4.52l-.45.13c-8.59,2.51-19.25,5-27.43,5-14.49,0-16.78-9.18-18-12.8a22.6,22.6,0,0,1-.72-3.19,18.79,18.79,0,0,0,.06-3.49,5.6,5.6,0,0,0-.78-2.65,89.77,89.77,0,0,1,0-13.4,4.66,4.66,0,0,0,1.07-2.07,6.78,6.78,0,0,0,.18-.92,7,7,0,0,0,0-1.82,3.55,3.55,0,0,0-.48-1.45l.07-.39a33.75,33.75,0,0,1,1.86-6.5,20,20,0,0,1,6.67-9,20.29,20.29,0,0,0,6.3-1c4-1.15,7-2.84,6.71-3.77-.1-.35-.67-.55-1.56-.58,3.65-1,12.3-2.56,12.3-2.56s22.09-3.62,27.53-2.66l.76.14a5.67,5.67,0,0,0,2.75,1.31,4.84,4.84,0,0,0,3.5-.33l.83.1a12.58,12.58,0,0,1,8.33,8A38.66,38.66,0,0,1,132.87,57a4.33,4.33,0,0,0-.48,2.81,4.81,4.81,0,0,0,.83,2.27c.2,4.54.11,8.9,0,11.37Z"/><path class="cls-8" d="M132.39,59.77a4.81,4.81,0,0,0,.83,2.27c-.07-1.7-.19-3.42-.35-5.08a4.35,4.35,0,0,0-.48,2.81Zm-.08,20.29a43.22,43.22,0,0,0,.76-5.22,4,4,0,0,0-1.18,2.89A4.88,4.88,0,0,0,132.32,80.06ZM116.08,40.33a5.66,5.66,0,0,0,2.75,1.31,4.84,4.84,0,0,0,3.5-.33c-1-.13-3.08-.42-6.25-1ZM64,50.74a20.29,20.29,0,0,0,6.3-1c4-1.15,7-2.84,6.71-3.77-.1-.35-.67-.55-1.56-.58l-.38.1A47.43,47.43,0,0,0,65,50.09c-.25.16-.57.38-.94.65Z"/><path class="cls-14" d="M54.7,86.29c.18,2.37.44,4.47.72,6.14a18.79,18.79,0,0,0,.06-3.49A5.61,5.61,0,0,0,54.7,86.29Zm48.4,15.39a7.91,7.91,0,0,1-1.09,1.6l-.5.15,0,0a6.41,6.41,0,0,0,1.34-1.83Z"/><path class="cls-15" d="M105.29,52.23s3,8,2.62,22.33c-.33,13.13-1.3,16.31-1.3,16.31s-1.6,7-3.61,10.74"/><path class="cls-14" d="M81,106.48c4.83-.48,6.94-3.38,7.43-5s.32-5-2.35-5h-.19a5.42,5.42,0,0,0-2.5.92,16,16,0,0,0-4.68,5c-1,1.79-2.54,4.56,2.29,4.08ZM117.91,97c2.48.36,6.48-3.59,7.08-5.11.76-1.92-.42-5-2.35-4.06a3.07,3.07,0,0,0-.31.17,6,6,0,0,0-1.73,1.59,17,17,0,0,0-1.4,2.24c-1,1.77-2.54,5-1.3,5.19Zm-24.56,7.6a12,12,0,0,1-5.27,1.65c-.21,0,.32-1.19,2.05-2a5.6,5.6,0,0,1,3.21-.78C94,103.6,93.85,104.21,93.35,104.64Zm19.89-5.23c-.71.62-2.58,1.1-4.12,1.65-.21,0,.27-.85,1.33-1.6a4.68,4.68,0,0,1,2.79-1.18C113.93,98.37,113.74,99,113.25,99.41Zm-6.47-8.69c-1.09,0-3.91,1.15-6.14,5.56-2,4-1.43,5.56-.41,6s5.49-.84,7.49-3.32,3-5.68,2.05-7.24A2.8,2.8,0,0,0,106.77,90.72Z"/><path class="cls-5" d="M101,97.83c-.65,1.92-1,3.86,1.45,3.78,2.66-.08,5.46-2.69,6.35-5.09.73-2,.57-4.66-2.29-4A8.94,8.94,0,0,0,101,97.83Z"/><path class="cls-14" d="M113.22,59.55c0,3,1.46,5.47,3.26,5.47s3.62-2.57,3.62-5.59-1.82-5.35-3.62-5.35S113.22,56.53,113.22,59.55Zm-20.94,5c.76,2.92,3.19,4.3,4.55,4.3s3.92-2.15,3.67-5.16-2.8-5.47-5.24-5.46C93.47,58.22,91.41,61.16,92.29,64.54ZM118.7,49.43a9,9,0,0,0,1.8,3.17,8.34,8.34,0,0,0,2.2,1.88,2.16,2.16,0,0,0,1,.33c1.8-.05,2.81-4.41,2-7.31s-3.46-4.42-5.19-3.92-3,1.69-1.81,5.86ZM79.33,57.22c1.73,2.48,5.44,4.82,7.06,4.42s3.17-4.41,2.34-7.31a6.54,6.54,0,0,0-6.1-4.68C80,49.65,74.82,50.78,79.33,57.22Zm46.91,15.1a4.09,4.09,0,0,0,2.25,3.17c1.67.66,3.62-2.57,3.62-5.59s-.91-5.35-2.71-5.35c-1.49,0-2.7,2.67-3.14,4.71a7.18,7.18,0,0,0,0,3.06Zm-41.8,7.47c-.11,2-2.12,6.16-6.39,6.65a5.15,5.15,0,0,1-5.72-4.91c0-3,1.21-5.9,5.36-6.41C82.27,74.56,84.55,77.82,84.44,79.79ZM69.15,90.38c.16,1.52-.89,4.48-3,4.75a3.53,3.53,0,0,1-4.2-3.5c0-1.51.61-3.92,2.66-4.35C67.34,86.71,69,89.4,69.15,90.38Z"/><path class="cls-9" d="M28.25,60.75s-10.1-8.85-10.87-9.49-2.21-.56-2.66,1.17S13,60.44,13,61.12s-.2,3.22,1.65,5,9.56,8.38,9.56,8.38l1,.88Z"/><path class="cls-16" d="M14.69,66.07c-1.85-1.73-1.65-4.27-1.65-5s1.25-7,1.69-8.69,1.89-1.81,2.66-1.17,2.25,2,2.25,2L16.5,67.7Z"/><path class="cls-8" d="M15.93,66.43c-.51-.55-1-1.11-1.49-1.7a4,4,0,0,1-.32-.47,1.84,1.84,0,0,1-.18-.54,6,6,0,0,1-.08-1.13,28.46,28.46,0,0,1,.57-4.48c.26-1.48.58-3,.91-4.42,0-.18.08-.37.13-.55a1.93,1.93,0,0,1,.24-.52.92.92,0,0,1,.44-.37.81.81,0,0,1,.57,0l.13.06.06,0,.06,0,.12.08.11.09c.15.12.28.25.42.38l.41.39c.14.13.27.26.4.4-.13-.14-.27-.26-.41-.39L17.62,53a3.42,3.42,0,0,0-.9-.65.75.75,0,0,0-.53,0,.84.84,0,0,0-.4.35,1.85,1.85,0,0,0-.22.5c-.05.18-.08.36-.12.55-.31,1.47-.6,2.95-.88,4.43a29.55,29.55,0,0,0-.6,4.46A5.88,5.88,0,0,0,14,63.71a1.77,1.77,0,0,0,.16.53,4.13,4.13,0,0,0,.31.47c.45.6.95,1.17,1.44,1.73Zm3.7-13.17-.72.1L16.07,67.31l.43.39,3.13-14.43Z"/><path class="cls-17" d="M27.29,60.57a1.07,1.07,0,0,0,1,.17L25.2,75.33l-1-.88,2.93-13.53a.45.45,0,0,0-.12-.41s-.23-.25.24.06Z"/><path class="cls-3" d="M92.85,27.18,76.07,30s-1.2.17-1.55-.42A1.15,1.15,0,0,1,74.61,28a.94.94,0,0,1,1.22-.33l15.57-2.1-.7-.74a.55.55,0,0,0,0-.43c-.06-.31-.09-.42-.09-.42a6.24,6.24,0,0,1,1.56,1.25c.62.74.63.61.75,1a1.8,1.8,0,0,1-.12,1Z"/><path class="cls-18" d="M13.91,48.52c-.47-.38-.92-.78-1.36-1.2s-.86-.85-1.27-1.3A28,28,0,0,1,9,43.18q-.52-.75-1-1.53T7.17,40q-.4-.82-.73-1.68c-.11-.28-.2-.57-.31-.86L6,37.07c0-.15-.09-.29-.13-.44l-.24-.88c-.08-.29-.15-.59-.22-.88s-.14-.59-.2-.89-.13-.59-.18-.89l-.15-.9c-.05-.3-.08-.6-.13-.9s-.07-.6-.1-.91l0-.45,0-.46a20.28,20.28,0,0,1,.09-3.64c0-.31.09-.6.14-.9s.06-.3.09-.45.06-.3.1-.44a12.86,12.86,0,0,1,.56-1.72c-.08.29-.18.58-.24.87s-.13.59-.19.88,0,.3-.07.44S5,24.83,5,25s-.07.6-.08.89a22.39,22.39,0,0,0,0,3.59A33.12,33.12,0,0,0,5.47,33c.24,1.17.53,2.34.86,3.49,0,.15.08.29.12.43l.13.43c.1.28.19.56.3.84.2.56.45,1.1.7,1.65s.53,1.07.82,1.59.61,1,.93,1.53a32.53,32.53,0,0,0,2.13,2.9c.38.47.78.92,1.18,1.36l.62.66.64.64ZM7.24,55.35a6.52,6.52,0,0,0-1.07-.57A3.08,3.08,0,0,0,5,54.51a1.62,1.62,0,0,0-.53.08,1.39,1.39,0,0,0-.45.26,2.12,2.12,0,0,0-.36.42c-.12.16-.23.32-.34.49-.44.67-.83,1.38-1.22,2.09S1.37,59.28,1,60a16.45,16.45,0,0,1,.82-2.32A15,15,0,0,1,2.95,55.5c.12-.17.23-.35.36-.51a2.44,2.44,0,0,1,.46-.49,1.73,1.73,0,0,1,.61-.32,1.82,1.82,0,0,1,.68-.05,3,3,0,0,1,1.21.43,4.37,4.37,0,0,1,1,.78Z"/><path class="cls-3" d="M72.75,26.06s-.09-.57-1.57-1.9-8-6.89-14.37-11.74C56.05,12,53,10.18,53,10.18s0-1.18.65-1.6A9.11,9.11,0,0,1,57.2,7.5L66.71,6s14.17,7,23.54,17.18c1.84,1.81-17.51,2.9-17.51,2.9Z"/><path class="cls-17" d="M66.72,6,57.2,7.5a9.1,9.1,0,0,0-3.56,1.09c-.7.42-.65,1.6-.65,1.6l3.82,2.23a.56.56,0,0,1,.43-.66c.54-.16,10.5-2,11.47-2.18s3.61-.5,3.61-.5Z"/><path class="cls-19" d="M57.08,11c-.26-.14-.52-.28-.78-.44a4.84,4.84,0,0,1-.72-.53,1.33,1.33,0,0,1-.28-.36.43.43,0,0,1,0-.46,1,1,0,0,1,.37-.28,2.89,2.89,0,0,1,.42-.16,14.53,14.53,0,0,1,1.76-.35l1.77-.29,3.53-.55L65,7.28,66.72,7,65,7.34l-1.77.3-3.53.58-1.77.28a16.49,16.49,0,0,0-1.75.33,2.8,2.8,0,0,0-.41.15.89.89,0,0,0-.34.25.35.35,0,0,0,0,.39,1.29,1.29,0,0,0,.26.35,4.8,4.8,0,0,0,.7.55c.25.16.5.32.77.47Z"/><path class="cls-17" d="M75.44,10.55s-3.89.24-4.86.39a2.81,2.81,0,0,0-1.87,2.35c0,.84,4.86,4.65,5.74,5.4.66.57,4.39-.17,5.9-.56.85-.22,1.29-2.11.53-2.82-1.32-1.23-5.43-4.77-5.43-4.77Z"/><path d="M75.11,18.35a.93.93,0,0,0,.45.27c1.17.32,3.38-.11,4.79-.48.85-.22,1.44-2.22.48-2.6a28.55,28.55,0,0,0-4.55.34,1.53,1.53,0,0,0-1.49,1.55,1.25,1.25,0,0,0,.32.92Z"/><path d="M80.6,15.1a1.67,1.67,0,0,0-.43,0l-.43,0-.87.08-1.74.17-.87.1a3.64,3.64,0,0,0-.85.16,1.74,1.74,0,0,0-.72.45,1.25,1.25,0,0,0-.33.78h0a1.27,1.27,0,0,1,.32-.8,1.79,1.79,0,0,1,.73-.48,3.71,3.71,0,0,1,.86-.19l.87-.11c.58-.07,1.15-.15,1.74-.19l.87,0h.44l.22,0a.79.79,0,0,1,.22,0Z"/><path class="cls-19" d="M53.39,8.79a.07.07,0,0,0-.06.08.25.25,0,0,0,0,.1,1,1,0,0,0,.13.17,3.41,3.41,0,0,0,.31.29c.22.18.45.36.68.52.47.33.95.64,1.43.95s1,.6,1.46.91,1,.65,1.43,1c1.87,1.35,3.66,2.79,5.44,4.26q1.33,1.1,2.64,2.23c.87.75,1.74,1.51,2.6,2.27S71.2,23.08,72,23.86c.21.19.43.39.62.61a3.93,3.93,0,0,1,.51.7,2.37,2.37,0,0,1,.29.82,2,2,0,0,1-.08.86,1.93,1.93,0,0,0,0-.85,2.31,2.31,0,0,0-.32-.78,3.82,3.82,0,0,0-.53-.66c-.2-.2-.42-.38-.64-.57L69.3,21.75l-2.62-2.22c-.88-.74-1.76-1.48-2.64-2.21l-1.33-1.1L62,15.69l-.67-.55c-.89-.73-1.8-1.43-2.71-2.12-.46-.34-.92-.69-1.4-1l-1.43-1c-.47-.33-.94-.66-1.4-1-.23-.18-.45-.36-.66-.56a3.44,3.44,0,0,1-.3-.32A1,1,0,0,1,53.36,9a.26.26,0,0,1,0-.1.08.08,0,0,1,.06-.08Z"/><path class="cls-20" d="M70.09,11.11h0l-.46-.36Z"/><path class="cls-21" d="M60.14,3.57A45,45,0,0,0,42.79,0a45.06,45.06,0,0,1,18.1,3.56,67.75,67.75,0,0,1,11.95,7.16l-.67.05A68.2,68.2,0,0,0,60.14,3.57Z"/><path class="cls-22" d="M54.84,2.66c6.43,1.75,10.63,4.52,15.52,8.1l.24.17h0a1.45,1.45,0,0,0-.48.18l-.48-.35A49.37,49.37,0,0,0,59.37,4.34c-1.56-.66-3.07-1.22-4.53-1.68ZM31.1,1.5,30.57,2l-1,.29L28.26,3.48l-.16.09L30.35,1.5A43.91,43.91,0,0,1,36.94.28C38.06.19,40.11,0,42.79,0c-2.32,0-4.09.2-5.11.28A43.8,43.8,0,0,0,31.1,1.5Z"/><path class="cls-23" d="M72.16,10.78c-.66.05-1.25.11-1.56.16l-.24-.17c-4.89-3.58-9.09-6.35-15.52-8.1-1.38-.38-2.86-.7-4.48-1A48,48,0,0,0,41.74.94a33,33,0,0,0-12.17,2l1-.92.53-.49A43.81,43.81,0,0,1,37.68.28C38.7.2,40.47,0,42.8,0A45,45,0,0,1,60.15,3.56a68.49,68.49,0,0,1,12,7.22Z"/><path class="cls-4" d="M28.26,3.48c.22-.11.65-.32,1.3-.57l-.72.66S33.33,1,41.74.95a48.48,48.48,0,0,1,7.88.73c9.14,1.58,14.06,4.73,20,9.08l.46.36a3,3,0,0,0-1,1.13L68.71,12C62.85,7.53,58,4,48.84,2.46,34.9,0,27.32,4.34,27.32,4.34Z"/><path class="cls-2" d="M41.74.95c-8.41.08-12.9,2.62-12.9,2.62l.72-.66a33.1,33.1,0,0,1,12.18-2Z"/><path class="cls-2" d="M30.57,2l-1,.92c-.65.25-1.09.46-1.3.57l1.31-1.2Zm19.79-.31c1.62.28,3.1.61,4.48,1s3,1,4.53,1.68a49.37,49.37,0,0,1,10.25,6.42c-5.94-4.35-10.85-7.5-20-9.08A48.48,48.48,0,0,0,41.74.95,47.94,47.94,0,0,1,50.36,1.68Z"/><path class="cls-17" d="M78.89,18.46l-.44.09h0l.45-.08Zm.2,0-.2,0Z"/><path class="cls-3" d="M72.75,26.06s.06,1.67-.59,1.17.24.65.84.59a4.17,4.17,0,0,0,1.45-.63l15.35-1.78s1.08.12,1-.87-.4-1.2-.4-1.2L86.73,21Z"/><path class="cls-21" d="M78.47,15.62c.93.76,1.47,1.22,1.47,1.22l.31.27.07.07.09.08.13.12.12.11.2.18,0,0h0l0,0,.15.13.08.07.16.15.17.15.94.9.29.28.1.1.1.1.1.1.11.1.22.22c.37.37.75.76,1.13,1.17l.12.12.23.25.12.13.24.26.12.13.47.53.24.27.12.13.35.41.23.28.12.14.14.17.09.11.23.28.11.14c.19.24.37.47.55.72l.21.29,0,0,.28.39,0,0,.47.69.09.14.28.43.17.29.17.29.16.29.08.14.07.14.21.42.13.28q.19.42.34.84l.06.17.07.22.13.43L91,31l.11.41.08.31a.21.21,0,0,0,0,0l.25.63A38.24,38.24,0,0,1,93.09,38c.36,1.64.55,2.45.66,2.86l2.51-.37a40.46,40.46,0,0,0-1.66-5.83,41.36,41.36,0,0,0-1.83-4.27l-.15-.3-.1-.19-.05-.1-.17-.31-.15-.26L92,29.09l-.19-.32-.18-.3-.14-.23L91.36,28h0L91,27.49l0-.07-.07-.11L90.74,27l-.23-.32-.28-.39-.16-.21-.24-.32-.13-.17-.15-.19-.07-.08-.16-.2-.05-.06L89,24.76l-.25-.3-.16-.19L88.32,24l-.21-.24-.29-.32-.5-.55-.5-.53-.25-.26-.5-.5-.25-.24c-.61-.6-1.2-1.16-1.75-1.66l-.22-.2-1-.89-.19-.16-.1-.08-.25-.21-.12-.1-.09-.07-.27-.22-.14-.11-.14-.11-.06-.05-.06,0-.08-.06,0,0-.11-.08,0,0,0,0L80.89,17l0,0-.16-.12s-.57-.49-1.54-1.28l-.67.07Z"/><path class="cls-23" d="M78.89,18.46l.2,0-.2,0a57.85,57.85,0,0,1,6.7,7.4l.14.19.21.3a25.92,25.92,0,0,1,2.43,3.95,16.24,16.24,0,0,1,1.41,5.6,26.82,26.82,0,0,1,0,5.48c.57-.06,1.32-.15,2.15-.25,0,0,0-.09,0-.14s0-.07,0-.11v-.14c0-.05,0-.1,0-.15a.48.48,0,0,1,0-.09s0-.06,0-.09v-.19a.58.58,0,0,1,0-.1h0q0-.3,0-.66c0-.5,0-1.08,0-1.73h0c0-.17,0-.35,0-.53q0-.64-.1-1.36c0-.07,0-.15,0-.22l0-.44c0-.38-.1-.76-.16-1.16l0-.24,0-.24c-.07-.39-.15-.78-.24-1.19q-.06-.27-.13-.54a.21.21,0,0,0,0,0l-.08-.31L91,31l-.07-.26-.13-.43-.07-.22L90.67,30q-.15-.41-.34-.84l-.13-.28L90,28.41l-.07-.14-.08-.14-.16-.29-.17-.29-.17-.29L89,26.83,89,26.69c-.15-.23-.31-.46-.47-.69l0,0-.28-.39,0,0-.21-.29-.55-.72-.11-.14L87,24.12,87,24l-.14-.17-.12-.14-.23-.28L86.12,23,86,22.88l-.24-.27-.47-.53L85.17,22l-.24-.26-.12-.12-.23-.25-.12-.12c-.39-.41-.77-.8-1.13-1.17l-.22-.22-.11-.1-.1-.1-.1-.1-.1-.1-.29-.29-.94-.9-.17-.15-.16-.15-.08-.07-.15-.13,0,0h0l0,0-.2-.18-.12-.11-.13-.12-.09-.08-.07-.07-.31-.27s-.54-.46-1.47-1.22L77,15.79l-.74.09-.2,0q1.5,1.3,2.81,2.55Z"/><path class="cls-22" d="M90,28.41l.21.42C90.12,28.7,90.05,28.55,90,28.41ZM88.46,26l.49.72Zm-1.07-1.43.55.72C87.76,25,87.57,24.78,87.38,24.54Zm-6.53-6.88,0,0Z"/><path class="cls-4" d="M74.79,17.33l1.44,1.38.15.14a79.16,79.16,0,0,1,6.75,7.29l.35.48,0,.07a18.25,18.25,0,0,1,2.41,4.45,15.25,15.25,0,0,1,.83,6c-.05,1.09-.1,2-.15,2.65a10.38,10.38,0,0,0,2,1.56,29.49,29.49,0,0,0-1-10.41q-.14-.44-.32-.9a20.3,20.3,0,0,0-2-3.62l-.35-.51a54,54,0,0,0-6.44-7.4h0L78,18.17s-.86-.86-2.28-2.17a1.46,1.46,0,0,0-1,1.33ZM20.7,8.49s.72-3.08,7.36-5.92S36.88.22,36.88.22s-4.53.6-6.34,2.11-2.23,1.12-2.78,2a9.84,9.84,0,0,0-.85,1.83Z"/><path class="cls-14" d="M111.45,40a11.4,11.4,0,0,1,4.71,3c1.81,2.23,1.69,5.74-2.35,6.94s-8.51,2.26-8.51,2.26-5.32.52-7.58.58-6.51.36-9.07-1.81-3.52-4-5-5.13a10.08,10.08,0,0,0-3.27-1.57s11.76-2.2,17-2.85S111.45,40,111.45,40Z"/><path class="cls-18" d="M38.89,80.41c1.89-4.43,1-9.06-1.62-11.63-1.67-1.67-9-7.1-9-7.1l.5-.09s7.4,5.3,8.75,6.77a10,10,0,0,1,2.88,6.94,12,12,0,0,1-1.5,5.11Z"/><path class="cls-10" d="M102.51,97.32a1.36,1.36,0,0,0,1.37,1.43,1.85,1.85,0,0,0,1.57-1.89c0-.77-.44-1.89-1.33-1.89S102.47,96,102.51,97.32Z"/><path class="cls-24" d="M103.88,95.37a1.87,1.87,0,0,0-.42.4,3.14,3.14,0,0,0-.33.47,2.17,2.17,0,0,0-.19.56,2.44,2.44,0,0,0,0,.6h0a2.25,2.25,0,0,1-.06-.62,2,2,0,0,1,.13-.62,1.43,1.43,0,0,1,.33-.56.85.85,0,0,1,.6-.26Z"/><ellipse class="cls-25" cx="96.84" cy="66.07" rx="1.41" ry="2.01" transform="translate(-14.51 29.41) rotate(-16.08)"/><ellipse class="cls-25" cx="115.71" cy="62.71" rx="1.24" ry="1.91" transform="translate(-3.92 7.85) rotate(-3.82)"/><path class="cls-25" d="M126.24,72.32h.16c.55,0,1-.75.89-1.6s-.51-1.45-1-1.47a7.18,7.18,0,0,0,0,3.06Z"/><ellipse class="cls-25" cx="85.34" cy="59.6" rx="1.33" ry="1.46" transform="translate(-17.95 46.73) rotate(-27.83)"/><path class="cls-25" d="M120.49,52.6a8.34,8.34,0,0,0,2.2,1.88,1.45,1.45,0,0,0-.16-1.66,1.4,1.4,0,0,0-2-.29Zm.12,37a1.28,1.28,0,0,0,1.1,0,1.36,1.36,0,0,0,.64-1.55,6,6,0,0,0-1.73,1.59Z"/><ellipse class="cls-25" cx="81.76" cy="79.86" rx="1.78" ry="1.58" transform="translate(-30.28 57.28) rotate(-32.93)"/><ellipse class="cls-25" cx="66.26" cy="90.93" rx="1.5" ry="1.32" transform="translate(-38.79 50.63) rotate(-32.93)"/><path class="cls-25" d="M83.64,98.34a1.46,1.46,0,1,0,2.27-1.81,5.42,5.42,0,0,0-2.5.92A1.45,1.45,0,0,0,83.64,98.34Z"/><ellipse class="cls-14" cx="63.66" cy="53.16" rx="3.04" ry="1.45" transform="translate(-17.46 35.87) rotate(-27.83)"/><path class="cls-14" d="M57.57,85.84c1.14-.28,2.24-2.9,2.13-5.32-.11-2.24-1.41-4.65-3.1-4.26-1.12.32-1.58,3.61-1.27,5.35.26,1.47.69,4.61,2.24,4.23Z"/><ellipse class="cls-25" cx="57.65" cy="81.04" rx="1.06" ry="1.69"/><ellipse class="cls-25" cx="63.87" cy="53.52" rx="1.45" ry="1.05" transform="translate(-17.6 36.01) rotate(-27.83)"/><path class="cls-14" d="M66.24,75.8A4.15,4.15,0,0,0,68.69,71a4,4,0,0,0-4.46-3.05c-1.69.39-3,2.64-2.45,4.81S64.7,76.24,66.24,75.8ZM54.65,72.88a4.59,4.59,0,0,0,1-2l0-.07a6.78,6.78,0,0,0,.18-.92c0-.17,0-.34,0-.51a6.66,6.66,0,0,0,0-1.31,3.55,3.55,0,0,0-.48-1.45h0q-.13.74-.24,1.5-.19,1.28-.33,2.57-.12,1.09-.2,2.18Z"/><path class="cls-14" d="M55.23,72.09l-.06.11Zm-.14.23-.07.1Zm.07-.11-.06.11.06-.1Zm.26-.53-.05.12.05-.12Zm-.13.28-.06.11.06-.11Zm.07-.13-.06.12.06-.11ZM56,69v-.31c0,.11,0,.21,0,.31Zm0-.67c0-.09,0-.18,0-.27,0,.09,0,.18,0,.27Zm0,.33c0-.09,0-.17,0-.26,0,.09,0,.17,0,.26Zm-.05,1.21c0-.17,0-.34,0-.51s0-.22,0-.32a7.43,7.43,0,0,1-.06.84Zm-.18.92c0,.14-.08.27-.12.4l.1-.33,0-.07Zm-.24.72-.05.13.05-.12Zm.06-.16-.05.14.05-.14Zm.06-.16-.05.15.05-.15Z"/><circle class="cls-25" cx="66.05" cy="71.74" r="1.45"/><path class="cls-14" d="M132.39,59.77a4.81,4.81,0,0,0,.83,2.27c-.07-1.7-.19-3.42-.35-5.08a4.35,4.35,0,0,0-.48,2.81ZM116.08,40.33a5.66,5.66,0,0,0,2.75,1.31,4.84,4.84,0,0,0,3.5-.33c-1-.13-3.08-.42-6.25-1ZM64,50.74a20.29,20.29,0,0,0,6.3-1c4-1.15,7-2.84,6.71-3.77-.1-.35-.67-.55-1.56-.58l-.38.1A47.43,47.43,0,0,0,65,50.09c-.25.16-.57.38-.94.65Zm68.29,29.32a43.22,43.22,0,0,0,.76-5.22,4,4,0,0,0-1.18,2.89A4.88,4.88,0,0,0,132.32,80.06Z"/><path class="cls-18" d="M56,95.18c-.16-.6-.3-1.21-.42-1.83s-.23-1.23-.34-1.84q-.31-1.85-.54-3.71-.43-3.73-.56-7.48,0-.94,0-1.88c0-.63,0-1.25,0-1.88q0-1.88.16-3.76a50.94,50.94,0,0,1,1.05-7.47q.21-.92.47-1.83c.09-.31.18-.61.27-.91s.19-.6.29-.9a37.4,37.4,0,0,1,1.35-3.53,24.58,24.58,0,0,1,1.8-3.34A13.79,13.79,0,0,1,62,51.91a11.63,11.63,0,0,1,1.54-1.14l.8-.48.19-.12L64.7,50l.22-.13.21-.12c.56-.3,1.13-.56,1.7-.82l1.71-.76q1.72-.73,3.46-1.44l1.74-.7,1.74-.68,0,0c-2.29,1-4.58,2-6.85,3l-1.7.79c-.56.27-1.13.54-1.67.84-.14.08-.27.15-.4.24l-.19.13-.2.13-.79.5a11.28,11.28,0,0,0-1.48,1.13,12.08,12.08,0,0,0-1.28,1.35,15.72,15.72,0,0,0-1.09,1.51,24.14,24.14,0,0,0-1.74,3.3c-.5,1.14-.94,2.31-1.33,3.49-.1.29-.19.59-.28.89s-.18.6-.27.89q-.25.9-.46,1.81a51.22,51.22,0,0,0-1.07,7.39c-.19,2.49-.24,5-.2,7.47s.2,5,.44,7.47c.12,1.24.26,2.48.44,3.71s.38,2.47.65,3.68Z"/><path class="cls-26" d="M105.2,44.6l-3.46.55.1.59,1.44-.23.38,2.28.61-.11-.37-2.27,1.41-.23-.1-.58Zm-5.42.87-1.19.19a1.33,1.33,0,0,0-.59.24l-.18-1.06-.65.1.64,3.87.65-.12-.29-1.76a.6.6,0,0,1,.51-.67l1.19-.19a.59.59,0,0,1,.69.47l.29,1.74.63-.11-.29-1.73a1.21,1.21,0,0,0-1.41-1Zm9.67.69-.12,0-2.06.36a.55.55,0,0,1-.63-.44h0l-.09-.57a.55.55,0,0,1,.46-.63l2.07-.34h.12L109.1,44H109l-2.07.33a1.13,1.13,0,0,0-.95,1.29h0l.09.57a1.13,1.13,0,0,0,1.3.92h0l2.06-.36.12,0Z"/></g></g></g></g></g></svg>