<svg xmlns="http://www.w3.org/2000/svg" viewBox="0 0 136.5 110.69"><defs><style>.cls-1{fill:#00adb5;fill-rule:evenodd;}.cls-2{fill:#515151;}.cls-3{fill:#454545;}.cls-4{fill:#363636;}.cls-5{fill:#191919;}.cls-6{fill:#0f0f0f;}.cls-7{fill:#575757;}.cls-8{fill:#2d2d2d;}.cls-9{fill:#1d1d1d;}.cls-10{fill:#404040;}.cls-11{fill:#020202;}.cls-12{fill:#636363;}.cls-13,.cls-23{fill:#494949;}.cls-13{stroke:#2a2a2a;stroke-width:1.18px;}.cls-13,.cls-16{stroke-miterlimit:10;}.cls-14{fill:#1c1c1c;}.cls-15{fill:#303030;}.cls-16,.cls-21{fill:none;}.cls-16{stroke:#303030;stroke-width:2.36px;}.cls-17{fill:#2b2b2b;}.cls-18{fill:#2a2a2a;}.cls-19{fill:#727272;}.cls-20{fill:#999;}.cls-22{fill:#282828;}.cls-24{fill:#1e1e1e;}.cls-25{fill:#f2f2f2;}.cls-26{fill:#333;}.cls-27{fill:#848484;}</style></defs><title>ico2</title><g id="Capa_2" data-name="Capa 2"><g id="objetos"><path class="cls-1" d="M0,58.56V54.82a2.61,2.61,0,0,0,0-1.34V53a17.7,17.7,0,0,0,.21-2.58A50.67,50.67,0,0,1,6.42,30.88a52.56,52.56,0,0,1,8.46-11.43A53.29,53.29,0,0,1,44.79,3.64a66.64,66.64,0,0,1,12.35-.52A44.45,44.45,0,0,1,69.46,5.19,53.12,53.12,0,0,1,89.07,16,53.73,53.73,0,0,1,107.3,49.41c.17,1.2.05,2.42.26,3.62v.9a2,2,0,0,0,0,1.2v3.59a4,4,0,0,0-.08,1.19v.84a43.77,43.77,0,0,1-2.91,14.63A52.58,52.58,0,0,1,94.06,92.94,53.95,53.95,0,0,1,61.51,110.4c-1.32.19-2.67.06-4,.3h-.45a2,2,0,0,0-1.19,0H52.14a4,4,0,0,0-1.19-.08h-.84a43.31,43.31,0,0,1-14.57-2.83,52.48,52.48,0,0,1-16.42-9.43A53.59,53.59,0,0,1,2.06,72.58a54.55,54.55,0,0,1-1.77-8c-.17-1.2,0-2.42-.29-3.62V60.5c.16-.29,0-.61.08-.91S.16,58.89,0,58.56Z"/><g id="Layer_2" data-name="Layer 2"><g id="vive"><g id="Layer_29" data-name="Layer 29"><path class="cls-2" d="M13.48,16.73l1.09-1A9.84,9.84,0,0,0,13.48,16.73Zm74.91,9.73a20.3,20.3,0,0,1,2,3.62h.08a2.68,2.68,0,0,1,1.07.24,3.87,3.87,0,0,1,1,.59l2,1.44q-.06-.27-.13-.54a.21.21,0,0,0,0,0l-.08-.31L94.16,31l-.07-.26L94,30.36l-.07-.22L93.82,30q-.15-.41-.34-.84l-.13-.28-.21-.42-.07-.14L93,28.14l-.16-.29-.17-.29-.17-.29-.28-.43-.09-.14c-.15-.23-.31-.46-.47-.69l-2.54.36ZM77.94,17.33l1.44,1.38.15.14a79.16,79.16,0,0,1,6.75,7.29l1.77-.2a54,54,0,0,0-6.44-7.4h0l-.39-.37s-.86-.86-2.28-2.17A1.47,1.47,0,0,0,77.94,17.33ZM82,18.46l.2,0-.2,0a58.19,58.19,0,0,1,6.7,7.41l2.59-.29,1.24-.12h.13l-.07-.08-.16-.2-.05-.06-.28-.34-.25-.3-.16-.19L91.48,24l-.22-.24L91,23.41l-.5-.55-.5-.53-.25-.26-.5-.5L89,21.32c-.61-.6-1.2-1.16-1.75-1.66l-.22-.2-1-.89-.19-.16-.1-.08-.25-.21-.12-.1-.09-.07L85,17.73l-.14-.11-.14-.11-.06-.05-.06,0-.08-.06,0,0-.11-.08,0,0,0,0L84,17l0,0-.16-.12s-.57-.49-1.54-1.28l-.67.06-1.46.16-.74.09-.2,0q1.5,1.31,2.81,2.56Zm4.63,8.24a18.25,18.25,0,0,1,2.41,4.45,1.29,1.29,0,0,1,1.29-1.08h.08a2.68,2.68,0,0,1,1.07.24,3.87,3.87,0,0,1,1,.59l2,1.44.12.09,3.14,2.25a41.36,41.36,0,0,0-1.83-4.27l-.15-.3-.1-.19-.05-.1-.17-.31-.15-.26-.09-.16L95,28.76l-.18-.3-.14-.23L94.51,28h0l-.31-.46,0-.07-.07-.11L93.89,27l-.23-.32-.28-.39-.16-.21L93,25.81,91.63,26l-2.54.36-.7.1Z"/><path class="cls-3" d="M4.24,60.84c.17,1.49.45,4.43,3.44,5.1,2,.46,10.78.09,10.78.09l18,.14L74,47.07l33.37-6.12L96,27.18A1.3,1.3,0,0,0,96,26a9,9,0,0,0-1.87-1.84.79.79,0,0,0-.32-.15,3.42,3.42,0,0,0-.41-.82S77.35,8.44,64.86,3.66A53.49,53.49,0,0,0,41.19.19L40,.22s-2.23-.45-8.81,2.35-7.36,5.92-7.36,5.92a61.35,61.35,0,0,0-9.29,7.19l18.65,3.23,19.24,7.16,6,10.3L47.14,46.91,24,52.39l-5.5-5.32s-9-10-9.16-18.6a16.87,16.87,0,0,1,4.18-11.74C9.55,20.54,5.93,24.67,4,35.78,2.15,46.39,3.87,57.58,4.24,60.84ZM62.92,24.25c-4.59-3.68-15.64-8.09-19.68-9.9s-3.38-4.47-2.78-5.43A7,7,0,0,1,42.64,7c5.19,1.09,10.93,3.68,17.75,7.73S75.24,27.21,75.78,27.69s1.75-.6,2.17-.6c.24,0,4.46-.49,8.32-.94a78.62,78.62,0,0,0-6.75-7.29l-.15-.14-1.44-1.38a1.46,1.46,0,0,1,1-1.33c1.42,1.31,2.27,2.17,2.27,2.17l.39.37h0A53.76,53.76,0,0,1,88,25.95l.7-.08A57.52,57.52,0,0,0,82,18.46l.2,0-.2,0q-1.32-1.25-2.81-2.55l.2,0,.74-.09,1.46-.16.67-.06c1,.8,1.54,1.28,1.54,1.28L84,17l0,0,.24.18,0,0,0,0,.11.08,0,0,.08.06.06,0,.06.05.14.11.14.11.27.22.09.07.12.1.25.21.1.08.19.16,1,.89q1,.9,2,1.86l.25.24.5.5.25.26.5.53.5.55.29.32.22.25.25.29.16.19.25.3.28.34.05.06.16.2.07.08c.87-.05,1.05-.13,1.16-.61l.7.74L93,25.82l.24.32.16.21.28.39.23.32.19.27.07.11,0,.07.31.46h0l.17.27.14.23.18.3.19.32.09.16.15.26.17.31.05.1.1.19.15.3a41.36,41.36,0,0,1,1.83,4.26c2.12,1.52,4.13,3,4.42,3.19.63.48.45,2.16.45,2.16l-3.2.49-2.51.37-1.85.25c-.83.11-1.58.2-2.15.25a4.7,4.7,0,0,1-1.11,0l-.09,0a10.38,10.38,0,0,1-2-1.56,1.81,1.81,0,0,1-.54-.75c0-.42-.19-7.35-.14-7.92a18.35,18.35,0,0,0-2.41-4.45c-3.66.51-7.32,1-7.88,1-1.15,0-1.15.42-1.39.91s.06.91.48,1.21a2.6,2.6,0,0,0,1.33.24l10.2,12.74s-3.68-2.05-8.94-5-13-9.84-17.57-13.53Z"/><path class="cls-4" d="M90.47,30.07a3.49,3.49,0,0,1,2,.82s9.06,6.49,9.69,7,.45,2.16.45,2.16-9,1.42-10.61,1.42l-.2,0c-.56-.21-2.58-1.93-2.58-2.35s-.19-7.35-.14-7.92c.1-1.08,1.37-1.08,1.37-1.08h0m0-.84h0a2.73,2.73,0,0,0-1,.2,1.92,1.92,0,0,0-1.25,1.64c0,.39,0,2.67.1,6.47,0,.77,0,1.43,0,1.53,0,.34.1.77,1.37,1.89a8.25,8.25,0,0,0,1.76,1.26,1.37,1.37,0,0,0,.51.07c1.59,0,9.81-1.28,10.74-1.43a.84.84,0,0,0,.71-.74c.05-.51.16-2.21-.78-2.92-.62-.48-9-6.49-9.68-7a4.24,4.24,0,0,0-2.53-1Z"/><path class="cls-5" d="M22.79,22.34S19.45,37.21,20.9,51.62s-4.71,9.5-4.71,9.5S14.5,45,15.35,37.05,17.5,21,17.5,21Z"/><path class="cls-6" d="M42.64,7S35.53,4.35,30.89,6s-6,1.88-7,2.52-8,5.61-11,8.9A15.31,15.31,0,0,0,9.29,28.46S14,24.37,23.15,23.85,43.4,26.28,47,28.46s5,4.71,5,7-.8,4.4-3.9,6.53-14.53,6.72-18.59,7.89a56.7,56.7,0,0,1-7.06,1.58l10.1,9.34L64.73,50l10-3.62L89.63,43l-1.57-1.88L79,36.6,76.2,34.67S65,25.49,63,24a46,46,0,0,0-7.7-4.77,87.79,87.79,0,0,0-9-3.92c-3.08-1.18-5.06-2.27-5.68-3.35a3.07,3.07,0,0,1-.18-3A6.32,6.32,0,0,1,42.64,7Z"/><path class="cls-7" d="M85.42,43.9s-12.51,1.84-20.35,1.72-19.89-.09-25.39,3.77-10,9.51-8.51,22.79S37,91.39,41.79,94s7.61,2.54,10.75,2.78,11.42,0,11.42,0Z"/><path class="cls-8" d="M85.42,43.9s-12.12,3.05-20,2.93-20.29-.12-25.24,3c-5.16,3.27-10.51,9.06-9.06,22.34S37,91.39,41.79,94s7.61,2.54,10.75,2.78,11.42,0,11.42,0Z"/><path class="cls-9" d="M76.42,49.13S53.59,50.21,49.49,64.7s-.72,22,2.17,26.2,11.47,7,11.47,7Z"/><path class="cls-10" d="M78.38,49.13S55.56,50.21,51.45,64.7s-.72,22,2.17,26.2,11.47,7,11.47,7Z"/><ellipse class="cls-10" cx="40.85" cy="74.56" rx="7.91" ry="9.92" transform="translate(-11.38 7.48) rotate(-9.19)"/><ellipse class="cls-11" cx="39.27" cy="75.12" rx="6.26" ry="9.62" transform="matrix(0.99, -0.16, 0.16, 0.99, -11.49, 7.24)"/><path class="cls-9" d="M40.81,84.61A4.49,4.49,0,0,0,42.27,84a5.17,5.17,0,0,0,1.18-1A7.74,7.74,0,0,0,45,80.32a11.92,11.92,0,0,0,.56-3.07,14.7,14.7,0,0,0-1-6.13A11.91,11.91,0,0,0,43,68.39a7.74,7.74,0,0,0-2.28-2.11,5.17,5.17,0,0,0-1.44-.59,4.49,4.49,0,0,0-1.56-.08,4.3,4.3,0,0,1,1.57,0,5.26,5.26,0,0,1,1.48.55,7.85,7.85,0,0,1,2.37,2.1A11.58,11.58,0,0,1,44.73,71a14.38,14.38,0,0,1,1,6.23,11.58,11.58,0,0,1-.61,3.11,7.86,7.86,0,0,1-1.58,2.74,5.26,5.26,0,0,1-1.24,1,4.3,4.3,0,0,1-1.48.51Z"/><path class="cls-6" d="M16.18,62.28s-4.52-4.46-5.34-5.09-2-1.09-3,.21a12.78,12.78,0,0,0-2.11,4.74c-.06,1-.09,3.14,1.9,3.8s9.15.15,9.15.15L18.45,66,17.07,62.5Z"/><path class="cls-12" d="M4.24,60.84C3.87,57.58,2.15,46.39,4,35.78c2.11-12.14,6.24-15.94,10.58-20.11,0,0-7.53,6.27-3.81,18.92,1.7,5.78,7.39,12.12,7.39,12.12l13.69,13.4-1.37,6-12-.09-2.27-3.75S11,57,10.4,56.81s-2.17-1.13-3.61,1.71-1.86,4.08-1.59,5a3,3,0,0,0,2.48,2.48,3.49,3.49,0,0,1-2.62-1.65,12.91,12.91,0,0,1-.82-3.45Z"/><path class="cls-13" d="M18.3,46.71h-.86s-2.79,13.55-2.79,13.64v.48L21.23,67l6,1.75-.41-13.39Z"/><path class="cls-6" d="M18.74,51.11a40.88,40.88,0,0,0-5.18-4.64,13.48,13.48,0,0,1-1.45-1.63c-.48-.54-1.27-1.36-1.72-1.81a1.51,1.51,0,0,0-2.45.45A7.91,7.91,0,0,0,7,47.92a6.38,6.38,0,0,0,1.36,4c.57.66,1.66,2,1.66,2s.57.63,1.15,1.24,2.23,1.81,2.64,2.17,2.74,3.21,2.74,3.21Z"/><path d="M18.74,51.11l-1.27-1.19c-.43-.39-.85-.79-1.29-1.17s-.87-.76-1.32-1.13-.9-.72-1.37-1.05h0a6.46,6.46,0,0,1-.82-.87c-.24-.31-.47-.62-.73-.91l-.77-.88L10.39,43c.29.26.57.53.85.8s.55.55.83.83.52.6.76.89a6.72,6.72,0,0,0,.8.82h0c.48.33.95.69,1.39,1.06s.88.76,1.31,1.16.84.81,1.24,1.23c.2.2.4.42.6.64s.39.43.58.65Z"/><path class="cls-14" d="M29,76l-9.58-9.1,3-15.44,9.8,8.84-1.37,16.3L29,76Z"/><path class="cls-10" d="M33.58,79.44l-3.41-2.66S29.7,77,29,76.37a1.87,1.87,0,0,1-.29-1.66c.23-.9.44-1.8.61-2.71l2.25-11.76s-.42,0-.42-.18.15-.27-.31-.66S18.12,47.31,17.58,47s.72-.31.72-.31,3.79,4,4.46,4.67,9.49,8.9,9.49,8.9Z"/><path class="cls-9" d="M31.41,61.68s7.35,5.44,9,7.1,4,6.23,2.09,10.66-4.47,4-5.72,3c-.89-.74-4.57-4-6.62-5.84,0,0-.42.19-1-.34a1.05,1.05,0,0,1-.24-.32,1.28,1.28,0,0,1-.1-.81Z"/><path class="cls-3" d="M136.34,73.4q0,.74-.1,1.45a4,4,0,0,0-1.18,2.89,4.89,4.89,0,0,0,.41,2.33c-3,14.31-12.4,17.11-16.64,18.7-2.05.77-7.25,2.63-13.65,4.52l-.45.13c-8.59,2.51-19.25,5-27.43,5-14.49,0-16.78-9.18-18-12.8a22.6,22.6,0,0,1-.72-3.19,18.79,18.79,0,0,0,.06-3.49,5.6,5.6,0,0,0-.78-2.65,89.77,89.77,0,0,1,0-13.4,4.66,4.66,0,0,0,1.07-2.07,6.78,6.78,0,0,0,.18-.92,7,7,0,0,0,0-1.82,3.55,3.55,0,0,0-.48-1.45l.07-.39a33.75,33.75,0,0,1,1.86-6.5,20,20,0,0,1,6.67-9,20.29,20.29,0,0,0,6.3-1c4-1.15,7-2.84,6.71-3.77-.1-.35-.67-.55-1.56-.58,3.65-1,12.3-2.56,12.3-2.56s22.09-3.62,27.53-2.66l.76.14A5.67,5.67,0,0,0,122,41.63a4.84,4.84,0,0,0,3.5-.33l.83.1a12.58,12.58,0,0,1,8.33,8A38.66,38.66,0,0,1,136,57a4.33,4.33,0,0,0-.48,2.81,4.81,4.81,0,0,0,.83,2.27c.2,4.54.11,8.9,0,11.37Z"/><path class="cls-9" d="M135.55,59.77a4.81,4.81,0,0,0,.83,2.27c-.07-1.7-.19-3.42-.35-5.08a4.35,4.35,0,0,0-.48,2.81Zm-.08,20.29a43.22,43.22,0,0,0,.76-5.22,4,4,0,0,0-1.18,2.89A4.88,4.88,0,0,0,135.47,80.06ZM119.23,40.33A5.66,5.66,0,0,0,122,41.63a4.84,4.84,0,0,0,3.5-.33c-1-.13-3.08-.42-6.25-1ZM67.18,50.74a20.29,20.29,0,0,0,6.3-1c4-1.15,7-2.84,6.71-3.77-.1-.35-.67-.55-1.56-.58l-.38.1a47.43,47.43,0,0,0-10.14,4.59c-.25.16-.57.38-.94.65Z"/><path class="cls-15" d="M57.86,86.29c.18,2.37.44,4.47.72,6.14a18.79,18.79,0,0,0,.06-3.49A5.61,5.61,0,0,0,57.86,86.29Zm48.4,15.39a7.91,7.91,0,0,1-1.09,1.6l-.5.15,0,0a6.41,6.41,0,0,0,1.34-1.83Z"/><path class="cls-16" d="M108.45,52.23s3,8,2.62,22.33c-.33,13.13-1.3,16.31-1.3,16.31s-1.6,7-3.61,10.74"/><path class="cls-15" d="M84.17,106.48c4.83-.48,6.94-3.38,7.43-5s.32-5-2.35-5h-.19a5.42,5.42,0,0,0-2.5.92,16,16,0,0,0-4.68,5c-1,1.79-2.54,4.56,2.29,4.08ZM121.06,97c2.48.36,6.48-3.59,7.08-5.11.76-1.92-.42-5-2.35-4.06a3.07,3.07,0,0,0-.31.17,6,6,0,0,0-1.73,1.59,17,17,0,0,0-1.4,2.24c-1,1.77-2.54,5-1.3,5.19Zm-24.56,7.6a12,12,0,0,1-5.27,1.65c-.21,0,.32-1.19,2.05-2a5.6,5.6,0,0,1,3.21-.78C97.19,103.6,97,104.21,96.51,104.64Zm19.89-5.23c-.71.62-2.58,1.1-4.12,1.65-.21,0,.27-.85,1.33-1.6a4.68,4.68,0,0,1,2.79-1.18C117.08,98.37,116.9,99,116.4,99.41Zm-6.47-8.69c-1.09,0-3.91,1.15-6.14,5.56-2,4-1.43,5.56-.41,6s5.49-.84,7.49-3.32,3-5.68,2.05-7.24A2.8,2.8,0,0,0,109.93,90.72Z"/><path class="cls-6" d="M104.14,97.83c-.65,1.92-1,3.86,1.45,3.78,2.66-.08,5.46-2.69,6.35-5.09.73-2,.57-4.66-2.29-4a8.94,8.94,0,0,0-5.51,5.29Z"/><path class="cls-15" d="M116.38,59.55c0,3,1.46,5.47,3.26,5.47s3.62-2.57,3.62-5.59-1.82-5.35-3.62-5.35S116.38,56.53,116.38,59.55Zm-20.94,5c.76,2.92,3.19,4.3,4.55,4.3s3.92-2.15,3.67-5.16-2.8-5.47-5.24-5.46C96.62,58.22,94.56,61.16,95.44,64.54Zm26.41-15.12a9,9,0,0,0,1.8,3.17,8.34,8.34,0,0,0,2.2,1.88,2.16,2.16,0,0,0,1,.33c1.8-.05,2.81-4.41,2-7.31s-3.46-4.42-5.19-3.92-3,1.69-1.81,5.86ZM82.48,57.22c1.73,2.48,5.44,4.82,7.06,4.42s3.17-4.41,2.34-7.31a6.54,6.54,0,0,0-6.1-4.68C83.12,49.65,78,50.78,82.48,57.22Zm46.91,15.1a4.09,4.09,0,0,0,2.25,3.17c1.67.66,3.62-2.57,3.62-5.59s-.91-5.35-2.71-5.35c-1.49,0-2.7,2.67-3.14,4.71a7.18,7.18,0,0,0,0,3.06Zm-41.8,7.47c-.11,2-2.12,6.16-6.39,6.65a5.15,5.15,0,0,1-5.72-4.91c0-3,1.21-5.9,5.36-6.41C85.42,74.56,87.7,77.82,87.59,79.79ZM72.3,90.38c.16,1.52-.89,4.48-3,4.75a3.53,3.53,0,0,1-4.2-3.5c0-1.51.61-3.92,2.66-4.35C70.5,86.71,72.19,89.4,72.3,90.38Z"/><path class="cls-10" d="M31.41,60.75S21.3,51.9,20.54,51.26s-2.21-.56-2.66,1.17-1.69,8-1.69,8.69-.2,3.22,1.65,5,9.56,8.38,9.56,8.38l1,.88Z"/><path class="cls-17" d="M17.84,66.07c-1.85-1.73-1.65-4.27-1.65-5s1.25-7,1.69-8.69,1.89-1.81,2.66-1.17,2.25,2,2.25,2L19.65,67.7Z"/><path class="cls-9" d="M19.09,66.43c-.51-.55-1-1.11-1.49-1.7a4,4,0,0,1-.32-.47,1.84,1.84,0,0,1-.18-.54A6,6,0,0,1,17,62.59a28.46,28.46,0,0,1,.57-4.48c.26-1.48.58-3,.91-4.42,0-.18.08-.37.13-.55a1.93,1.93,0,0,1,.24-.52.92.92,0,0,1,.44-.37.81.81,0,0,1,.57,0l.13.06.06,0,.06,0,.12.08.11.09c.15.12.28.25.42.38l.41.39c.14.13.27.26.4.4-.13-.14-.27-.26-.41-.39L20.77,53a3.42,3.42,0,0,0-.9-.65.75.75,0,0,0-.53,0,.84.84,0,0,0-.4.35,1.85,1.85,0,0,0-.22.5c-.05.18-.08.36-.12.55-.31,1.47-.6,2.95-.88,4.43a29.55,29.55,0,0,0-.6,4.46,5.88,5.88,0,0,0,.06,1.12,1.77,1.77,0,0,0,.16.53,4.13,4.13,0,0,0,.31.47c.45.6.95,1.17,1.44,1.73Zm3.7-13.17-.72.1L19.22,67.31l.43.39,3.13-14.43Z"/><path class="cls-18" d="M30.45,60.57a1.07,1.07,0,0,0,1,.17L28.36,75.33l-1-.88,2.93-13.53a.45.45,0,0,0-.12-.41s-.23-.25.24.06Z"/><path class="cls-4" d="M96,27.18,79.22,30s-1.2.17-1.55-.42A1.15,1.15,0,0,1,77.77,28,.94.94,0,0,1,79,27.68l15.57-2.1-.7-.74a.55.55,0,0,0,0-.43c-.06-.31-.09-.42-.09-.42a6.24,6.24,0,0,1,1.56,1.25c.62.74.63.61.75,1a1.8,1.8,0,0,1-.12,1Z"/><path class="cls-19" d="M17.07,48.52c-.47-.38-.92-.78-1.36-1.2s-.86-.85-1.27-1.3a28,28,0,0,1-2.27-2.84q-.52-.75-1-1.53T10.32,40q-.4-.82-.73-1.68c-.11-.28-.2-.57-.31-.86l-.14-.44c0-.15-.09-.29-.13-.44l-.24-.88c-.08-.29-.15-.59-.22-.88s-.14-.59-.2-.89-.13-.59-.18-.89L8,32.2c-.05-.3-.08-.6-.13-.9s-.07-.6-.1-.91l0-.45,0-.46a20.28,20.28,0,0,1,.09-3.64c0-.31.09-.6.14-.9s.06-.3.09-.45.06-.3.1-.44a12.86,12.86,0,0,1,.56-1.72c-.08.29-.18.58-.24.87s-.13.59-.19.88,0,.3-.07.44-.05.3-.06.44-.07.6-.08.89a22.39,22.39,0,0,0,0,3.59A33.12,33.12,0,0,0,8.62,33c.24,1.17.53,2.34.86,3.49,0,.15.08.29.12.43l.13.43c.1.28.19.56.3.84.2.56.45,1.1.7,1.65s.53,1.07.82,1.59.61,1,.93,1.53a32.53,32.53,0,0,0,2.13,2.9c.38.47.78.92,1.18,1.36l.62.66.64.64Zm-6.67,6.82a6.52,6.52,0,0,0-1.07-.57,3.08,3.08,0,0,0-1.13-.27,1.62,1.62,0,0,0-.53.08,1.39,1.39,0,0,0-.45.26,2.12,2.12,0,0,0-.36.42c-.12.16-.23.32-.34.49-.44.67-.83,1.38-1.22,2.09S4.53,59.28,4.13,60A16.45,16.45,0,0,1,5,57.69,15,15,0,0,1,6.1,55.5c.12-.17.23-.35.36-.51a2.44,2.44,0,0,1,.46-.49,1.73,1.73,0,0,1,.61-.32,1.82,1.82,0,0,1,.68-.05,3,3,0,0,1,1.21.43,4.37,4.37,0,0,1,1,.78Z"/><path class="cls-4" d="M75.9,26.06s-.09-.57-1.57-1.9-8-6.89-14.37-11.74c-.75-.42-3.82-2.23-3.82-2.23s0-1.18.65-1.6A9.11,9.11,0,0,1,60.36,7.5L69.87,6S84,13,93.41,23.16c1.84,1.81-17.51,2.9-17.51,2.9Z"/><path class="cls-18" d="M69.87,6,60.36,7.5a9.1,9.1,0,0,0-3.56,1.09c-.7.42-.65,1.6-.65,1.6L60,12.42a.56.56,0,0,1,.43-.66c.54-.16,10.5-2,11.47-2.18s3.61-.5,3.61-.5Z"/><path class="cls-20" d="M60.23,11c-.26-.14-.52-.28-.78-.44a4.84,4.84,0,0,1-.72-.53,1.33,1.33,0,0,1-.28-.36.43.43,0,0,1,0-.46,1,1,0,0,1,.37-.28,2.89,2.89,0,0,1,.42-.16A14.53,14.53,0,0,1,61,8.39L62.8,8.1l3.53-.55,1.77-.27L69.88,7l-1.76.31-1.77.3-3.53.58L61,8.5a16.49,16.49,0,0,0-1.75.33,2.8,2.8,0,0,0-.41.15.89.89,0,0,0-.34.25.35.35,0,0,0,0,.39,1.29,1.29,0,0,0,.26.35,4.8,4.8,0,0,0,.7.55c.25.16.5.32.77.47Z"/><path class="cls-18" d="M78.59,10.55s-3.89.24-4.86.39a2.81,2.81,0,0,0-1.87,2.35c0,.84,4.86,4.65,5.74,5.4.66.57,4.39-.17,5.9-.56.85-.22,1.29-2.11.53-2.82-1.32-1.23-5.43-4.77-5.43-4.77Z"/><path d="M78.26,18.35a.93.93,0,0,0,.45.27c1.17.32,3.38-.11,4.79-.48.85-.22,1.44-2.22.48-2.6a28.55,28.55,0,0,0-4.55.34,1.53,1.53,0,0,0-1.49,1.55,1.25,1.25,0,0,0,.32.92Z"/><path d="M83.75,15.1a1.67,1.67,0,0,0-.43,0l-.43,0-.87.08-1.74.17-.87.1a3.64,3.64,0,0,0-.85.16,1.74,1.74,0,0,0-.72.45,1.25,1.25,0,0,0-.33.78h0a1.27,1.27,0,0,1,.32-.8,1.79,1.79,0,0,1,.73-.48,3.71,3.71,0,0,1,.86-.19l.87-.11c.58-.07,1.15-.15,1.74-.19l.87,0h.44l.22,0a.79.79,0,0,1,.22,0Z"/><path class="cls-20" d="M56.55,8.79a.07.07,0,0,0-.06.08.25.25,0,0,0,0,.1,1,1,0,0,0,.13.17,3.41,3.41,0,0,0,.31.29c.22.18.45.36.68.52.47.33.95.64,1.43.95s1,.6,1.46.91,1,.65,1.43,1c1.87,1.35,3.66,2.79,5.44,4.26q1.33,1.1,2.64,2.23c.87.75,1.74,1.51,2.6,2.27s1.71,1.53,2.56,2.31c.21.19.43.39.62.61a3.93,3.93,0,0,1,.51.7,2.37,2.37,0,0,1,.29.82,2,2,0,0,1-.08.86,1.93,1.93,0,0,0,0-.85,2.31,2.31,0,0,0-.32-.78,3.82,3.82,0,0,0-.53-.66c-.2-.2-.42-.38-.64-.57l-2.63-2.23-2.62-2.22c-.88-.74-1.76-1.48-2.64-2.21l-1.33-1.1-.67-.55-.67-.55c-.89-.73-1.8-1.43-2.71-2.12-.46-.34-.92-.69-1.4-1l-1.43-1c-.47-.33-.94-.66-1.4-1-.23-.18-.45-.36-.66-.56a3.44,3.44,0,0,1-.3-.32A1,1,0,0,1,56.51,9a.26.26,0,0,1,0-.1.08.08,0,0,1,.06-.08Z"/><path class="cls-21" d="M73.25,11.11h0l-.46-.36Z"/><path class="cls-22" d="M63.3,3.57A45,45,0,0,0,45.95,0,45.06,45.06,0,0,1,64,3.56,67.75,67.75,0,0,1,76,10.72l-.67.05A68.2,68.2,0,0,0,63.3,3.57Z"/><path class="cls-23" d="M58,2.66c6.43,1.75,10.63,4.52,15.52,8.1l.24.17h0a1.45,1.45,0,0,0-.48.18l-.48-.35A49.37,49.37,0,0,0,62.52,4.34C61,3.68,59.45,3.12,58,2.66ZM34.26,1.5,33.73,2l-1,.29L31.42,3.48l-.16.09L33.51,1.5A43.91,43.91,0,0,1,40.09.28C41.22.19,43.26,0,45.95,0c-2.32,0-4.09.2-5.11.28A43.8,43.8,0,0,0,34.26,1.5Z"/><path class="cls-24" d="M75.32,10.78c-.66.05-1.25.11-1.56.16l-.24-.17C68.63,7.18,64.43,4.41,58,2.66c-1.38-.38-2.86-.7-4.48-1A48,48,0,0,0,44.9.94a33,33,0,0,0-12.17,2l1-.92.53-.49A43.81,43.81,0,0,1,40.84.28C41.85.2,43.63,0,46,0A45,45,0,0,1,63.3,3.56a68.49,68.49,0,0,1,12,7.22Z"/><path class="cls-5" d="M31.42,3.48c.22-.11.65-.32,1.3-.57L32,3.57S36.48,1,44.9.95a48.48,48.48,0,0,1,7.88.73c9.14,1.58,14.06,4.73,20,9.08l.46.36a3,3,0,0,0-1,1.13L71.86,12C66,7.53,61.14,4,52,2.46,38,0,30.48,4.34,30.48,4.34Z"/><path class="cls-3" d="M44.9.95C36.48,1,32,3.57,32,3.57l.72-.66A33.1,33.1,0,0,1,44.9.95Z"/><path class="cls-3" d="M33.73,2l-1,.92c-.65.25-1.09.46-1.3.57l1.31-1.2Zm19.79-.31c1.62.28,3.1.61,4.48,1s3,1,4.53,1.68a49.37,49.37,0,0,1,10.25,6.42c-5.94-4.35-10.85-7.5-20-9.08A48.48,48.48,0,0,0,44.89.95,47.94,47.94,0,0,1,53.52,1.68Z"/><path class="cls-18" d="M82,18.46l-.44.09h0l.45-.08Zm.2,0-.2,0Z"/><path class="cls-4" d="M75.9,26.06s.06,1.67-.59,1.17.24.65.84.59a4.17,4.17,0,0,0,1.45-.63L93,25.41s1.08.12,1-.87-.4-1.2-.4-1.2L89.88,21Z"/><path class="cls-22" d="M81.62,15.62c.93.76,1.47,1.22,1.47,1.22l.31.27.07.07.09.08.13.12.12.11.2.18,0,0h0l0,0,.15.13.08.07.16.15.17.15.94.9.29.28.1.1.1.1.1.1.11.1.22.22c.37.37.75.76,1.13,1.17l.12.12.23.25.12.13.24.26.12.13.47.53.24.27.12.13.35.41.23.28.12.14.14.17.09.11.23.28.11.14c.19.24.37.47.55.72l.21.29,0,0,.28.39,0,0,.47.69.09.14.28.43.17.29.17.29.16.29.08.14.07.14.21.42.13.28q.19.42.34.84l.06.17.07.22.13.43.07.26.11.41.08.31a.21.21,0,0,0,0,0l.25.63A38.24,38.24,0,0,1,96.24,38c.36,1.64.55,2.45.66,2.86l2.51-.37a40.46,40.46,0,0,0-1.66-5.83,41.36,41.36,0,0,0-1.83-4.27l-.15-.3-.1-.19-.05-.1-.17-.31-.15-.26-.09-.16L95,28.76l-.18-.3-.14-.23L94.51,28h0l-.31-.46,0-.07-.07-.11L93.89,27l-.23-.32-.28-.39-.16-.21L93,25.81l-.13-.17-.15-.19-.07-.08-.16-.2-.05-.06-.28-.34-.25-.3-.16-.19L91.48,24l-.21-.24L91,23.41l-.5-.55-.5-.53-.25-.26-.5-.5L89,21.32c-.61-.6-1.2-1.16-1.75-1.66l-.22-.2-1-.89-.19-.16-.1-.08-.25-.21-.12-.1-.09-.07L85,17.73l-.14-.11-.14-.11-.06-.05-.06,0-.08-.06,0,0-.11-.08,0,0,0,0L84,17l0,0-.16-.12s-.57-.49-1.54-1.28l-.67.07Z"/><path class="cls-24" d="M82,18.46l.2,0-.2,0a57.85,57.85,0,0,1,6.7,7.4l.14.19.21.3a25.92,25.92,0,0,1,2.43,3.95,16.24,16.24,0,0,1,1.41,5.6,26.82,26.82,0,0,1,0,5.48c.57-.06,1.32-.15,2.15-.25,0,0,0-.09,0-.14s0-.07,0-.11v-.14c0-.05,0-.1,0-.15a.48.48,0,0,1,0-.09s0-.06,0-.09v-.19a.58.58,0,0,1,0-.1h0q0-.3,0-.66c0-.5,0-1.08,0-1.73h0c0-.17,0-.35,0-.53q0-.64-.1-1.36c0-.07,0-.15,0-.22l0-.44c0-.38-.1-.76-.16-1.16l0-.24,0-.24c-.07-.39-.15-.78-.24-1.19q-.06-.27-.13-.54a.21.21,0,0,0,0,0l-.08-.31L94.16,31l-.07-.26L94,30.35l-.07-.22L93.82,30q-.15-.41-.34-.84l-.13-.28-.21-.42-.07-.14L93,28.13l-.16-.29-.17-.29-.17-.29-.28-.43-.09-.14c-.15-.23-.31-.46-.47-.69l0,0-.28-.39,0,0-.21-.29-.55-.72-.11-.14-.23-.27L90.11,24,90,23.84l-.12-.14-.23-.28L89.27,23l-.12-.13-.24-.27-.47-.53L88.33,22l-.24-.26L88,21.58l-.23-.25-.12-.12c-.39-.41-.77-.8-1.13-1.17l-.22-.22-.11-.1-.1-.1-.1-.1-.1-.1-.29-.29-.94-.9-.17-.15-.16-.15-.08-.07-.15-.13,0,0h0l0,0-.2-.18-.12-.11-.13-.12-.09-.08-.07-.07-.31-.27s-.54-.46-1.47-1.22l-1.46.16-.74.09-.2,0q1.5,1.3,2.81,2.55Z"/><path class="cls-23" d="M93.13,28.41l.21.42C93.28,28.7,93.21,28.55,93.13,28.41ZM91.61,26l.49.72Zm-1.07-1.43.55.72C90.92,25,90.73,24.78,90.54,24.54ZM84,17.66l0,0Z"/><path class="cls-5" d="M77.94,17.33l1.44,1.38.15.14a79.16,79.16,0,0,1,6.75,7.29l.35.48,0,.07a18.25,18.25,0,0,1,2.41,4.45,15.25,15.25,0,0,1,.83,6c-.05,1.09-.1,2-.15,2.65a10.38,10.38,0,0,0,2,1.56A29.49,29.49,0,0,0,90.7,31q-.14-.44-.32-.9a20.3,20.3,0,0,0-2-3.62L88,25.95a54,54,0,0,0-6.44-7.4h0l-.39-.37s-.86-.86-2.28-2.17a1.46,1.46,0,0,0-1,1.33ZM23.86,8.49s.72-3.08,7.36-5.92S40,.22,40,.22s-4.53.6-6.34,2.11-2.23,1.12-2.78,2a9.84,9.84,0,0,0-.85,1.83Z"/><path class="cls-15" d="M114.6,40a11.4,11.4,0,0,1,4.71,3C121.12,45.26,121,48.76,117,50s-8.51,2.26-8.51,2.26-5.32.52-7.58.58-6.51.36-9.07-1.81-3.52-4-5-5.13a10.08,10.08,0,0,0-3.27-1.57s11.76-2.2,17-2.85S114.6,40,114.6,40Z"/><path class="cls-19" d="M42,80.41c1.89-4.43,1-9.06-1.62-11.63-1.67-1.67-9-7.1-9-7.1l.5-.09s7.4,5.3,8.75,6.77a10,10,0,0,1,2.88,6.94A12,12,0,0,1,42,80.41Z"/><path class="cls-11" d="M105.67,97.32A1.36,1.36,0,0,0,107,98.75a1.85,1.85,0,0,0,1.57-1.89c0-.77-.44-1.89-1.33-1.89S105.62,96,105.67,97.32Z"/><path class="cls-25" d="M107,95.37a1.87,1.87,0,0,0-.42.4,3.14,3.14,0,0,0-.33.47,2.17,2.17,0,0,0-.19.56,2.44,2.44,0,0,0,0,.6h0a2.25,2.25,0,0,1-.06-.62,2,2,0,0,1,.13-.62,1.43,1.43,0,0,1,.33-.56.85.85,0,0,1,.6-.26Z"/><ellipse class="cls-26" cx="99.99" cy="66.07" rx="1.41" ry="2.01" transform="translate(-14.39 30.28) rotate(-16.08)"/><ellipse class="cls-26" cx="118.87" cy="62.71" rx="1.24" ry="1.91" transform="translate(-3.91 8.06) rotate(-3.82)"/><path class="cls-26" d="M129.39,72.32h.16c.55,0,1-.75.89-1.6s-.51-1.45-1-1.47a7.18,7.18,0,0,0,0,3.06Z"/><ellipse class="cls-26" cx="88.49" cy="59.6" rx="1.33" ry="1.46" transform="translate(-17.59 48.21) rotate(-27.83)"/><path class="cls-26" d="M123.65,52.6a8.34,8.34,0,0,0,2.2,1.88,1.45,1.45,0,0,0-.16-1.66,1.4,1.4,0,0,0-2-.29Zm.12,37a1.28,1.28,0,0,0,1.1,0,1.36,1.36,0,0,0,.64-1.55,6,6,0,0,0-1.73,1.59Z"/><ellipse class="cls-26" cx="84.91" cy="79.86" rx="1.78" ry="1.58" transform="translate(-29.77 58.99) rotate(-32.93)"/><ellipse class="cls-26" cx="69.42" cy="90.93" rx="1.5" ry="1.32" transform="translate(-38.28 52.35) rotate(-32.93)"/><path class="cls-26" d="M86.79,98.34a1.46,1.46,0,1,0,2.27-1.81,5.42,5.42,0,0,0-2.5.92A1.45,1.45,0,0,0,86.79,98.34Z"/><ellipse class="cls-15" cx="66.81" cy="53.16" rx="3.04" ry="1.45" transform="translate(-17.09 37.34) rotate(-27.83)"/><path class="cls-15" d="M60.72,85.84c1.14-.28,2.24-2.9,2.13-5.32-.11-2.24-1.41-4.65-3.1-4.26-1.12.32-1.58,3.61-1.27,5.35.26,1.47.69,4.61,2.24,4.23Z"/><ellipse class="cls-26" cx="60.81" cy="81.04" rx="1.06" ry="1.69"/><ellipse class="cls-26" cx="67.03" cy="53.52" rx="1.45" ry="1.05" transform="translate(-17.23 37.48) rotate(-27.83)"/><path class="cls-15" d="M69.39,75.8A4.15,4.15,0,0,0,71.85,71a4,4,0,0,0-4.46-3.05c-1.69.39-3,2.64-2.45,4.81S67.85,76.24,69.39,75.8ZM57.81,72.88a4.59,4.59,0,0,0,1-2l0-.07a6.78,6.78,0,0,0,.18-.92c0-.17,0-.34,0-.51a6.66,6.66,0,0,0,0-1.31,3.55,3.55,0,0,0-.48-1.45h0q-.13.74-.24,1.5-.19,1.28-.33,2.57-.12,1.09-.2,2.18Z"/><path class="cls-15" d="M58.38,72.09l-.06.11Zm-.14.23-.07.1Zm.07-.11-.06.11.06-.1Zm.26-.53-.05.12.05-.12Zm-.13.28-.06.11.06-.11Zm.07-.13-.06.12.06-.11Zm.6-2.81v-.31c0,.11,0,.21,0,.31Zm0-.67c0-.09,0-.18,0-.27,0,.09,0,.18,0,.27Zm0,.33c0-.09,0-.17,0-.26,0,.09,0,.17,0,.26Zm-.05,1.21c0-.17,0-.34,0-.51s0-.22,0-.32a7.43,7.43,0,0,1-.06.84Zm-.18.92c0,.14-.08.27-.12.4l.1-.33,0-.07Zm-.24.72-.05.13.05-.12Zm.06-.16-.05.14.05-.14Zm.06-.16-.05.15.05-.15Z"/><circle class="cls-26" cx="69.2" cy="71.74" r="1.45"/><path class="cls-15" d="M135.55,59.77a4.81,4.81,0,0,0,.83,2.27c-.07-1.7-.19-3.42-.35-5.08a4.35,4.35,0,0,0-.48,2.81ZM119.23,40.33A5.66,5.66,0,0,0,122,41.63a4.84,4.84,0,0,0,3.5-.33c-1-.13-3.08-.42-6.25-1ZM67.18,50.74a20.29,20.29,0,0,0,6.3-1c4-1.15,7-2.84,6.71-3.77-.1-.35-.67-.55-1.56-.58l-.38.1a47.43,47.43,0,0,0-10.14,4.59c-.25.16-.57.38-.94.65Zm68.29,29.32a43.22,43.22,0,0,0,.76-5.22,4,4,0,0,0-1.18,2.89A4.88,4.88,0,0,0,135.47,80.06Z"/><path class="cls-19" d="M59.14,95.18c-.16-.6-.3-1.21-.42-1.83s-.23-1.23-.34-1.84q-.31-1.85-.54-3.71-.43-3.73-.56-7.48,0-.94,0-1.88c0-.63,0-1.25,0-1.88q0-1.88.16-3.76a50.94,50.94,0,0,1,1.05-7.47q.21-.92.47-1.83c.09-.31.18-.61.27-.91s.19-.6.29-.9a37.4,37.4,0,0,1,1.35-3.53,24.58,24.58,0,0,1,1.8-3.34,13.79,13.79,0,0,1,2.48-2.92,11.63,11.63,0,0,1,1.54-1.14l.8-.48.19-.12.19-.13.22-.13.21-.12c.56-.3,1.13-.56,1.7-.82l1.71-.76q1.72-.73,3.46-1.44l1.74-.7,1.74-.68,0,0c-2.29,1-4.58,2-6.85,3l-1.7.79c-.56.27-1.13.54-1.67.84-.14.08-.27.15-.4.24l-.19.13-.2.13-.79.5a11.28,11.28,0,0,0-1.48,1.13,12.08,12.08,0,0,0-1.28,1.35A15.72,15.72,0,0,0,63,55.06a24.14,24.14,0,0,0-1.74,3.3c-.5,1.14-.94,2.31-1.33,3.49-.1.29-.19.59-.28.89s-.18.6-.27.89q-.25.9-.46,1.81a51.22,51.22,0,0,0-1.07,7.39c-.19,2.49-.24,5-.2,7.47s.2,5,.44,7.47c.12,1.24.26,2.48.44,3.71s.38,2.47.65,3.68Z"/><path class="cls-27" d="M108.36,44.6l-3.46.55.1.59,1.44-.23.38,2.28.61-.11L107,45.41l1.41-.23-.1-.58Zm-5.42.87-1.19.19a1.33,1.33,0,0,0-.59.24L101,44.84l-.65.1.64,3.87.65-.12-.29-1.76a.6.6,0,0,1,.51-.67l1.19-.19a.59.59,0,0,1,.69.47l.29,1.74.63-.11-.29-1.73a1.21,1.21,0,0,0-1.41-1Zm9.67.69-.12,0-2.06.36a.55.55,0,0,1-.63-.44h0l-.09-.57a.55.55,0,0,1,.46-.63l2.07-.34h.12l-.09-.57h-.12l-2.07.33a1.13,1.13,0,0,0-.95,1.29h0l.09.57a1.13,1.13,0,0,0,1.3.92h0l2.06-.36.12,0Z"/></g></g></g></g></g></svg>