<svg xmlns="http://www.w3.org/2000/svg" viewBox="0 0 262.37 218.74"><defs><style>.cls-1{fill:#1e1e1e;}.cls-2{fill:#747474;}.cls-3{fill:#a7a7a7;}.cls-4{fill:#424242;}.cls-5{fill:#545454;}.cls-6{fill:#141414;}.cls-7{fill:#101010;}.cls-8{fill:#090909;}.cls-9{fill:#727272;}.cls-10{fill:#3f3f3f;}.cls-11{fill:#131313;}.cls-12{fill:#2d2d2d;}.cls-13{fill:#3e3e3e;}.cls-14{fill:#171717;}.cls-15{fill:#535353;}.cls-16{fill:#404040;}.cls-17{fill:#2f2f2f;}.cls-18{fill:#454545;}.cls-19{fill:#505050;}.cls-20{fill:#282828;}.cls-21{fill:#393939;}.cls-22{fill:#878787;}</style></defs><title>ico3of</title><g id="Capa_2" data-name="Capa 2"><g id="objetos"><g id="Layer_2" data-name="Layer 2"><g id="vive"><g id="Layer_29" data-name="Layer 29"><path class="cls-1" d="M142.49,96.36s.89-6.77,6.14-10.4,14.72.5,14.72.5l-3.27,10.35Z"/><path class="cls-2" d="M78.42,2.65c-5.42,1.67-15.79,6.58-21,11C48.85,20.88,37.76,33.4,38.61,35L21.41,39.1C33.5,19.74,50.57,9.55,54.42,8.49,58.7,7,63.41,4.74,78.42,2.65Z"/><path class="cls-1" d="M135.08,50.06c-5.5-.38-11.74.89-20,4.89C102,61.34,97.26,66.6,91.62,69.42s-13.09,4.14-20.08-1.69S46.69,40.48,44.63,37.09,37.48,27.88,32.22,29s-11.84,8.08-14.57,14.1S7.79,72.62,7.22,87.65s-.75,31.2,0,34,1.94,5,5.26,4.7c4.5-.47,31.66-7.71,45.34-14.85S83.54,98.93,92.18,94s27.63-18,32.52-19.74,7.89-6.11,20.11-2A38.23,38.23,0,0,1,150,74.48a214.46,214.46,0,0,0-14.9-24.42ZM53.52,90.35l-.74.39a150.38,150.38,0,0,1-20.23,9l-5.72,2.05C20.07,103,17.9,95.6,18.5,90.1a142.29,142.29,0,0,1,4.73-25.68,55.46,55.46,0,0,1,4.61-11.26l.36-.66a3.83,3.83,0,0,1,6.25-.68L55,75.47c4,4.63,3.86,11.9-1.51,14.88Z"/><path class="cls-3" d="M6.48,122.46A8.37,8.37,0,0,0,11,126.38c2.82.85,9-1.46,9-1.46s-5.47-4.28-7.88-4.47S6.48,122.46,6.48,122.46Z"/><path class="cls-4" d="M60.67,127.32s-35-20.76-43.11-23.87c-4.11-1.58-9.18-3.84-14.16-4.32-4.66-.46-3.38,5-2.76,6.89s6.14,17.29,6.14,17.29a5.61,5.61,0,0,1,6.64-1.75c4.26,1.63,47.24,26.19,47.24,26.19Z"/><path class="cls-5" d="M190.11,69.42S212.66,81.83,226.95,86s22.56,5.64,27.44,7.14,7,4.39,7,22.68-1.94,37.09-8.83,47-28.95,22.81-42.86,30.58-43,23.16-55.89,25c0,0-8,2-13.45-2.81s-3.09-4.26-8.48-8.77-22.43-18.29-22.43-18.29S94,185.58,83.22,175.56,69.06,157,67.94,154.26s-5.83-20.36,1.32-32.58,20.49-16.35,30.45-18.8,48.31-2.26,66.91-14.1,18-23.5,18-23.5l2.07,5.26Z"/><path class="cls-6" d="M194.48,75.47s-4-1.11-5.12,1.76,1.39,5.38,1.39,5.38a6.9,6.9,0,0,0,3.08-3.92c1.08-3,.66-3.21.66-3.21Z"/><path class="cls-7" d="M184.66,65.29s2.16,5.64,2.82,7.42,2.24,11.15,2.24,11.15-12.54,14.77-18.13,17.24-19.77,4.79-41.07,6-38.28,4.45-46.86,11.09S72.88,130.7,71.07,136.4s-5.69,0-5.69,0-2.48-13.83,14.26-25.56,42.88-9.4,57.31-12.53,25.45-5.4,34.64-13S184.53,71.24,184.66,65.29Z"/><path class="cls-6" d="M195.29,73a2.24,2.24,0,0,1-.81,2.49l-7-2.75-1.2-2,3.83-1.28,5.73,3Z"/><path class="cls-8" d="M168.31,63.79l1.63-17.54,8.88,6.52-2,19.62-8.52-8.59Z"/><path class="cls-9" d="M176.83,72.38l1.69-16.74a5.07,5.07,0,0,0-2-4.59l-6.54-4.8h1.7a5.75,5.75,0,0,1,3.46,1.16l4.31,3.25a5.07,5.07,0,0,1,2,4.6l-1.81,16.3Z"/><path class="cls-1" d="M174.88,67.54s4.89,4.32,3.76,8.67c-.55,2.14-3.34,5-6,7.33a226.08,226.08,0,0,0-13.09-25.13c10.49,4.26,15.34,9.13,15.34,9.13Z"/><path class="cls-10" d="M69.25,121.68c7.14-12.22,20.49-16.35,30.45-18.8s48.31-2.26,66.91-14.1,18-23.5,18-23.5l-9.77,2.26s1.13,13-14.1,20.3-21.43,8.65-39.66,10.34S94.29,101.82,84.87,107,69.25,121.68,69.25,121.68Z"/><path class="cls-9" d="M69.25,121.68A31.86,31.86,0,0,1,74.47,115a36.44,36.44,0,0,1,6.75-5.19A50.06,50.06,0,0,1,88.89,106,79,79,0,0,1,97,103.42l2.07-.54,1-.25.52-.12.53-.1c1.4-.26,2.82-.44,4.23-.61,2.82-.34,5.66-.61,8.48-.89,5.66-.55,11.3-1.13,16.94-1.91a169.81,169.81,0,0,0,16.73-3.08q4.14-1,8.16-2.38a57.63,57.63,0,0,0,7.82-3.3,52.64,52.64,0,0,0,7.13-4.58c.56-.42,1.12-.87,1.67-1.31.28-.22.54-.45.81-.68l.8-.69c1.05-.94,2.07-1.92,3-2.95a33.28,33.28,0,0,0,5-6.8,23.49,23.49,0,0,0,1.67-3.86,17.14,17.14,0,0,0,.53-2c.07-.34.12-.69.16-1a7.73,7.73,0,0,0,.06-1l.34.26L175,67.82l.21-.29a13.68,13.68,0,0,1,0,2,19.79,19.79,0,0,1-.29,2c-.13.66-.3,1.3-.48,1.95a17.05,17.05,0,0,1-.67,1.88A21.89,21.89,0,0,1,169.33,82l-.36.36-.35.35-.73.69-.75.65-.19.16-.19.15-.39.31L166,85l-.41.29-.82.56c-.56.35-1.12.73-1.7,1-.29.16-.58.33-.87.49l-.89.45-.89.44-.89.42c-1.19.56-2.39,1.11-3.6,1.66-2.42,1.07-4.86,2.1-7.35,3a69.47,69.47,0,0,1-7.61,2.26A122.12,122.12,0,0,1,125.27,98l-7.88.75c-1.32.14-2.63.27-3.93.43l-2,.23-2,.26c-2.61.37-5.21.79-7.79,1.33A66.22,66.22,0,0,0,94.12,103a54.94,54.94,0,0,0-7.28,3.07c-.59.3-1.17.61-1.75.92s-1.13.66-1.71,1l-.42.26-.41.27-.82.55c-.54.38-1.06.78-1.6,1.16a49.35,49.35,0,0,0-5.86,5.3,52.35,52.35,0,0,0-5,6.1Zm0,0a52.39,52.39,0,0,1,5-6.15,49.46,49.46,0,0,1,5.83-5.36c.53-.39,1.05-.8,1.59-1.18l.82-.56.41-.28a4.89,4.89,0,0,1,.42-.27c.56-.34,1.13-.69,1.71-1s1.16-.63,1.75-.94A55.14,55.14,0,0,1,94,102.8a63.7,63.7,0,0,1,7.64-2.11c2.59-.55,5.19-1,7.81-1.36l2-.27,2-.24c1.32-.17,2.63-.3,3.94-.45l7.88-.79q3.94-.4,7.85-.94c2.61-.38,5.2-.85,7.76-1.45a69,69,0,0,0,7.56-2.25c2.47-.9,4.9-1.92,7.31-3,1.2-.55,2.4-1.09,3.59-1.66l.89-.42c.3-.14.6-.28.89-.43l.87-.45c.29-.15.56-.32.86-.48.58-.31,1.12-.68,1.67-1l.8-.56.4-.28.39-.3.39-.3.19-.15.19-.16.74-.64.71-.67.35-.35.34-.36a21.36,21.36,0,0,0,4.22-6.53c.25-.6.46-1.22.65-1.84a17.76,17.76,0,0,0,.47-1.89,19.23,19.23,0,0,0,.28-1.93,13.25,13.25,0,0,0,0-1.93.27.27,0,0,1,.21-.3L184.6,65a.27.27,0,0,1,.33.2.29.29,0,0,1,0,.06,8.11,8.11,0,0,1-.06,1.11q-.06.54-.17,1.08a17.7,17.7,0,0,1-.55,2.09,24,24,0,0,1-1.71,3.95,33.74,33.74,0,0,1-5.07,6.91c-1,1-2,2-3.08,3-.27.24-.54.46-.81.7s-.54.47-.82.69c-.56.44-1.11.9-1.69,1.32l-.86.64-.88.61-.88.61-.89.59c-.3.19-.59.4-.9.58l-.92.55-.46.27-.23.14-.24.13-.94.5A58.13,58.13,0,0,1,155.87,94c-2.7.92-5.44,1.71-8.21,2.38a162.76,162.76,0,0,1-16.79,3c-5.64.75-11.3,1.32-17,1.84-2.83.27-5.66.52-8.48.85-1.41.16-2.82.34-4.21.59s-2.76.62-4.14,1A78.77,78.77,0,0,0,89,106.24a49.88,49.88,0,0,0-7.68,3.65A36.34,36.34,0,0,0,74.52,115a31.83,31.83,0,0,0-5.27,6.67Z"/><path class="cls-11" d="M50.08,46.11l3.71-3.24a1,1,0,0,1,1.47.1l0,0,9.13,11a1.69,1.69,0,0,1,0,2.19,10.13,10.13,0,0,1-2.85,2.28c-2.64,1.42-11.48-12.3-11.48-12.3Z"/><path class="cls-12" d="M62.92,170.92c-1.23,4.68-4.53,12.77-15.73,12.66,11.09,0,10.88-11.07,10-14.61-1.2-5-5.64-15.91-15.16-21.24-11.5-6.43-23.37,5.07-19.1,17.35a0,0,0,0,0,0,0,36.22,36.22,0,0,0,7,10.53A38.91,38.91,0,0,1,22.89,167a37.28,37.28,0,0,1-2.07-4C15.88,151.24,20,142.8,28,138.39c4.93-2.71,12.93-2,23.62,5.7s12.52,22.06,11.27,26.83Z"/><path class="cls-13" d="M47.19,183.59h-.56l-.45,0a22,22,0,0,1-7.63-1.86A27.25,27.25,0,0,1,30,175.65a36.54,36.54,0,0,1-7-10.53,0,0,0,0,0,0,0c-4.27-12.28,7.6-23.78,19.1-17.35C51.58,153.08,56,164,57.22,169,58.08,172.51,58.28,183.59,47.19,183.59Z"/><path class="cls-12" d="M48.64,169.17c0,6.88-4.23,12.14-9.6,12.51l-.48,0A27.25,27.25,0,0,1,30,175.64a36.54,36.54,0,0,1-7-10.53c.44-6.48,2.89-10.75,9.54-11.76,7.63-1.17,16.13,8,16.13,15.81Z"/><path class="cls-14" d="M18.67,109.38,16.93,111l2,21.15s13.79,45.24,15.69,44.57,4.37-2.07,4.46-3.63-3.77-48.78-4.51-57.84a2.32,2.32,0,0,0-1.53-2c-3-1.08-10-3.57-12.6-4.32a1.85,1.85,0,0,0-1.8.43Z"/><path class="cls-15" d="M30.11,115.67a1.9,1.9,0,0,1,1.93,1.7l5.78,55.55s.55,4.26-6.6,4.26-8.9-9.4-9.34-14.29S16.93,111,16.93,111a22.15,22.15,0,0,0,7,3.76,18.87,18.87,0,0,0,6.16.89Z"/><path class="cls-11" d="M41.07,128.82c0,3.95-2.76,7.14-6.17,7.14a14.62,14.62,0,0,1-4.57-.45c-1.72-.62-4-4.12-4-6.25a12.5,12.5,0,0,1,2.35-6c1.13-1.44,4.41-1.54,6.22-1.54,3.41,0,6.17,3.2,6.17,7.14Z"/><ellipse class="cls-16" cx="32.5" cy="128.82" rx="6.17" ry="7.14"/><path class="cls-17" d="M177.64,95.37c-.18,0-15.1,8.2-15.1,8.2A209.47,209.47,0,0,0,150,74.48a214.46,214.46,0,0,0-14.9-24.42c-10.3-14.51-23.68-29-40.33-39C88.8,7.46,67.63,5.46,62.3,6,57.53,6.58,81.76-4,101.43,1.7c8.3,2.41,14.38,8.55,19.14,12,8.2,5.89,23.81,19.71,39,44.75a226.08,226.08,0,0,1,13.09,25.13c1.58,3.54,3.52,8,5,11.82Z"/><path class="cls-18" d="M195.7,72.39s17,9.44,31.25,13.58,22.56,5.64,27.44,7.14,7.52,3.82,7.52,22.12-2.5,37.65-9.4,47.55-28.95,22.81-42.86,30.58l-69.34,22.18c-5.47-4.76-3.09-4.26-8.48-8.77s-22.43-18.29-22.43-18.29a53.43,53.43,0,0,0-8.21-6.64c-3.57-2.07-21.05-12.18-23.5-27s-5.07-27.74,22.37-40.52c11.28-4.89,54.88-7.71,69.55-15.41s22.74-16.54,24.62-22.56a10.34,10.34,0,0,0,.45-3.1.89.89,0,0,1,.88-.9h.12Z"/><path class="cls-19" d="M151.41,218.51C138.5,220.33,136.48,207,136.1,202s0-30.07,0-34.83c0-9.52,7.77-25.75,31.26-33.83S237.29,100.81,245,96.49s12-4.72,15.93,1.19c2.23,3.38,1.61,29.36,0,42.67s-1.48,21.93-26.15,37.05c-21.63,13.26-55.72,34.23-79,40.57Z"/><path class="cls-20" d="M153.77,218.34c-12.91,1.83-14.41-11.83-14.79-16.84s0-26.94,0-31.7c0-3.95,4.89-25.37,28.38-33.46S237.29,103.82,245,99.5s13.88-6.58,15.11,0,1.09,29.21-.53,42.51-5.31,24.57-27.06,37.64S177,212,153.77,218.34"/><path class="cls-7" d="M162,101.86c1.38-.59,2.72-1.23,4-1.88l1-.49,1-.5,1-.51,1-.51,2-1c.65-.36,1.29-.71,1.93-1.07l1-.57.94-.58.46-.3.45-.31.43-.32.21-.16.1-.08.08-.07.58.44-.12.13-.11.11-.22.19-.45.36q-.46.35-.94.65-.94.63-1.92,1.18c-.65.38-1.32.73-2,1.08l-1,.52-1,.49c-1.34.66-2.7,1.29-4.09,1.84q-1,.42-2.1.79c-.7.25-1.42.48-2.14.66Z"/><path class="cls-20" d="M124.51,185.58c1.69,0,3.2-1.79,3.2-6.11s.07-14.66,0-16.35c-.09-2.44-.44-3.14-2.26-4.36L62.8,125.18a4.7,4.7,0,0,0-3.67,4.64V150l61.37,34.7a6.84,6.84,0,0,0,3.37.89Z"/><path class="cls-7" d="M122.07,164.06v18.51c0,1.88.75,3,2.44,3s3.2-1.79,3.2-6.11.07-14.66,0-16.35c-.09-2.44-.85-3.85-2.07-3.85S122.07,160.77,122.07,164.06ZM59.76,131v17.76l59.87,33.93V163.78Z"/><path class="cls-21" d="M119.62,165.19v15.51s-.17,1.24-1.69.75C113.8,180.13,70,154.66,70,154.66V138.4Z"/><path class="cls-22" d="M209,128.59l.66-.3v3.11l-.56.25,0-.22a6.83,6.83,0,0,1-.56.5c-.66.48-1.48.49-1.55-.43,0-.63,0-1.29,0-2l.64-.3v.3c0,.5,0,1,0,1.49s.47.58.92.21a1.16,1.16,0,0,0,.44-.88c0-.52,0-1,0-1.55a1.59,1.59,0,0,1,0-.22Zm2.94-1.36.64-.3v.22c0,.53,0,1.08,0,1.6s.45.69.92.31a1.16,1.16,0,0,0,.44-.85c0-.56,0-1.13,0-1.68v-.24l.66-.3v3.25l-.57.25,0-.21a7,7,0,0,1-.67.56c-.75.49-1.38.26-1.44-.58,0-.64,0-1.33,0-2Zm5.59-2.34-.31.64a3.48,3.48,0,0,0-.59.07,1.13,1.13,0,0,0-.41.25.61.61,0,0,0-.16.33.19.19,0,0,0,.15.17,1.93,1.93,0,0,0,.4,0,3.33,3.33,0,0,1,.58,0c.3,0,.49.23.49.64a1.64,1.64,0,0,1-.49,1.14,1.85,1.85,0,0,1-1.32.63,4,4,0,0,1-.66-.09l.38-.75a1.1,1.1,0,0,0,1,0,1.2,1.2,0,0,0,.3-.22c.23-.23.24-.52,0-.56a1.37,1.37,0,0,0-.4,0c-.19,0-.38.06-.56.07a.49.49,0,0,1-.53-.54,1.58,1.58,0,0,1,.45-1.1,1.6,1.6,0,0,1,1.7-.58ZM206,132.12l.49.24c-.48.81-1.5,1.3-2.09,1s-.67-1.33-.14-2.21,1.5-1.38,2.09-1.11l-.39.7a1.35,1.35,0,0,0-1.27.77c-.21.44-.16.93.12,1.09s.76,0,1.17-.5Zm5.14-1.36-.65.28V126.2l.65-.31Zm-9.2,1a2.57,2.57,0,0,0-1.48,2.17c0,.86.63,1.23,1.47.87a2.52,2.52,0,0,0,1.47-2.16c0-.88-.62-1.26-1.46-.88Zm0,2.37c-.47.21-.81,0-.81-.49a1.4,1.4,0,0,1,.81-1.2c.47-.21.81,0,.81.49a1.39,1.39,0,0,1-.82,1.2Z"/></g></g></g></g></g></svg>