<svg xmlns="http://www.w3.org/2000/svg" viewBox="0 0 155.97 130.03"><defs><style>.cls-1{fill:#00adb5;fill-rule:evenodd;}.cls-2{fill:#1e1e1e;}.cls-3{fill:#747474;}.cls-4{fill:#a7a7a7;}.cls-5{fill:#424242;}.cls-6{fill:#545454;}.cls-7{fill:#141414;}.cls-8{fill:#101010;}.cls-9{fill:#090909;}.cls-10{fill:#727272;}.cls-11{fill:#3f3f3f;}.cls-12{fill:#131313;}.cls-13{fill:#2d2d2d;}.cls-14{fill:#3e3e3e;}.cls-15{fill:#171717;}.cls-16{fill:#535353;}.cls-17{fill:#404040;}.cls-18{fill:#2f2f2f;}.cls-19{fill:#454545;}.cls-20{fill:#505050;}.cls-21{fill:#282828;}.cls-22{fill:#393939;}.cls-23{fill:#878787;}</style></defs><title>ico3</title><g id="Capa_2" data-name="Capa 2"><g id="objetos"><path class="cls-1" d="M1.83,56.5V52.76a2.61,2.61,0,0,0,0-1.34V51A17.7,17.7,0,0,0,2,48.39,50.67,50.67,0,0,1,8.25,28.81a52.56,52.56,0,0,1,8.46-11.43A53.29,53.29,0,0,1,46.62,1.58,66.64,66.64,0,0,1,59,1.06,44.45,44.45,0,0,1,71.29,3.13,53.12,53.12,0,0,1,90.89,13.94a53.73,53.73,0,0,1,18.23,33.41c.17,1.2.05,2.42.26,3.62v.9a2,2,0,0,0,0,1.2v3.59a4,4,0,0,0-.08,1.19v.84a43.77,43.77,0,0,1-2.91,14.63A52.58,52.58,0,0,1,95.89,90.88a53.95,53.95,0,0,1-32.55,17.46c-1.32.19-2.67.06-4,.3H58.9a2,2,0,0,0-1.19,0H54a4,4,0,0,0-1.19-.08h-.84a43.31,43.31,0,0,1-14.57-2.83A52.48,52.48,0,0,1,20.94,96.3,53.59,53.59,0,0,1,3.89,70.52a54.55,54.55,0,0,1-1.77-8c-.17-1.2,0-2.42-.29-3.62v-.45c.16-.29,0-.61.08-.91S2,56.83,1.83,56.5Z"/><g id="Layer_2" data-name="Layer 2"><g id="vive"><g id="Layer_29" data-name="Layer 29"><path class="cls-2" d="M84.7,57.28a9.79,9.79,0,0,1,3.65-6.18c3.12-2.16,8.75.3,8.75.3l-1.94,6.15Z"/><path class="cls-3" d="M46.62,1.58c-3.22,1-9.39,3.91-12.47,6.54C29,12.41,22.44,19.85,23,20.78L12.73,23.24C19.91,11.74,30.06,5.67,32.35,5A56,56,0,0,1,46.62,1.58Z"/><path class="cls-2" d="M80.3,29.76c-3.27-.22-7,.53-11.87,2.91-7.82,3.8-10.61,6.93-14,8.6s-7.78,2.46-11.94-1S27.76,24.06,26.53,22s-4.25-5.47-7.37-4.8-7,4.8-8.66,8.38S4.63,43.17,4.29,52.11s-.45,18.55,0,20.22,1.16,3,3.13,2.79c2.68-.28,18.82-4.58,27-8.83S49.66,58.81,54.8,55.9,71.22,45.18,74.13,44.17s4.69-3.63,12-1.2a22.73,22.73,0,0,1,3.07,1.3A127.49,127.49,0,0,0,80.3,29.76ZM31.81,53.71l-.44.23a89.39,89.39,0,0,1-12,5.35L16,60.51c-4,.72-5.31-3.68-5-7A84.58,84.58,0,0,1,13.81,38.3a33,33,0,0,1,2.74-6.69l.21-.39a2.27,2.27,0,0,1,3.71-.41L32.71,44.86c2.4,2.75,2.29,7.07-.9,8.85Z"/><path class="cls-4" d="M3.85,72.79a5,5,0,0,0,2.7,2.33c1.68.5,5.34-.87,5.34-.87S8.64,71.72,7.21,71.6A6.81,6.81,0,0,0,3.85,72.79Z"/><path class="cls-5" d="M36.06,75.68S15.27,63.34,10.44,61.49C8,60.56,5,59.21,2,58.92c-2.77-.27-2,3-1.64,4.1S4,73.3,4,73.3a3.34,3.34,0,0,1,3.95-1c2.53,1,28.08,15.57,28.08,15.57Z"/><path class="cls-6" d="M113,41.27s13.41,7.37,21.9,9.83,13.41,3.35,16.31,4.25,4.13,2.61,4.13,13.48-1.15,22-5.25,27.93-17.21,13.56-25.48,18.18-25.55,13.77-33.22,14.85c0,0-4.74,1.16-8-1.67s-1.84-2.53-5-5.21S65,112,65,112s-9.16-1.71-15.57-7.67-8.42-11-9.09-12.66-3.46-12.1.78-19.37,12.18-9.72,18.1-11.17S88,59.82,99,52.78s10.73-14,10.73-14L111,41.94Z"/><path class="cls-7" d="M115.61,44.86s-2.4-.66-3,1a3.31,3.31,0,0,0,.83,3.2,4.1,4.1,0,0,0,1.83-2.33c.64-1.77.39-1.91.39-1.91Z"/><path class="cls-8" d="M109.77,38.81s1.28,3.35,1.68,4.41,1.33,6.63,1.33,6.63S105.32,58.63,102,60.1s-11.75,2.85-24.41,3.56S54.83,66.3,49.73,70.24a19.45,19.45,0,0,0-7.49,10.84c-1.08,3.39-3.38,0-3.38,0s-1.48-8.22,8.48-15.2,25.49-5.59,34.07-7.45S96.54,55.23,102,50.71,109.69,42.35,109.77,38.81Z"/><path class="cls-7" d="M116.09,43.38a1.33,1.33,0,0,1-.48,1.48l-4.16-1.64-.71-1.2,2.27-.76,3.41,1.81Z"/><path class="cls-9" d="M100,37.92l1-10.43,5.28,3.87L105.11,43,100,37.92Z"/><path class="cls-10" d="M105.11,43l1-10a3,3,0,0,0-1.21-2.73L101,27.49h1a3.42,3.42,0,0,1,2.05.69l2.56,1.93a3,3,0,0,1,1.18,2.74l-1.08,9.69Z"/><path class="cls-2" d="M104,40.15s2.91,2.57,2.23,5.16c-.33,1.27-2,3-3.58,4.36a134.39,134.39,0,0,0-7.78-14.94c6.24,2.54,9.12,5.43,9.12,5.43Z"/><path class="cls-11" d="M41.17,72.33c4.25-7.26,12.18-9.72,18.1-11.17S88,59.82,99,52.78s10.73-14,10.73-14L104,40.15s.67,7.71-8.38,12.07S82.84,57.36,72,58.36s-16,2.16-21.55,5.27A30.36,30.36,0,0,0,41.17,72.33Z"/><path class="cls-10" d="M41.17,72.33a18.94,18.94,0,0,1,3.1-4,21.66,21.66,0,0,1,4-3.09A29.76,29.76,0,0,1,52.84,63a47,47,0,0,1,4.83-1.56l1.23-.32.62-.15.31-.07.31-.06c.83-.15,1.68-.26,2.51-.36,1.68-.2,3.36-.36,5-.53,3.36-.33,6.72-.67,10.07-1.14A100.94,100.94,0,0,0,87.71,57q2.46-.59,4.85-1.41a34.26,34.26,0,0,0,4.65-2,31.29,31.29,0,0,0,4.24-2.72c.34-.25.66-.52,1-.78.17-.13.32-.27.48-.4l.48-.41c.63-.56,1.23-1.14,1.81-1.75a19.78,19.78,0,0,0,3-4,14,14,0,0,0,1-2.29,10.19,10.19,0,0,0,.31-1.21c0-.2.07-.41.09-.61a4.59,4.59,0,0,0,0-.61l.2.16L104,40.31l.13-.17a8.13,8.13,0,0,1,0,1.2,11.77,11.77,0,0,1-.17,1.18c-.08.39-.18.78-.29,1.16a10.14,10.14,0,0,1-.4,1.12,13,13,0,0,1-2.58,4l-.21.22-.21.21-.43.41-.45.39-.11.1-.11.09-.23.18-.23.18-.24.17-.49.34c-.34.21-.66.43-1,.62l-.52.29-.53.27-.53.26-.53.25-2.14,1c-1.44.64-2.89,1.25-4.37,1.78a41.29,41.29,0,0,1-4.53,1.34,72.6,72.6,0,0,1-9.32,1.39l-4.68.45c-.78.08-1.56.16-2.34.25l-1.17.14-1.17.15c-1.55.22-3.1.47-4.63.79a39.36,39.36,0,0,0-4.53,1.23,32.66,32.66,0,0,0-4.33,1.82l-1,.55c-.35.18-.67.39-1,.59l-.25.16-.24.16-.49.33c-.32.22-.63.46-.95.69a29.34,29.34,0,0,0-3.48,3.15,31.12,31.12,0,0,0-3,3.63Zm0,0a31.14,31.14,0,0,1,3-3.65,29.4,29.4,0,0,1,3.46-3.18c.32-.23.62-.48.95-.7l.49-.34.24-.17.25-.16c.34-.2.67-.41,1-.6l1-.56a32.78,32.78,0,0,1,4.32-1.86,37.87,37.87,0,0,1,4.54-1.26c1.54-.33,3.09-.59,4.64-.81l1.17-.16,1.17-.15c.78-.1,1.56-.18,2.34-.26L74.44,58q2.34-.24,4.67-.56c1.55-.22,3.09-.5,4.61-.86a41,41,0,0,0,4.49-1.34c1.47-.53,2.91-1.14,4.34-1.78.71-.33,1.43-.65,2.13-1l.53-.25.53-.26.52-.27.51-.29c.34-.19.66-.4,1-.61l.48-.34.24-.17.23-.18.23-.18.11-.09.11-.09.44-.38L100,49l.21-.21.2-.21a12.7,12.7,0,0,0,2.51-3.88c.15-.36.27-.72.39-1.09a10.56,10.56,0,0,0,.28-1.13,11.43,11.43,0,0,0,.16-1.15,7.88,7.88,0,0,0,0-1.15.16.16,0,0,1,.13-.18l5.81-1.34a.16.16,0,0,1,.2.12.17.17,0,0,1,0,0,4.82,4.82,0,0,1,0,.66q0,.32-.1.64a10.52,10.52,0,0,1-.32,1.24,14.29,14.29,0,0,1-1,2.35,20.06,20.06,0,0,1-3,4.11c-.58.62-1.2,1.21-1.83,1.77l-.48.41c-.16.14-.32.28-.49.41-.34.26-.66.53-1,.78l-.51.38-.52.37-.52.36-.53.35c-.18.11-.35.24-.54.34l-.55.33-.27.16-.14.08-.14.07-.56.3a34.56,34.56,0,0,1-4.69,2c-1.6.55-3.23,1-4.88,1.41a96.75,96.75,0,0,1-10,1.81c-3.35.45-6.72.78-10.08,1.09-1.68.16-3.36.31-5,.5-.84.1-1.68.2-2.5.35s-1.64.37-2.46.58a46.82,46.82,0,0,0-4.83,1.51,29.65,29.65,0,0,0-4.56,2.17,21.6,21.6,0,0,0-4,3,18.92,18.92,0,0,0-3.13,4Z"/><path class="cls-12" d="M29.77,27.41,32,25.49a.62.62,0,0,1,.88.06h0l5.43,6.51a1,1,0,0,1,0,1.3,6,6,0,0,1-1.69,1.36c-1.57.85-6.82-7.31-6.82-7.31Z"/><path class="cls-13" d="M37.4,101.6c-.73,2.78-2.69,7.59-9.35,7.53,6.59,0,6.47-6.58,6-8.68-.71-3-3.35-9.46-9-12.63-6.84-3.82-13.89,3-11.36,10.31h0a21.53,21.53,0,0,0,4.17,6.26,23.13,23.13,0,0,1-4.21-5.15,22.16,22.16,0,0,1-1.23-2.35c-2.94-7-.48-12,4.28-14.64,2.93-1.61,7.69-1.19,14,3.39s7.44,13.12,6.7,15.95Z"/><path class="cls-14" d="M28.05,109.13h-.6A13.07,13.07,0,0,1,22.92,108a16.2,16.2,0,0,1-5.1-3.6,21.72,21.72,0,0,1-4.17-6.26h0C11.11,90.85,18.17,84,25,87.83c5.66,3.16,8.3,9.65,9,12.63C34.53,102.55,34.64,109.13,28.05,109.13Z"/><path class="cls-13" d="M28.91,100.56c0,4.09-2.51,7.22-5.71,7.44h-.29a16.2,16.2,0,0,1-5.1-3.6,21.72,21.72,0,0,1-4.17-6.26c.26-3.85,1.72-6.39,5.67-7,4.53-.69,9.59,4.77,9.59,9.4Z"/><path class="cls-15" d="M11.1,65l-1,1,1.21,12.57s8.2,26.9,9.33,26.49,2.6-1.23,2.65-2.16-2.24-29-2.68-34.38a1.38,1.38,0,0,0-.91-1.19c-1.79-.64-5.95-2.12-7.49-2.57A1.1,1.1,0,0,0,11.1,65Z"/><path class="cls-16" d="M17.9,68.76a1.13,1.13,0,0,1,1.15,1l3.44,33s.32,2.53-3.92,2.53S13.27,99.74,13,96.84,10.07,66,10.07,66a13.17,13.17,0,0,0,4.17,2.23,11.22,11.22,0,0,0,3.66.53Z"/><path class="cls-12" d="M24.42,76.58a4,4,0,0,1-3.67,4.25A8.69,8.69,0,0,1,18,80.55a5.07,5.07,0,0,1-2.38-3.71A7.43,7.43,0,0,1,17,73.25c.67-.85,2.62-.92,3.7-.92a4,4,0,0,1,3.67,4.24Z"/><ellipse class="cls-17" cx="19.32" cy="76.58" rx="3.67" ry="4.25"/><path class="cls-18" d="M105.6,56.69c-.11,0-9,4.88-9,4.88a124.52,124.52,0,0,0-7.47-17.29A127.49,127.49,0,0,0,80.3,29.76c-6.12-8.63-14.08-17.26-24-23.2C52.79,4.43,40.2,3.25,37,3.6,34.2,3.91,48.6-2.39,60.29,1c4.94,1.43,8.55,5.08,11.38,7.11,4.88,3.5,14.15,11.71,23.17,26.6a134.39,134.39,0,0,1,7.78,14.94c.94,2.1,2.09,4.74,3,7Z"/><path class="cls-19" d="M116.33,43s10.09,5.61,18.58,8.07,13.41,3.35,16.31,4.25,4.47,2.27,4.47,13.15-1.49,22.38-5.59,28.27-17.21,13.56-25.48,18.18L83.41,128.12c-3.25-2.83-1.84-2.53-5-5.21S65,112,65,112a31.76,31.76,0,0,0-4.88-3.95c-2.12-1.23-12.51-7.24-14-16s-3-16.49,13.3-24.09c6.7-2.91,32.63-4.58,41.34-9.16S114.35,49,115.47,45.4a6.15,6.15,0,0,0,.27-1.84.53.53,0,0,1,.52-.53h.07Z"/><path class="cls-20" d="M90,129.89c-7.67,1.09-8.87-6.83-9.1-9.81s0-17.88,0-20.71c0-5.66,4.62-15.31,18.58-20.11s41.56-19.33,46.15-21.9,7.15-2.81,9.47.71c1.32,2,1,17.45,0,25.36s-.88,13-15.54,22c-12.86,7.88-33.12,20.35-46.94,24.12Z"/><path class="cls-21" d="M91.41,129.79c-7.67,1.09-8.57-7-8.79-10s0-16,0-18.85c0-2.35,2.91-15.08,16.87-19.89s41.56-19.33,46.15-21.9,8.25-3.91,9,0,.65,17.36-.31,25.27S151.15,99,138.22,106.8s-33,19.23-46.81,23"/><path class="cls-8" d="M96.28,60.55c.82-.35,1.62-.73,2.41-1.12l.59-.29.59-.3.59-.3.58-.31,1.16-.62,1.15-.64.57-.34.56-.34.27-.18.27-.18.26-.19.12-.1.06,0,0,0,.34.26-.07.08-.06.06-.13.11-.27.21q-.27.21-.56.39-.56.37-1.14.7c-.39.22-.78.43-1.17.64l-.59.31-.6.29c-.8.39-1.6.77-2.43,1.09q-.62.25-1.25.47c-.42.15-.84.29-1.27.39Z"/><path class="cls-21" d="M74,110.32c1,0,1.9-1.06,1.9-3.63s0-8.72,0-9.72c-.06-1.45-.26-1.87-1.34-2.59l-37.24-20a2.8,2.8,0,0,0-2.18,2.76v12l36.48,20.63a4.07,4.07,0,0,0,2,.53Z"/><path class="cls-8" d="M72.56,97.53v11c0,1.12.45,1.79,1.45,1.79s1.9-1.06,1.9-3.63,0-8.72,0-9.72c-.06-1.45-.5-2.29-1.23-2.29A2.63,2.63,0,0,0,72.56,97.53Zm-37-19.67V88.42l35.59,20.17V97.36Z"/><path class="cls-22" d="M71.11,98.2v9.22s-.1.74-1,.45c-2.46-.78-28.49-15.92-28.49-15.92V82.27Z"/><path class="cls-23" d="M124.26,76.44l.39-.18v1.85l-.34.15,0-.13a4.06,4.06,0,0,1-.34.3c-.39.28-.88.29-.92-.26,0-.37,0-.77,0-1.16l.38-.18V77c0,.29,0,.6,0,.88s.28.35.54.12a.69.69,0,0,0,.26-.52c0-.31,0-.61,0-.92a1,1,0,0,1,0-.13Zm1.75-.81.38-.18v.13c0,.32,0,.64,0,1s.27.41.54.18a.69.69,0,0,0,.26-.51c0-.34,0-.67,0-1v-.14l.39-.18v1.93l-.34.15v-.13a4.16,4.16,0,0,1-.4.34c-.45.29-.82.15-.86-.34s0-.79,0-1.21Zm3.32-1.39-.18.38a2.07,2.07,0,0,0-.35,0,.67.67,0,0,0-.24.15.37.37,0,0,0-.1.2.11.11,0,0,0,.09.1l.24,0a2,2,0,0,1,.34,0c.18,0,.29.14.29.38a1,1,0,0,1-.29.68,1.1,1.1,0,0,1-.78.37,2.39,2.39,0,0,1-.39-.05l.22-.45a.65.65,0,0,0,.58,0,.71.71,0,0,0,.18-.13c.13-.14.14-.31,0-.34a.81.81,0,0,0-.24,0c-.11,0-.22,0-.34,0a.29.29,0,0,1-.32-.32.94.94,0,0,1,.26-.65,1,1,0,0,1,1-.35Zm-6.85,4.3.29.14c-.29.48-.89.77-1.24.61s-.4-.79-.08-1.31.89-.82,1.24-.66l-.23.42a.8.8,0,0,0-.75.46c-.13.26-.09.55.07.65s.45,0,.7-.3Zm3.06-.81-.39.17V75l.39-.18Zm-5.47.6a1.53,1.53,0,0,0-.88,1.29c0,.51.37.73.87.52a1.5,1.5,0,0,0,.87-1.29c0-.53-.37-.75-.87-.52Zm0,1.41c-.28.12-.48,0-.48-.29a.83.83,0,0,1,.48-.71c.28-.13.48,0,.48.29a.82.82,0,0,1-.49.71Z"/></g></g></g></g></g></svg>