<svg xmlns="http://www.w3.org/2000/svg" viewBox="0 0 150.36 108.12"><defs><style>.cls-1{fill:#00adb5;fill-rule:evenodd;}.cls-2{fill:#0d0d0d;}.cls-3{fill:#121315;}.cls-4{fill:#262626;}.cls-5{fill:#1a1a1a;}.cls-6{fill:#030303;}.cls-7{fill:#454545;}.cls-8{fill:#202021;}</style></defs><title>ico4</title><g id="Capa_2" data-name="Capa 2"><g id="objetos"><path class="cls-1" d="M2.61,67.07l-.79-3.65a2.61,2.61,0,0,0-.29-1.31l-.1-.44a17.7,17.7,0,0,0-.35-2.57A50.67,50.67,0,0,1,3,38.65a52.56,52.56,0,0,1,5.84-13A53.29,53.29,0,0,1,34.73,3.9a66.64,66.64,0,0,1,12-3.13A44.45,44.45,0,0,1,59.17.18a53.12,53.12,0,0,1,21.45,6.4,53.73,53.73,0,0,1,24.9,28.78c.42,1.14.56,2.36,1,3.48l.19.88A2,2,0,0,0,107,40.9l.76,3.5a4,4,0,0,0,.18,1.18l.18.82a43.77,43.77,0,0,1,.26,14.92,52.58,52.58,0,0,1-6.55,19.4,53.95,53.95,0,0,1-28.11,24c-1.25.47-2.6.62-3.84,1.14l-.44.1a2,2,0,0,0-1.17.25l-3.65.79a4,4,0,0,0-1.18.18l-.82.18a43.31,43.31,0,0,1-14.84.32,52.48,52.48,0,0,1-18-5.73A53.59,53.59,0,0,1,7.6,80.33a54.55,54.55,0,0,1-3.43-7.45c-.42-1.14-.56-2.36-1-3.47L3,69c.09-.32-.09-.6-.12-.91S2.84,67.36,2.61,67.07Z"/><path d="M101.16,41.35s-.28.09.11,1.22,2.67-.85,2.67-.85l-1-.88Z"/><path d="M68.75,22.61a2.5,2.5,0,0,1,2.52-.72C73.06,22.2,85,24,85,24a1.8,1.8,0,0,1,1.68,1.79c0,1.48-.49,5.86-.67,7.84,0,.32-1.44.72-2.09.6L71.53,31.87C69.9,31.55,69,31,69,30.17Z"/><path d="M79.65,23.74,88.49,25,108,29,109,35l-7.35-3.74L95,39.36,75,29.11l4.67-5.37Z"/><path d="M110.6,35.95l.68-.4L110.17,31s0-1.75-1.47-1.95c-1.17-.16-.9.25-.9.25s.09.07.75.7c1.19,1.14,2.05,6,2.05,6Z"/><path class="cls-2" d="M107.87,29.07l-.48.35,1.5,6.9,1.72-.37-.3-3.14-1-3.12-1.4-.61Z"/><path class="cls-3" d="M5,36.8c3-2.87,11.7-9.61,34.69-12.3,31-3.63,61.6,5,61.6,5l6.9.83,1.26,6.36L95.73,43.77S70.1,34.92,43.2,37.64,7.41,50.36,6.41,55.17c-4.38-1-5.22-8.36-5.22-8.36l-.3-2.4S1.95,39.67,5,36.8Z"/><path class="cls-4" d="M102.58,28.78c-1.23-1.21-2.67-.89-4.31.8a9.83,9.83,0,0,0-3.09,5.79c-.48,2.72,7.33-.28,7.33-.28l1.5-3.64-.74-2.32Z"/><path class="cls-4" d="M98.67,36.3c-1.37.3-2.72.42-3.29-.05a.87.87,0,0,1-.27-.88,9.86,9.86,0,0,1,3.11-5.82A4.16,4.16,0,0,1,101,28a2.3,2.3,0,0,1,1.65.74l.69.36.75,2.35-1.51,3.68h0A30,30,0,0,1,98.67,36.3Zm1.86-8.15a4.74,4.74,0,0,0-2.24,1.46,9.77,9.77,0,0,0-3.08,5.77.76.76,0,0,0,.23.79c1.25,1,6.64-1,7-1.12l1.48-3.6-.73-2.28-.67-.36a2.21,2.21,0,0,0-1.59-.71,2.1,2.1,0,0,0-.41.05Z"/><path class="cls-4" d="M99.88,29.78s-1.44,4.92-13,10.41c-9.11,4.32-20.81,7.56-29.47,10.45S44.48,56.5,42,60.4,94.92,42.08,94.92,42.08l9.64-6.7Z"/><path class="cls-4" d="M44.11,60.66c-1.31.28-2,.31-2.22.1s-.06-.23,0-.39c2.66-4.13,7.28-7.06,15.46-9.78,2.09-.7,4.34-1.41,6.72-2.16,7.43-2.35,15.84-5,22.75-8.29,6-2.83,9.17-5.5,10.82-7.24a9.3,9.3,0,0,0,2.16-3.13l0-.09,4.77,5.71-9.69,6.74c-.13.05-13,5.2-25.9,10.05-7.58,2.85-13.68,5-18.14,6.5-3,1-5.29,1.65-6.79,2ZM99.9,29.88A9.8,9.8,0,0,1,97.75,33c-1.65,1.75-4.87,4.43-10.85,7.28C80,43.51,71.56,46.17,64.14,48.52c-2.38.75-4.63,1.46-6.72,2.16C49.27,53.4,44.66,56.31,42,60.43c-.08.12-.1.22,0,.27.45.54,5.5-.51,27-8.61,12.8-4.81,25.57-9.92,25.89-10l9.59-6.67Z"/><path d="M40.57,64a13.46,13.46,0,0,1,6.49-8.71c5.59-3.22,23.69-7.75,28.13-9.52s13.18-4.67,18-7.58,6.15-4.43,7.17-5.47,2.57-2.82,1.77-3.93c2.19-.16.92,3.77.92,3.77L77.2,54.37Z"/><path d="M60,97a22,22,0,0,1-4.86-.85,17,17,0,0,1-8.54-5.34c-2.95-3.67-5.14-9.58-5.86-15.81-.69-6,.12-11.32,2.1-13.88,3.7-4.78,8.7-6.44,16.25-8.95l3.18-1.06c2.49-.84,5.06-1.67,7.54-2.46,6.73-2.16,13.7-4.39,19.69-7.27,7.93-3.8,12.4-7.87,13.32-10.22.51-1.33.26-2,0-2.31l.36-.08,2.1,6,.82,0,3.7,1.9Z"/><path d="M103.15,29l2,5.73.07.2h.22l.67,0,3.5,1.8L60,96.85A22.11,22.11,0,0,1,55.2,96a19.55,19.55,0,0,1-4.37-1.83,14.59,14.59,0,0,1-4.09-3.45,24.76,24.76,0,0,1-3.86-7.19,38.8,38.8,0,0,1-2-8.54,32,32,0,0,1,0-8.06,12.36,12.36,0,0,1,2-5.71c3.68-4.75,8.66-6.4,16.18-8.9l3.18-1.06c2.49-.84,5.06-1.67,7.54-2.46,6.74-2.17,13.7-4.4,19.71-7.27A48.11,48.11,0,0,0,99,35.74a13.16,13.16,0,0,0,4-4.52,2.71,2.71,0,0,0,.12-2.26h0m.19-.34-.77.17s.88.46.15,2.34c-.82,2.13-5.05,6.22-13.24,10.14S71.56,47.83,62.27,51,47,55.57,42.75,61,40.07,82.9,46.52,90.91C51.39,97,60.1,97.16,60.1,97.16l50-60.6-3.9-2-.75,0-2.1-6Z"/><path d="M42.62,66s.06-2.58-8.92-3.72S3.86,53,1.89,48.28,4.76,38.21,4.76,38.21s-5,4.69-4.75,8.7L1.19,60.53c.08.79,6.48,5.7,7.26,5.86l32.79,5Z"/><path class="cls-2" d="M40,65.49s.83-2.35,2.48-2.32,3,.05,3.3,1.85A30.86,30.86,0,0,0,47,69.25L45.63,70Z"/><path d="M40,65.49s.91-1.62,2.08-1.57a5.77,5.77,0,0,1,2,.37c1.17.34,1.33,4.56,2.27,6.29S49,86,49,86s-.37-1.23-4.11-1.57-3.67-.71-4.64-1.71S40,65.49,40,65.49Z"/><path d="M127.36,29.22c7.33.08,10.65-.3,10.87.71.42,1.92-45.06,74.35-50.08,75.15s-12.15-.93-24-5.2S49,89.93,46.29,80.43,45.82,62.29,57.38,59C68.62,55.82,85.48,49.36,89,47.59s3.32-1.86,5-1.75,9.4-4.25,9.4-4.25l-2.22-.14a.05.05,0,0,1,0-.1A45.71,45.71,0,0,0,108,36.63a12.92,12.92,0,0,0,3.82-4.76,3.08,3.08,0,0,1,.08-1.09c.15-.6.42-.68.42-.68a125.32,125.32,0,0,1,15-.89Z"/><path d="M88.2,105.12h0c-4.79.76-11.52-.7-24-5.2-5.7-2.06-9.64-4.53-12.38-7.77-2.91-3.44-4.38-7.66-5.54-11.71C44.66,74.9,44.91,70,47,66.33c1.93-3.48,5.44-6,10.4-7.36C68.33,55.85,85.3,49.4,89,47.54l1.5-.76c2-1,2.11-1.08,3.51-1s8.15-3.57,9.22-4.16l-2.05-.13a.1.1,0,0,1,0-.19A46.14,46.14,0,0,0,108,36.6a13.12,13.12,0,0,0,3.8-4.73,3.14,3.14,0,0,1,.08-1.1c.16-.62.45-.71.46-.71a126.31,126.31,0,0,1,15-.89c1.94,0,3.63,0,5,0,4,0,5.76,0,5.93.74.29,1.32-20.16,34.39-34.85,55.87C97.55,94.39,90.15,104.69,88.2,105.12Zm4.49-59.2a10.12,10.12,0,0,0-2.14,1l-1.5.76c-3.7,1.86-20.68,8.31-31.65,11.42-4.94,1.4-8.42,3.86-10.34,7.31-2,3.67-2.29,8.53-.71,14,2.8,9.8,6.19,15.21,17.85,19.41,12.46,4.49,19.18,6,23.94,5.2h0c1.52-.33,6.76-7,15.17-19.28,15.67-22.91,35.09-54.61,34.84-55.8-.15-.71-2.05-.69-5.83-.67-1.36,0-3.05,0-5,0a126.27,126.27,0,0,0-15,.88s-.24.08-.38.64a3.06,3.06,0,0,0-.08,1.08h0A13.11,13.11,0,0,1,108,36.67a46.1,46.1,0,0,1-6.85,4.72l2.39.15-.14.08c-.32.18-7.77,4.36-9.42,4.25a4.7,4.7,0,0,0-1.31,0Z"/><path d="M97.86,45l6.16-3.2,1.91-.88,3.59.64-12.3,7-.44-3L97.86,45Z"/><path class="cls-5" d="M110.86,46.46c-6.19,3.29-19,9.71-27,12.78C76.73,62,71.82,65.71,69.85,68.79c-2.8,4.35-2.29,11.28-.68,18,2,8.28,6,16.14,11.63,17.5,10.24,2.46,14.09.15,14.09.15s22.35-14,27.9-17.37,14.95-11.18,20.87-14.85,7.09-8.15,6.59-16.28-2.46-15.34-3.36-19.49c-.77-3.55-2.71-5.91-6.11-6.17s-3.5-1.3-7.51,2c-4.4,3.64-15.13,10.32-22.41,14.19Z"/><path class="cls-2" d="M148.49,42.14a5.17,5.17,0,0,1-1.7,2,10,10,0,0,1-2.85,1l2.57,10.24a6.57,6.57,0,0,0,2.74-1.6,6,6,0,0,0,1.11-1.62Z"/><path class="cls-2" d="M83.18,67s-4.28,1.73-6.3,2.57a4.43,4.43,0,0,0-3.16,4.27c-.21,2.26-.58,4.33.8,6a1.78,1.78,0,0,0,1.79.8l3.94,14.91s-1.91.21-1.62,1.56,2.29,5.68,5.29,6.79a8.52,8.52,0,0,0,6.47.2,15.48,15.48,0,0,0,4-2.12L85.3,67.17Z"/><path class="cls-6" d="M141.47,49.67,141,47.33l4.11-1.85s1.08-.11,1.19.4a15.18,15.18,0,0,1,.07,2.09Z"/><path d="M94.68,103.8c-3.61.78-5.2-5.2-5.6-7,0,0-.75-3.71-.94-4.58C88,91.57,89.5,91,90,90.91l.14,0L87.62,80.2l-1.68.2a.53.53,0,0,1-.58-.41l-1.51-6.79a14.51,14.51,0,0,1,.13-6.9,8.17,8.17,0,0,1,4.46-4.74L138.82,33a5.78,5.78,0,0,1,1.7-.71c1.58-.34,2.79.48,3.59,2.46.4,1,1.64,7.29,2,9.19a.83.83,0,0,1-.34.84l-3.43,2.36a2.45,2.45,0,0,0-1,2.52l1.81,8.69a.51.51,0,0,0,.21.33.55.55,0,0,0,.42.06.93.93,0,0,0,.44-.24L148,55.08c.17,1,.77,4.75.83,5.14a18.22,18.22,0,0,1,.32,4.27,8.68,8.68,0,0,1-3.72,6.33L96,103.23a4.5,4.5,0,0,1-1.36.57Z"/><path d="M140.54,32.48c1.53-.33,2.64.44,3.42,2.37.39,1,1.63,7.26,2,9.16a.68.68,0,0,1-.28.69l-3.43,2.36a2.6,2.6,0,0,0-1.07,2.67L143,58.42a.64.64,0,0,0,.28.43.69.69,0,0,0,.53.09,1.08,1.08,0,0,0,.5-.28l3.64-3.28c.21,1.29.73,4.51.79,4.88A17.79,17.79,0,0,1,149,64.5a8.54,8.54,0,0,1-3.65,6.23L96,103.11a4.36,4.36,0,0,1-1.31.55c-3.47.75-5-5.12-5.42-6.93,0,0-.75-3.72-.94-4.59-.08-.39,1-.88,1.77-1.09l.29-.07-.07-.29L87.8,80.29,87.74,80l-.26,0-1.56.18a.39.39,0,0,1-.42-.3l-.15-.67L84,73.16a14.42,14.42,0,0,1,.12-6.83,8,8,0,0,1,4.38-4.65h0l50.37-28.5h0a5.63,5.63,0,0,1,1.65-.69m-.06-.29a5.88,5.88,0,0,0-1.74.73L88.37,61.42c-5,2.5-5.54,6.42-4.67,11.8l1.36,6.12.15.67a.68.68,0,0,0,.74.53l1.56-.18L90,90.77s-2.18.56-2,1.44.94,4.58.94,4.58c.57,2.62,2.26,7.92,5.77,7.16a4.63,4.63,0,0,0,1.41-.59L145.55,71a8.89,8.89,0,0,0,3.78-6.44,18,18,0,0,0-.32-4.31c-.07-.47-.87-5.42-.87-5.42l-4,3.64a.79.79,0,0,1-.37.2.35.35,0,0,1-.45-.28l-1.81-8.69a2.31,2.31,0,0,1,1-2.37l3.43-2.36a1,1,0,0,0,.4-1c-.39-2-1.62-8.22-2-9.22-.77-1.9-2-2.93-3.75-2.55Z"/><path d="M145.07,45.48s1.06-.35,1.29.68,1.33,7.35,1.53,8.27.23,1.61-2.17,3.36c-2.17,1.58-2.44.57-2.44.57s-1.51-7.33-1.81-8.69,2-1.22,3.14-1.89c2.9-1.69,1.15-2.59.46-2.31Z"/><path class="cls-7" d="M119.66,54a2.14,2.14,0,0,0-.41-.07,2.11,2.11,0,0,1-.59-.13.47.47,0,0,1-.2-.43.31.31,0,0,1,.15-.28.21.21,0,0,1,.3.16l.11.36.75-.43-.16-.53s-.21-.9-1.17-.42a1.3,1.3,0,0,0-.72,1.72l.1.34a1.34,1.34,0,0,0,.32.57,1,1,0,0,0,.37.19l.75.12a.48.48,0,0,1,.35.38s.07.33-.15.44c0,0-.2.1-.3-.2l-.11-.36-.81.47.16.53s.29,1,1.32.41a1.51,1.51,0,0,0,.71-1.64l-.13-.42s-.16-.67-.64-.79m-4.6.25.47,2.58-.06,0-1-2.26-1.38.76,1.3,4.49.81-.48-1-3.34.06,0L115.71,59l.83-.5L116,55l.06,0,1,3.27.78-.47-1.41-4.31-1.32.73ZM110.14,57l.84,4.89.92-.55-.75-3.71.08,0,1.41,3.31.89-.53-1.94-4.17-1.45.81Zm17.43-7.62.17.59.18-.1.19.63c.09.31-.07.41-.07.41-.2.12-.28-.18-.28-.18l-.64-2.18a.3.3,0,0,1,.11-.34c.16-.09.25.17.25.17l.1.33.65-.37c-.17-.65-.29-.76-.29-.76-.33-.49-.94-.12-.94-.12a1.32,1.32,0,0,0-.5,1.64l.63,2.12a.75.75,0,0,0,1.25.4,1.22,1.22,0,0,0,.45-.6,1,1,0,0,0,0-.41,3.13,3.13,0,0,0-.09-.48l-.36-1.23Zm-2,1.93,0,0-1.43-2.09-.85.47,1.23,4.12.68-.41-.78-2.47,0,0L125.86,53l.79-.47-1.2-4-.68.38Zm-3.09,2.49s.11.34-.09.46c0,0-.22.15-.32-.2l-.95-3.16-.8.45.95,3.15a.85.85,0,0,0,1.37.58,1.45,1.45,0,0,0,.6-1.68l-.94-3.16-.76.42ZM109,60.1a2.59,2.59,0,0,0-.48-.06,2.51,2.51,0,0,1-.7-.11.48.48,0,0,1-.23-.46.36.36,0,0,1,.18-.31.24.24,0,0,1,.32.1l0,.06.12.39.9-.51-.18-.58s-.23-1-1.37-.4l-.21.12a1.82,1.82,0,0,0-.77,1.09h0a1.41,1.41,0,0,0,.1.71l.11.37a1.33,1.33,0,0,0,.37.61,1.09,1.09,0,0,0,.43.19l.88.1a.51.51,0,0,1,.4.4s.08.36-.18.5c0,0-.25.13-.35-.21l-.12-.39-1,.57.18.58s.32,1.12,1.56.38a1.76,1.76,0,0,0,.87-1.84l-.14-.46s-.18-.73-.75-.84"/><path d="M85.39,80.56s5.23-2.09,7-2.77,2,.73,2,.73l1.76,8.09s.4.75-.64,1.54a21.25,21.25,0,0,1-4.43,2.57,22.46,22.46,0,0,1-3.32.89l-2.18,1.81-3.88,1.11L78.66,82.71Z"/><path class="cls-5" d="M76.31,80.62a57.08,57.08,0,0,0,1.56,7.19c1.23,4.5,2.38,7.72,2.38,7.72a46,46,0,0,0,5.23-1.65A16.45,16.45,0,0,0,88,92.69l-.24-1.09s-2.25,1.1-2.89,1.34l-1.74.6a.93.93,0,0,1-1.21-.73L79.77,84.1a1.12,1.12,0,0,1,.71-1.41c.9-.28,2.17-.68,2.95-1a6.7,6.7,0,0,0,2-1.13l-.62-2.38a18,18,0,0,1-4.61,1.9A18.64,18.64,0,0,1,76.31,80.62Z"/><path d="M86.27,80.21a2.26,2.26,0,0,1,.8-.19,2.56,2.56,0,0,1,.42,0,2.2,2.2,0,0,1,.41.09,1.94,1.94,0,0,1,.74.43,2,2,0,0,1,.28.33,2.34,2.34,0,0,1,.2.38,1.94,1.94,0,0,1,.07.2l0,.1,0,.09.11.39.2.78c.13.52.26,1,.38,1.56q.37,1.56.72,3.13c.12.52.23,1,.35,1.57s.23,1,.34,1.57l-.48.1-.67-3.14q-.33-1.57-.67-3.14l-.34-1.57L89,82.14l-.09-.39,0-.1,0-.09a1.63,1.63,0,0,0-.06-.18,2,2,0,0,0-.16-.33,1.69,1.69,0,0,0-.23-.29,1.65,1.65,0,0,0-.62-.39,3,3,0,0,0-.75-.16,5.86,5.86,0,0,0-.8,0Z"/><path class="cls-8" d="M145.46,57.59a.25.25,0,0,1-.29-.19h0l-1.76-8.67a.24.24,0,1,1,.48-.1h0l1.75,8.67a.25.25,0,0,1-.18.29Zm-.8.48a.25.25,0,0,1-.29-.19h0l-1.76-8.67a.24.24,0,1,1,.48-.1h0l1.75,8.67a.25.25,0,0,1-.18.29Zm-.73.36a.25.25,0,0,1-.29-.19h0l-1.76-8.67a.24.24,0,1,1,.48-.1h0l1.75,8.67a.25.25,0,0,1-.18.29Z"/><path class="cls-5" d="M93.94,86.4l-1.46.9a.86.86,0,0,1-1.29-.55l-.65-3a.86.86,0,0,1,.4-.92l1.87-1.09a.53.53,0,0,1,.78.34l.74,3.4a.86.86,0,0,1-.39.91Z"/><path d="M101.49,48.21c-1.49.32-2.76,0-3.24-.92-.68-1.26.4-3.17,2.41-4.27a6.23,6.23,0,0,1,1.65-.62c1.49-.32,2.76,0,3.24.92.68,1.26-.4,3.18-2.41,4.27A6.23,6.23,0,0,1,101.49,48.21Z"/><path d="M102.34,42.55c1.42-.31,2.63,0,3.08.85a2.1,2.1,0,0,1-.18,2,5.4,5.4,0,0,1-2.17,2,6.08,6.08,0,0,1-1.61.61c-1.42.31-2.63,0-3.08-.85a2.1,2.1,0,0,1,.18-2,5.4,5.4,0,0,1,2.17-2,6.08,6.08,0,0,1,1.61-.61m-.06-.29a6.4,6.4,0,0,0-1.69.64C98.5,44,97.39,46,98.12,47.36c.53,1,1.89,1.32,3.4,1a6.4,6.4,0,0,0,1.69-.64c2.09-1.14,3.19-3.14,2.47-4.47-.53-1-1.89-1.32-3.4-1Z"/><path d="M101.55,48.5h-.07a.15.15,0,1,1-.06-.29h.06l.3-.07a.15.15,0,0,1,.18.1.15.15,0,0,1-.1.18h0Zm-.92.12h-.42a.15.15,0,0,1,0-.29h.39a.15.15,0,0,1,0,.29Zm2-.48a.15.15,0,0,1-.09-.28l.34-.16a.15.15,0,1,1,.13.26h0l-.36.16Zm1.09-.6a.15.15,0,0,1-.11-.27l.31-.22a.15.15,0,0,1,.18.23l-.32.23-.05,0Zm-4.36.92h-.08a2.84,2.84,0,0,1-.38-.15.15.15,0,0,1,.13-.27l.34.13a.15.15,0,0,1,0,.28Zm5.32-1.71a.15.15,0,0,1-.14-.25l.25-.27a.15.15,0,0,1,.23.18h0c-.08.1-.17.2-.27.29l-.07,0Zm-6.37,1.06a.15.15,0,0,1-.14,0,2,2,0,0,1-.23-.34.15.15,0,0,1,.06-.2.15.15,0,0,1,.2.06h0a1.65,1.65,0,0,0,.2.28.15.15,0,0,1,0,.21l-.06,0Zm7.13-2a.15.15,0,0,1-.16-.22c.06-.11.12-.22.17-.33a.15.15,0,0,1,.27.12h0q-.08.18-.18.35a.15.15,0,0,1-.09.07Zm-7.56.9h0a.15.15,0,0,1-.15-.14,2.42,2.42,0,0,1,0-.41.15.15,0,0,1,.29,0,2.12,2.12,0,0,0,0,.36.15.15,0,0,1-.11.15Zm8-2.06a.15.15,0,0,1-.18-.16,2.13,2.13,0,0,0,0-.36.15.15,0,1,1,.3,0,2.43,2.43,0,0,1,0,.41.15.15,0,0,1-.12.13Zm-7.72.86a.15.15,0,0,1-.16-.2c.05-.12.11-.24.18-.35a.15.15,0,0,1,.25.15c-.06.11-.12.22-.17.33a.15.15,0,0,1-.1.09Zm7.52-2.06a.15.15,0,0,1-.16-.07h0a1.65,1.65,0,0,0-.2-.29.15.15,0,1,1,.22-.19,2,2,0,0,1,.24.34h0a.15.15,0,0,1-.06.2h0Zm-6.85,1a.15.15,0,0,1-.14-.24c.08-.1.17-.2.27-.29a.15.15,0,0,1,.21.21l-.25.27a.15.15,0,0,1-.08,0Zm5.94-1.86a.15.15,0,0,1-.09,0l-.34-.13a.15.15,0,0,1,.09-.28,2.85,2.85,0,0,1,.38.15.15.15,0,0,1,0,.28Zm-5,1a.15.15,0,0,1-.12-.26l.32-.23a.15.15,0,0,1,.16.24l-.31.22-.06,0Zm1.06-.65a.15.15,0,1,1-.1-.28l.36-.16a.15.15,0,1,1,.12.27l-.34.16,0,0Zm2.77-.64h-.41a.15.15,0,1,1,0-.3h.4a.15.15,0,0,1,0,.29Zm-1.61.19a.15.15,0,0,1-.07-.29l.32-.08h.06a.15.15,0,0,1,.17.11h0a.15.15,0,0,1-.11.17h-.06l-.31.08Z"/><path d="M102.65,48.46c-1.49.32-2.76,0-3.24-.92-.68-1.26.4-3.17,2.41-4.27a6.23,6.23,0,0,1,1.65-.62c1.49-.32,2.76,0,3.24.92.68,1.26-.4,3.18-2.41,4.27A6.23,6.23,0,0,1,102.65,48.46Z"/><path d="M103.5,42.8c1.42-.31,2.63,0,3.08.85a2.1,2.1,0,0,1-.18,2,5.4,5.4,0,0,1-2.17,2,6.08,6.08,0,0,1-1.61.61c-1.42.31-2.63,0-3.08-.85a2.1,2.1,0,0,1,.18-2,5.4,5.4,0,0,1,2.17-2,6.08,6.08,0,0,1,1.61-.61m-.06-.29a6.4,6.4,0,0,0-1.69.64c-2.08,1.13-3.19,3.14-2.46,4.47.53,1,1.89,1.32,3.4,1a6.4,6.4,0,0,0,1.69-.64c2.09-1.14,3.19-3.14,2.47-4.47-.53-1-1.89-1.32-3.4-1Z"/><path d="M102.71,48.75h-.07a.15.15,0,1,1-.06-.29h.06l.3-.07a.15.15,0,0,1,.18.1.15.15,0,0,1-.1.18h0l-.31.08Zm-.92.12h-.42a.15.15,0,0,1,0-.29h.39a.15.15,0,0,1,0,.29Zm2-.48a.15.15,0,1,1-.09-.28h0l.34-.16a.15.15,0,1,1,.13.26h0l-.36.16Zm1.09-.6a.15.15,0,0,1-.11-.27l.31-.22a.15.15,0,0,1,.18.23l-.32.23-.05,0Zm-4.36.92h-.08a2.84,2.84,0,0,1-.38-.15.15.15,0,0,1,.13-.27l.34.13a.15.15,0,0,1,0,.28ZM105.89,47a.15.15,0,0,1-.14-.25l.25-.27a.15.15,0,0,1,.23.18h0c-.08.1-.17.2-.27.29l-.07,0Zm-6.37,1.06a.15.15,0,0,1-.14,0,2,2,0,0,1-.23-.34.15.15,0,0,1,.06-.2.15.15,0,0,1,.2.06h0a1.65,1.65,0,0,0,.2.29.15.15,0,0,1,0,.21l-.06,0Zm7.13-2a.15.15,0,0,1-.16-.22c.06-.11.12-.22.17-.33a.15.15,0,0,1,.27.12q-.08.18-.18.35a.15.15,0,0,1-.09.07Zm-7.56.9h0a.15.15,0,0,1-.15-.14,2.42,2.42,0,0,1,0-.41.15.15,0,0,1,.29,0,2.12,2.12,0,0,0,0,.36.15.15,0,0,1-.11.15Zm8-2.06a.15.15,0,0,1-.18-.16,2.13,2.13,0,0,0,0-.36.15.15,0,1,1,.3,0,2.43,2.43,0,0,1,0,.41.15.15,0,0,1-.12.13Zm-7.72.86a.15.15,0,0,1-.16-.2c.05-.12.11-.24.18-.35a.15.15,0,0,1,.25.15c-.06.11-.12.22-.17.33a.15.15,0,0,1-.1.09Zm7.52-2.06a.15.15,0,0,1-.16-.07h0a1.65,1.65,0,0,0-.2-.29.15.15,0,1,1,.22-.19,2,2,0,0,1,.24.34h0a.15.15,0,0,1-.06.2h0Zm-6.85,1a.15.15,0,0,1-.14-.24c.08-.1.17-.2.27-.29a.15.15,0,0,1,.21.21l-.25.27a.15.15,0,0,1-.08,0ZM106,42.82a.15.15,0,0,1-.09,0l-.34-.13a.15.15,0,1,1,.09-.28h0a2.85,2.85,0,0,1,.38.15.15.15,0,0,1,0,.28Zm-5,1a.15.15,0,0,1-.12-.26l.32-.23a.15.15,0,0,1,.16.24l-.31.22-.06,0Zm1.06-.65a.15.15,0,0,1-.1-.28l.36-.16a.15.15,0,1,1,.12.27l-.34.16,0,0Zm2.77-.64h-.41a.15.15,0,0,1,0-.3h.4a.15.15,0,0,1,0,.29Zm-1.61.19a.15.15,0,0,1-.07-.29l.32-.08h.06a.15.15,0,1,1,.06.29h-.06l-.31.08Z"/><path d="M97.86,45s-1,.5-1,.79,1.42.75,4.25-.77c0,0,3.77-2.17,4.56-2.6s.64-.74-.17-.79a3.76,3.76,0,0,0-1.49.17l2.42-1.32,9.83,1.71L98.62,52l-6.33-4.64Z"/><path d="M98.62,52,92.19,47.3l.08,0,5.57-2.33,0,.09c-.42.2-1,.56-1,.74s.05.09.17.14c.56.26,1.94.16,4-.95,0,0,3.78-2.18,4.56-2.6.48-.26.5-.42.49-.47s-.27-.2-.64-.23a3.78,3.78,0,0,0-1.47.16l0-.09,2.44-1.33h0l10,1.73-.12.07Zm-6.23-4.68,6.24,4.57,17.51-9.7-9.68-1.68-2,1.12a4.49,4.49,0,0,1,1.11-.06c.44,0,.7.13.73.3s-.14.37-.54.58c-.78.42-4.52,2.57-4.56,2.6C99,46.18,97.63,46.27,97,46a.36.36,0,0,1-.22-.21c0-.14.14-.31.35-.46ZM76.7,95.61A1,1,0,0,1,75.53,95L72.15,82.72a.95.95,0,1,1,1.83-.5s1.13,4.63,1.81,7.09,1.57,5.14,1.57,5.14a1,1,0,0,1-.66,1.16Z"/><path class="cls-2" d="M74.83,94.54l-1.47-4.6a6.32,6.32,0,0,0-.14-1.15,2.66,2.66,0,0,0-.38-1l-1.11-5c-.18-.85,1.06-.88,1.34.38,0,0,.61,2.44,1.23,4.84a3.07,3.07,0,0,1,.55,2.08c.64,2.31,1.24,4.13,1.24,4.13C76.57,95.64,75.14,95.92,74.83,94.54Z"/><path d="M92.79,86.34l-.71.42a.36.36,0,0,1-.54-.24l-.6-2.73a.36.36,0,0,1,.17-.39l.71-.42a.36.36,0,0,1,.54.24l.6,2.73A.36.36,0,0,1,92.79,86.34Z"/><path class="cls-4" d="M92.84,86.22a.15.15,0,0,1-.17-.11L92,83.24a.15.15,0,1,1,.29-.06L93,86A.15.15,0,0,1,92.84,86.22Zm-.44.3a.15.15,0,0,1-.17-.11l-.62-2.87a.15.15,0,1,1,.29-.06l.62,2.87A.15.15,0,0,1,92.41,86.52Zm-.44.3a.15.15,0,0,1-.17-.11l-.62-2.87a.15.15,0,1,1,.29-.06l.62,2.87A.15.15,0,0,1,92,86.81Z"/><path d="M74.39,93.32l1,0-.3,1.27Zm-2.32-9.12H73l-.83-1.49Z"/><path class="cls-5" d="M51.53,85.8A50.41,50.41,0,0,1,49.83,78c-.23-2.91.92-6.36,4.88-5.33s6.34,2.44,8.41,9.6c1.84,6.38,2.14,6.69,2.7,9.23S68.06,99,64.3,97.92s-4.37-1.39-5.71-2.25A20.67,20.67,0,0,1,51.53,85.8Z"/><path d="M59.26,72.87a1,1,0,0,1-.33,0A1.33,1.33,0,0,1,58,72a3.49,3.49,0,0,1-.23-1.86,2.6,2.6,0,0,1,1.54-2.31,1,1,0,0,1,.33,0,1.33,1.33,0,0,1,1,.86,3.49,3.49,0,0,1,.23,1.86A2.6,2.6,0,0,1,59.26,72.87Z"/><path d="M59.28,67.93a.87.87,0,0,1,.3,0c.78.1,1.3,1.3,1.13,2.62a2.51,2.51,0,0,1-1.46,2.23.87.87,0,0,1-.3,0c-.78-.1-1.3-1.3-1.13-2.62a2.51,2.51,0,0,1,1.46-2.23m0-.19a2.67,2.67,0,0,0-1.61,2.4c-.19,1.45.39,2.72,1.3,2.84a1.07,1.07,0,0,0,.36,0,2.67,2.67,0,0,0,1.61-2.4c.19-1.45-.39-2.72-1.3-2.84a1.07,1.07,0,0,0-.36,0Z"/><path d="M52.08,71a.85.85,0,0,1-.32,0,1.21,1.21,0,0,1-.86-.85,3.5,3.5,0,0,1-.14-1.8,2.57,2.57,0,0,1,1.48-2.19.85.85,0,0,1,.32,0,1.21,1.21,0,0,1,.86.85,3.5,3.5,0,0,1,.14,1.8A2.57,2.57,0,0,1,52.08,71Z"/><path d="M52.26,66.28a.75.75,0,0,1,.28,0,1.12,1.12,0,0,1,.79.79,3.39,3.39,0,0,1,.14,1.75c-.18,1.08-.77,2-1.4,2.11a.75.75,0,0,1-.28,0,1.12,1.12,0,0,1-.79-.79,3.39,3.39,0,0,1-.14-1.75c.18-1.08.77-2,1.4-2.11m0-.19a2.63,2.63,0,0,0-1.56,2.27c-.23,1.39.26,2.63,1.09,2.76a.94.94,0,0,0,.35,0,2.63,2.63,0,0,0,1.56-2.27c.23-1.39-.25-2.63-1.09-2.76a.94.94,0,0,0-.35,0Z"/><path d="M58.83,72.31h-.13a.77.77,0,0,1-.6-.46,2.26,2.26,0,0,1-.25-1.16c0-.78.39-1.45.83-1.54h.13c.49,0,.88.76.85,1.62s-.38,1.45-.83,1.54Z"/><path d="M58.73,69.3h.09a.64.64,0,0,1,.48.38,2.14,2.14,0,0,1,.23,1.08c0,.79-.39,1.33-.72,1.4h-.09c-.36,0-.74-.62-.7-1.47s.39-1.33.72-1.4M58.66,69c-.51.11-.92.82-.95,1.68s.41,1.75,1,1.77h.16c.51-.11.92-.82.95-1.68S59.4,69,58.83,69h-.16Z"/><path d="M51.92,70.2a.52.52,0,0,1-.19,0,.77.77,0,0,1-.54-.53,2.26,2.26,0,0,1-.1-1.18,1.65,1.65,0,0,1,1-1.41.52.52,0,0,1,.19,0c.48.08.77.86.63,1.71S52.35,70.1,51.92,70.2Z"/><path d="M52.08,67.22h.14c.35.06.65.71.51,1.54a1.52,1.52,0,0,1-.84,1.29h-.14c-.35-.06-.65-.71-.51-1.54a1.53,1.53,0,0,1,.84-1.3M52,66.93a1.78,1.78,0,0,0-1.07,1.54c-.15.95.19,1.79.76,1.88a.66.66,0,0,0,.25,0A1.78,1.78,0,0,0,53,68.81c.15-.95-.19-1.79-.76-1.88A.66.66,0,0,0,52,66.93Z"/><path class="cls-3" d="M10.43,56.67s21.55,7.78,25.3,8.5c4.65.9,5.42.13,7.44.22s1.13,2.27.92,4.26-1.46,10.09-1.72,12.16-2.25,2.09-6,1.82S26,80,20.06,77.15s-6.72-4.61-6.72-4.61Z"/><path d="M2.94,51.19s.24-1.59,1.49-.63,9.62,7,9.62,7,1.18.69,1.54,3.47C15.91,63.56,16.67,71,17,74.33a.69.69,0,0,1-.65.67.76.76,0,0,1-.58-.14L7,67.75a5.53,5.53,0,0,1-2.07-3.52Z"/><path class="cls-3" d="M4,52.09H4a.23.23,0,0,1-.28-.15l-.12-.78.7.51a.18.18,0,0,1,0,.29.31.31,0,0,1-.15.07A.31.31,0,0,1,4,52.09ZM16.32,73.24h0a.22.22,0,0,1-.28-.16h0l0-.39a.24.24,0,0,1,.23-.24.22.22,0,0,1,.28.16h0l0,.39A.24.24,0,0,1,16.32,73.24ZM16.16,72h0a.22.22,0,0,1-.28-.16l0-.39a.24.24,0,0,1,.23-.24h0a.22.22,0,0,1,.28.16h0l0,.39A.24.24,0,0,1,16.16,72ZM16,70.71h0a.22.22,0,0,1-.28-.16h0l0-.39a.24.24,0,0,1,.23-.24.22.22,0,0,1,.28.16h0l0,.39A.24.24,0,0,1,16,70.71Zm-.16-1.27h0a.22.22,0,0,1-.28-.16h0l0-.39a.24.24,0,0,1,.23-.24.22.22,0,0,1,.28.16h0l0,.39A.24.24,0,0,1,15.84,69.44Zm-.16-1.27h0A.22.22,0,0,1,15.4,68l0-.39a.24.24,0,0,1,.23-.24.22.22,0,0,1,.28.16h0l0,.39a.24.24,0,0,1-.22.24Zm-.16-1.27h0a.22.22,0,0,1-.28-.16h0l0-.39a.24.24,0,0,1,.23-.24.22.22,0,0,1,.28.16h0l0,.39a.24.24,0,0,1-.21.23Zm-.16-1.27h0a.22.22,0,0,1-.28-.16h0l0-.39a.24.24,0,0,1,.23-.24.22.22,0,0,1,.28.16h0l.05.39a.24.24,0,0,1-.21.24Zm-.16-1.27h0a.22.22,0,0,1-.28-.16h0l0-.39a.24.24,0,0,1,.23-.24.22.22,0,0,1,.28.16h0l0,.39a.24.24,0,0,1-.2.23Zm-.16-1.27h0a.22.22,0,0,1-.28-.16h0l0-.39a.24.24,0,0,1,.23-.24.22.22,0,0,1,.28.16h0l0,.39a.24.24,0,0,1-.2.23Zm-.16-1.27h0a.22.22,0,0,1-.28-.16h0l0-.39a.24.24,0,0,1,.23-.24.22.22,0,0,1,.28.16h0l0,.39a.24.24,0,0,1-.2.23Zm-.16-1.27h0a.22.22,0,0,1-.28-.16h0l0-.39a.24.24,0,0,1,.23-.24.22.22,0,0,1,.28.16h0l0,.39a.24.24,0,0,1-.2.23Zm-.5-1.11a.28.28,0,0,1-.22,0l-.35-.25a.18.18,0,0,1,0-.29.31.31,0,0,1,.36,0l.35.25a.18.18,0,0,1,0,.29.31.31,0,0,1-.13.07Zm-1.12-.83a.28.28,0,0,1-.22,0l-.35-.25a.18.18,0,0,1,0-.29.3.3,0,0,1,.36,0l.35.25a.18.18,0,0,1,0,.29A.31.31,0,0,1,13.14,58.64ZM12,57.81a.28.28,0,0,1-.22,0l-.35-.25a.18.18,0,0,1,0-.29.3.3,0,0,1,.36,0l.35.25a.18.18,0,0,1,0,.29A.31.31,0,0,1,12,57.81ZM10.89,57a.28.28,0,0,1-.22,0l-.35-.25a.18.18,0,0,1,0-.29.3.3,0,0,1,.36,0l.35.25a.18.18,0,0,1,0,.29.31.31,0,0,1-.13.07Zm-1.13-.83a.28.28,0,0,1-.22,0l-.35-.25a.18.18,0,0,1,0-.29.3.3,0,0,1,.36,0h0l.35.25a.18.18,0,0,1,0,.29.31.31,0,0,1-.13.07Zm-1.13-.83a.28.28,0,0,1-.22,0L8.07,55a.18.18,0,0,1,0-.29.3.3,0,0,1,.33,0l.35.25a.18.18,0,0,1,0,.29.31.31,0,0,1-.13.07ZM7.51,54.5a.28.28,0,0,1-.22,0l-.35-.25a.18.18,0,0,1,0-.29.3.3,0,0,1,.36,0l.35.25a.18.18,0,0,1,0,.29A.31.31,0,0,1,7.51,54.5Zm-1.13-.83a.28.28,0,0,1-.22,0l-.35-.25a.18.18,0,0,1,0-.29.3.3,0,0,1,.36,0l.35.25a.18.18,0,0,1,0,.29.31.31,0,0,1-.13.07Zm-1.13-.83a.28.28,0,0,1-.22,0l-.35-.26a.18.18,0,0,1,0-.29.3.3,0,0,1,.36,0l.35.25a.18.18,0,0,1,0,.29.31.31,0,0,1-.13.07ZM16.73,74.66,16,74.14a.18.18,0,0,1,0-.29.32.32,0,0,1,.15-.07.3.3,0,0,1,.36,0,.17.17,0,0,1,.07.12Zm-1.25-1.09a.28.28,0,0,1-.23,0l-.35-.27a.18.18,0,0,1,0-.29.3.3,0,0,1,.36,0l.36.27a.18.18,0,0,1,0,.29.31.31,0,0,1-.13.06Zm-1.15-.88a.28.28,0,0,1-.23,0l-.36-.27a.18.18,0,0,1,0-.29.3.3,0,0,1,.36,0l.35.27a.18.18,0,0,1,0,.29.31.31,0,0,1-.12.06Zm-1.15-.88a.28.28,0,0,1-.23,0l-.35-.27a.17.17,0,0,1,0-.29.3.3,0,0,1,.36,0h0l.35.27a.18.18,0,0,1,0,.29.31.31,0,0,1-.13.06ZM12,70.93a.28.28,0,0,1-.23,0l-.35-.27a.18.18,0,0,1,0-.29.3.3,0,0,1,.36,0l.35.27a.18.18,0,0,1,0,.29.31.31,0,0,1-.13.06ZM10.87,70a.28.28,0,0,1-.23,0l-.35-.27a.18.18,0,0,1,0-.29.3.3,0,0,1,.36,0l.35.27A.18.18,0,0,1,11,70a.31.31,0,0,1-.13.06Zm-1.15-.88a.28.28,0,0,1-.23,0l-.36-.27a.18.18,0,0,1,0-.29.3.3,0,0,1,.36,0l.35.27a.18.18,0,0,1,0,.29.31.31,0,0,1-.13.06Zm-1.15-.88a.28.28,0,0,1-.23,0L8,68a.18.18,0,0,1,0-.29.3.3,0,0,1,.36,0l.35.27a.18.18,0,0,1,0,.29.31.31,0,0,1-.13.06Zm-1.15-.88a.28.28,0,0,1-.23,0l-.36-.27a.18.18,0,0,1,0-.29.3.3,0,0,1,.36,0l.35.27a.18.18,0,0,1,0,.29.31.31,0,0,1-.13.06Zm-1.15-.88a.28.28,0,0,1-.23,0l-.13-.1L5.85,66a.24.24,0,0,1,.22-.24.23.23,0,0,1,.28.15l0,.26h0a.18.18,0,0,1,0,.29.31.31,0,0,1-.13.06ZM6,65.24H6a.23.23,0,0,1-.28-.15l-.06-.4a.24.24,0,0,1,.22-.24.23.23,0,0,1,.28.15h0l.06.4a.24.24,0,0,1-.21.24Zm-.2-1.31h0a.23.23,0,0,1-.28-.15l-.06-.4a.24.24,0,0,1,.22-.24.23.23,0,0,1,.28.15h0l.06.4A.24.24,0,0,1,5.8,63.93Zm-.2-1.31h0a.23.23,0,0,1-.28-.15l-.06-.4a.24.24,0,0,1,.22-.24.23.23,0,0,1,.28.15l.06.4a.24.24,0,0,1-.21.24ZM5.4,61.3h0a.23.23,0,0,1-.28-.15L5,60.74a.24.24,0,0,1,.22-.24.23.23,0,0,1,.28.15l.06.4a.24.24,0,0,1-.21.24ZM5.2,60h0a.23.23,0,0,1-.28-.15l-.06-.4a.24.24,0,0,1,.22-.24.23.23,0,0,1,.28.15l.06.4A.24.24,0,0,1,5.2,60ZM5,58.67H5a.23.23,0,0,1-.28-.15h0l-.06-.4a.24.24,0,0,1,.22-.24.23.23,0,0,1,.28.15l.06.4a.24.24,0,0,1-.21.24Zm-.2-1.31h0a.23.23,0,0,1-.28-.15l-.06-.4a.24.24,0,0,1,.22-.24.23.23,0,0,1,.28.15l.06.4a.24.24,0,0,1-.21.24ZM4.59,56h0a.23.23,0,0,1-.28-.15l-.06-.4a.24.24,0,0,1,.22-.24.23.23,0,0,1,.28.15h0l.06.4a.24.24,0,0,1-.21.24Zm-.2-1.31h0a.23.23,0,0,1-.28-.15L4,54.17a.24.24,0,0,1,.22-.25h0a.23.23,0,0,1,.28.15l.06.4a.24.24,0,0,1-.2.24Zm-.2-1.32h0a.23.23,0,0,1-.28-.15l-.06-.4a.24.24,0,0,1,.22-.24.23.23,0,0,1,.28.15l.06.4a.24.24,0,0,1-.21.24Z"/><path d="M58.16,71.19s1.13.41,1.19-.41c0-.27-.26-.46-.69-.51"/><path d="M59,71.42a1.76,1.76,0,0,1-.85-.09l.1-.28a1.17,1.17,0,0,0,.84,0,.36.36,0,0,0,.15-.3c0-.21-.29-.32-.56-.35l0-.29c.53.06.84.31.82.66a.65.65,0,0,1-.29.53.74.74,0,0,1-.24.1Z"/><path d="M58.84,69.85l-.8.36.71.52.09-.88Z"/><path d="M51.28,68.33l1-.54.41.81-.21,0-.18.67-1-.23.19-.66-.22-.1Z"/><path d="M52.42,69.51l-1.29-.3.2-.69-.38-.17,1.4-.75.57,1.12-.31.07ZM51.5,69l.71.17.17-.62.11,0L52.23,68l-.61.33.07,0Z"/><path d="M57.67,85.07l.3,1.39"/><path d="M58,86.61a.15.15,0,0,1-.18-.11l-.3-1.39a.15.15,0,1,1,.29-.06l.3,1.39A.15.15,0,0,1,58,86.61Z"/></g></g></svg>