<svg xmlns="http://www.w3.org/2000/svg" viewBox="0 0 150.36 83.58"><defs><style>.cls-1{fill:#0d0d0d;}.cls-2{fill:#121315;}.cls-3{fill:#262626;}.cls-4{fill:#1a1a1a;}.cls-5{fill:#030303;}.cls-6{fill:#454545;}.cls-7{fill:#202021;}</style></defs><title>ico4of</title><g id="Capa_2" data-name="Capa 2"><g id="objetos"><path d="M101.16,19.52s-.28.09.11,1.22,2.67-.85,2.67-.85L103,19Z"/><path d="M68.75.78A2.5,2.5,0,0,1,71.27.06C73.06.37,85,2.21,85,2.21A1.8,1.8,0,0,1,86.71,4c0,1.48-.49,5.86-.67,7.84,0,.32-1.44.72-2.09.6L71.53,10C69.9,9.72,69,9.13,69,8.34Z"/><path d="M79.65,1.91l8.84,1.26,19.48,4,1.06,6-7.35-3.74L95,17.53,75,7.28l4.67-5.37Z"/><path d="M110.6,14.12l.68-.4-1.11-4.56s0-1.75-1.47-1.95c-1.17-.16-.9.25-.9.25s.09.07.75.7c1.19,1.14,2.05,6,2.05,6Z"/><path class="cls-1" d="M107.87,7.24l-.48.35,1.5,6.9,1.72-.37L110.3,11l-1-3.12-1.4-.61Z"/><path class="cls-2" d="M5,15c3-2.87,11.7-9.61,34.69-12.3,31-3.63,61.6,5,61.6,5l6.9.83,1.26,6.36L95.73,21.93S70.1,13.09,43.2,15.81,7.41,28.53,6.41,33.34C2,32.29,1.19,25,1.19,25l-.3-2.4S1.95,17.83,5,15Z"/><path class="cls-3" d="M102.58,6.94c-1.23-1.21-2.67-.89-4.31.8a9.83,9.83,0,0,0-3.09,5.79c-.48,2.72,7.33-.28,7.33-.28L104,9.62l-.74-2.32Z"/><path class="cls-3" d="M98.67,14.47c-1.37.3-2.72.42-3.29-.05a.87.87,0,0,1-.27-.88,9.86,9.86,0,0,1,3.11-5.82A4.16,4.16,0,0,1,101,6.17a2.3,2.3,0,0,1,1.65.74l.69.36L104,9.62l-1.51,3.68h0A30,30,0,0,1,98.67,14.47Zm1.86-8.15A4.74,4.74,0,0,0,98.3,7.78a9.77,9.77,0,0,0-3.08,5.77.76.76,0,0,0,.23.79c1.25,1,6.64-1,7-1.12l1.48-3.6-.73-2.28L102.54,7a2.21,2.21,0,0,0-1.59-.71,2.1,2.1,0,0,0-.41.05Z"/><path class="cls-3" d="M99.88,7.95s-1.44,4.92-13,10.41C77.77,22.67,66.07,25.92,57.4,28.8S44.48,34.66,42,38.56,94.92,20.25,94.92,20.25l9.64-6.7Z"/><path class="cls-3" d="M44.11,38.83c-1.31.28-2,.31-2.22.1s-.06-.23,0-.39c2.66-4.13,7.28-7.06,15.46-9.78,2.09-.7,4.34-1.41,6.72-2.16,7.43-2.35,15.84-5,22.75-8.29,6-2.83,9.17-5.5,10.82-7.24a9.3,9.3,0,0,0,2.16-3.13l0-.09,4.77,5.71L94.94,20.3c-.13.05-13,5.2-25.9,10.05-7.58,2.85-13.68,5-18.14,6.5-3,1-5.29,1.65-6.79,2ZM99.9,8a9.8,9.8,0,0,1-2.15,3.08c-1.65,1.75-4.87,4.43-10.85,7.28C80,21.68,71.56,24.34,64.14,26.69c-2.38.75-4.63,1.46-6.72,2.16C49.27,31.57,44.66,34.48,42,38.6c-.08.12-.1.22,0,.27.45.54,5.5-.51,27-8.61,12.8-4.81,25.57-9.92,25.89-10l9.59-6.67Z"/><path d="M40.57,42.17a13.46,13.46,0,0,1,6.49-8.71c5.59-3.22,23.69-7.75,28.13-9.52s13.18-4.67,18-7.58,6.15-4.43,7.17-5.47,2.57-2.82,1.77-3.93c2.19-.16.92,3.77.92,3.77L77.2,32.54Z"/><path d="M60,75.17a22,22,0,0,1-4.86-.85A17,17,0,0,1,46.63,69c-2.95-3.67-5.14-9.58-5.86-15.81-.69-6,.12-11.32,2.1-13.88,3.7-4.78,8.7-6.44,16.25-8.95l3.18-1.06c2.49-.84,5.06-1.67,7.54-2.46,6.73-2.16,13.7-4.39,19.69-7.27,7.93-3.8,12.4-7.87,13.32-10.22.51-1.33.26-2,0-2.31l.36-.08,2.1,6,.82,0,3.7,1.9Z"/><path d="M103.15,7.12l2,5.73.07.2h.22l.67,0,3.5,1.8L60,75a22.11,22.11,0,0,1-4.77-.84,19.55,19.55,0,0,1-4.37-1.83,14.59,14.59,0,0,1-4.09-3.45,24.76,24.76,0,0,1-3.86-7.19,38.8,38.8,0,0,1-2-8.54,32,32,0,0,1,0-8.06,12.36,12.36,0,0,1,2-5.71c3.68-4.75,8.66-6.4,16.18-8.9l3.18-1.06c2.49-.84,5.06-1.67,7.54-2.46,6.74-2.17,13.7-4.4,19.71-7.27A48.11,48.11,0,0,0,99,13.91a13.16,13.16,0,0,0,4-4.52,2.71,2.71,0,0,0,.12-2.26h0m.19-.34-.77.17s.88.46.15,2.34c-.82,2.13-5.05,6.22-13.24,10.14S71.56,26,62.27,29.15,47,33.74,42.75,39.21s-2.69,21.86,3.76,29.87c4.87,6.05,13.59,6.24,13.59,6.24l50-60.6-3.9-2-.75,0-2.1-6Z"/><path d="M42.62,44.18s.06-2.58-8.92-3.72-29.84-9.28-31.81-14S4.76,16.38,4.76,16.38s-5,4.69-4.75,8.7L1.19,38.7c.08.79,6.48,5.7,7.26,5.86l32.79,5Z"/><path class="cls-1" d="M40,43.65s.83-2.35,2.48-2.32,3,.05,3.3,1.85A30.86,30.86,0,0,0,47,47.42l-1.33.76Z"/><path d="M40,43.65s.91-1.62,2.08-1.57a5.77,5.77,0,0,1,2,.37c1.17.34,1.33,4.56,2.27,6.29S49,64.12,49,64.12s-.37-1.23-4.11-1.57-3.67-.71-4.64-1.71S40,43.65,40,43.65Z"/><path d="M127.36,7.39c7.33.08,10.65-.3,10.87.71.42,1.92-45.06,74.35-50.08,75.15S76,82.31,64.18,78,49,68.1,46.29,58.6s-.47-18.14,11.09-21.42C68.62,34,85.48,27.53,89,25.76S92.34,23.9,94,24s9.4-4.25,9.4-4.25l-2.22-.14a.05.05,0,0,1,0-.1A45.71,45.71,0,0,0,108,14.8,12.92,12.92,0,0,0,111.82,10,3.08,3.08,0,0,1,111.9,9c.15-.6.42-.68.42-.68a125.32,125.32,0,0,1,15-.89Z"/><path d="M88.2,83.29h0c-4.79.76-11.52-.7-24-5.2-5.7-2.06-9.64-4.53-12.38-7.77-2.91-3.44-4.38-7.66-5.54-11.71-1.58-5.54-1.34-10.43.72-14.12,1.93-3.48,5.44-6,10.4-7.36C68.33,34,85.3,27.57,89,25.71l1.5-.76c2-1,2.11-1.08,3.51-1s8.15-3.57,9.22-4.16l-2.05-.13a.1.1,0,0,1,0-.19A46.14,46.14,0,0,0,108,14.77a13.12,13.12,0,0,0,3.8-4.73,3.14,3.14,0,0,1,.08-1.1c.16-.62.45-.71.46-.71a126.31,126.31,0,0,1,15-.89c1.94,0,3.63,0,5,0,4,0,5.76,0,5.93.74.29,1.32-20.16,34.39-34.85,55.87C97.55,72.56,90.15,82.86,88.2,83.29Zm4.49-59.2a10.12,10.12,0,0,0-2.14,1L89,25.8c-3.7,1.86-20.68,8.31-31.65,11.42-4.94,1.4-8.42,3.86-10.34,7.31-2,3.67-2.29,8.53-.71,14,2.8,9.8,6.19,15.21,17.85,19.41,12.46,4.49,19.18,6,23.94,5.2h0c1.52-.33,6.76-7,15.17-19.28C119,41,138.44,9.3,138.18,8.11c-.15-.71-2.05-.69-5.83-.67-1.36,0-3.05,0-5,0a126.27,126.27,0,0,0-15,.88s-.24.08-.38.64a3.06,3.06,0,0,0-.08,1.08h0A13.11,13.11,0,0,1,108,14.84a46.1,46.1,0,0,1-6.85,4.72l2.39.15-.14.08c-.32.18-7.77,4.36-9.42,4.25a4.7,4.7,0,0,0-1.31,0Z"/><path d="M97.86,23.16,104,20l1.91-.88,3.59.64-12.3,7-.44-3,1.09-.55Z"/><path class="cls-4" d="M110.86,24.63c-6.19,3.29-19,9.71-27,12.78C76.73,40.18,71.82,43.88,69.85,47c-2.8,4.35-2.29,11.28-.68,18,2,8.28,6,16.14,11.63,17.5,10.24,2.46,14.09.15,14.09.15s22.35-14,27.9-17.37,14.95-11.18,20.87-14.85,7.09-8.15,6.59-16.28-2.46-15.34-3.36-19.49c-.77-3.55-2.71-5.91-6.11-6.17s-3.5-1.3-7.51,2c-4.4,3.64-15.13,10.32-22.41,14.19Z"/><path class="cls-1" d="M148.49,20.31a5.17,5.17,0,0,1-1.7,2,10,10,0,0,1-2.85,1l2.57,10.24a6.57,6.57,0,0,0,2.74-1.6,6,6,0,0,0,1.11-1.62Z"/><path class="cls-1" d="M83.18,45.17s-4.28,1.73-6.3,2.57A4.43,4.43,0,0,0,73.72,52c-.21,2.26-.58,4.33.8,6a1.78,1.78,0,0,0,1.79.8L80.25,73.7s-1.91.21-1.62,1.56,2.29,5.68,5.29,6.79a8.52,8.52,0,0,0,6.47.2,15.48,15.48,0,0,0,4-2.12L85.3,45.34Z"/><path class="cls-5" d="M141.47,27.84,141,25.5l4.11-1.85s1.08-.11,1.19.4a15.18,15.18,0,0,1,.07,2.09Z"/><path d="M94.68,82c-3.61.78-5.2-5.2-5.6-7,0,0-.75-3.71-.94-4.58-.13-.6,1.35-1.13,1.88-1.26l.14,0L87.62,58.36l-1.68.2a.53.53,0,0,1-.58-.41l-1.51-6.79a14.51,14.51,0,0,1,.13-6.9,8.17,8.17,0,0,1,4.46-4.74l50.38-28.5a5.78,5.78,0,0,1,1.7-.71c1.58-.34,2.79.48,3.59,2.46.4,1,1.64,7.29,2,9.19a.83.83,0,0,1-.34.84l-3.43,2.36a2.45,2.45,0,0,0-1,2.52l1.81,8.69a.51.51,0,0,0,.21.33.55.55,0,0,0,.42.06.93.93,0,0,0,.44-.24L148,33.25c.17,1,.77,4.75.83,5.14a18.22,18.22,0,0,1,.32,4.27A8.68,8.68,0,0,1,145.47,49L96,81.4a4.5,4.5,0,0,1-1.36.57Z"/><path d="M140.54,10.65c1.53-.33,2.64.44,3.42,2.37.39,1,1.63,7.26,2,9.16a.68.68,0,0,1-.28.69l-3.43,2.36a2.6,2.6,0,0,0-1.07,2.67L143,36.59a.64.64,0,0,0,.28.43.69.69,0,0,0,.53.09,1.08,1.08,0,0,0,.5-.28l3.64-3.28c.21,1.29.73,4.51.79,4.88a17.79,17.79,0,0,1,.32,4.23,8.54,8.54,0,0,1-3.65,6.23L96,81.27a4.36,4.36,0,0,1-1.31.55c-3.47.75-5-5.12-5.42-6.93,0,0-.75-3.72-.94-4.59-.08-.39,1-.88,1.77-1.09l.29-.07-.07-.29L87.8,58.46l-.06-.25-.26,0-1.56.18a.39.39,0,0,1-.42-.3l-.15-.67L84,51.33a14.42,14.42,0,0,1,.12-6.83,8,8,0,0,1,4.38-4.65h0l50.37-28.5h0a5.63,5.63,0,0,1,1.65-.69m-.06-.29a5.88,5.88,0,0,0-1.74.73L88.37,39.59c-5,2.5-5.54,6.42-4.67,11.8l1.36,6.12.15.67a.68.68,0,0,0,.74.53l1.56-.18L90,68.93s-2.18.56-2,1.44.94,4.58.94,4.58c.57,2.62,2.26,7.92,5.77,7.16a4.63,4.63,0,0,0,1.41-.59l49.43-32.39a8.89,8.89,0,0,0,3.78-6.44,18,18,0,0,0-.32-4.31c-.07-.47-.87-5.42-.87-5.42l-4,3.64a.79.79,0,0,1-.37.2.35.35,0,0,1-.45-.28l-1.81-8.69a2.31,2.31,0,0,1,1-2.37l3.43-2.36a1,1,0,0,0,.4-1c-.39-2-1.62-8.22-2-9.22-.77-1.9-2-2.93-3.75-2.55Z"/><path d="M145.07,23.65s1.06-.35,1.29.68,1.33,7.35,1.53,8.27.23,1.61-2.17,3.36c-2.17,1.58-2.44.57-2.44.57s-1.51-7.33-1.81-8.69,2-1.22,3.14-1.89c2.9-1.69,1.15-2.59.46-2.31Z"/><path class="cls-6" d="M119.66,32.12a2.14,2.14,0,0,0-.41-.07,2.11,2.11,0,0,1-.59-.13.47.47,0,0,1-.2-.43.31.31,0,0,1,.15-.28.21.21,0,0,1,.3.16l.11.36.75-.43-.16-.53s-.21-.9-1.17-.42a1.3,1.3,0,0,0-.72,1.72l.1.34a1.34,1.34,0,0,0,.32.57,1,1,0,0,0,.37.19l.75.12a.48.48,0,0,1,.35.38s.07.33-.15.44c0,0-.2.1-.3-.2l-.11-.36-.81.47.16.53s.29,1,1.32.41a1.51,1.51,0,0,0,.71-1.64l-.13-.42s-.16-.67-.64-.79m-4.6.25.47,2.58-.06,0-1-2.26-1.38.76,1.3,4.49.81-.48-1-3.34.06,0,1.44,3.08.83-.5L116,33.17l.06,0,1,3.27.78-.47-1.41-4.31-1.32.73Zm-4.94,2.76L111,40l.92-.55-.75-3.71.08,0L112.63,39l.89-.53-1.94-4.17-1.45.81Zm17.43-7.62.17.59.18-.1.19.63c.09.31-.07.41-.07.41-.2.12-.28-.18-.28-.18l-.64-2.18a.3.3,0,0,1,.11-.34c.16-.09.25.17.25.17l.1.33.65-.37c-.17-.65-.29-.76-.29-.76-.33-.49-.94-.12-.94-.12a1.32,1.32,0,0,0-.5,1.64l.63,2.12a.75.75,0,0,0,1.25.4,1.22,1.22,0,0,0,.45-.6,1,1,0,0,0,0-.41,3.13,3.13,0,0,0-.09-.48L128.4,27Zm-2,1.93,0,0-1.43-2.09-.85.47L124.47,32l.68-.41-.78-2.47,0,0,1.46,2.06.79-.47-1.2-4-.68.38Zm-3.09,2.49s.11.34-.09.46c0,0-.22.15-.32-.2L121.1,29l-.8.45.95,3.15a.85.85,0,0,0,1.37.58,1.45,1.45,0,0,0,.6-1.68l-.94-3.16-.76.42ZM109,38.27a2.59,2.59,0,0,0-.48-.06,2.51,2.51,0,0,1-.7-.11.48.48,0,0,1-.23-.46.36.36,0,0,1,.18-.31.24.24,0,0,1,.32.1l0,.06.12.39.9-.51-.18-.58s-.23-1-1.37-.4l-.21.12a1.82,1.82,0,0,0-.77,1.09h0a1.41,1.41,0,0,0,.1.71l.11.37a1.33,1.33,0,0,0,.37.61,1.09,1.09,0,0,0,.43.19l.88.1a.51.51,0,0,1,.4.4s.08.36-.18.5c0,0-.25.13-.35-.21l-.12-.39-1,.57.18.58s.32,1.12,1.56.38a1.76,1.76,0,0,0,.87-1.84l-.14-.46s-.18-.73-.75-.84"/><path d="M85.39,58.73s5.23-2.09,7-2.77,2,.73,2,.73l1.76,8.09s.4.75-.64,1.54a21.25,21.25,0,0,1-4.43,2.57,22.46,22.46,0,0,1-3.32.89l-2.18,1.81L81.73,72.7,78.66,60.88Z"/><path class="cls-4" d="M76.31,58.79A57.08,57.08,0,0,0,77.88,66c1.23,4.5,2.38,7.72,2.38,7.72a46,46,0,0,0,5.23-1.65A16.45,16.45,0,0,0,88,70.86l-.24-1.09s-2.25,1.1-2.89,1.34l-1.74.6A.93.93,0,0,1,81.95,71l-2.18-8.72a1.12,1.12,0,0,1,.71-1.41c.9-.28,2.17-.68,2.95-1a6.7,6.7,0,0,0,2-1.13l-.62-2.38a18,18,0,0,1-4.61,1.9A18.64,18.64,0,0,1,76.31,58.79Z"/><path d="M86.27,58.38a2.26,2.26,0,0,1,.8-.19,2.56,2.56,0,0,1,.42,0,2.2,2.2,0,0,1,.41.09,1.94,1.94,0,0,1,.74.43,2,2,0,0,1,.28.33,2.34,2.34,0,0,1,.2.38,1.94,1.94,0,0,1,.07.2l0,.1,0,.09.11.39.2.78c.13.52.26,1,.38,1.56q.37,1.56.72,3.13c.12.52.23,1,.35,1.57s.23,1,.34,1.57l-.48.1-.67-3.14q-.33-1.57-.67-3.14l-.34-1.57L89,60.31l-.09-.39,0-.1,0-.09a1.63,1.63,0,0,0-.06-.18,2,2,0,0,0-.16-.33,1.69,1.69,0,0,0-.23-.29,1.65,1.65,0,0,0-.62-.39,3,3,0,0,0-.75-.16,5.86,5.86,0,0,0-.8,0Z"/><path class="cls-7" d="M145.46,35.76a.25.25,0,0,1-.29-.19h0l-1.76-8.67a.24.24,0,1,1,.48-.1h0l1.75,8.67a.25.25,0,0,1-.18.29Zm-.8.48a.25.25,0,0,1-.29-.19h0l-1.76-8.67a.24.24,0,1,1,.48-.1h0L144.84,36a.25.25,0,0,1-.18.29Zm-.73.36a.25.25,0,0,1-.29-.19h0l-1.76-8.67a.24.24,0,1,1,.48-.1h0l1.75,8.67a.25.25,0,0,1-.18.29Z"/><path class="cls-4" d="M93.94,64.57l-1.46.9a.86.86,0,0,1-1.29-.55l-.65-3a.86.86,0,0,1,.4-.92l1.87-1.09a.53.53,0,0,1,.78.34l.74,3.4a.86.86,0,0,1-.39.91Z"/><path d="M101.49,26.38c-1.49.32-2.76,0-3.24-.92-.68-1.26.4-3.17,2.41-4.27a6.23,6.23,0,0,1,1.65-.62c1.49-.32,2.76,0,3.24.92.68,1.26-.4,3.18-2.41,4.27A6.23,6.23,0,0,1,101.49,26.38Z"/><path d="M102.34,20.71c1.42-.31,2.63,0,3.08.85a2.1,2.1,0,0,1-.18,2,5.4,5.4,0,0,1-2.17,2,6.08,6.08,0,0,1-1.61.61c-1.42.31-2.63,0-3.08-.85a2.1,2.1,0,0,1,.18-2,5.4,5.4,0,0,1,2.17-2,6.08,6.08,0,0,1,1.61-.61m-.06-.29a6.4,6.4,0,0,0-1.69.64c-2.08,1.13-3.19,3.14-2.46,4.47.53,1,1.89,1.32,3.4,1a6.4,6.4,0,0,0,1.69-.64c2.09-1.14,3.19-3.14,2.47-4.47-.53-1-1.89-1.32-3.4-1Z"/><path d="M101.55,26.67h-.07a.15.15,0,1,1-.06-.29h.06l.3-.07a.15.15,0,0,1,.18.1.15.15,0,0,1-.1.18h0Zm-.92.12h-.42a.15.15,0,0,1,0-.29h.39a.15.15,0,0,1,0,.29Zm2-.48a.15.15,0,0,1-.09-.28l.34-.16a.15.15,0,1,1,.13.26h0l-.36.16Zm1.09-.6a.15.15,0,0,1-.11-.27l.31-.22a.15.15,0,0,1,.18.23l-.32.23-.05,0Zm-4.36.92h-.08a2.84,2.84,0,0,1-.38-.15.15.15,0,0,1,.13-.27l.34.13a.15.15,0,0,1,0,.28Zm5.32-1.71a.15.15,0,0,1-.14-.25l.25-.27a.15.15,0,0,1,.23.18h0c-.08.1-.17.2-.27.29l-.07,0ZM98.36,26a.15.15,0,0,1-.14,0A2,2,0,0,1,98,25.6a.15.15,0,0,1,.06-.2.15.15,0,0,1,.2.06h0a1.65,1.65,0,0,0,.2.28.15.15,0,0,1,0,.21l-.06,0Zm7.13-2a.15.15,0,0,1-.16-.22c.06-.11.12-.22.17-.33a.15.15,0,0,1,.27.12h0q-.08.18-.18.35a.15.15,0,0,1-.09.07Zm-7.56.9h0a.15.15,0,0,1-.15-.14,2.42,2.42,0,0,1,0-.41.15.15,0,0,1,.29,0,2.12,2.12,0,0,0,0,.36.15.15,0,0,1-.11.15Zm8-2.06a.15.15,0,0,1-.18-.16,2.13,2.13,0,0,0,0-.36.15.15,0,1,1,.3,0,2.43,2.43,0,0,1,0,.41.15.15,0,0,1-.12.13Zm-7.72.86a.15.15,0,0,1-.16-.2c.05-.12.11-.24.18-.35a.15.15,0,0,1,.25.15c-.06.11-.12.22-.17.33a.15.15,0,0,1-.1.09Zm7.52-2.06a.15.15,0,0,1-.16-.07h0a1.65,1.65,0,0,0-.2-.29.15.15,0,1,1,.22-.19,2,2,0,0,1,.24.34h0a.15.15,0,0,1-.06.2h0Zm-6.85,1a.15.15,0,0,1-.14-.24c.08-.1.17-.2.27-.29a.15.15,0,0,1,.21.21l-.25.27a.15.15,0,0,1-.08,0Zm5.94-1.86a.15.15,0,0,1-.09,0l-.34-.13a.15.15,0,1,1,.09-.28,2.85,2.85,0,0,1,.38.15.15.15,0,0,1,0,.28Zm-5,1a.15.15,0,0,1-.12-.26l.32-.23a.15.15,0,0,1,.16.24l-.31.22-.06,0Zm1.06-.65a.15.15,0,1,1-.1-.28l.36-.16a.15.15,0,1,1,.12.27l-.34.16,0,0Zm2.77-.64h-.41a.15.15,0,1,1,0-.3h.4a.15.15,0,0,1,0,.29Zm-1.61.19a.15.15,0,0,1-.07-.29l.32-.08h.06a.15.15,0,0,1,.17.11h0a.15.15,0,0,1-.11.17h-.06l-.31.08Z"/><path d="M102.65,26.63c-1.49.32-2.76,0-3.24-.92-.68-1.26.4-3.17,2.41-4.27a6.23,6.23,0,0,1,1.65-.62c1.49-.32,2.76,0,3.24.92.68,1.26-.4,3.18-2.41,4.27A6.23,6.23,0,0,1,102.65,26.63Z"/><path d="M103.5,21c1.42-.31,2.63,0,3.08.85a2.1,2.1,0,0,1-.18,2,5.4,5.4,0,0,1-2.17,2,6.08,6.08,0,0,1-1.61.61c-1.42.31-2.63,0-3.08-.85a2.1,2.1,0,0,1,.18-2,5.4,5.4,0,0,1,2.17-2A6.08,6.08,0,0,1,103.5,21m-.06-.29a6.4,6.4,0,0,0-1.69.64c-2.08,1.13-3.19,3.14-2.46,4.47.53,1,1.89,1.32,3.4,1a6.4,6.4,0,0,0,1.69-.64c2.09-1.14,3.19-3.14,2.47-4.47-.53-1-1.89-1.32-3.4-1Z"/><path d="M102.71,26.92h-.07a.15.15,0,1,1-.06-.29h.06l.3-.07a.15.15,0,0,1,.18.1.15.15,0,0,1-.1.18h0l-.31.08Zm-.92.12h-.42a.15.15,0,0,1,0-.29h.39a.15.15,0,0,1,0,.29Zm2-.48a.15.15,0,1,1-.09-.28h0l.34-.16a.15.15,0,1,1,.13.26h0l-.36.16Zm1.09-.6a.15.15,0,0,1-.11-.27l.31-.22a.15.15,0,0,1,.18.23l-.32.23-.05,0Zm-4.36.92h-.08a2.84,2.84,0,0,1-.38-.15.15.15,0,0,1,.13-.27l.34.13a.15.15,0,0,1,0,.28Zm5.32-1.71a.15.15,0,0,1-.14-.25l.25-.27a.15.15,0,0,1,.23.18h0c-.08.1-.17.2-.27.29l-.07,0Zm-6.37,1.06a.15.15,0,0,1-.14,0,2,2,0,0,1-.23-.34.15.15,0,0,1,.06-.2.15.15,0,0,1,.2.06h0a1.65,1.65,0,0,0,.2.29.15.15,0,0,1,0,.21l-.06,0Zm7.13-2a.15.15,0,0,1-.16-.22c.06-.11.12-.22.17-.33a.15.15,0,0,1,.27.12q-.08.18-.18.35a.15.15,0,0,1-.09.07Zm-7.56.9h0a.15.15,0,0,1-.15-.14,2.42,2.42,0,0,1,0-.41.15.15,0,0,1,.29,0,2.12,2.12,0,0,0,0,.36.15.15,0,0,1-.11.15Zm8-2.06a.15.15,0,0,1-.18-.16,2.13,2.13,0,0,0,0-.36.15.15,0,1,1,.3,0,2.43,2.43,0,0,1,0,.41.15.15,0,0,1-.12.13Zm-7.72.86a.15.15,0,0,1-.16-.2c.05-.12.11-.24.18-.35a.15.15,0,0,1,.25.15c-.06.11-.12.22-.17.33a.15.15,0,0,1-.1.09Zm7.52-2.06a.15.15,0,0,1-.16-.07h0a1.65,1.65,0,0,0-.2-.29.15.15,0,1,1,.22-.19,2,2,0,0,1,.24.34h0a.15.15,0,0,1-.06.2h0Zm-6.85,1a.15.15,0,0,1-.14-.24c.08-.1.17-.2.27-.29a.15.15,0,0,1,.21.21l-.25.27a.15.15,0,0,1-.08,0ZM106,21a.15.15,0,0,1-.09,0l-.34-.13a.15.15,0,0,1,.09-.28h0a2.85,2.85,0,0,1,.38.15.15.15,0,0,1,0,.28Zm-5,1a.15.15,0,0,1-.12-.26l.32-.23a.15.15,0,0,1,.16.24L101,22l-.06,0Zm1.06-.65a.15.15,0,0,1-.1-.28l.36-.16a.15.15,0,1,1,.12.27l-.34.16,0,0Zm2.77-.64h-.41a.15.15,0,0,1,0-.3h.4a.15.15,0,0,1,0,.29Zm-1.61.19a.15.15,0,0,1-.07-.29l.32-.08h.06a.15.15,0,1,1,.06.29h-.06l-.31.08Z"/><path d="M97.86,23.16s-1,.5-1,.79,1.42.75,4.25-.77c0,0,3.77-2.17,4.56-2.6s.64-.74-.17-.79A3.76,3.76,0,0,0,104,20l2.42-1.32,9.83,1.71L98.62,30.12l-6.33-4.64Z"/><path d="M98.62,30.18l-6.43-4.71.08,0,5.57-2.33,0,.09c-.42.2-1,.56-1,.74s.05.09.17.14c.56.26,1.94.16,4-.95,0,0,3.78-2.18,4.56-2.6.48-.26.5-.42.49-.47s-.27-.2-.64-.23A3.78,3.78,0,0,0,104,20l0-.09,2.44-1.33h0l10,1.73-.12.07ZM92.39,25.5l6.24,4.57,17.51-9.7-9.68-1.68-2,1.12a4.49,4.49,0,0,1,1.11-.06c.44,0,.7.13.73.3s-.14.37-.54.58c-.78.42-4.52,2.57-4.56,2.6-2.1,1.13-3.53,1.22-4.1.95a.36.36,0,0,1-.22-.21c0-.14.14-.31.35-.46ZM76.7,73.78a1,1,0,0,1-1.17-.66L72.15,60.89a.95.95,0,0,1,1.83-.5s1.13,4.63,1.81,7.09,1.57,5.14,1.57,5.14a1,1,0,0,1-.66,1.16Z"/><path class="cls-1" d="M74.83,72.71l-1.47-4.6A6.32,6.32,0,0,0,73.23,67a2.66,2.66,0,0,0-.38-1l-1.11-5c-.18-.85,1.06-.88,1.34.38,0,0,.61,2.44,1.23,4.84a3.07,3.07,0,0,1,.55,2.08c.64,2.31,1.24,4.13,1.24,4.13C76.57,73.81,75.14,74.09,74.83,72.71Z"/><path d="M92.79,64.51l-.71.42a.36.36,0,0,1-.54-.24L90.93,62a.36.36,0,0,1,.17-.39l.71-.42a.36.36,0,0,1,.54.24l.6,2.73A.36.36,0,0,1,92.79,64.51Z"/><path class="cls-3" d="M92.84,64.39a.15.15,0,0,1-.17-.11L92,61.41a.15.15,0,1,1,.29-.06L93,64.22A.15.15,0,0,1,92.84,64.39Zm-.44.3a.15.15,0,0,1-.17-.11l-.62-2.87a.15.15,0,1,1,.29-.06l.62,2.87A.15.15,0,0,1,92.41,64.68ZM92,65a.15.15,0,0,1-.17-.11L91.17,62a.15.15,0,1,1,.29-.06l.62,2.87A.15.15,0,0,1,92,65Z"/><path d="M74.39,71.48l1,0-.3,1.27Zm-2.32-9.12H73l-.83-1.49Z"/><path class="cls-4" d="M51.53,64a50.41,50.41,0,0,1-1.7-7.82c-.23-2.91.92-6.36,4.88-5.33s6.34,2.44,8.41,9.6c1.84,6.38,2.14,6.69,2.7,9.23s2.24,7.55-1.52,6.43-4.37-1.39-5.71-2.25A20.67,20.67,0,0,1,51.53,64Z"/><path d="M59.26,51a1,1,0,0,1-.33,0,1.33,1.33,0,0,1-1-.86,3.49,3.49,0,0,1-.23-1.86A2.6,2.6,0,0,1,59.25,46a1,1,0,0,1,.33,0,1.33,1.33,0,0,1,1,.86,3.49,3.49,0,0,1,.23,1.86A2.6,2.6,0,0,1,59.26,51Z"/><path d="M59.28,46.1a.87.87,0,0,1,.3,0c.78.1,1.3,1.3,1.13,2.62a2.51,2.51,0,0,1-1.46,2.23.87.87,0,0,1-.3,0c-.78-.1-1.3-1.3-1.13-2.62a2.51,2.51,0,0,1,1.46-2.23m0-.19a2.67,2.67,0,0,0-1.61,2.4c-.19,1.45.39,2.72,1.3,2.84a1.07,1.07,0,0,0,.36,0,2.67,2.67,0,0,0,1.61-2.4c.19-1.45-.39-2.72-1.3-2.84a1.07,1.07,0,0,0-.36,0Z"/><path d="M52.08,49.18a.85.85,0,0,1-.32,0,1.21,1.21,0,0,1-.86-.85,3.5,3.5,0,0,1-.14-1.8,2.57,2.57,0,0,1,1.48-2.19.85.85,0,0,1,.32,0,1.21,1.21,0,0,1,.86.85,3.5,3.5,0,0,1,.14,1.8A2.57,2.57,0,0,1,52.08,49.18Z"/><path d="M52.26,44.45a.75.75,0,0,1,.28,0,1.12,1.12,0,0,1,.79.79A3.39,3.39,0,0,1,53.46,47c-.18,1.08-.77,2-1.4,2.11a.75.75,0,0,1-.28,0A1.12,1.12,0,0,1,51,48.3a3.39,3.39,0,0,1-.14-1.75c.18-1.08.77-2,1.4-2.11m0-.19a2.63,2.63,0,0,0-1.56,2.27c-.23,1.39.26,2.63,1.09,2.76a.94.94,0,0,0,.35,0A2.63,2.63,0,0,0,53.65,47c.23-1.39-.25-2.63-1.09-2.76a.94.94,0,0,0-.35,0Z"/><path d="M58.83,50.48h-.13a.77.77,0,0,1-.6-.46,2.26,2.26,0,0,1-.25-1.16c0-.78.39-1.45.83-1.54h.13c.49,0,.88.76.85,1.62s-.38,1.45-.83,1.54Z"/><path d="M58.73,47.47h.09a.64.64,0,0,1,.48.38,2.14,2.14,0,0,1,.23,1.08c0,.79-.39,1.33-.72,1.4h-.09c-.36,0-.74-.62-.7-1.47s.39-1.33.72-1.4m-.06-.29c-.51.11-.92.82-.95,1.68s.41,1.75,1,1.77h.16c.51-.11.92-.82.95-1.68s-.41-1.75-1-1.77h-.16Z"/><path d="M51.92,48.37a.52.52,0,0,1-.19,0,.77.77,0,0,1-.54-.53,2.26,2.26,0,0,1-.1-1.18,1.65,1.65,0,0,1,1-1.41.52.52,0,0,1,.19,0c.48.08.77.86.63,1.71S52.35,48.27,51.92,48.37Z"/><path d="M52.08,45.39h.14c.35.06.65.71.51,1.54a1.52,1.52,0,0,1-.84,1.29h-.14c-.35-.06-.65-.71-.51-1.54a1.53,1.53,0,0,1,.84-1.3M52,45.1a1.78,1.78,0,0,0-1.07,1.54c-.15.95.19,1.79.76,1.88a.66.66,0,0,0,.25,0A1.78,1.78,0,0,0,53,47c.15-.95-.19-1.79-.76-1.88A.66.66,0,0,0,52,45.1Z"/><path class="cls-2" d="M10.43,34.84s21.55,7.78,25.3,8.5c4.65.9,5.42.13,7.44.22s1.13,2.27.92,4.26S42.65,57.91,42.38,60s-2.25,2.09-6,1.82S26,58.19,20.06,55.32s-6.72-4.61-6.72-4.61Z"/><path d="M2.94,29.36s.24-1.59,1.49-.63,9.62,7,9.62,7,1.18.69,1.54,3.47c.32,2.53,1.09,9.95,1.44,13.29a.69.69,0,0,1-.65.67.76.76,0,0,1-.58-.14L7,45.91a5.53,5.53,0,0,1-2.07-3.52Z"/><path class="cls-2" d="M4,30.26H4a.23.23,0,0,1-.28-.15l-.12-.78.7.51a.18.18,0,0,1,0,.29.31.31,0,0,1-.15.07A.31.31,0,0,1,4,30.26ZM16.32,51.41h0a.22.22,0,0,1-.28-.16h0l0-.39a.24.24,0,0,1,.23-.24.22.22,0,0,1,.28.16h0l0,.39A.24.24,0,0,1,16.32,51.41Zm-.16-1.27h0a.22.22,0,0,1-.28-.16l0-.39a.24.24,0,0,1,.23-.24h0a.22.22,0,0,1,.28.16h0l0,.39A.24.24,0,0,1,16.16,50.14ZM16,48.87h0a.22.22,0,0,1-.28-.16h0l0-.39a.24.24,0,0,1,.23-.24.22.22,0,0,1,.28.16h0l0,.39A.24.24,0,0,1,16,48.87Zm-.16-1.27h0a.22.22,0,0,1-.28-.16h0l0-.39a.24.24,0,0,1,.23-.24A.22.22,0,0,1,16,47h0l0,.39A.24.24,0,0,1,15.84,47.61Zm-.16-1.27h0a.22.22,0,0,1-.27-.16l0-.39a.24.24,0,0,1,.23-.24.22.22,0,0,1,.28.16h0l0,.39a.24.24,0,0,1-.22.24Zm-.16-1.27h0a.22.22,0,0,1-.28-.16h0l0-.39a.24.24,0,0,1,.23-.24.22.22,0,0,1,.28.16h0l0,.39a.24.24,0,0,1-.21.23Zm-.16-1.27h0a.22.22,0,0,1-.28-.16h0l0-.39a.24.24,0,0,1,.23-.24.22.22,0,0,1,.28.16h0l.05.39a.24.24,0,0,1-.21.24Zm-.16-1.27h0a.22.22,0,0,1-.28-.16h0l0-.39a.24.24,0,0,1,.23-.24.22.22,0,0,1,.28.16h0l0,.39a.24.24,0,0,1-.2.23Zm-.16-1.27h0a.22.22,0,0,1-.28-.16h0l0-.39a.24.24,0,0,1,.23-.24.22.22,0,0,1,.28.16h0l0,.39a.24.24,0,0,1-.2.23ZM14.91,40h0a.22.22,0,0,1-.28-.16h0l0-.39a.24.24,0,0,1,.23-.24.22.22,0,0,1,.28.16h0l0,.39a.24.24,0,0,1-.2.23Zm-.16-1.27h0a.22.22,0,0,1-.28-.16h0l0-.39a.24.24,0,0,1,.23-.24.22.22,0,0,1,.28.16h0l0,.39a.24.24,0,0,1-.2.23Zm-.5-1.11a.28.28,0,0,1-.22,0l-.35-.25a.18.18,0,0,1,0-.29.31.31,0,0,1,.36,0l.35.25a.18.18,0,0,1,0,.29.31.31,0,0,1-.13.07Zm-1.12-.83a.28.28,0,0,1-.22,0l-.35-.25a.18.18,0,0,1,0-.29.3.3,0,0,1,.36,0l.35.25a.18.18,0,0,1,0,.29A.31.31,0,0,1,13.14,36.8ZM12,36a.28.28,0,0,1-.22,0l-.35-.25a.18.18,0,0,1,0-.29.3.3,0,0,1,.36,0l.35.25a.18.18,0,0,1,0,.29A.31.31,0,0,1,12,36Zm-1.13-.83a.28.28,0,0,1-.22,0l-.35-.25a.18.18,0,0,1,0-.29.3.3,0,0,1,.36,0l.35.25a.18.18,0,0,1,0,.29.31.31,0,0,1-.13.07Zm-1.13-.83a.28.28,0,0,1-.22,0L9.19,34a.18.18,0,0,1,0-.29.3.3,0,0,1,.36,0h0L9.9,34a.18.18,0,0,1,0,.29.31.31,0,0,1-.13.07ZM8.64,33.5a.28.28,0,0,1-.22,0l-.35-.25a.18.18,0,0,1,0-.29.3.3,0,0,1,.33,0l.35.25a.18.18,0,0,1,0,.29.31.31,0,0,1-.13.07Zm-1.13-.83a.28.28,0,0,1-.22,0l-.35-.25a.18.18,0,0,1,0-.29.3.3,0,0,1,.36,0l.35.25a.18.18,0,0,1,0,.29A.31.31,0,0,1,7.51,32.67Zm-1.13-.83a.28.28,0,0,1-.22,0l-.35-.25a.18.18,0,0,1,0-.29.3.3,0,0,1,.36,0l.35.25a.18.18,0,0,1,0,.29.31.31,0,0,1-.13.07ZM5.26,31A.28.28,0,0,1,5,31l-.35-.26a.18.18,0,0,1,0-.29.3.3,0,0,1,.36,0l.35.25a.18.18,0,0,1,0,.29.31.31,0,0,1-.13.07ZM16.73,52.83,16,52.31a.18.18,0,0,1,0-.29.32.32,0,0,1,.15-.07.3.3,0,0,1,.36,0,.17.17,0,0,1,.07.12Zm-1.25-1.09a.28.28,0,0,1-.23,0l-.35-.27a.18.18,0,0,1,0-.29.3.3,0,0,1,.36,0l.36.27a.18.18,0,0,1,0,.29.31.31,0,0,1-.13.06Zm-1.15-.88a.28.28,0,0,1-.23,0l-.36-.27a.18.18,0,0,1,0-.29.3.3,0,0,1,.36,0l.35.27a.18.18,0,0,1,0,.29.31.31,0,0,1-.12.06ZM13.18,50a.28.28,0,0,1-.23,0l-.35-.27a.17.17,0,0,1,0-.29.3.3,0,0,1,.36,0h0l.35.27a.18.18,0,0,1,0,.29.31.31,0,0,1-.13.06ZM12,49.1a.28.28,0,0,1-.23,0l-.35-.27a.18.18,0,0,1,0-.29.3.3,0,0,1,.36,0l.35.27a.18.18,0,0,1,0,.29.31.31,0,0,1-.13.06Zm-1.15-.88a.28.28,0,0,1-.23,0l-.35-.27a.18.18,0,0,1,0-.29.3.3,0,0,1,.36,0l.35.27a.18.18,0,0,1,0,.29.31.31,0,0,1-.13.06Zm-1.15-.88a.28.28,0,0,1-.23,0L9.14,47a.18.18,0,0,1,0-.29.3.3,0,0,1,.36,0l.35.27a.18.18,0,0,1,0,.29.31.31,0,0,1-.13.06Zm-1.15-.88a.28.28,0,0,1-.23,0L8,46.15a.18.18,0,0,1,0-.29.3.3,0,0,1,.36,0l.35.27a.18.18,0,0,1,0,.29.31.31,0,0,1-.13.06Zm-1.15-.88a.28.28,0,0,1-.23,0l-.36-.27a.18.18,0,0,1,0-.29.3.3,0,0,1,.36,0l.35.27a.18.18,0,0,1,0,.29.31.31,0,0,1-.13.06Zm-1.15-.88a.28.28,0,0,1-.23,0l-.13-.1-.06-.38a.24.24,0,0,1,.22-.24.23.23,0,0,1,.28.15l0,.26h0a.18.18,0,0,1,0,.29.31.31,0,0,1-.13.06ZM6,43.41H6a.23.23,0,0,1-.28-.15l-.06-.4a.24.24,0,0,1,.22-.24.23.23,0,0,1,.28.15h0l.06.4a.24.24,0,0,1-.21.24ZM5.8,42.1h0a.23.23,0,0,1-.28-.15l-.06-.4a.24.24,0,0,1,.22-.24.23.23,0,0,1,.28.15h0l.06.4A.24.24,0,0,1,5.8,42.1Zm-.2-1.31h0a.23.23,0,0,1-.28-.15l-.06-.4A.24.24,0,0,1,5.46,40a.23.23,0,0,1,.28.15l.06.4a.24.24,0,0,1-.21.24Zm-.2-1.32h0a.23.23,0,0,1-.28-.15L5,38.91a.24.24,0,0,1,.22-.24.23.23,0,0,1,.28.15l.06.4a.24.24,0,0,1-.21.24Zm-.2-1.31h0A.23.23,0,0,1,4.9,38l-.06-.4a.24.24,0,0,1,.22-.24.23.23,0,0,1,.28.15l.06.4a.24.24,0,0,1-.21.24ZM5,36.84H5a.23.23,0,0,1-.28-.15h0l-.06-.4A.24.24,0,0,1,4.86,36a.23.23,0,0,1,.28.15l.06.4a.24.24,0,0,1-.21.24Zm-.2-1.31h0a.23.23,0,0,1-.28-.15L4.44,35a.24.24,0,0,1,.22-.24.23.23,0,0,1,.28.15l.06.4a.24.24,0,0,1-.21.24Zm-.2-1.32h0a.23.23,0,0,1-.28-.15l-.06-.4a.24.24,0,0,1,.22-.24.23.23,0,0,1,.28.15h0l.06.4a.24.24,0,0,1-.21.24Zm-.2-1.31h0a.23.23,0,0,1-.28-.15L4,32.34a.24.24,0,0,1,.22-.25h0a.23.23,0,0,1,.28.15l.06.4a.24.24,0,0,1-.2.24Zm-.2-1.32h0a.23.23,0,0,1-.28-.15L3.83,31a.24.24,0,0,1,.22-.24.23.23,0,0,1,.28.15l.06.4a.24.24,0,0,1-.21.24Z"/><path d="M58.16,49.36s1.13.41,1.19-.41c0-.27-.26-.46-.69-.51"/><path d="M59,49.59a1.76,1.76,0,0,1-.85-.09l.1-.28a1.17,1.17,0,0,0,.84,0,.36.36,0,0,0,.15-.3c0-.21-.29-.32-.56-.35l0-.29c.53.06.84.31.82.66a.65.65,0,0,1-.29.53.74.74,0,0,1-.24.1Z"/><path d="M58.84,48l-.8.36.71.52.09-.88Z"/><path d="M51.28,46.5l1-.54.41.81-.21,0-.18.67-1-.23.19-.66-.22-.1Z"/><path d="M52.42,47.67l-1.29-.3.2-.69-.38-.17,1.4-.75.57,1.12-.31.07Zm-.92-.52.71.17.17-.62.11,0-.26-.51-.61.33.07,0Z"/><path d="M57.67,63.24l.3,1.39"/><path d="M58,64.77a.15.15,0,0,1-.18-.11l-.3-1.39a.15.15,0,0,1,.29-.06l.3,1.39A.15.15,0,0,1,58,64.77Z"/></g></g></svg>