<svg xmlns="http://www.w3.org/2000/svg" viewBox="0 0 188.5 108.19"><defs><style>.cls-1{fill:#00adb5;fill-rule:evenodd;}.cls-2,.cls-4{fill:#232323;}.cls-2,.cls-5,.cls-6,.cls-7,.cls-8,.cls-9{stroke:#000;}.cls-10,.cls-2,.cls-4,.cls-5,.cls-6,.cls-7,.cls-8,.cls-9{stroke-miterlimit:10;stroke-width:0.25px;}.cls-10,.cls-3,.cls-6{fill:#474747;}.cls-4{stroke:#020202;}.cls-5{fill:none;}.cls-7{fill:#fff;}.cls-9{fill:#070707;}.cls-10{stroke:#232323;}</style></defs><title>ico5</title><g id="Capa_2" data-name="Capa 2"><g id="objetos"><path class="cls-1" d="M0,55.49V51.75a2.61,2.61,0,0,0,0-1.34V50a17.71,17.71,0,0,0,.21-2.58A50.67,50.67,0,0,1,6.42,27.81a52.53,52.53,0,0,1,8.46-11.43A53.3,53.3,0,0,1,44.79.57,66.64,66.64,0,0,1,57.13,0,44.44,44.44,0,0,1,69.46,2.12,53.12,53.12,0,0,1,89.07,12.93,53.73,53.73,0,0,1,107.3,46.34c.17,1.2.05,2.42.26,3.62v.9a2,2,0,0,0,0,1.2v3.59a4,4,0,0,0-.08,1.19v.84a43.77,43.77,0,0,1-2.91,14.63A52.58,52.58,0,0,1,94.06,89.87a53.95,53.95,0,0,1-32.55,17.46c-1.32.19-2.67.06-4,.3h-.45a2,2,0,0,0-1.19,0H52.14a4,4,0,0,0-1.19-.08h-.84a43.31,43.31,0,0,1-14.57-2.83,52.48,52.48,0,0,1-16.42-9.43A53.59,53.59,0,0,1,2.06,69.51a54.56,54.56,0,0,1-1.77-8c-.17-1.2,0-2.42-.29-3.62v-.45c.16-.29,0-.61.08-.91S.16,55.82,0,55.49Z"/><path class="cls-2" d="M90.33,48.45V90.31L88.48,91l-30.4-8.92a2.14,2.14,0,0,1-1.57-2L55.45,41.93l19.28,3.61A13,13,0,0,0,75,48.45c.16.46.46,1.89,1.43,1.89l2.76-.05c1.4,0,2.89-.09,3.5-.14,1.13-.09,1.75-.59,1.75-1.28a6.21,6.21,0,0,1,.14-1.48Z"/><path class="cls-3" d="M74.86,44.6a3.27,3.27,0,0,0-.12.94L55.45,41.93a1.84,1.84,0,0,1,.92-1.63Z"/><path class="cls-4" d="M98.36,25.91c-.07.32.6.66,1.37,1.08s1.88,1.08,2.05,1.9.41,1.93-2.05,3.42a46.31,46.31,0,0,1-9.48,3.76c-10.08,3.14-27.16,3.8-32.9,3.94a2,2,0,0,0-1,.28l18.49,4.3a.6.6,0,0,1,.19-.31s5.3-2.69,10.13-2.69,6.79,1.63,6.58,2a4.23,4.23,0,0,1-1.19.79,35.85,35.85,0,0,1-5,1.79,1.37,1.37,0,0,0-.74.74l5.92,1.37,16.63-6.59,9.79-3.88,14.78-5.86S98.52,25.22,98.36,25.91Zm14,11.09a6.66,6.66,0,0,1-.64.33l0,0c-.45.27-2.91,1.31-4.69,2l0,0c-.73.3-1.32.52-1.58.61l-.39.11-.07,0a8.15,8.15,0,0,1-2.06.22h-.22l-.74,0a15.11,15.11,0,0,1-3.16-.48A14.09,14.09,0,0,1,96.34,39c-.8-.38-.4-1.15.19-1.4s3.08-1.12,3.08-1.12,2.52-1,3.76-1.43a14,14,0,0,1,4-.46,19.24,19.24,0,0,1,4.52.87c1,.36,1.22,1.09.51,1.54Z"/><path class="cls-5" d="M90.56,44.37a36,36,0,0,1-5,1.79,1.39,1.39,0,0,0-.74.74,2.63,2.63,0,0,0-.16.47,6.09,6.09,0,0,0-.14,1.48c0,.69-.62,1.18-1.75,1.28-.61.05-2.1.1-3.5.14a2.67,2.67,0,0,1-2.37-2.18A3.79,3.79,0,0,1,77.09,46a1.56,1.56,0,0,1,.72-.69l.09,0a22.66,22.66,0,0,1,6.46-1.8,17.19,17.19,0,0,1,4.79.19A3.55,3.55,0,0,1,90.56,44.37Z"/><path class="cls-2" d="M117.14,37.81l-9.79,3.88L90.72,48.29l-.4.16V89.58a2.88,2.88,0,0,0,1.3-.31l37.89-19.5a.49.49,0,0,1,0-.54,3.19,3.19,0,0,1,1.16-.84l1.23-36.44Zm4.05,33.14c-4.47,3.16-6.47-2.06-6.83-3.17l0-.08,0-.11s-.18-.88-.52-.89h0c-.4,0-.5.56-.92.81-.7.42-1.37-.19-1.79.06s-1.86,4.94-2.65,6.47-3.24,5.65-7.21,6.91c-2.31.73-4.27.22-5.6-1.9v0a2.12,2.12,0,0,1-.14-.24h0c-.1-.18-.2-.38-.3-.58a17.87,17.87,0,0,1-1.31-6.44A21.2,21.2,0,0,1,97,59.31h0c.25-.42.51-.82.78-1.22a35.63,35.63,0,0,1,2.48-3.19c.15-.17.3-.34.45-.48a5.78,5.78,0,0,1,2.86-1.66c1.68-.37,3,.22,3.63-.1l.14-.09a1.79,1.79,0,0,0,.54-.85,3.61,3.61,0,0,0,.18-1,3.92,3.92,0,0,0-.55-2.27,3.54,3.54,0,0,1-.58-2.62l7.41-3,.44-.18,1-.41,2.21-.9a11.73,11.73,0,0,1-.48,2.86,6.7,6.7,0,0,0-.54,3.3c.18.58.45.59.52.58h0c.31-.06.53-.37,1.14-1.06a7.21,7.21,0,0,1,4.89-2.43H124c2.76,0,5,3.82,5.15,9.37S126.17,67.42,121.19,70.95Z"/><path d="M117.51,44.23a6.71,6.71,0,0,0-.54,3.3c.18.58.44.59.52.58a.67.67,0,0,1-.23,0,5.47,5.47,0,0,1-2-.46c-.43-.3-.43-1-.16-2.24s.69-3.16.69-3.16l2.21-.9A11.63,11.63,0,0,1,117.51,44.23Z"/><path class="cls-5" d="M97.76,58.08,97,59.3Q97.36,58.67,97.76,58.08ZM95.44,78.8l.14.24A2.12,2.12,0,0,1,95.44,78.8Zm14.3-11.53-.29.14c.05-.08.09-.12.13-.12Z"/><path d="M107.26,41.57l0-.33h0q1.17-.5,2.35-1l1.18-.47,1.19-.46,1.19-.45,1.2-.44c.8-.29,1.6-.57,2.41-.84h0l.25.1-.26-.08h0q-1.17.51-2.35,1l-1.18.47-1.19.46-1.19.45-1.2.44c-.8.29-1.6.57-2.41.84v0Z"/><path class="cls-6" d="M131.93,31.95l-.56,36.14s-.31.12-.67.31Z"/><path class="cls-2" d="M131.72,70.67c-.15.08-40,21-40.28,21.24l-3-.87,1.85-.74v-.74a2.88,2.88,0,0,0,1.3-.31l37.89-19.5a.81.81,0,0,0,.31.27Z"/><path class="cls-2" d="M132.53,70.95s-23.34,12.17-30.58,16h0L100,88l-.5.3-.38.23a3.73,3.73,0,0,0-.54.4,5,5,0,0,0-.49.43,1.29,1.29,0,0,0-.29.67c-.06,0-3.27,2-3.67,2.29a.61.61,0,0,0-.18.75,10.24,10.24,0,0,1-1.71-.46c-.79-.3-.76-.69-.76-.69.28-.23,40.12-21.16,40.28-21.24Z"/><path class="cls-2" d="M188.37,76.14c-.52-.5-16.12,6-16.12,6L169.51,81s-32.74,21-35.32,22.71a7.2,7.2,0,0,1-6.48.73l-1.51-.53c-4.94-1.74-19.84-7-22.55-8-.91-.35-1.71-.68-2.41-1a9.07,9.07,0,0,1-3.36-2.23A6.65,6.65,0,0,1,97.76,90c-.07,0-3.28,2-3.67,2.29a.62.62,0,0,0-.18.75s.12.31,1.16.8,31.68,11.62,38.15,14a3.82,3.82,0,0,0,2.4.07l5.07-1.5a7.28,7.28,0,0,0,2.47-1.28,52.8,52.8,0,0,1,9.7-6A98.26,98.26,0,0,1,162,95.24C163.27,94.78,188.88,76.64,188.37,76.14ZM169.82,88.3a84.72,84.72,0,0,1-8,4.28l-2.17.61-.1-2,9-5.82,4.7-1,.39,1.22S172.31,86.62,169.82,88.3Z"/><path class="cls-7" d="M170.35,75.15S144.18,66.86,141.59,67s-9.07,3.94-9.07,3.94-23.33,12.17-30.57,16h0L100,88l-.5.3c-1.53,1-.87,1.83,0,2.3.15.08.77.32,1.74.68,5.27,2,20.74,7.52,25,8.89l.82.25c2.71.77,5.3,1.73,7.85.1.45-.29,37.19-22.9,37.19-24h0C172,75.8,170.35,75.15,170.35,75.15Zm-34,23.49L104,87.56,138.29,69l30.55,9.2Z"/><path class="cls-7" d="M172.06,79A15.06,15.06,0,0,1,169.51,81s-32.74,21-35.32,22.71a7.2,7.2,0,0,1-6.48.73l-1.51-.53v-3.69l.82.25c2.71.77,5.3,1.73,7.85.1.45-.29,37.19-22.9,37.19-24C172.1,77.25,172.45,78.47,172.06,79ZM126.2,100.17v3.69c-4.94-1.74-19.84-7-22.55-8-.91-.35-1.71-.68-2.41-1a9.08,9.08,0,0,1-3.36-2.23A6.65,6.65,0,0,1,97.75,90a1.32,1.32,0,0,1,.29-.67,6.06,6.06,0,0,1,.49-.43,3.94,3.94,0,0,1,.54-.4l.38-.23c-1.53,1-.87,1.83,0,2.3.15.08.77.32,1.74.68C106.52,93.25,122,98.79,126.2,100.17Z"/><path class="cls-5" d="M98.54,88.94a1.77,1.77,0,0,0-.38.47.75.75,0,0,0-.06.58,1.13,1.13,0,0,0,.35.49,2.74,2.74,0,0,0,.52.35l.28.13.29.12.59.23,1.18.44q2.37.88,4.75,1.74,4.75,1.72,9.52,3.42l4.77,1.69q2.39.85,4.78,1.66c.8.27,1.6.54,2.41.76s1.62.48,2.45.64a7.88,7.88,0,0,0,2.52.15,5.55,5.55,0,0,0,2.35-.85l0,0a5.82,5.82,0,0,1-1.11.61,5.48,5.48,0,0,1-1.24.33,8.16,8.16,0,0,1-2.58-.08c-.85-.15-1.67-.37-2.48-.59l-.61-.16-.61-.18-1.21-.38-1.21-.39-1.2-.4-2.4-.81-4.78-1.68c-1.59-.56-3.17-1.15-4.76-1.72l-2.37-.88-1.18-.44L106,93.76l-2.36-.9-2.35-.93-1.17-.48-.58-.24-.29-.13L99,91l-.14-.08a2.74,2.74,0,0,1-.53-.38A1.19,1.19,0,0,1,98,90a.76.76,0,0,1,0-.33.9.9,0,0,1,.11-.3,1.78,1.78,0,0,1,.42-.48Z"/><path class="cls-5" d="M101.95,86.94a19.08,19.08,0,0,0-2.88,1.58c-.19.13-.37.26-.54.4"/><path class="cls-5" d="M136.3,106.33l4.39-3,4.41-3,4.41-2.94,4.42-2.94,4.43-2.92,4.43-2.92,4.44-2.9,4.46-2.88-4.39,3-4.4,3-4.41,2.94-4.42,2.94-4.43,2.92c-1.48,1-2.95,2-4.43,2.92l-4.44,2.9Z"/><path class="cls-5" d="M173.69,85.6s-1.38,1-3.87,2.7a85.14,85.14,0,0,1-8,4.28l-2.17.61-.1-2,9-5.82,4.7-1Z"/><path d="M90.73,48.29l-.4.16-5.69-1.06a2.53,2.53,0,0,1,.17-.47Z"/><path class="cls-5" d="M129.54,69.75h0"/><path class="cls-8" d="M126.44,58.53A39.4,39.4,0,0,1,123,67l-8.71-1.89.43-22.41,1-.41-.69,3.16c-.27,1.22-.27,1.94.16,2.24a5.46,5.46,0,0,0,2,.46.67.67,0,0,0,.23,0h0c.31-.06.53-.37,1.14-1.06a7.22,7.22,0,0,1,4.89-2.43S129.11,49.63,126.44,58.53Z"/><path class="cls-8" d="M122.62,67.64c-1.49,2.29-3,3.33-4.59,3.48-2.34.21-3.48-2.78-3.67-3.33l0-.08,0-.11s-.18-.88-.52-.89h0c-.14,0-2.33,0-2.53,0s-.2.7-.52.81-.51-.26-1-.25l4.59-2.19Z"/><path class="cls-2" d="M114.77,42.67l-.43,22.41-12.71,6-3.86-13a35.79,35.79,0,0,1,2.48-3.19c.15-.17.3-.34.45-.48S100.17,63,104.76,62c3.84-.81,4.87-4.93,5.11-6.26l.33-.08c2.43-.84,2.55-5.76,2.45-6s-1.07-.36-1.07-.36l2.76-6.45Z"/><path class="cls-5" d="M106.48,73.6c-.22.42-.45.85-.69,1.27l-4.65-3.38L97,59.31h0l.78-1.22,3.86,13Z"/><path class="cls-5" d="M97.76,58.08,97,59.3Q97.36,58.67,97.76,58.08Z"/><path class="cls-9" d="M103.12,78.59a5.84,5.84,0,0,1-2,1.41c-3.53,1.32-5.05-.28-5.51-.95v0l-.14-.24h0c-.1-.18-.2-.38-.3-.58Z"/><path class="cls-6" d="M113.77,66.69c-.4,0-.5.56-.92.81-.7.42-1.37-.19-1.79.06s-1.86,4.94-2.65,6.47-3.24,5.65-7.21,6.91c-2.31.73-4.27.22-5.6-1.9.46.67,2,2.27,5.51.95a5.87,5.87,0,0,0,2-1.41,18.29,18.29,0,0,0,2.67-3.72c.24-.42.47-.85.69-1.27,1.46-2.82,2.53-5.59,3-6.2a.37.37,0,0,1,.13-.12.31.31,0,0,1,.16,0c.48,0,.7.35,1,.25s.32-.8.52-.81S113.63,66.69,113.77,66.69Z"/><path class="cls-6" d="M110.2,55.68l-.33.08a4.44,4.44,0,0,1-1.17.21v0h0a4,4,0,0,0-.27-2.23,2.81,2.81,0,0,0-1.1-1.17,1.77,1.77,0,0,0,.54-.85l4.77-2.06C112.76,49.93,112.63,54.84,110.2,55.68Z"/><path class="cls-5" d="M108.71,55.94v0s-1.84-2.31-1.52-3.33l.14-.09a2.8,2.8,0,0,1,1.1,1.17,4,4,0,0,1,.28,2.23Z"/><path class="cls-8" d="M108.71,56l-1.36.19-3.79-3.42c1.68-.37,3,.22,3.63-.1C106.87,53.67,108.71,56,108.71,56Z"/><path class="cls-5" d="M108.71,56c-.22,1.21-1,4.41-3.67,5.52-3.26,1.39-4.38-2.33-4.35-7.09a5.79,5.79,0,0,1,2.86-1.66l3.79,3.42Z"/><path class="cls-5" d="M112.65,49.65l-4.77,2.06a3.66,3.66,0,0,0,.18-1l3.52-1.43s1,.08,1.07.36Z"/><path class="cls-8" d="M114.33,42.84l-2.76,6.45-3.52,1.43a3.93,3.93,0,0,0-.55-2.27,3.53,3.53,0,0,1-.58-2.62Z"/><path class="cls-6" d="M121.19,70.95c-4.47,3.16-6.47-2.06-6.83-3.17.19.55,1.34,3.54,3.67,3.33,1.57-.14,3.1-1.18,4.59-3.48.14-.21.28-.44.42-.67a39.19,39.19,0,0,0,3.4-8.43c2.67-8.9-2.9-13.91-2.9-13.91H124c2.76,0,5,3.82,5.14,9.37S126.17,67.42,121.19,70.95Z"/><path class="cls-8" d="M109.45,67.4c-.44.61-1.5,3.38-3,6.2l-4.86-2.48Z"/><path d="M84.64,47.38,77.09,46m7.71.94-7-1.63"/><path class="cls-10" d="M91.76,43.58a4.23,4.23,0,0,1-1.19.79,3.56,3.56,0,0,0-1.41-.74,17.16,17.16,0,0,0-4.79-.19,22.56,22.56,0,0,0-6.46,1.79l-.09,0a1.56,1.56,0,0,0-.72.69,3.79,3.79,0,0,0-.21,2.13,2.67,2.67,0,0,0,2.37,2.19l-2.76.05c-1,0-1.27-1.43-1.44-1.89a12.7,12.7,0,0,1-.32-2.91,3.21,3.21,0,0,1,.12-.93.6.6,0,0,1,.19-.31s5.3-2.69,10.13-2.69S92,43.23,91.76,43.58Z"/><path class="cls-8" d="M90.56,44.37a36,36,0,0,1-5,1.79,1.39,1.39,0,0,0-.74.74,2.63,2.63,0,0,0-.16.47,6.09,6.09,0,0,0-.14,1.48c0,.69-.62,1.18-1.75,1.28-.61.05-2.1.1-3.5.14a2.67,2.67,0,0,1-2.37-2.18A3.79,3.79,0,0,1,77.09,46a1.56,1.56,0,0,1,.72-.69l.09,0a22.66,22.66,0,0,1,6.46-1.8,17.19,17.19,0,0,1,4.79.19A3.55,3.55,0,0,1,90.56,44.37Z"/><path class="cls-3" d="M112.38,37a6.66,6.66,0,0,1-.64.33c.61-.4.37-1-.51-1.36a18.31,18.31,0,0,0-4.17-.77,13.32,13.32,0,0,0-3.67.41c-1.15.36-3.47,1.28-3.47,1.28s-2.3.78-2.84,1-.91.91-.17,1.25a13,13,0,0,0,2.23.75,14.28,14.28,0,0,0,2.91.43l.6,0-.74,0a15,15,0,0,1-3.16-.47A14.09,14.09,0,0,1,96.34,39c-.8-.38-.4-1.15.19-1.4s3.08-1.12,3.08-1.12,2.52-1,3.76-1.43a14,14,0,0,1,4-.46,19.24,19.24,0,0,1,4.52.87C112.84,35.82,113.08,36.56,112.38,37Z"/><path d="M99.73,32.31V27c.87.48,1.88,1.08,2.05,1.9S102.19,30.83,99.73,32.31Z"/><path class="cls-5" d="M122.41,96.65l-12.55-4.44"/><path class="cls-5" d="M121.15,100.76a.49.49,0,0,1-.83.21,1.55,1.55,0,0,1-.51-1.24c0-.54.41-.8.84-.49a1.48,1.48,0,0,1,.5,1.53Z"/><path class="cls-5" d="M126.2,100.17v-.05m-25-8.84v3.54"/><path class="cls-6" d="M109.87,55.76c-.24,1.33-1.26,5.45-5.11,6.25-4.6,1-4.07-7.61-4.07-7.61,0,4.76,1.09,8.48,4.35,7.09,2.62-1.12,3.44-4.31,3.67-5.52A4.44,4.44,0,0,0,109.87,55.76Z"/><path d="M111.74,37.33c-1.09.52-3.21,1.42-4.73,2l0,0c-.79.31-1.44.56-1.71.64l-.26.08-.06,0a8.84,8.84,0,0,1-2.06.22h-.22l-.6,0a14.38,14.38,0,0,1-2.91-.43,13.34,13.34,0,0,1-2.23-.75c-.73-.34-.37-1,.17-1.25s2.84-1,2.84-1,2.32-.92,3.47-1.28a13.37,13.37,0,0,1,3.67-.41,18.42,18.42,0,0,1,4.17.78c.88.31,1.12,1,.51,1.36Z"/><path class="cls-8" d="M168.84,78.2,136.3,98.64,104,87.56,138.29,69l30.55,9.2Z"/><ellipse class="cls-5" cx="127.03" cy="98.3" rx="0.84" ry="0.34"/></g></g></svg>