<svg xmlns="http://www.w3.org/2000/svg" viewBox="0 0 92.41 68"><defs><style>.cls-1{fill:aqua;}</style></defs><title>ico blog</title><g id="Capa_2" data-name="Capa 2"><g id="Capa_1-2" data-name="Capa 1"><path class="cls-1" d="M47,68H15.5A15.52,15.52,0,0,1,0,52.5v-37A15.52,15.52,0,0,1,15.5,0H47a15.52,15.52,0,0,1,15.5,15.5v37A15.52,15.52,0,0,1,47,68ZM15.5,7A8.51,8.51,0,0,0,7,15.5v37A8.51,8.51,0,0,0,15.5,61H47a8.51,8.51,0,0,0,8.5-8.5v-37A8.51,8.51,0,0,0,47,7Z"/><path class="cls-1" d="M19,13.76h10.5a27.7,27.7,0,0,1,7.54.77,7.48,7.48,0,0,1,4.14,3.14q1.58,2.36,1.58,7.61,0,3.55-1.11,4.95t-4.39,2.15q3.65.83,5,2.74T43.51,41v3.75a14.91,14.91,0,0,1-.94,6.08,5.06,5.06,0,0,1-3,2.7q-2.05.73-8.4.73H19Zm10.53,6.93v9l1.05,0q1.55,0,2-.76T33,24.53a7.06,7.06,0,0,0-.35-2.66,1.68,1.68,0,0,0-.91-1A8.13,8.13,0,0,0,29.54,20.68Zm0,15.3V47.32a4.49,4.49,0,0,0,2.84-.7Q33,46,33,43.54V39.76q0-2.6-.55-3.15T29.54,36Z"/><path class="cls-1" d="M43.66,58.18a9.17,9.17,0,0,0,3-5c.24-.9.37-1.82.57-2.73a.72.72,0,0,1,.24-.4c1.76-1.33,3.53-2.66,5.34-4,.58.59,1.16,1.2,1.76,1.79s1,.94,1.48,1.37.31.57,0,.91c-1.49,1.89-3,3.8-4.4,5.66a12.57,12.57,0,0,0-8,2.6Zm6.24-4.29a1,1,0,0,0,1-1,1,1,0,0,0-1-1,1,1,0,0,0-1,1A1,1,0,0,0,49.9,53.89Z"/><path class="cls-1" d="M70.22,41l-8.8-8.79L86.76,10.53c1.66,1.66,3.32,3.31,5,5a.5.5,0,0,1,0,.49c-1.2,1.41-2.42,2.79-3.62,4.2-1.41,1.65-2.8,3.32-4.21,5-.79.92-1.61,1.82-2.4,2.74-1,1.17-2,2.35-3,3.52-.75.88-1.53,1.74-2.29,2.62-1,1.17-2,2.35-3,3.52-.74.87-1.5,1.72-2.25,2.59Z"/><path class="cls-1" d="M57.7,49.91l-5.15-5.16,7.85-11.37,8.38,8.37c.25.25.23.37-.06.57-2.07,1.42-4.14,2.86-6.21,4.29L58,49.7Z"/><path class="cls-1" d="M87.76,9.59a4.72,4.72,0,0,1,3.76,1.68,4.82,4.82,0,0,1,.89,3Z"/></g></g></svg>