<svg xmlns="http://www.w3.org/2000/svg" viewBox="0 0 85.31 55.57"><defs><style>.cls-1{fill:#00c625;}</style></defs><title>ico home</title><g id="Capa_2" data-name="Capa 2"><g id="Capa_1-2" data-name="Capa 1"><path class="cls-1" d="M66,55.57H19.18C12.79,55.57,7.58,49,7.58,41V26.67c0-8,5.2-14.55,11.6-14.55H66c6.4,0,11.6,6.53,11.6,14.55V41C77.57,49,72.37,55.57,66,55.57ZM19.18,16.62c-4.42,0-8,4.51-8,10.06V41c0,5.55,3.6,10.06,8,10.06H66c4.42,0,8-4.51,8-10.06V26.67c0-5.55-3.6-10.06-8-10.06Z"/><path class="cls-1" d="M3.45,48.54c-1.51,0-2.46-.4-3-1.27-.81-1.31-.4-3.23.12-5.64a29.22,29.22,0,0,0,.83-6.13V32.21a29.22,29.22,0,0,0-.83-6.13c-.51-2.42-.92-4.33-.12-5.64.53-.87,1.48-1.27,3-1.27a3.37,3.37,0,0,1,3.12,1.32c.89,1.38.56,3.43.13,6a34.79,34.79,0,0,0-.6,5.71v3.28a34.79,34.79,0,0,0,.6,5.71c.43,2.59.77,4.64-.13,6A3.37,3.37,0,0,1,3.45,48.54Zm0-27.88c-1.08,0-1.77.23-2,.69-.45.73-.09,2.4.32,4.35a31.15,31.15,0,0,1,.87,6.52v3.28A31.15,31.15,0,0,1,1.72,42c-.41,1.94-.77,3.62-.32,4.35.28.46,1,.69,2,.69s1.86-.26,2.19-.76c.54-.83.24-2.65-.11-4.77a36.26,36.26,0,0,1-.63-6V32.21a36.26,36.26,0,0,1,.63-6c.35-2.12.65-3.95.11-4.77C5.31,20.91,4.58,20.65,3.45,20.65Z"/><path class="cls-1" d="M81.63,48.54c-1.51,0-2.46-.4-3-1.27-.81-1.31-.4-3.23.12-5.64a29.22,29.22,0,0,0,.83-6.13V32.21a29.22,29.22,0,0,0-.83-6.13c-.51-2.42-.92-4.33-.12-5.64.53-.87,1.48-1.27,3-1.27a3.37,3.37,0,0,1,3.12,1.32c.89,1.38.56,3.43.13,6a34.79,34.79,0,0,0-.6,5.71v3.28a34.79,34.79,0,0,0,.6,5.71c.43,2.59.77,4.64-.13,6A3.37,3.37,0,0,1,81.63,48.54Zm0-27.88c-1.08,0-1.77.23-2,.69-.45.73-.09,2.4.32,4.35a31.15,31.15,0,0,1,.87,6.52v3.28A31.15,31.15,0,0,1,79.9,42c-.41,1.94-.77,3.62-.32,4.35.28.46,1,.69,2,.69s1.86-.26,2.19-.76c.54-.83.24-2.65-.11-4.77a36.26,36.26,0,0,1-.63-6V32.21a36.26,36.26,0,0,1,.63-6c.35-2.12.65-3.95.11-4.77C83.49,20.91,82.75,20.65,81.63,20.65Z"/><path class="cls-1" d="M50,15.49H33.6l.39-.88c.61-1.4,2.21-5.31,2.21-6.63S34.6,2.74,34,1.35L33.65.58,34.92.47c.23,0,5.71-.47,7.64-.47S50,.45,50.2.47l1.27.11-.34.77c-.61,1.4-2.21,5.31-2.21,6.63s1.59,5.24,2.21,6.63l.39.88ZM36.53,14.1H48.59c-.65-1.56-1.91-4.77-1.91-6.12s1.32-4.71,2-6.23c-1.75-.14-4.83-.36-6.08-.36s-4.33.22-6.08.36c.64,1.52,2,4.85,2,6.23S37.18,12.54,36.53,14.1Z"/><path class="cls-1" d="M43.28,23.37,40.54,44.09H32.35L29.24,23.37h5.68q1,8.56,1.41,14.49.42-6,.89-10.64l.37-3.85Z"/><path class="cls-1" d="M56.5,35.5q0,3.12-.15,4.42a5,5,0,0,1-3,4,7.62,7.62,0,0,1-3.07.58,7.8,7.8,0,0,1-3-.54,5,5,0,0,1-3.09-4A43.69,43.69,0,0,1,44,35.5V32q0-3.12.15-4.42a5,5,0,0,1,3-4,7.62,7.62,0,0,1,3.07-.58,7.8,7.8,0,0,1,3,.54,5,5,0,0,1,3.09,4A43.71,43.71,0,0,1,56.5,32ZM51.11,28.7A6.43,6.43,0,0,0,51,26.85a.64.64,0,0,0-.66-.4.74.74,0,0,0-.65.33,4.62,4.62,0,0,0-.22,1.93v9.68a9.51,9.51,0,0,0,.15,2.23.64.64,0,0,0,.68.42.66.66,0,0,0,.7-.49,10.24,10.24,0,0,0,.15-2.32Z"/></g></g></svg>