<svg xmlns="http://www.w3.org/2000/svg" viewBox="0 0 83.13 54.72"><defs><style>.cls-1{fill:aqua;}</style></defs><title>ico info</title><g id="Capa_2" data-name="Capa 2"><g id="Capa_1-2" data-name="Capa 1"><path class="cls-1" d="M41.57,54.72C19.38,54.72,2.08,30.34,1.36,29.3L0,27.36l1.36-1.94C2.08,24.38,19.38,0,41.57,0S81,24.38,81.77,25.42l1.36,1.94L81.77,29.3C81,30.34,63.75,54.72,41.57,54.72ZM8.39,27.36c4.36,5.46,17.83,20.59,33.17,20.59S70.38,32.83,74.74,27.36C70.37,21.9,56.91,6.78,41.57,6.78S12.75,21.89,8.39,27.36Z"/><path class="cls-1" d="M41.57,15a12.44,12.44,0,0,0-1.95.15,6.17,6.17,0,0,1-9.48,7.49A12.36,12.36,0,1,0,41.57,15Z"/></g></g></svg>