<svg xmlns="http://www.w3.org/2000/svg" viewBox="0 0 429.81 282.49"><defs><style>.cls-1{opacity:0.3;}.cls-18,.cls-2,.cls-23{fill:none;}.cls-2{stroke:#00adb5;}.cls-15,.cls-18,.cls-2{stroke-miterlimit:10;}.cls-3{fill:#00adb5;fill-rule:evenodd;}.cls-4{fill:#515151;}.cls-5{fill:#454545;}.cls-6{fill:#363636;}.cls-7{fill:#191919;}.cls-8{fill:#0f0f0f;}.cls-9{fill:#575757;}.cls-10{fill:#2d2d2d;}.cls-11{fill:#1d1d1d;}.cls-12{fill:#404040;}.cls-13{fill:#020202;}.cls-14{fill:#636363;}.cls-15,.cls-25{fill:#494949;}.cls-15{stroke:#2a2a2a;stroke-width:1.18px;}.cls-16{fill:#1c1c1c;}.cls-17{fill:#303030;}.cls-18{stroke:#303030;stroke-width:2.36px;}.cls-19{fill:#2b2b2b;}.cls-20{fill:#2a2a2a;}.cls-21{fill:#727272;}.cls-22{fill:#999;}.cls-24{fill:#282828;}.cls-26{fill:#1e1e1e;}.cls-27{fill:#f2f2f2;}.cls-28{fill:#333;}.cls-29{fill:#848484;}</style></defs><title>info1</title><g id="Capa_2" data-name="Capa 2"><g id="objetos"><g class="cls-1"><g id="Layer_2" data-name="Layer 2"><g id="vive"><g id="Layer_29" data-name="Layer 29"><path class="cls-2" d="M235.71,26.83l1.71-1.65A15.48,15.48,0,0,0,235.71,26.83Zm117.9,15.31a32,32,0,0,1,3.11,5.69h.13a4.21,4.21,0,0,1,1.68.37,6.08,6.08,0,0,1,1.5.92l3.16,2.26q-.09-.42-.2-.85a.36.36,0,0,0,0-.05q-.06-.24-.13-.48l-.17-.64-.12-.41c-.06-.22-.13-.45-.2-.67l-.11-.35-.1-.27q-.23-.64-.54-1.32l-.21-.44-.34-.67L361,45l-.12-.23c-.08-.15-.16-.3-.25-.45l-.26-.45-.28-.45-.43-.68-.15-.23c-.24-.36-.48-.73-.75-1.09l-4,.56ZM337.16,27.78,339.42,30l.23.22a124.56,124.56,0,0,1,10.62,11.48l2.79-.32a85.06,85.06,0,0,0-10.14-11.64h0l-.62-.58s-1.35-1.36-3.58-3.42A2.31,2.31,0,0,0,337.16,27.78Zm6.45,1.77.32-.06-.32.06a91.6,91.6,0,0,1,10.54,11.66l4.07-.45c1-.11,1.69-.18,1.95-.19h.21l-.1-.13L360,40.1l-.08-.1-.43-.53-.39-.47-.26-.3-.39-.46-.34-.38-.45-.51-.79-.87-.79-.84-.39-.41-.78-.79-.39-.38c-1-1-1.89-1.83-2.76-2.61l-.34-.31c-.57-.51-1.1-1-1.6-1.4l-.3-.24-.15-.13L349,29l-.19-.16-.14-.12-.43-.35-.21-.17-.21-.17-.1-.08-.1-.08-.12-.09-.06-.05-.17-.13-.06,0,0,0-.37-.28-.08-.06-.25-.19s-.89-.77-2.43-2l-1.06.1-2.3.26-1.16.14-.31,0q2.36,2.06,4.43,4Zm7.29,13a28.73,28.73,0,0,1,3.79,7,2,2,0,0,1,2-1.69h.13a4.21,4.21,0,0,1,1.68.37,6.08,6.08,0,0,1,1.5.92l3.16,2.26.19.14,4.95,3.55a65,65,0,0,0-2.88-6.71c-.08-.16-.16-.31-.24-.47l-.16-.29-.09-.16-.27-.49-.23-.41-.15-.26-.3-.51-.29-.47-.22-.36-.28-.43v0l-.48-.73-.07-.1-.11-.17-.3-.42-.36-.51-.44-.61c-.08-.11-.16-.23-.25-.34l-.38-.5-2.12.31-4,.56-1.1.16Z"/><path class="cls-2" d="M221.16,96.25c.26,2.35.71,7,5.42,8,3.22.73,17,.14,17,.14l28.3.22L331,74.58l52.51-9.64L365.59,43.28a2,2,0,0,0,0-1.9,14.11,14.11,0,0,0-2.95-2.9,1.24,1.24,0,0,0-.5-.23,5.39,5.39,0,0,0-.64-1.29S336.23,13.78,316.56,6.27A84.19,84.19,0,0,0,279.31.8l-1.81,0c-.06,0-3.51-.71-13.87,3.7S252,13.86,252,13.86a96.55,96.55,0,0,0-14.62,11.31l29.35,5.08L297,41.52l9.4,16.22L288.69,74.33,252.2,82.95l-8.66-8.37S229.3,58.9,229.11,45.3a26.55,26.55,0,0,1,6.59-18.47c-6.18,6-11.88,12.5-14.92,30C217.87,73.51,220.58,91.12,221.16,96.25Zm92.36-57.59c-7.22-5.8-24.61-12.73-31-15.58s-5.32-7-4.37-8.55a11,11,0,0,1,3.42-2.94c8.17,1.71,17.2,5.8,27.94,12.16s23.37,19.58,24.23,20.33,2.76-.95,3.42-.95c.37,0,7-.78,13.09-1.48a123.74,123.74,0,0,0-10.62-11.48l-.23-.22-2.26-2.18a2.29,2.29,0,0,1,1.54-2.09c2.24,2.05,3.58,3.41,3.58,3.41l.62.58h0a84.6,84.6,0,0,1,10.14,11.64l1.1-.12a90.56,90.56,0,0,0-10.54-11.65l.32-.06-.32.06q-2.07-2-4.43-4l.31,0,1.16-.14,2.3-.26L344,25c1.54,1.25,2.43,2,2.43,2l.25.19.08.06.37.28,0,0,.06,0,.17.13.06.05.12.09.1.08.1.08.21.17.21.17.43.35.14.12L349,29l.4.34.15.13.29.25c.5.42,1,.89,1.6,1.4q1.59,1.42,3.11,2.92l.39.38.78.79.39.41.79.84.79.87.45.51.34.39.39.46.26.3.39.47.43.53.08.1.25.32.1.13c1.37-.09,1.65-.2,1.83-1l1.1,1.17-2.49.36.38.5.25.34.44.61.36.51.3.42.11.17.07.1.48.73v0l.28.43.22.36.29.47.3.51.15.26c.08.14.16.27.23.41s.18.32.27.49l.09.16.16.29.24.47a65.08,65.08,0,0,1,2.88,6.7c3.33,2.39,6.5,4.68,7,5,1,.76.71,3.4.71,3.4s-2.21.35-5,.77l-3.95.57-2.92.4c-1.3.17-2.48.31-3.38.4a7.39,7.39,0,0,1-1.75.07l-.14-.06a16.34,16.34,0,0,1-3.07-2.46A2.85,2.85,0,0,1,354.9,62c0-.66-.3-11.56-.21-12.47a28.89,28.89,0,0,0-3.79-7c-5.75.8-11.52,1.57-12.4,1.57-1.81,0-1.81.66-2.19,1.42s.09,1.42.76,1.9a4.09,4.09,0,0,0,2.09.38l16.06,20s-5.8-3.23-14.06-7.89-20.43-15.49-27.65-21.29Z"/><path class="cls-2" d="M356.87,47.83A5.49,5.49,0,0,1,360,49.12s14.25,10.22,15.25,11,.71,3.4.71,3.4-14.24,2.24-16.7,2.24a1.13,1.13,0,0,1-.32,0c-.88-.33-4.06-3-4.06-3.7s-.3-11.56-.21-12.47c.16-1.7,2.16-1.7,2.16-1.7h0m0-1.33h0a4.3,4.3,0,0,0-1.51.31,3,3,0,0,0-2,2.59c-.06.62,0,4.2.16,10.18,0,1.21.05,2.25.05,2.41,0,.54.16,1.22,2.15,3a13,13,0,0,0,2.77,2,2.15,2.15,0,0,0,.8.12c2.51,0,15.44-2,16.91-2.25a1.33,1.33,0,0,0,1.12-1.17c.09-.8.25-3.47-1.23-4.6-1-.75-14.18-10.21-15.24-11a6.67,6.67,0,0,0-4-1.58Z"/><path class="cls-2" d="M250.35,35.66s-5.25,23.41-3,46.09-7.41,15-7.41,15-2.66-25.34-1.33-37.88S242,33.61,242,33.61Z"/><path class="cls-2" d="M281.59,11.58S270.41,7.34,263.1,9.91s-9.5,3-11.06,4-12.58,8.83-17.29,14-6.24,13.2-5.63,17.43c0,0,7.43-6.44,21.81-7.27s31.86,3.83,37.57,7.27,7.79,7.41,7.86,11-1.27,6.92-6.14,10.28S267.34,77.12,260.94,79a89.28,89.28,0,0,1-11.11,2.49l15.9,14.71,50.64-16.91L332,73.54l23.5-5.43-2.47-3L338.84,58.1l-4.42-3S316.8,40.62,313.61,38.24a72.35,72.35,0,0,0-12.12-7.51,138.09,138.09,0,0,0-14.11-6.18c-4.85-1.85-8-3.58-8.93-5.27a4.83,4.83,0,0,1-.29-4.75C278.88,13.06,281.59,11.58,281.59,11.58Z"/><path class="cls-2" d="M348.94,69.59s-19.69,2.9-32,2.71-31.31-.14-40,5.94-15.68,15-13.4,35.87,9.11,30.22,16.72,34.4,12,4,16.91,4.37,18,0,18,0"/><path class="cls-2" d="M348.94,69.59s-19.07,4.8-31.42,4.61S285.58,74,277.79,79c-8.12,5.15-16.53,14.25-14.25,35.16s9.12,30.22,16.72,34.4,12,4,16.91,4.37,18,0,18,0"/><path class="cls-2" d="M334.76,77.82s-35.92,1.71-42.38,24.52-1.14,34.59,3.42,41.24,18.05,11,18.05,11"/><path class="cls-2" d="M337.85,77.82s-35.92,1.71-42.38,24.52-1.14,34.59,3.42,41.24,18.05,11,18.05,11"/><ellipse class="cls-2" cx="278.78" cy="117.85" rx="12.45" ry="15.61" transform="translate(-15.24 46.04) rotate(-9.19)"/><ellipse class="cls-2" cx="276.3" cy="118.73" rx="9.86" ry="15.14" transform="translate(-15.42 45.65) rotate(-9.19)"/><path class="cls-2" d="M278.72,133.67a7.07,7.07,0,0,0,2.29-.89,8.14,8.14,0,0,0,1.86-1.6,12.18,12.18,0,0,0,2.36-4.28,18.76,18.76,0,0,0,.88-4.83,23.13,23.13,0,0,0-1.56-9.64,18.73,18.73,0,0,0-2.36-4.3,12.18,12.18,0,0,0-3.58-3.31,8.14,8.14,0,0,0-2.27-.93,7.08,7.08,0,0,0-2.46-.12,6.76,6.76,0,0,1,2.48,0,8.26,8.26,0,0,1,2.33.86,12.35,12.35,0,0,1,3.73,3.3,18.24,18.24,0,0,1,2.46,4.35,22.64,22.64,0,0,1,1.59,9.8,18.21,18.21,0,0,1-1,4.9,12.37,12.37,0,0,1-2.49,4.31,8.28,8.28,0,0,1-1.95,1.56,6.75,6.75,0,0,1-2.34.8Z"/><path class="cls-2" d="M240,98.52s-7.12-7-8.4-8-3.14-1.71-4.66.33-3.23,5.89-3.33,7.46-.14,4.94,3,6,14.4.24,14.4.24l2.57-.09-2.19-5.56Z"/><path class="cls-2" d="M221.16,96.25c-.57-5.13-3.29-22.74-.38-39.44,3.33-19.1,9.82-25.08,16.64-31.64,0,0-11.85,9.87-6,29.78C234.09,64,243,74,243,74l21.54,21.09-2.15,9.46-18.9-.15L240,98.52s-8.13-8.33-9.11-8.62-3.42-1.77-5.68,2.69-2.93,6.41-2.5,7.79.71,3,3.9,3.9c0,0-3.11-.34-4.12-2.59a20.32,20.32,0,0,1-1.3-5.44Z"/><path class="cls-2" d="M243.3,74h-1.35s-4.4,21.33-4.4,21.48v.76L247.9,106l9.45,2.76-.64-21.08Z"/><path class="cls-2" d="M244,80.94a64.35,64.35,0,0,0-8.15-7.3,21.22,21.22,0,0,1-2.28-2.57c-.76-.85-2-2.14-2.71-2.85a2.37,2.37,0,0,0-3.85.71,12.45,12.45,0,0,0-1.47,7,10,10,0,0,0,2.14,6.22c.9,1,2.61,3.14,2.61,3.14s.9,1,1.81,1.95,3.51,2.85,4.16,3.42,4.3,5.05,4.3,5.05Z"/><path class="cls-2" d="M244,80.94c-.66-.63-1.33-1.26-2-1.88s-1.34-1.24-2-1.84-1.37-1.2-2.07-1.78-1.42-1.14-2.16-1.66h0a10.14,10.14,0,0,1-1.29-1.36c-.38-.48-.73-1-1.14-1.44l-1.22-1.38-1.23-1.37c.46.41.9.84,1.34,1.27s.87.87,1.3,1.31.82.94,1.2,1.41A10.6,10.6,0,0,0,236,73.5h0c.76.52,1.49,1.08,2.19,1.67s1.39,1.2,2.06,1.83,1.32,1.27,2,1.93c.32.32.63.66.94,1S243.69,80.59,244,80.94Z"/><path class="cls-2" d="M260.18,120.07,245.1,105.75l4.72-24.31,15.42,13.92L263.1,121Z"/><path class="cls-2" d="M267.34,125.52,262,121.33s-.73.35-1.82-.64a2.94,2.94,0,0,1-.45-2.61c.36-1.41.7-2.83,1-4.27l3.54-18.51s-.66,0-.66-.28.24-.43-.48-1-20-19-20.9-19.47,1.14-.48,1.14-.48,6,6.35,7,7.35,14.93,14,14.93,14Z"/><path class="cls-2" d="M263.92,97.57s11.57,8.56,14.19,11.18,6.28,9.8,3.29,16.77-7,6.33-9,4.69C271,129,265.22,123.9,262,121c0,0-.66.3-1.6-.54A1.66,1.66,0,0,1,260,120a2,2,0,0,1-.16-1.28Z"/><path class="cls-2" d="M429.07,116q-.07,1.16-.16,2.27a6.26,6.26,0,0,0-1.85,4.54,7.69,7.69,0,0,0,.64,3.67c-4.78,22.51-19.51,26.92-26.19,29.43-3.23,1.21-11.41,4.14-21.49,7.11l-.71.21c-13.52,3.95-30.29,7.89-43.18,7.89-22.81,0-26.42-14.45-28.32-20.15a35.59,35.59,0,0,1-1.13-5c.31-.91.09-3.52.09-5.49a8.82,8.82,0,0,0-1.23-4.17,141.3,141.3,0,0,1-.08-21.09,7.34,7.34,0,0,0,1.68-3.25,10.72,10.72,0,0,0,.29-1.44,11.07,11.07,0,0,0,0-2.86,5.59,5.59,0,0,0-.76-2.28c0-.21.07-.41.11-.62a53.12,53.12,0,0,1,2.92-10.23c3.31-8.16,7.79-12.18,10.5-14.16a31.92,31.92,0,0,0,9.92-1.55c6.26-1.82,11-4.48,10.56-5.94-.16-.56-1.06-.86-2.45-.92,5.74-1.54,19.36-4,19.36-4s34.77-5.7,43.33-4.19l1.2.21A8.92,8.92,0,0,0,406.47,66c2.31.48,4.43.24,5.51-.52l1.31.16s9.88,2.47,13.11,12.54a60.86,60.86,0,0,1,2.17,11.94,6.81,6.81,0,0,0-.76,4.42,7.56,7.56,0,0,0,1.31,3.57c.31,7.15.17,14-.06,17.89Z"/><path class="cls-2" d="M427.82,94.57a7.56,7.56,0,0,0,1.31,3.57c-.12-2.67-.29-5.38-.56-8a6.85,6.85,0,0,0-.76,4.42Zm-.12,31.94a68,68,0,0,0,1.2-8.21,6.26,6.26,0,0,0-1.85,4.54A7.67,7.67,0,0,0,427.7,126.5ZM402.14,64A8.91,8.91,0,0,0,406.47,66c2.31.48,4.43.24,5.51-.52C410.35,65.29,407.14,64.84,402.14,64ZM320.22,80.36a31.92,31.92,0,0,0,9.92-1.55c6.26-1.82,11-4.48,10.56-5.94-.16-.56-1.06-.86-2.45-.92l-.59.16a74.66,74.66,0,0,0-16,7.22c-.39.26-.89.59-1.48,1Z"/><path class="cls-2" d="M305.55,136.3c.29,3.73.7,7,1.14,9.66.31-.91.09-3.52.09-5.49A8.83,8.83,0,0,0,305.55,136.3Zm76.18,24.22A12.45,12.45,0,0,1,380,163l-.79.23.06-.05a10.09,10.09,0,0,0,2.1-2.89Z"/><path class="cls-2" d="M385.17,82.7s4.67,12.65,4.12,35.15c-.51,20.66-2,25.66-2,25.66s-2.52,11-5.68,16.9"/><path class="cls-2" d="M347,168.08c7.6-.76,10.93-5.33,11.69-7.79s.5-7.87-3.7-7.89h-.29a8.52,8.52,0,0,0-3.94,1.45,25.11,25.11,0,0,0-7.37,7.81c-1.52,2.81-4,7.19,3.61,6.42ZM405,153.22c3.91.57,10.19-5.64,11.15-8,1.2-3-.66-7.85-3.69-6.4a4.89,4.89,0,0,0-.48.26,9.44,9.44,0,0,0-2.73,2.5,26.8,26.8,0,0,0-2.2,3.52c-1.53,2.79-4,7.88-2,8.17Zm-38.65,12c-1.11,1-5.53,2.49-8.29,2.59-.33,0,.5-1.88,3.23-3.14s4-1.38,5.06-1.23S367.16,164.5,366.38,165.19Zm31.31-8.24c-1.11,1-4.06,1.73-6.48,2.59-.33,0,.42-1.34,2.09-2.52,1.85-1.29,3.32-2,4.39-1.85S398.47,156.26,397.68,156.95ZM387.5,143.28c-1.72,0-6.15,1.82-9.67,8.75-3.11,6.32-2.25,8.74-.64,9.5s8.65-1.33,11.78-5.23,4.75-8.93,3.23-11.4S387.5,143.28,387.5,143.28Z"/><path class="cls-2" d="M378.39,154.47c-1,3-1.59,6.07,2.28,5.95,4.19-.13,8.6-4.23,10-8,1.14-3.1.89-7.33-3.6-6.26-3.63.87-7.49,4.82-8.68,8.32Z"/><path class="cls-2" d="M397.65,94.23c0,4.76,2.3,8.61,5.13,8.61s5.7-4,5.7-8.8-2.87-8.42-5.7-8.42S397.65,89.47,397.65,94.23Zm-32.95,7.85c1.2,4.6,5,6.76,7.17,6.76s6.17-3.38,5.77-8.13-4.4-8.6-8.24-8.59C366.56,92.13,363.31,96.76,364.7,102.08Zm41.56-23.79a14.12,14.12,0,0,0,2.83,5,13.12,13.12,0,0,0,3.45,3,3.4,3.4,0,0,0,1.61.52c2.83-.08,4.42-6.93,3.12-11.51s-5.45-7-8.17-6.18-4.8,2.66-2.84,9.22Zm-62,12.26c2.73,3.9,8.57,7.58,11.11,7,2.75-.67,5-6.93,3.69-11.51a10.3,10.3,0,0,0-9.61-7.36C345.31,78.65,337.21,80.42,344.31,90.55Zm73.83,23.77c.45,2.19,1.57,4.21,3.54,5,2.63,1,5.7-4,5.7-8.8s-1.43-8.42-4.27-8.42c-2.35,0-4.25,4.21-4.94,7.42a11.3,11.3,0,0,0,0,4.82Zm-65.79,11.76c-.17,3.1-3.33,9.7-10.06,10.46-4.43.51-9-3-9-7.73s1.91-9.29,8.44-10.09C348.94,117.85,352.52,123,352.34,126.08Zm-24.07,16.67c.26,2.4-1.41,7-4.76,7.48a5.55,5.55,0,0,1-6.62-5.51c0-2.38,1-6.18,4.19-6.84C325.45,137,328.11,141.2,328.28,142.74Z"/><path class="cls-2" d="M263.92,96.11S248,82.19,246.81,81.17s-3.48-.89-4.19,1.84S240,95.62,240,96.7s-.32,5.07,2.6,7.79,15,13.19,15,13.19l1.51,1.39Z"/><path class="cls-2" d="M242.57,104.49c-2.91-2.72-2.6-6.71-2.6-7.79s2-11,2.66-13.68,3-2.85,4.19-1.84,3.54,3.16,3.54,3.16l-4.94,22.72Z"/><path class="cls-2" d="M244.53,105.06c-.8-.87-1.61-1.74-2.34-2.68a6.24,6.24,0,0,1-.5-.74,2.89,2.89,0,0,1-.28-.86,9.35,9.35,0,0,1-.12-1.78,44.79,44.79,0,0,1,.9-7.05c.42-2.33.92-4.65,1.42-7,.07-.29.12-.58.21-.87a3,3,0,0,1,.38-.82,1.45,1.45,0,0,1,.7-.58,1.28,1.28,0,0,1,.9,0l.2.1.1.05.09.06.19.13.17.14c.23.19.44.4.66.59l.64.61c.21.21.43.41.63.63-.2-.22-.42-.41-.64-.61l-.67-.59a5.38,5.38,0,0,0-1.42-1,1.18,1.18,0,0,0-.83,0,1.33,1.33,0,0,0-.63.55,2.91,2.91,0,0,0-.35.79c-.08.28-.13.57-.19.86-.48,2.32-.95,4.64-1.38,7a46.48,46.48,0,0,0-.94,7,9.25,9.25,0,0,0,.09,1.76,2.78,2.78,0,0,0,.26.83,6.53,6.53,0,0,0,.48.73C243,103.27,243.75,104.17,244.53,105.06Zm5.82-20.72-1.13.16-4.48,21.94.68.61,4.93-22.72Z"/><path class="cls-2" d="M262.41,95.84a1.69,1.69,0,0,0,1.51.27l-4.8,23-1.51-1.38,4.61-21.29a.72.72,0,0,0-.19-.64s-.36-.4.37.09Z"/><path class="cls-2" d="M365.59,43.28l-26.42,4.51s-1.89.27-2.44-.66a1.81,1.81,0,0,1,.14-2.55,1.49,1.49,0,0,1,1.92-.51l24.51-3.31-1.1-1.17a.87.87,0,0,0,.07-.68c-.09-.48-.13-.66-.13-.66a9.82,9.82,0,0,1,2.46,2c1,1.17,1,1,1.18,1.55a2.83,2.83,0,0,1-.19,1.51Z"/><path class="cls-2" d="M241.35,76.87c-.74-.59-1.45-1.23-2.14-1.89s-1.35-1.34-2-2a44.06,44.06,0,0,1-3.57-4.47q-.82-1.18-1.55-2.41t-1.37-2.53q-.63-1.29-1.15-2.64c-.18-.44-.32-.9-.48-1.35l-.22-.69c-.07-.23-.14-.46-.2-.69l-.38-1.38c-.13-.46-.23-.93-.35-1.39s-.23-.93-.32-1.4-.2-.93-.29-1.4l-.24-1.41c-.08-.47-.13-.95-.2-1.42s-.11-.95-.16-1.42l-.07-.71,0-.72a31.91,31.91,0,0,1,.14-5.72c0-.48.14-.94.21-1.42,0-.24.1-.47.14-.7s.09-.47.16-.7a20.23,20.23,0,0,1,.89-2.71c-.13.46-.28.91-.38,1.37s-.21.92-.3,1.39c-.05.23-.07.47-.11.7s-.08.47-.1.7c0,.47-.11.94-.13,1.41a35.23,35.23,0,0,0,.08,5.65,52.07,52.07,0,0,0,.83,5.59c.38,1.85.83,3.68,1.35,5.49.06.23.13.45.2.68l.21.67c.16.44.3.89.47,1.32.32.88.71,1.74,1.1,2.59s.84,1.68,1.29,2.5,1,1.62,1.47,2.41a51.23,51.23,0,0,0,3.35,4.56c.6.73,1.22,1.45,1.86,2.14.32.35.64.69,1,1S241,76.54,241.35,76.87ZM230.85,87.6a10.25,10.25,0,0,0-1.68-.9,4.84,4.84,0,0,0-1.77-.42,2.55,2.55,0,0,0-.84.13,2.18,2.18,0,0,0-.71.41,3.33,3.33,0,0,0-.57.66c-.19.25-.36.51-.53.77-.69,1.06-1.3,2.17-1.92,3.29s-1.2,2.25-1.83,3.39a25.84,25.84,0,0,1,1.29-3.65,23.56,23.56,0,0,1,1.81-3.45c.18-.27.37-.55.57-.8a3.83,3.83,0,0,1,.72-.77,2.73,2.73,0,0,1,1-.5,2.87,2.87,0,0,1,1.07-.08,4.66,4.66,0,0,1,1.9.68,6.88,6.88,0,0,1,1.53,1.23Z"/><path class="cls-2" d="M333.95,41.52s-.14-.9-2.47-3S318.85,27.67,308.86,20c-1.19-.66-6-3.52-6-3.52s-.07-1.86,1-2.52,2.38-1.19,5.61-1.71l15-2.39s22.3,11,37.05,27c2.9,2.85-27.55,4.57-27.55,4.57Z"/><path class="cls-2" d="M324.46,9.91s-11.74,1.87-15,2.39-4.51,1-5.61,1.71-1,2.52-1,2.52l6,3.52a.87.87,0,0,1,.67-1c.85-.25,16.53-3.15,18-3.43s5.69-.79,5.69-.79Z"/><path class="cls-2" d="M309.28,17.76c-.42-.22-.83-.45-1.22-.7a7.61,7.61,0,0,1-1.13-.84,2.09,2.09,0,0,1-.44-.57.67.67,0,0,1,0-.72,1.51,1.51,0,0,1,.58-.43,4.53,4.53,0,0,1,.67-.25,22.82,22.82,0,0,1,2.77-.55l2.78-.45,5.56-.87,2.78-.42,2.79-.4-2.77.48-2.78.48-5.56.91-2.78.44a26,26,0,0,0-2.76.52,4.43,4.43,0,0,0-.65.23,1.39,1.39,0,0,0-.54.39.56.56,0,0,0,0,.61,2,2,0,0,0,.41.55,7.56,7.56,0,0,0,1.1.87c.39.26.79.5,1.2.74Z"/><path class="cls-2" d="M338.18,17.1s-6.13.38-7.65.62-2.9,2.38-2.95,3.7,7.65,7.32,9,8.5c1,.9,6.91-.27,9.28-.89,1.33-.35,2-3.33.84-4.43-2.08-1.93-8.55-7.5-8.55-7.5Z"/><path class="cls-2" d="M337.66,29.37a1.47,1.47,0,0,0,.7.42c1.84.51,5.31-.18,7.53-.76,1.33-.35,2.27-3.5.76-4.09-.73-.28-6.29.43-7.16.54a2.4,2.4,0,0,0-2.34,2.44,2,2,0,0,0,.51,1.44Z"/><path class="cls-2" d="M346.3,24.27a2.63,2.63,0,0,0-.68,0c-.23,0-.46,0-.68,0l-1.36.12-2.74.26-1.36.15a5.75,5.75,0,0,0-1.33.26,2.74,2.74,0,0,0-1.14.71,2,2,0,0,0-.52,1.23h0a2,2,0,0,1,.5-1.26,2.81,2.81,0,0,1,1.15-.76,5.84,5.84,0,0,1,1.35-.29l1.36-.18c.91-.12,1.82-.24,2.74-.3.46,0,.92-.06,1.37-.07h.69l.34,0a1.25,1.25,0,0,1,.34.07Z"/><path class="cls-2" d="M303.49,14.34a.12.12,0,0,0-.09.12.39.39,0,0,0,.05.16,1.49,1.49,0,0,0,.2.26,5.37,5.37,0,0,0,.49.46c.34.29.71.56,1.07.82.74.52,1.49,1,2.25,1.49s1.54.94,2.3,1.44,1.51,1,2.25,1.53c2.94,2.12,5.77,4.39,8.56,6.7q2.09,1.74,4.15,3.51c1.37,1.19,2.74,2.37,4.09,3.58s2.69,2.41,4,3.64c.33.3.67.61,1,1a6.22,6.22,0,0,1,.81,1.11,3.73,3.73,0,0,1,.46,1.29,3.08,3.08,0,0,1-.12,1.35,3,3,0,0,0,0-1.34,3.64,3.64,0,0,0-.51-1.23,6,6,0,0,0-.84-1c-.31-.32-.66-.6-1-.89l-4.14-3.51-4.12-3.49c-1.38-1.17-2.77-2.33-4.16-3.48L318.14,26l-1-.86-1-.86c-1.4-1.14-2.83-2.24-4.26-3.34-.73-.53-1.45-1.08-2.2-1.58s-1.51-1-2.25-1.52-1.48-1-2.2-1.61c-.36-.28-.71-.57-1-.88a5.43,5.43,0,0,1-.47-.5,1.52,1.52,0,0,1-.19-.28.41.41,0,0,1,0-.16.12.12,0,0,1,.1-.12Z"/><path class="cls-2" d="M329.77,18h0l-.72-.57Z"/><path class="cls-2" d="M314.11,6.11A70.8,70.8,0,0,0,286.8.5a70.92,70.92,0,0,1,28.48,5.61c6.12,2.61,13,7.11,18.81,11.27l-1.06.08C327.24,13.28,320.26,8.74,314.11,6.11Z"/><path class="cls-2" d="M305.76,4.69c10.12,2.76,16.74,7.11,24.43,12.75l.37.27h0a2.28,2.28,0,0,0-.76.28l-.75-.55c-5-3.88-10.73-7.8-16.13-10.1-2.45-1-4.83-1.91-7.13-2.64ZM268.41,2.86l-.83.77c-1,.27-1.56.45-1.56.45L263.94,6l-.26.14,3.54-3.25A69.1,69.1,0,0,1,277.59.95c1.77-.14,5-.47,9.22-.44-3.65,0-6.44.31-8,.44A68.91,68.91,0,0,0,268.41,2.86Z"/><path class="cls-2" d="M333,17.46c-1,.09-2,.17-2.46.25l-.37-.27c-7.7-5.64-14.3-10-24.43-12.75-2.17-.59-4.51-1.11-7-1.55A75.55,75.55,0,0,0,285.15,2,52,52,0,0,0,266,5.07l1.58-1.45.83-.76A68.94,68.94,0,0,1,278.76.94c1.6-.13,4.39-.41,8-.44a70.77,70.77,0,0,1,27.3,5.61c6.15,2.64,13.12,7.18,18.91,11.36Z"/><path class="cls-2" d="M263.94,6c.34-.18,1-.51,2.05-.9l-1.13,1s7-4,20.28-4.13a76.29,76.29,0,0,1,12.4,1.16c14.39,2.49,22.13,7.45,31.48,14.29l.72.57a4.7,4.7,0,0,0-1.64,1.77l-.52-.4c-9.21-7-16.87-12.51-31.27-15-21.95-3.81-33.86,3-33.86,3Z"/><path class="cls-2" d="M285.15,2c-13.24.13-20.3,4.13-20.3,4.13l1.13-1A52.1,52.1,0,0,1,285.15,2Z"/><path class="cls-2" d="M267.57,3.62,266,5.07c-1,.4-1.71.73-2.05.9L266,4.08S266.61,3.89,267.57,3.62Zm31.15-.48c2.54.44,4.87,1,7,1.55s4.67,1.59,7.12,2.64c5.4,2.31,11.16,6.22,16.13,10.1-9.35-6.85-17.08-11.8-31.47-14.29A76.29,76.29,0,0,0,285.15,2,75.46,75.46,0,0,1,298.72,3.14Z"/><path class="cls-2" d="M343.61,29.56l-.7.14h0l.71-.13Zm.32-.06-.32.07Z"/><path class="cls-2" d="M333.95,41.52s.09,2.62-.92,1.85.38,1,1.33.93a6.56,6.56,0,0,0,2.28-1l24.16-2.8s1.7.18,1.52-1.37-.62-1.89-.62-1.89L356,33.61Z"/><path class="cls-2" d="M342.95,25.09c1.46,1.2,2.31,1.92,2.31,1.92l.48.42.12.1.14.13.21.19.19.17.31.28.05,0h0l0,0,.23.21.12.11.25.23.26.24,1.49,1.41.45.44.16.16.16.16.16.16.17.16.34.34c.58.58,1.18,1.19,1.79,1.84l.18.19.37.39.19.2.37.4.19.2.74.83.37.42.19.21.55.64.37.43.18.22.22.26.14.18.36.44.18.22c.29.37.59.74.86,1.13l.34.45,0,.06.45.62,0,0q.38.55.75,1.09l.15.23q.22.34.43.68l.28.45.26.45.25.45.12.23.12.22c.12.22.23.45.34.67l.21.44q.3.67.54,1.32l.1.27.11.35c.07.22.14.45.2.67l.12.41c.06.21.12.43.17.64l.13.48a.33.33,0,0,0,0,.05q.2.49.39,1A60.18,60.18,0,0,1,366,60.32c.56,2.58.87,3.86,1,4.51l3.95-.57a63.66,63.66,0,0,0-2.62-9.18,65,65,0,0,0-2.88-6.71c-.08-.16-.16-.31-.24-.47l-.16-.29-.09-.16-.27-.49-.23-.41-.15-.26-.3-.51-.29-.47-.22-.36-.28-.43v0l-.48-.73-.07-.1-.11-.17-.3-.42-.36-.51-.44-.61c-.08-.11-.16-.23-.25-.34l-.38-.5-.21-.27-.23-.29-.1-.13L360,40.1l-.08-.1-.43-.53-.39-.47-.26-.3-.39-.46-.34-.38-.45-.51-.79-.87-.79-.84-.39-.41-.78-.79-.39-.38c-1-1-1.89-1.83-2.76-2.61l-.34-.31c-.57-.51-1.1-1-1.6-1.4l-.3-.24-.15-.13L349,29l-.19-.16-.14-.12-.43-.35-.21-.17-.21-.17-.1-.08-.1-.08-.12-.09-.06-.05-.17-.13-.06,0,0,0-.37-.28-.08-.06-.25-.19s-.89-.77-2.43-2l-1.06.1Z"/><path class="cls-2" d="M343.61,29.56l.32-.06-.32.06a91.07,91.07,0,0,1,10.54,11.65l.22.31.33.46a40.81,40.81,0,0,1,3.82,6.21A25.56,25.56,0,0,1,360.75,57a42.22,42.22,0,0,1,0,8.63c.9-.09,2.08-.23,3.38-.4,0-.06,0-.14,0-.22s0-.11,0-.18l0-.22c0-.08,0-.16,0-.24a.76.76,0,0,1,0-.15s0-.09,0-.14l0-.3a.91.91,0,0,1,0-.16v0c0-.31,0-.66,0-1,0-.78,0-1.7,0-2.73h0c0-.27,0-.55,0-.84q-.05-1-.16-2.14c0-.11,0-.23,0-.34s-.05-.46-.08-.7c-.07-.59-.16-1.2-.25-1.82l-.06-.37-.06-.38c-.11-.61-.23-1.23-.38-1.87q-.09-.42-.2-.85a.36.36,0,0,0,0-.05q-.06-.24-.13-.48l-.17-.64-.12-.41c-.06-.22-.13-.45-.2-.67l-.11-.35-.1-.27q-.23-.64-.54-1.32l-.21-.44-.34-.67L361,45l-.12-.23c-.08-.15-.16-.3-.25-.45l-.26-.45-.28-.45-.43-.68-.15-.23c-.24-.36-.48-.73-.75-1.09l0,0-.45-.62,0-.06-.34-.45L357,39.11l-.18-.22-.36-.43-.14-.18-.22-.26-.18-.22-.37-.43-.55-.64-.19-.21-.37-.42-.74-.83-.19-.2-.37-.4-.18-.19-.37-.39-.18-.19c-.61-.64-1.21-1.26-1.79-1.84l-.34-.34-.17-.16-.16-.16-.16-.16-.16-.16-.46-.46-1.49-1.41-.26-.24c-.08-.08-.16-.16-.25-.23l-.12-.11-.23-.21,0,0h0l-.05,0L346.4,28l-.19-.17-.21-.19-.14-.13-.12-.1-.48-.42s-.85-.73-2.31-1.92l-2.3.26-1.16.14-.31,0q2.36,2,4.43,4Z"/><path class="cls-2" d="M361.06,45.22l.34.67C361.3,45.66,361.19,45.44,361.06,45.22Zm-2.39-3.84.78,1.13Q359.08,41.94,358.67,41.38ZM357,39.13q.44.56.86,1.13C357.58,39.87,357.28,39.5,357,39.13ZM346.7,28.3l.05,0Z"/><path class="cls-2" d="M337.16,27.78,339.42,30l.23.22a124.56,124.56,0,0,1,10.62,11.48l.56.75.08.11a28.73,28.73,0,0,1,3.79,7A24,24,0,0,1,356,59c-.08,1.72-.16,3.09-.24,4.17a16.33,16.33,0,0,0,3.07,2.46,46.41,46.41,0,0,0-1.6-16.39q-.22-.7-.51-1.41a32,32,0,0,0-3.11-5.69l-.55-.8A85.07,85.07,0,0,0,342.92,29.7h0l-.62-.58s-1.35-1.36-3.58-3.42A2.3,2.3,0,0,0,337.16,27.78ZM252,13.86S253.18,9,263.63,4.55,277.5.85,277.5.85s-7.13.95-10,3.33S264,5.93,263.15,7.33a15.49,15.49,0,0,0-1.34,2.89Z"/><path class="cls-2" d="M394.86,63.5a18,18,0,0,1,7.41,4.72c2.85,3.52,2.66,9-3.7,10.93-6.56,1.9-13.4,3.55-13.4,3.55s-8.38.82-11.93.92S363,84.18,359,80.76s-5.54-6.28-7.91-8.08a15.87,15.87,0,0,0-5.15-2.48s18.51-3.46,26.73-4.49S394.86,63.5,394.86,63.5Z"/><path class="cls-2" d="M280.66,127.06c3-7,1.59-14.26-2.55-18.31-2.62-2.62-14.19-11.17-14.19-11.17l.79-.14s11.64,8.34,13.78,10.66A15.74,15.74,0,0,1,283,119a18.89,18.89,0,0,1-2.36,8Z"/><path class="cls-2" d="M380.8,153.67a2.14,2.14,0,0,0,2.15,2.25,2.9,2.9,0,0,0,2.47-3c0-1.22-.69-3-2.09-3S380.73,151.62,380.8,153.67Z"/><path class="cls-2" d="M383,150.59a2.94,2.94,0,0,0-.66.63,5,5,0,0,0-.52.75,3.43,3.43,0,0,0-.29.88,3.86,3.86,0,0,0-.06.95h0a3.55,3.55,0,0,1-.09-1,3.22,3.22,0,0,1,.2-1A2.25,2.25,0,0,1,382,151a1.34,1.34,0,0,1,.94-.41Z"/><ellipse class="cls-2" cx="371.86" cy="104.49" rx="2.22" ry="3.17" transform="translate(-14.39 107.08) rotate(-16.08)"/><ellipse class="cls-2" cx="401.57" cy="99.2" rx="1.95" ry="3.01" transform="translate(-5.72 26.97) rotate(-3.82)"/><path class="cls-2" d="M418.14,114.32a1,1,0,0,0,.25,0c.87-.06,1.5-1.19,1.41-2.52s-.8-2.28-1.62-2.31a11.29,11.29,0,0,0,0,4.82Z"/><ellipse class="cls-2" cx="353.76" cy="94.3" rx="2.1" ry="2.3" transform="translate(-3.11 176.06) rotate(-27.83)"/><path class="cls-2" d="M409.09,83.29a13.13,13.13,0,0,0,3.45,3,2.28,2.28,0,0,0-.25-2.61,2.2,2.2,0,0,0-3.08-.45Zm.18,58.25a2,2,0,0,0,1.72-.06,2.14,2.14,0,0,0,1-2.44A9.4,9.4,0,0,0,409.27,141.53Z"/><ellipse class="cls-2" cx="348.13" cy="126.19" rx="2.81" ry="2.48" transform="translate(-12.67 209.52) rotate(-32.93)"/><ellipse class="cls-2" cx="323.74" cy="143.61" rx="2.35" ry="2.08" transform="translate(-26.05 199.08) rotate(-32.93)"/><path class="cls-2" d="M351.09,155.27a2.29,2.29,0,1,0,3.57-2.84,8.52,8.52,0,0,0-3.94,1.45A2.29,2.29,0,0,0,351.09,155.27Z"/><ellipse class="cls-2" cx="319.64" cy="84.17" rx="4.79" ry="2.29" transform="translate(-2.33 158.94) rotate(-27.83)"/><path class="cls-2" d="M310.06,135.59c1.8-.44,3.53-4.56,3.35-8.37-.17-3.52-2.22-7.32-4.88-6.71-1.76.51-2.48,5.69-2,8.42.42,2.31,1.08,7.26,3.52,6.65Z"/><ellipse class="cls-2" cx="310.19" cy="128.04" rx="1.66" ry="2.66"/><ellipse class="cls-2" cx="319.98" cy="84.73" rx="2.28" ry="1.66" transform="translate(-2.55 159.18) rotate(-27.83)"/><path class="cls-2" d="M323.7,119.8c2.41-.68,4.73-4.16,3.86-7.58s-4.36-5.41-7-4.8-4.73,4.16-3.86,7.58S321.28,120.49,323.7,119.8Zm-18.23-4.6a7.23,7.23,0,0,0,1.65-3.14l0-.11a10.67,10.67,0,0,0,.28-1.44c0-.27.06-.54.07-.8a10.48,10.48,0,0,0-.07-2.06,5.58,5.58,0,0,0-.76-2.28h0q-.21,1.17-.38,2.36-.3,2-.52,4-.19,1.71-.31,3.42Z"/><path class="cls-2" d="M306.37,114l-.1.17Zm-.21.36-.11.16Zm.11-.18-.1.17.1-.16Zm.42-.83-.09.19.08-.18Zm-.2.43-.09.18.09-.17Zm.1-.21-.09.18s.05-.11.09-.18Zm1-4.42v-.48c0,.17,0,.33,0,.49Zm0-1.05c0-.14,0-.29,0-.43,0,.14,0,.29,0,.43Zm0,.53c0-.14,0-.27,0-.41,0,.14,0,.28,0,.41Zm-.08,1.91c0-.27.06-.54.07-.8s0-.34,0-.5a11.65,11.65,0,0,1-.09,1.32Zm-.28,1.44c-.06.22-.12.42-.19.63q.08-.25.16-.51l0-.11Zm-.38,1.14-.08.2.08-.2Zm.09-.25-.08.22.08-.21Zm.09-.25-.08.24.08-.23Z"/><circle class="cls-2" cx="323.4" cy="113.41" r="2.28"/><path class="cls-2" d="M427.82,94.57a7.56,7.56,0,0,0,1.31,3.57c-.12-2.67-.29-5.38-.56-8a6.85,6.85,0,0,0-.76,4.42ZM402.14,64A8.91,8.91,0,0,0,406.47,66c2.31.48,4.43.24,5.51-.52C410.35,65.29,407.14,64.84,402.14,64ZM320.22,80.36a31.92,31.92,0,0,0,9.92-1.55c6.26-1.82,11-4.48,10.56-5.94-.16-.56-1.06-.86-2.45-.92l-.59.16a74.66,74.66,0,0,0-16,7.22c-.39.26-.89.59-1.48,1ZM427.7,126.5a68,68,0,0,0,1.2-8.21,6.26,6.26,0,0,0-1.85,4.54A7.67,7.67,0,0,0,427.7,126.5Z"/><path class="cls-2" d="M307.57,150.3c-.25-1-.47-1.91-.66-2.87s-.37-1.93-.53-2.9q-.48-2.91-.84-5.84-.67-5.86-.88-11.78-.05-1.48-.07-3c0-1,0-2,0-3q0-3,.24-5.92a80.17,80.17,0,0,1,1.66-11.75q.33-1.45.74-2.89c.14-.48.28-1,.43-1.43s.29-.94.45-1.41a58.88,58.88,0,0,1,2.13-5.55,38.68,38.68,0,0,1,2.84-5.26A21.71,21.71,0,0,1,317,82.2a18.33,18.33,0,0,1,2.43-1.8l1.26-.76.3-.19.3-.2.34-.21.33-.19c.89-.47,1.78-.88,2.68-1.29s1.79-.8,2.7-1.2q2.71-1.16,5.44-2.27L335.5,73l2.74-1.07,0,.07c-3.61,1.54-7.21,3.11-10.79,4.74L324.81,78c-.88.42-1.77.85-2.63,1.32-.21.12-.43.24-.63.38l-.3.21-.31.2c-.42.26-.84.51-1.25.78a17.74,17.74,0,0,0-2.33,1.78,19,19,0,0,0-2,2.13,24.67,24.67,0,0,0-1.72,2.38,38,38,0,0,0-2.74,5.2c-.79,1.8-1.47,3.64-2.09,5.5-.16.46-.3.93-.45,1.4s-.29.94-.42,1.41q-.4,1.42-.72,2.85a80.6,80.6,0,0,0-1.68,11.63c-.3,3.91-.38,7.84-.31,11.76s.31,7.84.69,11.75c.19,2,.42,3.9.69,5.85s.59,3.88,1,5.8Z"/><path class="cls-2" d="M385,70.69l-5.45.86.15.94,2.27-.37.59,3.58,1-.17L383,72l2.21-.36-.15-.91Zm-8.52,1.37-1.88.3a2.1,2.1,0,0,0-.92.38l-.28-1.68-1,.16,1,6.1,1-.18L374,74.37a.94.94,0,0,1,.8-1.05l1.88-.3a.93.93,0,0,1,1.09.73l.45,2.74,1-.18-.45-2.73a1.91,1.91,0,0,0-2.22-1.52Zm15.22,1.09-.19.06-3.25.56a.86.86,0,0,1-1-.69h0l-.15-.89a.86.86,0,0,1,.72-1l3.25-.53h.2l-.15-.9-.19,0-3.26.52a1.78,1.78,0,0,0-1.49,2h0l.15.9a1.77,1.77,0,0,0,2,1.45h0l3.25-.57.19,0Z"/></g></g></g></g><path class="cls-3" d="M0,177.3v-7.54a5.27,5.27,0,0,0,0-2.71v-.9a35.71,35.71,0,0,0,.42-5.21A102.24,102.24,0,0,1,13,121.45,106,106,0,0,1,30,98.38,107.53,107.53,0,0,1,90.36,66.49c8.26-1.43,16.58-1.16,24.91-1a89.69,89.69,0,0,1,24.87,4.18,107.17,107.17,0,0,1,39.56,21.8,108.4,108.4,0,0,1,36.78,67.41c.34,2.42.1,4.89.53,7.31V168a4,4,0,0,0,0,2.41v7.23a8,8,0,0,0-.15,2.4v1.69c-.08,10.21-2.41,20-5.87,29.53a106.09,106.09,0,0,1-21.23,35.45,108.84,108.84,0,0,1-65.68,35.22c-2.67.38-5.39.12-8.05.6h-.9a4,4,0,0,0-2.41,0h-7.54a8,8,0,0,0-2.4-.15H101.1c-10.17,0-19.91-2.33-29.4-5.72a105.89,105.89,0,0,1-33.13-19,108.12,108.12,0,0,1-34.41-52A110.06,110.06,0,0,1,.58,189.42c-.35-2.42-.09-4.89-.58-7.3v-.9c.32-.59.07-1.23.15-1.84C.08,178.69.32,178,0,177.3Z"/><g id="Layer_2-2" data-name="Layer 2"><g id="vive-2" data-name="vive"><g id="Layer_29-2" data-name="Layer 29"><path class="cls-4" d="M27.2,92.9l2.19-2.12A19.84,19.84,0,0,0,27.2,92.9Zm151.15,19.63a41,41,0,0,1,4,7.3h.16a5.4,5.4,0,0,1,2.15.47,7.8,7.8,0,0,1,1.93,1.18l4,2.9q-.12-.54-.25-1.09a.43.43,0,0,0,0-.07q-.08-.31-.16-.62c-.07-.27-.14-.54-.22-.83l-.15-.53c-.08-.28-.17-.57-.26-.86l-.15-.45-.12-.35q-.3-.83-.69-1.69l-.27-.57q-.21-.42-.43-.85l-.15-.28-.16-.29c-.11-.19-.21-.38-.32-.58l-.34-.58-.35-.58-.56-.87-.19-.29c-.31-.46-.62-.93-1-1.4l-5.12.72ZM157.26,94.12c1,.91,1.94,1.86,2.9,2.79l.29.29a159.71,159.71,0,0,1,13.61,14.71l3.58-.41a109,109,0,0,0-13-14.92h0c-.5-.48-.79-.75-.79-.75s-1.73-1.74-4.6-4.39A3,3,0,0,0,157.26,94.12Zm8.27,2.27.41-.08-.41.08A117.4,117.4,0,0,1,179,111.34l5.22-.58c1.27-.14,2.16-.22,2.5-.24H187l-.13-.17-.32-.41-.11-.13-.56-.68-.5-.6-.33-.39-.5-.58-.44-.49-.58-.65-1-1.11-1-1.08-.5-.52-1-1-.5-.49c-1.24-1.22-2.43-2.34-3.54-3.35l-.44-.4c-.73-.65-1.41-1.25-2-1.79l-.38-.31-.19-.16-.51-.43-.24-.21-.19-.15-.55-.45-.27-.22-.27-.22-.13-.1-.12-.1-.15-.12-.08-.07-.22-.17-.07-.06-.06,0-.47-.37-.1-.07-.33-.25s-1.15-1-3.11-2.59l-1.35.13c-1.06.11-2.12.23-2.95.33l-1.48.19-.39.06q3,2.64,5.68,5.16ZM174.88,113a36.82,36.82,0,0,1,4.85,9c.18-1.84,2-2.12,2.61-2.17h.16a5.4,5.4,0,0,1,2.15.47,7.8,7.8,0,0,1,1.93,1.18l4,2.9.25.18,6.34,4.55a83.45,83.45,0,0,0-3.69-8.61c-.1-.21-.21-.4-.31-.6l-.21-.38-.11-.21-.35-.63-.3-.52-.19-.33-.39-.65-.37-.6-.28-.46-.35-.55v0l-.62-.93-.09-.13-.15-.22-.38-.54-.46-.65-.57-.78c-.11-.15-.21-.29-.32-.43l-.49-.65-2.71.39-5.12.72-1.42.21Z"/><path class="cls-5" d="M8.55,181.9c.33,3,.91,8.93,6.94,10.29,4.13.93,21.75.18,21.75.18l36.28.28,75.83-38.55,67.32-12.36-23-27.77a2.63,2.63,0,0,0,0-2.44,18.09,18.09,0,0,0-3.78-3.71,1.59,1.59,0,0,0-.64-.3,6.9,6.9,0,0,0-.83-1.65s-32.4-29.72-57.62-39.35a107.93,107.93,0,0,0-47.75-7l-2.32.06c-.08,0-4.5-.91-17.78,4.75S48.14,76.29,48.14,76.29A123.77,123.77,0,0,0,29.4,90.78L67,97.3l38.82,14.45,12,20.79L95.12,153.8l-46.78,11-11.1-10.73S19,134,18.75,116.58C18.58,104.2,24,96.39,27.19,92.9c-7.92,7.7-15.23,16-19.13,38.44C4.33,152.75,7.81,175.32,8.55,181.9ZM127,108.08c-9.26-7.43-31.55-16.32-39.71-20s-6.82-9-5.6-11A14.08,14.08,0,0,1,86,73.36c10.48,2.19,22,7.43,35.81,15.59s30,25.09,31.06,26.07,3.53-1.22,4.39-1.22c.48,0,9-1,16.78-1.89A158.63,158.63,0,0,0,160.45,97.2l-.29-.28c-1-.94-1.94-1.88-2.9-2.79a2.94,2.94,0,0,1,2-2.68c2.87,2.63,4.59,4.37,4.59,4.37l.79.75h0a108.46,108.46,0,0,1,13,14.92l1.41-.16A116.06,116.06,0,0,0,165.53,96.4l.41-.08-.41.08q-2.65-2.51-5.68-5.15l.39-.06,1.48-.19c.83-.1,1.88-.22,2.95-.33l1.35-.13c2,1.61,3.11,2.59,3.11,2.59l.33.25.1.07.47.37.06,0,.07.06.22.17.08.07.15.12.12.1.13.1.27.22.27.22.55.45.19.15.24.21.51.43.19.16.38.32c.64.54,1.32,1.14,2,1.79q2,1.82,4,3.74l.5.49,1,1,.5.52,1,1.08,1,1.11c.19.21.39.43.58.65l.44.5.5.58.33.39.5.6.56.68.11.13.32.41.13.17c1.76-.11,2.12-.26,2.34-1.24l1.41,1.5-3.19.46.49.65.32.43.57.78.46.65.38.54.15.22.09.13q.32.46.62.93v0l.35.55.28.46.37.6.39.65.19.33c.1.17.21.35.3.52s.23.41.35.63l.11.21.21.38.31.6a83.45,83.45,0,0,1,3.69,8.59c4.27,3.07,8.34,6,8.92,6.44,1.28,1,.91,4.36.91,4.36s-2.83.45-6.46,1l-5.06.74-3.74.51c-1.67.22-3.18.4-4.33.51a9.49,9.49,0,0,1-2.25.08l-.18-.08a21,21,0,0,1-3.94-3.16A3.66,3.66,0,0,1,180,138c0-.85-.39-14.82-.27-16a37,37,0,0,0-4.85-9c-7.38,1-14.77,2-15.89,2-2.32,0-2.32.85-2.8,1.83s.12,1.83,1,2.44a5.24,5.24,0,0,0,2.68.49l20.59,25.7s-7.43-4.14-18-10.11S136.21,115.51,127,108.08Z"/><path class="cls-6" d="M182.52,119.83a7,7,0,0,1,4.06,1.65s18.27,13.1,19.55,14.07.91,4.36.91,4.36-18.25,2.87-21.41,2.87a1.44,1.44,0,0,1-.41,0c-1.13-.43-5.21-3.9-5.21-4.75s-.39-14.82-.27-16c.21-2.18,2.77-2.18,2.77-2.18h0m0-1.7h0a5.51,5.51,0,0,0-1.94.4,3.88,3.88,0,0,0-2.52,3.32c-.08.79,0,5.39.21,13.05,0,1.55.07,2.89.07,3.1,0,.69.21,1.56,2.76,3.81a16.64,16.64,0,0,0,3.55,2.53,2.76,2.76,0,0,0,1,.15c3.22,0,19.8-2.59,21.68-2.89a1.7,1.7,0,0,0,1.43-1.5c.11-1,.32-4.45-1.58-5.9-1.26-1-18.18-13.09-19.53-14.06a8.55,8.55,0,0,0-5.11-2Z"/><path class="cls-7" d="M46,104.22s-6.73,30-3.81,59.08-9.49,19.17-9.49,19.17S29.26,150,31,133.91s4.33-32.31,4.33-32.31Z"/><path class="cls-8" d="M86,73.36s-14.34-5.44-23.71-2.15S50.14,75,48.13,76.29,32,87.61,26,94.24s-8,16.92-7.22,22.34c0,0,9.53-8.25,28-9.32s40.85,4.91,48.16,9.32,10,9.49,10.07,14.05-1.62,8.87-7.88,13.18-29.31,13.56-37.51,15.92a114.39,114.39,0,0,1-14.24,3.19l20.38,18.85L130.6,160.1l20.1-7.31,30.13-7L177.67,142l-18.25-9-5.66-3.9s-22.6-18.52-26.68-21.56a92.76,92.76,0,0,0-15.53-9.62A177.13,177.13,0,0,0,93.45,90c-6.21-2.38-10.2-4.58-11.45-6.76a6.19,6.19,0,0,1-.37-6.09C82.55,75.25,86,73.36,86,73.36Z"/><path class="cls-9" d="M172.35,147.73s-25.24,3.71-41.07,3.48-40.14-.18-51.22,7.61S60,178,62.89,204.8s11.68,38.74,21.43,44.1S99.66,254,106,254.5s23,0,23,0Z"/><path class="cls-10" d="M172.35,147.73s-24.45,6.15-40.29,5.91-40.93-.24-50.92,6.09C70.74,166.33,60,178,62.88,204.8s11.69,38.74,21.44,44.1S99.66,254,106,254.5s23,0,23,0Z"/><path class="cls-11" d="M154.18,158.27s-46,2.19-54.33,31.43-1.46,44.34,4.39,52.87,23.14,14.13,23.14,14.13Z"/><path class="cls-12" d="M158.14,158.27s-46,2.19-54.33,31.43-1.46,44.34,4.39,52.87,23.14,14.13,23.14,14.13Z"/><ellipse class="cls-12" cx="82.42" cy="209.59" rx="15.96" ry="20.01" transform="translate(-32.42 15.85) rotate(-9.19)"/><ellipse class="cls-13" cx="79.24" cy="210.71" rx="12.64" ry="19.4" transform="translate(-32.64 15.36) rotate(-9.19)"/><path class="cls-11" d="M82.34,229.87a9.06,9.06,0,0,0,2.94-1.14,10.43,10.43,0,0,0,2.39-2,15.62,15.62,0,0,0,3-5.48A24,24,0,0,0,91.82,215a29.65,29.65,0,0,0-2-12.36,24,24,0,0,0-3-5.51,15.62,15.62,0,0,0-4.59-4.25,10.43,10.43,0,0,0-2.91-1.19,9.06,9.06,0,0,0-3.15-.15,8.67,8.67,0,0,1,3.18,0,10.61,10.61,0,0,1,3,1.1,15.83,15.83,0,0,1,4.78,4.23,23.37,23.37,0,0,1,3.15,5.57,29,29,0,0,1,2,12.56A23.36,23.36,0,0,1,91,221.32a15.86,15.86,0,0,1-3.2,5.52,10.61,10.61,0,0,1-2.5,2,8.67,8.67,0,0,1-3,1Z"/><path class="cls-8" d="M32.65,184.81s-9.12-9-10.77-10.28-4-2.19-6,.43-4.14,7.55-4.26,9.56-.18,6.33,3.84,7.67,18.46.31,18.46.31l3.29-.12-2.8-7.13Z"/><path class="cls-14" d="M8.55,181.9c-.73-6.58-4.21-29.15-.49-50.55,4.26-24.49,12.58-32.16,21.34-40.57,0,0-15.2,12.65-7.69,38.18,3.43,11.65,14.9,24.45,14.9,24.45l27.62,27-2.76,12.12-24.23-.19-4.58-7.57s-10.43-10.67-11.68-11-4.38-2.27-7.28,3.44-3.76,8.22-3.21,10,.91,3.84,5,5c0,0-4-.43-5.28-3.32a26,26,0,0,1-1.66-7Z"/><path class="cls-15" d="M36.93,153.4H35.19s-5.64,27.35-5.64,27.53v1l13.28,12.49L55,197.92l-.83-27Z"/><path class="cls-8" d="M37.82,162.27s-5.82-6.19-10.45-9.36a27.2,27.2,0,0,1-2.92-3.29c-1-1.1-2.56-2.74-3.47-3.65a3,3,0,0,0-4.93.91,16,16,0,0,0-1.89,9,12.87,12.87,0,0,0,2.74,8c1.16,1.34,3.35,4,3.35,4s1.16,1.28,2.32,2.5,4.5,3.65,5.33,4.39,5.52,6.47,5.52,6.47Z"/><path d="M37.82,162.27c-.85-.81-1.7-1.61-2.56-2.4s-1.72-1.58-2.59-2.36S30.91,156,30,155.23s-1.82-1.46-2.77-2.12h0a13,13,0,0,1-1.65-1.75c-.49-.62-.94-1.26-1.46-1.84s-1-1.18-1.56-1.77L21,146c.59.53,1.15,1.08,1.72,1.62s1.12,1.11,1.67,1.68,1,1.2,1.54,1.8a13.55,13.55,0,0,0,1.62,1.65l0,0c1,.67,1.91,1.39,2.81,2.14s1.78,1.54,2.64,2.34,1.69,1.63,2.5,2.48c.41.41.81.85,1.2,1.28s.79.86,1.17,1.31Z"/><path class="cls-16" d="M58.57,212.44,39.24,194.08l6.05-31.16,19.77,17.84-2.76,32.89-3.74-1.22Z"/><path class="cls-12" d="M67.75,219.42l-6.88-5.37s-.93.45-2.33-.83c-.8-.73-.83-2.34-.58-3.35.46-1.81.9-3.63,1.24-5.47l4.54-23.73s-.85,0-.85-.37.31-.55-.62-1.34-25.69-24.36-26.79-25,1.46-.62,1.46-.62,7.65,8.14,9,9.42,19.14,18,19.14,18Z"/><path class="cls-11" d="M63.36,183.6s14.83,11,18.19,14.33,8,12.57,4.22,21.5-9,8.12-11.53,6c-1.79-1.5-9.22-8.09-13.36-11.78,0,0-.84.39-2.05-.69a2.12,2.12,0,0,1-.48-.65,2.59,2.59,0,0,1-.21-1.63Z"/><path class="cls-5" d="M275.08,207.24q-.09,1.49-.21,2.92c-1.28,1-2.24,3.19-2.37,5.82a9.86,9.86,0,0,0,.83,4.7c-6.13,28.86-25,34.51-33.57,37.72-4.14,1.55-14.62,5.31-27.55,9.12l-.91.27c-17.33,5.06-38.83,10.11-55.35,10.11-29.24,0-33.87-18.52-36.3-25.83a45.59,45.59,0,0,1-1.44-6.44c.4-1.17.12-4.52.11-7a11.31,11.31,0,0,0-1.57-5.34,181.11,181.11,0,0,1-.1-27A9.41,9.41,0,0,0,118.8,202a13.68,13.68,0,0,0,.37-1.85,14.18,14.18,0,0,0,0-3.67,7.16,7.16,0,0,0-1-2.93c0-.27.09-.53.14-.79a68.1,68.1,0,0,1,3.75-13.12c4.24-10.46,10-15.61,13.46-18.15,2.85.21,7.56-.49,12.72-2,8-2.33,14.08-5.74,13.54-7.61-.21-.72-1.35-1.1-3.14-1.18,7.35-2,24.82-5.16,24.82-5.16S228,138.28,239,140.23l1.54.27a11.43,11.43,0,0,0,5.55,2.64c3,.62,5.68.31,7.07-.67l1.68.21s12.67,3.17,16.81,16.08a78,78,0,0,1,2.78,15.31,8.73,8.73,0,0,0-1,5.67,9.7,9.7,0,0,0,1.68,4.57c.4,9.17.21,18-.08,22.93Z"/><path class="cls-11" d="M273.48,179.74a9.7,9.7,0,0,0,1.68,4.57c-.15-3.42-.38-6.89-.71-10.24a8.78,8.78,0,0,0-1,5.67Zm-.16,40.94a87.2,87.2,0,0,0,1.54-10.52c-1.28,1-2.24,3.19-2.37,5.82A9.84,9.84,0,0,0,273.32,220.68Zm-32.76-80.17a11.42,11.42,0,0,0,5.55,2.64c3,.62,5.68.31,7.07-.67-2.1-.27-6.21-.85-12.61-2Zm-105,21c2.85.21,7.56-.49,12.72-2,8-2.33,14.08-5.74,13.54-7.61-.21-.72-1.35-1.1-3.14-1.18l-.76.21a95.7,95.7,0,0,0-20.47,9.26c-.5.33-1.15.76-1.89,1.31Z"/><path class="cls-17" d="M116.73,233.24c.37,4.78.89,9,1.46,12.38.4-1.17.12-4.52.11-7A11.33,11.33,0,0,0,116.73,233.24Zm97.65,31a16,16,0,0,1-2.19,3.24l-1,.3.08-.07a12.94,12.94,0,0,0,2.7-3.7Z"/><path class="cls-18" d="M218.8,164.53s6,16.22,5.28,45.06c-.66,26.49-2.61,32.9-2.61,32.9s-3.24,14.15-7.28,21.67"/><path class="cls-17" d="M169.83,274c9.74-1,14-6.83,15-10s.64-10.09-4.75-10.11h-.37a10.93,10.93,0,0,0-5,1.86,32.19,32.19,0,0,0-9.44,10c-2,3.61-5.12,9.21,4.63,8.23Zm74.43-19.06c5,.73,13.07-7.24,14.29-10.32,1.54-3.88-.85-10.06-4.73-8.2a6.19,6.19,0,0,0-.62.33,12.09,12.09,0,0,0-3.49,3.2,34.26,34.26,0,0,0-2.82,4.52c-2,3.58-5.12,10.11-2.62,10.47Zm-49.55,15.34c-1.43,1.25-7.09,3.2-10.63,3.32-.43,0,.64-2.41,4.14-4s5.12-1.77,6.49-1.58S195.72,269.4,194.71,270.27Zm40.13-10.56c-1.43,1.25-5.2,2.22-8.31,3.32-.43,0,.54-1.72,2.68-3.23,2.37-1.65,4.26-2.56,5.63-2.38S235.85,258.83,234.85,259.71Zm-13.06-17.53c-2.21,0-7.89,2.33-12.39,11.22-4,8.1-2.89,11.21-.83,12.18s11.09-1.7,15.11-6.7,6.09-11.45,4.14-14.62S221.79,242.18,221.79,242.18Z"/><path class="cls-8" d="M210.11,256.53c-1.31,3.87-2,7.78,2.92,7.62,5.37-.17,11-5.42,12.81-10.26,1.47-4,1.14-9.4-4.61-8-4.66,1.11-9.6,6.17-11.12,10.67Z"/><path class="cls-17" d="M234.8,179.31c0,6.1,2.94,11,6.58,11s7.31-5.19,7.31-11.28-3.68-10.8-7.31-10.8S234.8,173.21,234.8,179.31Zm-42.24,10.07c1.54,5.9,6.44,8.67,9.19,8.67s7.91-4.33,7.4-10.42-5.64-11-10.57-11C194.95,176.62,190.78,182.55,192.56,189.38Zm53.28-30.5a18.1,18.1,0,0,0,3.63,6.4,16.84,16.84,0,0,0,4.43,3.79,4.37,4.37,0,0,0,2.06.66c3.63-.11,5.67-8.89,4-14.75s-7-8.92-10.48-7.92-6.15,3.41-3.64,11.82Zm-79.42,15.71c3.5,5,11,9.72,14.24,8.92,3.53-.86,6.4-8.89,4.73-14.75a13.2,13.2,0,0,0-12.32-9.44C167.7,159.33,157.32,161.6,166.42,174.59Zm94.65,30.47c.58,2.81,2,5.39,4.54,6.4,3.38,1.34,7.31-5.19,7.31-11.28s-1.84-10.8-5.47-10.8c-3,0-5.45,5.4-6.33,9.51a14.48,14.48,0,0,0-.05,6.18Zm-84.34,15.08c-.22,4-4.27,12.43-12.9,13.41-5.69.65-11.53-3.81-11.53-9.91s2.45-11.91,10.82-12.93C172.35,209.58,176.94,216.16,176.72,220.13ZM145.87,241.5c.33,3.07-1.8,9-6.11,9.59a7.12,7.12,0,0,1-8.48-7.07c0-3.05,1.23-7.92,5.37-8.77C142.24,234.1,145.65,239.52,145.87,241.5Z"/><path class="cls-12" d="M63.36,181.72S43,163.87,41.44,162.57s-4.47-1.14-5.37,2.35-3.41,16.16-3.41,17.54-.41,6.5,3.33,10,19.29,16.91,19.29,16.91l1.94,1.78Z"/><path class="cls-19" d="M36,192.46c-3.74-3.49-3.33-8.61-3.33-10s2.52-14,3.41-17.54,3.82-3.65,5.37-2.35S46,166.63,46,166.63l-6.33,29.12Z"/><path class="cls-11" d="M38.51,193.19c-1-1.11-2.06-2.23-3-3.43a8.09,8.09,0,0,1-.65-.95,3.71,3.71,0,0,1-.36-1.1,12,12,0,0,1-.16-2.28,57.41,57.41,0,0,1,1.15-9c.53-3,1.18-6,1.83-8.93.08-.37.16-.74.27-1.11a3.9,3.9,0,0,1,.48-1.05,1.86,1.86,0,0,1,.89-.74,1.64,1.64,0,0,1,1.16.06c.09,0,.17.08.26.13l.13.07.12.08.24.16.22.18c.3.24.57.51.85.76l.83.78c.27.26.55.52.8.81-.26-.28-.54-.53-.83-.78l-.85-.76a6.9,6.9,0,0,0-1.82-1.31,1.52,1.52,0,0,0-1.07,0,1.7,1.7,0,0,0-.81.7,3.74,3.74,0,0,0-.45,1c-.1.36-.17.73-.25,1.1-.62,3-1.22,5.95-1.77,8.93a59.61,59.61,0,0,0-1.21,9,11.87,11.87,0,0,0,.12,2.25,3.57,3.57,0,0,0,.33,1.06,8.34,8.34,0,0,0,.62.94c.91,1.21,1.91,2.37,2.91,3.5ZM46,166.63l-1.45.21L38.78,195l.87.79L46,166.63Z"/><path class="cls-20" d="M61.43,181.37a2.16,2.16,0,0,0,1.93.35l-6.15,29.42-1.93-1.77,5.91-27.29a.92.92,0,0,0-.24-.83s-.46-.51.48.12Z"/><path class="cls-6" d="M193.71,114l-33.87,5.78s-2.43.35-3.12-.85-.93-1.83.18-3.26a1.91,1.91,0,0,1,2.46-.66l31.42-4.24-1.41-1.5a1.12,1.12,0,0,0,.09-.88c-.11-.62-.17-.85-.17-.85a12.59,12.59,0,0,1,3.15,2.53c1.26,1.49,1.27,1.24,1.51,2a3.62,3.62,0,0,1-.25,1.94Z"/><path class="cls-21" d="M34.43,157.05c-1-.76-1.86-1.57-2.74-2.42S30,152.91,29.14,152a56.46,56.46,0,0,1-4.57-5.73q-1-1.51-2-3.1t-1.75-3.24q-.81-1.65-1.47-3.38c-.23-.57-.41-1.16-.62-1.74l-.28-.88c-.09-.29-.18-.59-.26-.88l-.48-1.77c-.17-.59-.29-1.19-.44-1.78s-.29-1.19-.41-1.79-.26-1.2-.37-1.8l-.31-1.81c-.1-.6-.17-1.21-.26-1.82s-.15-1.22-.21-1.83l-.08-.91-.05-.92a40.91,40.91,0,0,1,.18-7.34c.06-.62.18-1.21.27-1.82,0-.3.12-.6.18-.9s.12-.6.21-.89a26,26,0,0,1,1.14-3.48c-.17.59-.36,1.16-.49,1.76s-.27,1.18-.38,1.78c-.06.3-.09.6-.14.9s-.1.6-.13.9c-.06.6-.15,1.2-.17,1.81a45.18,45.18,0,0,0,.1,7.24,66.82,66.82,0,0,0,1.06,7.17c.49,2.37,1.06,4.72,1.74,7,.08.29.16.58.25.87l.27.86c.21.57.38,1.14.6,1.7.41,1.13.91,2.23,1.41,3.32s1.07,2.16,1.65,3.21,1.22,2.08,1.88,3.1a65.64,65.64,0,0,0,4.3,5.84c.77.94,1.57,1.86,2.39,2.75.41.45.83.89,1.25,1.32s.86.87,1.3,1.28ZM21,170.82a13.16,13.16,0,0,0-2.16-1.16,6.22,6.22,0,0,0-2.27-.54,3.27,3.27,0,0,0-1.08.17,2.79,2.79,0,0,0-.91.53,4.28,4.28,0,0,0-.73.84c-.24.32-.46.65-.68,1-.88,1.35-1.67,2.78-2.46,4.22s-1.54,2.89-2.34,4.35A33.18,33.18,0,0,1,10,175.54a30.19,30.19,0,0,1,2.33-4.42c.24-.35.47-.7.73-1a4.92,4.92,0,0,1,.92-1,3.49,3.49,0,0,1,1.24-.64,3.68,3.68,0,0,1,1.37-.1,6,6,0,0,1,2.44.87,8.82,8.82,0,0,1,2,1.58Z"/><path class="cls-6" d="M153.14,111.74s-.18-1.16-3.17-3.84S133.79,94,121,84.21c-1.52-.85-7.7-4.51-7.7-4.51s-.09-2.38,1.31-3.23,3-1.52,7.19-2.19L141,71.21s28.59,14.13,47.5,34.67c3.72,3.65-35.32,5.86-35.32,5.86Z"/><path class="cls-20" d="M141,71.21s-15.05,2.39-19.2,3.07-5.78,1.34-7.19,2.19-1.3,3.23-1.3,3.23l7.7,4.51a1.12,1.12,0,0,1,.86-1.32c1.09-.32,21.19-4,23.14-4.4s7.29-1,7.29-1Z"/><path class="cls-22" d="M121.52,81.28c-.53-.28-1.06-.57-1.57-.89a9.77,9.77,0,0,1-1.45-1.08,2.68,2.68,0,0,1-.56-.73.86.86,0,0,1,.06-.92,1.94,1.94,0,0,1,.75-.56,5.83,5.83,0,0,1,.86-.32,29.31,29.31,0,0,1,3.55-.7l3.56-.58,7.13-1.11,3.57-.54,3.57-.51-3.55.62-3.57.61-7.12,1.17-3.56.56a33.26,33.26,0,0,0-3.53.66,5.65,5.65,0,0,0-.84.3,1.79,1.79,0,0,0-.7.5.72.72,0,0,0-.06.78,2.61,2.61,0,0,0,.52.7A9.68,9.68,0,0,0,120,80.34c.5.33,1,.64,1.54.94Z"/><path class="cls-20" d="M158.56,80.43s-7.86.49-9.81.79S145,84.27,145,86s9.81,9.38,11.57,10.9c1.34,1.15,8.86-.34,11.9-1.14,1.71-.45,2.6-4.26,1.08-5.69-2.66-2.48-11-9.62-11-9.62Z"/><path d="M157.9,96.17a1.88,1.88,0,0,0,.9.54c2.36.65,6.81-.23,9.66-1,1.71-.45,2.91-4.48,1-5.24-.93-.37-8.06.55-9.18.69a3.08,3.08,0,0,0-3,3.13,2.52,2.52,0,0,0,.65,1.85Z"/><path d="M169,89.62a3.37,3.37,0,0,0-.87,0c-.29,0-.58,0-.87.05l-1.75.16-3.51.34-1.75.19a7.35,7.35,0,0,0-1.71.33,3.51,3.51,0,0,0-1.46.91,2.52,2.52,0,0,0-.66,1.57h0a2.57,2.57,0,0,1,.65-1.62,3.6,3.6,0,0,1,1.47-1,7.48,7.48,0,0,1,1.73-.38l1.75-.23c1.16-.15,2.33-.3,3.51-.39.59,0,1.17-.08,1.76-.09h.88a3.54,3.54,0,0,1,.44,0,1.6,1.6,0,0,1,.44.09Z"/><path class="cls-22" d="M114.09,76.89a.15.15,0,0,0-.12.16.5.5,0,0,0,.07.21,1.91,1.91,0,0,0,.26.34,6.88,6.88,0,0,0,.63.59c.44.37.9.72,1.38,1.05.94.67,1.92,1.3,2.89,1.91s2,1.21,3,1.84,1.93,1.3,2.89,2c3.77,2.72,7.39,5.63,11,8.58q2.68,2.23,5.32,4.49c1.75,1.52,3.51,3,5.24,4.59s3.45,3.1,5.16,4.66c.42.39.86.79,1.25,1.22a7.93,7.93,0,0,1,1,1.42,4.79,4.79,0,0,1,.59,1.65,3.94,3.94,0,0,1-.15,1.73,3.89,3.89,0,0,0,0-1.71,4.67,4.67,0,0,0-.65-1.57,7.7,7.7,0,0,0-1.07-1.33c-.4-.41-.84-.77-1.29-1.15l-5.31-4.5-5.28-4.47c-1.77-1.49-3.55-3-5.33-4.46l-2.68-2.21-1.35-1.1-1.35-1.1c-1.8-1.46-3.63-2.88-5.47-4.28-.93-.68-1.86-1.38-2.82-2S120,82.11,119,81.45s-1.9-1.34-2.82-2.06c-.46-.36-.91-.73-1.33-1.13a6.94,6.94,0,0,1-.6-.64,2,2,0,0,1-.24-.37.52.52,0,0,1-.06-.21.15.15,0,0,1,.12-.16Z"/><path class="cls-23" d="M147.78,81.57l0,0-.93-.73Z"/><path class="cls-24" d="M127.71,66.35a90.76,90.76,0,0,0-35-7.19,90.91,90.91,0,0,1,36.51,7.19c7.84,3.35,16.72,9.12,24.11,14.45L152,80.9C144.54,75.54,135.59,69.72,127.71,66.35Z"/><path class="cls-25" d="M117,64.52c13,3.54,21.46,9.12,31.32,16.34l.47.35h0a2.92,2.92,0,0,0-1,.35l-1-.71c-6.38-5-13.75-10-20.68-13C123,66.57,120,65.46,117,64.52ZM69.12,62.18l-1.07,1c-1.24.34-2,.58-2,.58l-2.65,2.43-.33.18,4.54-4.17a88.6,88.6,0,0,1,13.29-2.45c2.27-.18,6.4-.61,11.82-.56-4.68,0-8.25.4-10.31.56A88.38,88.38,0,0,0,69.12,62.18Z"/><path class="cls-26" d="M152,80.9c-1.34.11-2.52.22-3.16.32l-.47-.35C138.46,73.64,130,68.06,117,64.52c-2.78-.76-5.78-1.42-9-2a96.83,96.83,0,0,0-17.39-1.48c-12.14-.1-20.45,2.35-24.56,4l2-1.86,1.07-1a88.39,88.39,0,0,1,13.28-2.45c2.05-.17,5.63-.53,10.32-.57a90.72,90.72,0,0,1,35,7.19c7.88,3.38,16.83,9.2,24.24,14.56Z"/><path class="cls-7" d="M63.39,66.17c.44-.22,1.32-.65,2.63-1.16l-1.44,1.33s9-5.13,26-5.29a97.82,97.82,0,0,1,15.89,1.48c18.45,3.2,28.37,9.54,40.35,18.32l.93.73a6,6,0,0,0-2.1,2.27l-.67-.52c-11.81-9-21.63-16-40.08-19.24-28.13-4.88-43.41,3.8-43.41,3.8Z"/><path class="cls-5" d="M90.58,61.06c-17,.16-26,5.29-26,5.29L66,65c4.13-1.6,12.43-4.06,24.57-4Z"/><path class="cls-5" d="M68,63.16,66,65c-1.31.51-2.19.93-2.63,1.16L66,63.74S66.81,63.5,68,63.16ZM108,62.54c3.26.57,6.25,1.24,9,2,2.94.93,6,2,9.13,3.38,6.92,3,14.3,8,20.68,13-12-8.78-21.9-15.13-40.35-18.32a97.82,97.82,0,0,0-15.89-1.48A96.72,96.72,0,0,1,108,62.54Z"/><path class="cls-20" d="M165.53,96.4l-.9.18h0l.91-.16Zm.41-.08-.41.08Z"/><path class="cls-6" d="M153.14,111.74s.11,3.36-1.18,2.37.49,1.31,1.7,1.19a8.41,8.41,0,0,0,2.92-1.28l31-3.59s2.18.24,1.94-1.76-.8-2.42-.8-2.42l-7.36-4.66Z"/><path class="cls-24" d="M164.68,90.68c1.87,1.53,3,2.46,3,2.46l.62.54.15.13.18.16.27.24.24.22.4.36.07.06h0l.06.05.3.27.15.14.32.3.33.31,1.9,1.81.58.56.21.21.21.21.21.21.22.21.44.44c.74.74,1.51,1.53,2.29,2.35l.23.25.47.5.24.25.47.52.24.26,1,1.06.47.54.24.27.71.83.47.56.23.28.28.34.19.23.46.57.23.28c.38.47.75,1,1.11,1.44l.43.58.06.08.57.79,0,.06q.49.7,1,1.4l.19.29q.29.43.56.87l.35.58.34.58.32.58.16.29.15.28c.15.28.3.57.43.85s.18.38.27.57q.39.85.69,1.69l.12.35.15.45c.09.29.18.58.26.86l.15.53c.08.27.15.55.22.83l.16.62a.43.43,0,0,0,0,.07q.26.63.5,1.27a77.16,77.16,0,0,1,3.32,11.3c.72,3.3,1.12,5,1.34,5.78l5.06-.74a81.64,81.64,0,0,0-3.36-11.77,83.45,83.45,0,0,0-3.69-8.61c-.1-.21-.21-.4-.31-.6l-.21-.38-.11-.21-.35-.63-.3-.52-.19-.33-.39-.65-.37-.6-.28-.46-.35-.55v0l-.62-.93-.09-.13-.15-.22-.38-.54-.46-.65-.57-.78c-.11-.15-.21-.29-.32-.43l-.49-.65-.27-.34-.3-.37-.13-.17-.32-.41-.11-.13-.56-.68-.5-.6-.33-.39-.5-.58-.43-.49-.58-.65-1-1.11-1-1.08-.5-.52-1-1-.5-.49c-1.24-1.22-2.43-2.34-3.54-3.35l-.44-.4c-.73-.65-1.41-1.25-2-1.79l-.38-.31-.19-.16-.51-.43-.24-.21-.19-.15-.55-.45-.27-.22-.27-.22-.13-.1-.12-.1-.15-.12-.08-.07-.22-.17-.07-.06-.06,0-.47-.37-.1-.07-.33-.25s-1.15-1-3.11-2.59l-1.35.13Z"/><path class="cls-26" d="M165.53,96.4l.41-.08-.41.08A116.72,116.72,0,0,1,179,111.34l.28.39.43.6a52.3,52.3,0,0,1,4.9,8,32.77,32.77,0,0,1,2.84,11.29,54.1,54.1,0,0,1,0,11.06c1.16-.11,2.66-.3,4.33-.51,0-.08,0-.17,0-.28s0-.15,0-.23,0-.18,0-.28,0-.21,0-.31a1,1,0,0,1,0-.19c0-.06,0-.12,0-.18l0-.39a1.17,1.17,0,0,1,0-.21v0q0-.6.05-1.33c0-1,0-2.18,0-3.5h0c0-.35,0-.71,0-1.08q-.07-1.3-.21-2.74c0-.15,0-.29,0-.44s-.07-.59-.1-.9c-.09-.76-.21-1.54-.33-2.33l-.08-.48-.08-.48c-.14-.78-.3-1.58-.48-2.39q-.12-.54-.25-1.09a.43.43,0,0,0,0-.07q-.08-.31-.16-.62c-.07-.27-.14-.54-.22-.83l-.15-.53c-.08-.28-.17-.57-.26-.86l-.15-.45-.12-.35q-.3-.83-.69-1.69l-.27-.57q-.21-.42-.43-.85l-.15-.28-.16-.29c-.11-.19-.21-.38-.32-.58l-.34-.58-.35-.58-.56-.87-.19-.29c-.31-.46-.62-.93-1-1.4l0-.06-.57-.79-.06-.08-.43-.58-1.11-1.44-.23-.28-.46-.55-.19-.23-.28-.34-.23-.28-.47-.56-.71-.83-.24-.27-.47-.54-1-1.06-.24-.26-.47-.52-.23-.25-.47-.5-.23-.25c-.78-.83-1.55-1.61-2.29-2.35l-.44-.44-.22-.21-.21-.21-.21-.21-.21-.21-.59-.59-1.9-1.81-.33-.31c-.11-.1-.21-.21-.32-.3l-.15-.14-.3-.27-.06-.05h0l-.07-.06-.4-.36-.24-.22-.27-.24-.18-.16-.15-.13-.62-.54s-1.08-.93-3-2.46c-1.06.11-2.12.23-2.95.33l-1.48.19-.39.06q3,2.63,5.68,5.14Z"/><path class="cls-25" d="M187.9,116.48q.23.43.43.85C188.2,117,188.06,116.76,187.9,116.48Zm-3.06-4.92,1,1.44Q185.36,112.28,184.84,111.55Zm-2.17-2.88q.56.71,1.11,1.44C183.43,109.62,183,109.15,182.67,108.67ZM169.49,94.79l.07.06Z"/><path class="cls-7" d="M157.26,94.12c1,.91,1.94,1.86,2.9,2.79l.29.29a159.71,159.71,0,0,1,13.61,14.71l.71,1,.1.14a36.82,36.82,0,0,1,4.85,9,30.76,30.76,0,0,1,1.67,12.15c-.1,2.2-.21,4-.31,5.35a21,21,0,0,0,3.94,3.16c.31-4.25.5-12.81-2-21q-.28-.9-.65-1.81a41,41,0,0,0-4-7.3l-.7-1a109,109,0,0,0-13-14.92h0c-.5-.48-.79-.75-.79-.75s-1.73-1.74-4.6-4.39a3,3,0,0,0-2,2.69ZM48.14,76.29S49.6,70.07,63,64.35,80.78,59.6,80.78,59.6,71.64,60.82,68,63.86s-4.51,2.25-5.6,4a19.85,19.85,0,0,0-1.71,3.7Z"/><path class="cls-17" d="M231.22,139.91a23,23,0,0,1,9.49,6.05c3.65,4.51,3.41,11.57-4.75,14-8.41,2.44-17.18,4.55-17.18,4.55s-10.74,1.05-15.3,1.17-13.14.73-18.29-3.65-7.1-8-10.14-10.35a20.34,20.34,0,0,0-6.6-3.18s23.73-4.44,34.27-5.75,28.5-2.85,28.5-2.85Z"/><path class="cls-21" d="M84.83,221.4c3.82-8.93,2-18.28-3.28-23.47-3.36-3.36-18.19-14.32-18.19-14.32l1-.18S79.3,194.1,82,197.08a20.18,20.18,0,0,1,5.81,14c0,5.15-3,10.31-3,10.31Z"/><path class="cls-13" d="M213.2,255.51A2.74,2.74,0,0,0,216,258.4a3.72,3.72,0,0,0,3.17-3.8c0-1.56-.89-3.8-2.68-3.8S213.11,252.88,213.2,255.51Z"/><path class="cls-27" d="M216,251.56a3.78,3.78,0,0,0-.85.81,6.34,6.34,0,0,0-.66,1,4.39,4.39,0,0,0-.38,1.13,4.92,4.92,0,0,0-.08,1.22h0a4.54,4.54,0,0,1-.12-1.25,4.13,4.13,0,0,1,.26-1.26,2.88,2.88,0,0,1,.66-1.13,1.72,1.72,0,0,1,1.2-.53Z"/><ellipse class="cls-28" cx="201.74" cy="192.46" rx="2.84" ry="4.06" transform="translate(-45.41 63.41) rotate(-16.08)"/><ellipse class="cls-28" cx="239.82" cy="185.68" rx="2.5" ry="3.85" transform="translate(-11.84 16.39) rotate(-3.82)"/><path class="cls-28" d="M261.07,205.06a1.2,1.2,0,0,0,.32,0c1.11-.07,1.92-1.52,1.81-3.23s-1-2.92-2.08-3a14.48,14.48,0,0,0-.05,6.18Z"/><ellipse class="cls-28" cx="178.54" cy="179.4" rx="2.69" ry="2.94" transform="translate(-63.1 104.1) rotate(-27.83)"/><path class="cls-28" d="M249.47,165.28a16.84,16.84,0,0,0,4.43,3.79,2.92,2.92,0,0,0-.32-3.35,2.83,2.83,0,0,0-3.95-.58Zm.24,74.67a2.58,2.58,0,0,0,2.21-.07,2.75,2.75,0,0,0,1.28-3.13,12,12,0,0,0-3.49,3.2Z"/><ellipse class="cls-28" cx="171.32" cy="220.28" rx="3.6" ry="3.18" transform="translate(-92.22 128.53) rotate(-32.93)"/><ellipse class="cls-28" cx="140.06" cy="242.62" rx="3.02" ry="2.66" transform="translate(-109.39 115.12) rotate(-32.93)"/><path class="cls-28" d="M175.11,257.56a2.94,2.94,0,1,0,4.58-3.65,10.93,10.93,0,0,0-5,1.86A2.93,2.93,0,0,0,175.11,257.56Z"/><ellipse class="cls-17" cx="134.8" cy="166.42" rx="6.14" ry="2.93" transform="translate(-62.1 82.18) rotate(-27.83)"/><path class="cls-17" d="M122.52,232.33c2.3-.57,4.53-5.85,4.29-10.73-.22-4.52-2.84-9.38-6.25-8.6-2.25.65-3.18,7.29-2.55,10.8.53,3,1.38,9.3,4.52,8.53Z"/><ellipse class="cls-28" cx="122.69" cy="222.65" rx="2.13" ry="3.41"/><ellipse class="cls-28" cx="135.24" cy="167.13" rx="2.92" ry="2.13" transform="translate(-62.38 82.47) rotate(-27.83)"/><path class="cls-17" d="M140,212.09c3.1-.87,6.07-5.33,5-9.71s-5.59-6.94-9-6.16-6.07,5.33-5,9.71S136.9,213,140,212.09Zm-23.38-5.9a9.27,9.27,0,0,0,2.12-4l0-.15a13.69,13.69,0,0,0,.37-1.85c0-.35.08-.69.09-1a13.43,13.43,0,0,0-.09-2.64,7.16,7.16,0,0,0-1-2.93h0q-.27,1.5-.49,3-.38,2.57-.66,5.19-.24,2.19-.4,4.39Z"/><path class="cls-17" d="M117.79,204.6l-.12.22Zm-.27.46-.14.21A1.85,1.85,0,0,0,117.51,205.06Zm.14-.23-.13.22.13-.21Zm.53-1.06-.11.25.11-.24Zm-.26.56-.12.23.12-.22Zm.13-.27-.11.23c0-.06.07-.14.11-.22Zm1.22-5.66v-.62c0,.21,0,.42,0,.63Zm-.06-1.35c0-.19,0-.37-.06-.54,0,.19,0,.37.06.55Zm0,.67c0-.18,0-.35,0-.52,0,.18,0,.35,0,.53Zm-.11,2.45c0-.35.08-.69.09-1s0-.44,0-.65a15,15,0,0,1-.12,1.69Zm-.37,1.85c-.07.28-.16.54-.24.8q.11-.32.21-.66l0-.14Zm-.48,1.46-.11.26.11-.25Zm.12-.32-.11.28.1-.27Zm.12-.33-.11.3.11-.3Z"/><circle class="cls-28" cx="139.62" cy="203.9" r="2.92"/><path class="cls-17" d="M273.48,179.74a9.7,9.7,0,0,0,1.68,4.57c-.15-3.42-.38-6.89-.71-10.24a8.78,8.78,0,0,0-1,5.67Zm-32.92-39.23a11.42,11.42,0,0,0,5.55,2.64c3,.62,5.68.31,7.07-.67-2.1-.27-6.21-.85-12.61-2Zm-105,21c2.85.21,7.56-.49,12.72-2,8-2.33,14.08-5.74,13.54-7.61-.21-.72-1.35-1.1-3.14-1.18l-.76.21a95.7,95.7,0,0,0-20.47,9.26c-.5.33-1.15.76-1.89,1.31Zm137.78,59.15a87.2,87.2,0,0,0,1.54-10.52c-1.28,1-2.24,3.19-2.37,5.82A9.84,9.84,0,0,0,273.32,220.68Z"/><path class="cls-21" d="M119.32,251.19c-.32-1.22-.6-2.45-.85-3.68s-.47-2.48-.68-3.71q-.62-3.73-1.08-7.49-.86-7.52-1.13-15.1-.07-1.89-.09-3.79c0-1.26,0-2.53,0-3.79q.06-3.79.31-7.58A102.77,102.77,0,0,1,117.95,191q.43-1.86.95-3.7c.18-.62.36-1.22.55-1.83s.38-1.21.58-1.81a75.45,75.45,0,0,1,2.73-7.12,49.6,49.6,0,0,1,3.63-6.75,27.83,27.83,0,0,1,5-5.88,23.47,23.47,0,0,1,3.12-2.3c.54-.34,1.1-.66,1.62-1l.39-.24.39-.26c.15-.1.29-.19.44-.27l.43-.24c1.14-.6,2.28-1.13,3.43-1.65s2.3-1,3.46-1.53q3.48-1.48,7-2.91l3.51-1.42,3.51-1.38,0,.09c-4.63,2-9.24,4-13.83,6.07q-1.72.78-3.42,1.59c-1.13.54-2.27,1.09-3.37,1.69-.27.15-.55.31-.8.48l-.39.27-.4.26c-.53.34-1.07.66-1.6,1a22.76,22.76,0,0,0-3,2.28,24.38,24.38,0,0,0-2.58,2.73,31.71,31.71,0,0,0-2.2,3.05,48.7,48.7,0,0,0-3.51,6.66c-1,2.3-1.89,4.66-2.68,7-.21.59-.38,1.2-.57,1.8s-.37,1.2-.54,1.81q-.51,1.81-.92,3.65a103.34,103.34,0,0,0-2.16,14.91c-.38,5-.49,10.05-.39,15.08s.4,10.05.88,15.06c.25,2.5.53,5,.89,7.49s.76,5,1.31,7.43Z"/><path class="cls-29" d="M218.62,149.13l-7,1.11.2,1.2,2.91-.47.76,4.59,1.22-.22-.75-4.58,2.84-.46-.19-1.17Zm-10.93,1.76-2.41.38a2.68,2.68,0,0,0-1.18.49l-.35-2.15-1.32.21,1.29,7.82,1.32-.23-.59-3.56a1.21,1.21,0,0,1,1-1.35l2.4-.39a1.19,1.19,0,0,1,1.39.94l.58,3.51,1.27-.22-.58-3.49a2.44,2.44,0,0,0-2.85-1.95Zm19.51,1.4a1.07,1.07,0,0,1-.24.07l-4.16.72a1.1,1.1,0,0,1-1.28-.89h0l-.19-1.14a1.11,1.11,0,0,1,.92-1.27l4.17-.68h.25l-.19-1.15-.25,0-4.17.66a2.28,2.28,0,0,0-1.91,2.6h0l.19,1.15a2.27,2.27,0,0,0,2.61,1.86h0l4.16-.73.24-.06Z"/></g></g></g></g></g></svg>