<svg xmlns="http://www.w3.org/2000/svg" viewBox="0 0 169.5 169.5"><defs><style>.cls-1{fill:#e8e8e8;}.cls-2{fill:#00adb5;stroke:#000;stroke-miterlimit:10;}.cls-3{font-size:51.45px;fill:#03f4f4;font-family:Impact, Impact;}</style></defs><title>infovr</title><g id="Capa_2" data-name="Capa 2"><g id="objetos"><circle class="cls-1" cx="84.75" cy="84.75" r="84.75"/><path d="M140,115.68a6.14,6.14,0,0,0-5.92,4.37c-1.94,6.71-5.85,11.84-10.46,16.53-9.08,9.26-19.35,17-31.64,21.28-4.09,1.43-9.48,1.78-13.47.35A80.89,80.89,0,0,1,40.23,129.7c-2.1-2.84-3.47-6.22-5.08-9.9a6.21,6.21,0,0,0-5.68-3.71h-7a6.2,6.2,0,0,1-6.2-6.2V72.63a6.2,6.2,0,0,1,6.2-6.2H147a6.2,6.2,0,0,1,6.2,6.2v36.85a6.2,6.2,0,0,1-6.2,6.2Zm-90,.62a6.19,6.19,0,0,0-5.27,9.48c.22.34.45.66.69,1,9.08,12,21,20.28,34.91,25.65a12.6,12.6,0,0,0,8.16.16,76.61,76.61,0,0,0,36-26.48l.06-.08a6.18,6.18,0,0,0-5.12-9.71Z"/><path d="M135.12,54.52c9.26-1.22,13.51,10,17.44,13.62-46.33,0-90.22-1.72-135.21-1.72,6.15-8.66,10-11.44,17-12.27.58-3.17.84-6.51,1.82-9.62,4.74-15,14.74-24.17,30.34-27,2.84-.51,6.14-.2,6.94-4.14,0-.15.2-.26.3-.39,3.7-4.34,20-3,23.12,1.75A5.63,5.63,0,0,0,100.1,17C121.88,21.21,131.76,31.61,135.12,54.52Zm-7.23-.23C129.57,38.38,113.21,22,97.52,24V54.3Zm-56.05,0V24C55.9,22.2,39,39.35,41.72,54.31Z"/><rect class="cls-2" x="13.25" y="59.21" width="143" height="61.2" rx="20.75" ry="20.75"/><rect x="18.98" y="61.66" width="131.55" height="56.3" rx="20.75" ry="20.75"/><text class="cls-3" transform="translate(57.59 109.34)">VR</text></g></g></svg>