<svg xmlns="http://www.w3.org/2000/svg" viewBox="0 0 225.25 215.86"><defs><style>.cls-1{fill:aqua;}.cls-2{opacity:0.7;font-size:41.14px;fill:#fcfcfc;font-family:Impact, Impact;}</style></defs><title>info2</title><g id="Capa_2" data-name="Capa 2"><g id="Capa_1-2" data-name="Capa 1"><path class="cls-1" d="M112.63,148.27c-60.11,0-107-66.06-108.95-68.88L0,74.14l3.68-5.26C5.64,66.06,52.52,0,112.63,0s107,66.06,108.95,68.88l3.68,5.26-3.68,5.26C219.61,82.21,172.74,148.27,112.63,148.27ZM22.74,74.13C34.56,88.93,71,129.91,112.63,129.91S190.71,89,202.52,74.14c-11.83-14.81-48.31-55.78-89.89-55.78S34.54,59.31,22.74,74.13Z"/><path class="cls-1" d="M112.63,40.65a33.7,33.7,0,0,0-5.27.42A16.73,16.73,0,0,1,81.68,61.36a33.48,33.48,0,1,0,31-20.71Z"/></g><g id="Capa_6" data-name="Capa 6"><text class="cls-2" transform="translate(76.14 202.26)">INFO</text></g></g></svg>