<svg xmlns="http://www.w3.org/2000/svg" viewBox="0 0 432.75 319.56"><defs><style>.cls-1{opacity:0.5;}.cls-2{fill:none;stroke:#00adb5;stroke-miterlimit:10;}.cls-3{fill:#00adb5;fill-rule:evenodd;}.cls-4{fill:#1e1e1e;}.cls-5{fill:#747474;}.cls-6{fill:#a7a7a7;}.cls-7{fill:#424242;}.cls-8{fill:#545454;}.cls-9{fill:#141414;}.cls-10{fill:#101010;}.cls-11{fill:#090909;}.cls-12{fill:#727272;}.cls-13{fill:#3f3f3f;}.cls-14{fill:#131313;}.cls-15{fill:#2d2d2d;}.cls-16{fill:#3e3e3e;}.cls-17{fill:#171717;}.cls-18{fill:#535353;}.cls-19{fill:#404040;}.cls-20{fill:#2f2f2f;}.cls-21{fill:#454545;}.cls-22{fill:#505050;}.cls-23{fill:#282828;}.cls-24{fill:#393939;}.cls-25{fill:#878787;}</style></defs><title>info3</title><g id="Capa_2" data-name="Capa 2"><g id="objetos"><g class="cls-1"><path class="cls-2" d="M97.81,78.75s-.72-5.49-5-8.44-12,.41-12,.41l2.65,8.4Z"/><path class="cls-2" d="M157.84,5.38a77.16,77.16,0,0,1,8.73,6.22c7,5.87,16,16,15.28,17.3l14,3.36A72.32,72.32,0,0,0,169,7.42c-1.55-.71-2.88-1.46-4.42-2.2"/><path class="cls-2" d="M103.82,41.16A174.08,174.08,0,0,0,91.73,61a31,31,0,0,1,4.2-1.78c9.92-3.32,12.36.27,16.32,1.64s19.38,12.05,26.39,16,16.78,8.39,27.88,14.19,33.15,11.67,36.8,12.05c2.69.28,3.66-1.53,4.27-3.81s.46-15.41,0-27.61-6.25-31.28-8.47-36.16S191.58,25,187.31,24.08s-8.39,3.81-10.07,6.56S161.07,50.77,155.4,55.5s-11.72,3.66-16.3,1.37S130.71,50.32,120,45.13c-6.68-3.24-11.74-4.27-16.21-4ZM170,73.86c-4.36-2.42-4.5-8.32-1.23-12.08l16.7-19.19a3.1,3.1,0,0,1,5.07.56l.29.53a45,45,0,0,1,3.74,9.14,115.49,115.49,0,0,1,3.84,20.84c.49,4.46-1.27,10.48-6.76,9.49L187,81.48a122.06,122.06,0,0,1-16.42-7.3l-.6-.32Z"/><path class="cls-2" d="M208.21,99.92a6.79,6.79,0,0,1-3.69,3.18c-2.29.69-7.28-1.18-7.28-1.18s4.44-3.47,6.4-3.62S208.21,99.92,208.21,99.92Z"/><path class="cls-2" d="M164.22,103.87s28.39-16.85,35-19.38c3.33-1.28,7.45-3.12,11.49-3.51,3.78-.37,2.75,4.07,2.24,5.59s-5,14-5,14a4.56,4.56,0,0,0-5.39-1.42c-3.46,1.32-38.34,21.26-38.34,21.26Z"/><path class="cls-2" d="M59.16,56.88S40.85,66.95,29.25,70.3,10.95,74.88,7,76.1,1.34,79.66,1.34,94.51s1.57,30.11,7.17,38.14S32,151.16,43.29,157.47s34.89,18.8,45.36,20.28c0,0,6.47,1.59,10.92-2.28s2.51-3.46,6.88-7.12,18.21-14.85,18.21-14.85,12.51-2.34,21.26-10.48,11.49-15.05,12.41-17.29,4.73-16.53-1.07-26.44S140.63,86,132.54,84,93.33,82.2,78.23,72.59,63.58,53.52,63.58,53.52L61.9,57.79Z"/><path class="cls-2" d="M55.61,61.78s3.28-.9,4.16,1.43-1.13,4.36-1.13,4.36a5.6,5.6,0,0,1-2.5-3.18c-.87-2.42-.53-2.61-.53-2.61Z"/><path class="cls-2" d="M63.58,53.52s-1.75,4.58-2.29,6-1.82,9-1.82,9,10.18,12,14.72,14,16,3.89,33.33,4.85,31.07,3.61,38,9,8.75,10.17,10.22,14.8,4.62,0,4.62,0,2-11.23-11.58-20.75S114,82.87,102.31,80.32,81.65,75.94,74.19,69.77,63.68,58.35,63.58,53.52Z"/><path class="cls-2" d="M55,59.76a1.82,1.82,0,0,0,.66,2l5.68-2.24,1-1.63-3.11-1L54.5,59.35Z"/><path class="cls-2" d="M76.85,52.3,75.53,38.06l-7.21,5.29,1.61,15.93,6.92-7Z"/><path class="cls-2" d="M69.94,59.28,68.57,45.69A4.12,4.12,0,0,1,70.22,42l5.31-3.9H74.15a4.66,4.66,0,0,0-2.81.94l-3.5,2.64a4.12,4.12,0,0,0-1.61,3.73L67.7,58.6Z"/><path class="cls-2" d="M71.51,55.35s-4,3.51-3.05,7c.45,1.74,2.71,4,4.88,6A183.51,183.51,0,0,1,84,47.94c-8.52,3.46-12.45,7.41-12.45,7.41Z"/><path class="cls-2" d="M157.26,99.29C151.46,89.37,140.63,86,132.54,84S93.33,82.2,78.23,72.59,63.58,53.52,63.58,53.52l7.93,1.83S70.6,65.88,83,71.83s17.39,7,32.19,8.39,21.78,3,29.43,7.2S157.26,99.29,157.26,99.29Z"/><path class="cls-2" d="M157.26,99.29a42.49,42.49,0,0,0-4.08-5,40.06,40.06,0,0,0-4.76-4.3c-.43-.31-.86-.64-1.3-.94l-.67-.44-.33-.22-.34-.21c-.47-.27-.91-.56-1.39-.81L143,86.66a44.59,44.59,0,0,0-5.91-2.49,53.75,53.75,0,0,0-6.19-1.68c-2.09-.44-4.2-.78-6.32-1.08L123,81.2,121.37,81c-1.06-.13-2.12-.23-3.19-.35l-6.4-.61a99.13,99.13,0,0,1-12.73-1.9,56.38,56.38,0,0,1-6.18-1.83c-2-.73-4-1.56-6-2.43-1-.44-2-.89-2.92-1.35l-.73-.34-.72-.35-.72-.37c-.24-.12-.47-.26-.71-.4-.48-.26-.92-.56-1.38-.85l-.67-.46-.33-.23-.32-.25-.32-.25-.15-.13-.15-.13-.61-.53-.59-.56-.29-.29L76,67.13A17.77,17.77,0,0,1,72.5,61.7,13.84,13.84,0,0,1,72,60.17c-.15-.52-.29-1-.39-1.58A16.07,16.07,0,0,1,71.33,57a11.1,11.1,0,0,1,0-1.64l.17.24-7.93-1.83.28-.21a6.27,6.27,0,0,0,0,.83c0,.28.08.56.13.84a13.91,13.91,0,0,0,.43,1.65A19.07,19.07,0,0,0,65.76,60a27,27,0,0,0,4,5.52c.79.84,1.61,1.63,2.47,2.39l.65.56c.22.18.43.38.66.55.45.36.9.72,1.36,1.06a42.73,42.73,0,0,0,5.79,3.72,46.78,46.78,0,0,0,6.34,2.68q3.26,1.12,6.62,1.93a137.83,137.83,0,0,0,13.58,2.5c4.58.63,9.15,1.1,13.75,1.55,2.29.23,4.6.45,6.89.72,1.14.14,2.29.29,3.43.5l.43.08.43.09.84.2,1.68.44a64.14,64.14,0,0,1,6.59,2.13,40.63,40.63,0,0,1,6.23,3A29.58,29.58,0,0,1,153,93.84a25.86,25.86,0,0,1,4.24,5.45Zm0,0A25.83,25.83,0,0,0,153,93.88a29.49,29.49,0,0,0-5.49-4.16,40.49,40.49,0,0,0-6.23-3,63.94,63.94,0,0,0-6.59-2.07c-1.11-.28-2.23-.58-3.36-.79s-2.27-.35-3.42-.48c-2.29-.26-4.59-.47-6.88-.69-4.59-.42-9.19-.88-13.77-1.49a132.11,132.11,0,0,1-13.63-2.47c-2.25-.54-4.47-1.18-6.66-1.93a47.19,47.19,0,0,1-6.4-2.7l-.76-.41-.19-.1-.19-.11L79,73.31l-.75-.45c-.25-.15-.49-.32-.73-.47l-.73-.48-.71-.5-.71-.5-.7-.52c-.47-.34-.92-.71-1.37-1.07-.23-.18-.45-.37-.67-.56L72,68.22c-.87-.77-1.71-1.57-2.5-2.42a27.39,27.39,0,0,1-4.12-5.61A19.51,19.51,0,0,1,64,57a14.37,14.37,0,0,1-.44-1.7q-.08-.43-.14-.87a6.59,6.59,0,0,1-.05-.9.23.23,0,0,1,0,0,.22.22,0,0,1,.27-.17l7.93,1.83a.22.22,0,0,1,.17.24,10.75,10.75,0,0,0,0,1.57A15.61,15.61,0,0,0,72,58.51,14.42,14.42,0,0,0,72.38,60c.16.5.33,1,.53,1.49a17.33,17.33,0,0,0,3.43,5.3l.27.29.28.28.58.55.6.52.15.13.15.12.31.24.31.24.32.23.65.46c.45.28.89.58,1.36.83l.69.39.71.36.72.35.72.34c1,.47,1.94.91,2.91,1.35C89,74.41,91,75.24,93,76a56,56,0,0,0,6.13,1.82c2.08.49,4.18.87,6.3,1.18s4.24.55,6.37.76l6.39.64c1.06.12,2.13.23,3.19.36l1.6.2,1.59.22c2.12.31,4.24.66,6.34,1.11a51.71,51.71,0,0,1,6.2,1.71,44.76,44.76,0,0,1,5.9,2.54l1.42.76c.47.26.93.55,1.39.82a4,4,0,0,1,.34.22l.33.23.67.46c.44.31.86.64,1.29,1a40.14,40.14,0,0,1,4.73,4.35,42.52,42.52,0,0,1,4,5Z"/><path class="cls-2" d="M172.82,38l-3-2.63a.85.85,0,0,0-1.2.08v0l-7.41,8.89a1.37,1.37,0,0,0,0,1.78,8.23,8.23,0,0,0,2.31,1.85c2.15,1.15,9.32-10,9.32-10Z"/><path class="cls-2" d="M162.39,139.26c1,3.8,3.67,10.36,12.77,10.28-9,0-8.83-9-8.14-11.86,1-4.06,4.58-12.92,12.31-17.24,9.33-5.22,19,4.12,15.51,14.08a0,0,0,0,1,0,0,29.4,29.4,0,0,1-5.69,8.54,31.58,31.58,0,0,0,5.75-7,30.26,30.26,0,0,0,1.68-3.21c4-9.56.66-16.41-5.85-20-4-2.2-10.49-1.62-19.17,4.63s-10.17,17.91-9.15,21.77Z"/><path class="cls-2" d="M175.16,149.54h.45l.36,0a17.85,17.85,0,0,0,6.2-1.51,22.12,22.12,0,0,0,7-4.91,29.66,29.66,0,0,0,5.69-8.54,0,0,0,0,1,0,0c3.46-10-6.17-19.3-15.51-14.08C171.6,124.78,168,133.64,167,137.7,166.32,140.56,166.16,149.54,175.16,149.54Z"/><path class="cls-2" d="M174,137.84c0,5.59,3.43,9.85,7.79,10.15l.39,0a22.12,22.12,0,0,0,7-4.91,29.66,29.66,0,0,0,5.69-8.54c-.35-5.26-2.34-8.73-7.74-9.55-6.19-.95-13.09,6.51-13.09,12.84Z"/><path class="cls-2" d="M198.31,89.31l1.41,1.34-1.65,17.17s-11.2,36.72-12.73,36.17-3.55-1.68-3.62-2.94,3.06-39.6,3.66-47a1.88,1.88,0,0,1,1.24-1.62c2.44-.87,8.12-2.9,10.23-3.51a1.5,1.5,0,0,1,1.46.35Z"/><path class="cls-2" d="M189,94.42a1.54,1.54,0,0,0-1.57,1.38l-4.69,45.09s-.44,3.46,5.36,3.46,7.22-7.63,7.58-11.59,4-42.11,4-42.11A18,18,0,0,1,194,93.7a15.32,15.32,0,0,1-5,.72Z"/><path class="cls-2" d="M180.13,105.09c0,3.2,2.24,5.8,5,5.8a11.87,11.87,0,0,0,3.71-.37c1.4-.5,3.25-3.34,3.25-5.07a10.15,10.15,0,0,0-1.9-4.9c-.92-1.17-3.58-1.25-5.05-1.25-2.77,0-5,2.6-5,5.8Z"/><ellipse class="cls-2" cx="187.08" cy="105.09" rx="5.01" ry="5.8"/><path class="cls-2" d="M69.28,77.94c.14,0,12.26,6.66,12.26,6.66A170,170,0,0,1,91.73,61a174.08,174.08,0,0,1,12.09-19.82C112.18,29.38,123,17.59,136.56,9.48c4.83-2.9,23.31-4.76,27.64-4.28,3.87.43-17.09-7.93-33.06-3.29-6.74,2-11.67,6.94-15.53,9.71-6.66,4.78-19.32,16-31.63,36.33a183.51,183.51,0,0,0-10.62,20.4c-1.28,2.87-2.86,6.48-4.08,9.6Z"/><path class="cls-2" d="M54.62,59.28s-13.77,7.66-25.37,11S10.95,74.88,7,76.1s-6.1,3.1-6.1,18,2,30.56,7.63,38.6S32,151.16,43.29,157.47l56.28,18c4.44-3.86,2.51-3.46,6.88-7.12s18.21-14.85,18.21-14.85a43.37,43.37,0,0,1,6.66-5.39c2.9-1.68,17.09-9.89,19.07-21.88s4.12-22.52-18.16-32.89c-9.15-4-44.55-6.26-56.45-12.51s-18.46-13.43-20-18.31A8.39,8.39,0,0,1,55.43,60a.72.72,0,0,0-.71-.73h-.1Z"/><path class="cls-2" d="M90.57,177.89c10.48,1.48,12.12-9.33,12.42-13.4s0-24.41,0-28.27c0-7.73-6.31-20.9-25.38-27.46s-56.75-26.39-63-29.9S4.84,75,1.68,79.81c-1.81,2.75-1.31,23.83,0,34.63s1.2,17.8,21.22,30.08C40.46,155.29,68.13,172.3,87,177.45Z"/><path class="cls-2" d="M88.65,177.75c10.48,1.48,11.7-9.6,12-13.67s0-21.87,0-25.73c0-3.2-4-20.6-23-27.16s-56.75-26.39-63-29.9-11.26-5.34-12.26,0S1.46,105,2.77,115.8s4.31,19.95,22,30.55,45.06,26.26,63.92,31.4"/><path class="cls-2" d="M82,83.21c-1.12-.48-2.21-1-3.29-1.53l-.81-.4-.8-.41-.8-.41-.8-.42-1.59-.84-1.57-.87-.78-.46-.76-.47-.37-.24-.36-.25-.35-.26-.17-.13-.08-.07-.07-.06-.47.35.1.1.09.09.18.15.37.29q.37.28.76.53.76.51,1.56,1c.53.31,1.07.59,1.6.88l.81.42.82.4c1.09.53,2.19,1,3.32,1.5q.84.34,1.7.64c.57.2,1.15.39,1.74.54Z"/><path class="cls-2" d="M112.4,151.16c-1.37,0-2.59-1.45-2.59-5s-.05-11.9,0-13.27c.08-2,.36-2.55,1.83-3.53l50.85-27.26a3.82,3.82,0,0,1,3,3.76v16.37l-49.81,28.17a5.55,5.55,0,0,1-2.73.72Z"/><path class="cls-2" d="M111.49,129.8c-1,0-1.6,1.14-1.68,3.13-.05,1.37,0,9.76,0,13.27s1.22,5,2.59,5,2-.92,2-2.44v-15C114.39,131,112.48,129.8,111.49,129.8Zm4.88,3.66V148.8L165,121.26V106.84Z"/><path class="cls-2" d="M116.37,134.61V147.2s.14,1,1.37.61c3.36-1.07,38.9-21.74,38.9-21.74v-13.2Z"/><path class="cls-2" d="M43.65,104.87a3.34,3.34,0,0,1,0,.47c0,1.08,0,2.16,0,3.25a2.44,2.44,0,0,0,.92,1.84c.93.78,1.84.57,1.92-.44s.06-2.08.08-3.12v-.63l1.34.62c0,1.38.09,2.78,0,4.09-.13,1.94-1.85,1.91-3.24.91a14.33,14.33,0,0,1-1.18-1.05l-.06.46-1.18-.52v-6.52l1.39.64ZM37.49,102c0,1.45.07,2.9,0,4.25-.12,1.75-1.44,2.24-3,1.21a14.69,14.69,0,0,1-1.4-1.18l0,.45-1.2-.52V99.41l1.39.64v.5c0,1.15,0,2.34.05,3.52a2.44,2.44,0,0,0,.92,1.78c1,.81,1.85.54,1.92-.64s.06-2.23.06-3.35v-.45l1.35.62ZM25.78,97.11c1-.48,2.54.07,3.56,1.22a3.3,3.3,0,0,1,.93,2.31,1,1,0,0,1-1.12,1.13c-.39,0-.79-.1-1.18-.14a2.87,2.87,0,0,0-.84,0c-.46.09-.43.71,0,1.18a2.52,2.52,0,0,0,.63.45,2.31,2.31,0,0,0,2,.1l.79,1.58a8.44,8.44,0,0,1-1.38.19,3.88,3.88,0,0,1-2.76-1.32,3.44,3.44,0,0,1-1-2.39c0-.86.39-1.28,1-1.34a7,7,0,0,1,1.21.07,4,4,0,0,0,.84.06.39.39,0,0,0,.32-.36,1.29,1.29,0,0,0-.34-.69,2.37,2.37,0,0,0-.86-.53,7.31,7.31,0,0,0-1.25-.15l-.65-1.34Zm24.17,15.16c.87,1,1.81,1.45,2.46,1.05s.69-1.35.25-2.28A2.83,2.83,0,0,0,50,109.43L49.18,108c1.24-.56,3.34.58,4.39,2.33s.94,4.06-.28,4.64-3.36-.45-4.37-2.15l1-.5ZM39.16,99.2l1.36.65V110l-1.36-.59Zm19.29,12.33c-1.76-.8-3.08,0-3.07,1.84a5.29,5.29,0,0,0,3.09,4.54c1.77.76,3.09,0,3.09-1.82a5.39,5.39,0,0,0-3.1-4.56Zm0,5A2.9,2.9,0,0,1,56.76,114c0-1,.71-1.48,1.7-1a2.94,2.94,0,0,1,1.69,2.51c0,1-.71,1.47-1.69,1Z"/></g><path class="cls-3" d="M429.06,171.2v-7.54a5.27,5.27,0,0,1,0-2.71V160a35.71,35.71,0,0,1-.42-5.21,102.24,102.24,0,0,0-12.54-39.49A106,106,0,0,0,399,92.29a107.53,107.53,0,0,0-60.34-31.89c-8.26-1.43-16.58-1.16-24.91-1a89.69,89.69,0,0,0-24.87,4.18,107.17,107.17,0,0,0-39.56,21.8,108.4,108.4,0,0,0-36.78,67.41c-.34,2.42-.1,4.89-.53,7.31v1.81a4,4,0,0,1,0,2.41v7.23a8,8,0,0,1,.15,2.4v1.69c.08,10.21,2.41,20,5.87,29.53a106.09,106.09,0,0,0,21.23,35.45A108.84,108.84,0,0,0,305,275.79c2.67.38,5.39.12,8.05.6h.9a4,4,0,0,1,2.41,0h7.54a8,8,0,0,1,2.4-.15H328c10.17,0,19.91-2.33,29.4-5.72a105.89,105.89,0,0,0,33.13-19,108.12,108.12,0,0,0,34.41-52,110.06,110.06,0,0,0,3.57-16.16c.35-2.42.09-4.89.58-7.3v-.9c-.32-.59-.07-1.23-.15-1.84C429,172.59,428.74,171.88,429.06,171.2Z"/><g id="Layer_2" data-name="Layer 2"><g id="vive"><g id="Layer_29" data-name="Layer 29"><path class="cls-4" d="M261.85,172.79s-1.07-8.12-7.36-12.47-17.66.6-17.66.6l3.92,12.41Z"/><path class="cls-5" d="M338.69,60.39c6.5,2,18.94,7.89,25.16,13.19,10.31,8.67,23.61,23.69,22.58,25.57l20.63,5c-14.5-23.21-35-35.45-39.6-36.71C362.35,65.64,356.7,62.89,338.69,60.39Z"/><path class="cls-4" d="M270.74,117.26a257.22,257.22,0,0,0-17.87,29.28,45.85,45.85,0,0,1,6.2-2.63c14.65-4.9,18.26.39,24.12,2.42s28.63,17.81,39,23.67,24.8,12.4,41.2,21,49,17.24,54.38,17.81c4,.42,5.41-2.25,6.31-5.64s.68-22.77,0-40.8-9.24-46.21-12.51-53.43S400.42,93.36,394.1,92s-12.4,5.64-14.88,9.69-23.9,29.76-32.28,36.75-17.32,5.41-24.08,2-12.4-9.69-28.18-17.36c-9.87-4.79-17.35-6.31-23.95-5.86Zm97.82,48.32c-6.44-3.58-6.65-12.3-1.81-17.85l24.68-28.35a4.59,4.59,0,0,1,7.49.82l.43.79a66.52,66.52,0,0,1,5.53,13.5c2.95,10.31,4.38,18.85,5.68,30.79.72,6.6-1.88,15.48-10,14l-6.86-2.46A180.36,180.36,0,0,1,369.45,166l-.88-.47Z"/><path class="cls-6" d="M425,204.08a10,10,0,0,1-5.46,4.7c-3.38,1-10.76-1.75-10.76-1.75s6.56-5.13,9.45-5.36S425,204.08,425,204.08Z"/><path class="cls-7" d="M360,209.91s42-24.9,51.7-28.63c4.92-1.89,11-4.61,17-5.18,5.59-.55,4.06,6,3.31,8.27s-7.36,20.74-7.36,20.74a6.73,6.73,0,0,0-8-2.1c-5.11,2-56.66,31.41-56.66,31.41Z"/><path class="cls-8" d="M204.74,140.47s-27.05,14.88-44.18,19.84-27.05,6.76-32.91,8.57-8.34,5.26-8.34,27.2,2.32,44.48,10.6,56.36,34.72,27.35,51.4,36.67,51.55,27.78,67,30c0,0,9.57,2.34,16.13-3.37s3.71-5.11,10.17-10.52,26.9-21.94,26.9-21.94,18.49-3.46,31.41-15.48,17-22.24,18.33-25.55,7-24.42-1.58-39.07-24.57-19.61-36.52-22.54-57.94-2.71-80.25-16.91-21.64-28.18-21.64-28.18l-2.48,6.31Z"/><path class="cls-9" d="M199.5,147.72s4.84-1.33,6.14,2.11-1.67,6.45-1.67,6.45a8.27,8.27,0,0,1-3.69-4.7c-1.29-3.58-.79-3.85-.79-3.85Z"/><path class="cls-10" d="M211.28,135.52s-2.59,6.76-3.38,8.9-2.69,13.37-2.69,13.37,15,17.71,21.75,20.67,23.71,5.74,49.25,7.17,45.91,5.34,56.2,13.3,12.92,15,15.1,21.87,6.83,0,6.83,0,3-16.59-17.1-30.66-51.43-11.27-68.74-15S238,168.65,227,159.52,211.43,142.65,211.28,135.52Z"/><path class="cls-9" d="M198.53,144.73a2.69,2.69,0,0,0,1,3l8.4-3.3,1.43-2.41-4.59-1.53-6.87,3.65Z"/><path class="cls-11" d="M230.89,133.71l-2-21-10.65,7.82L220.67,144l10.22-10.31Z"/><path class="cls-12" d="M220.67,144l-2-20.08a6.09,6.09,0,0,1,2.45-5.51l7.84-5.76h-2a6.89,6.89,0,0,0-4.15,1.39l-5.17,3.9a6.09,6.09,0,0,0-2.39,5.52L217.36,143Z"/><path class="cls-4" d="M223,138.22s-5.86,5.18-4.51,10.4c.67,2.57,4,6,7.21,8.79a271.15,271.15,0,0,1,15.69-30.14c-12.58,5.12-18.4,10.95-18.4,10.95Z"/><path class="cls-13" d="M349.69,203.14c-8.57-14.65-24.57-19.61-36.52-22.54s-57.94-2.71-80.25-16.91-21.64-28.18-21.64-28.18L223,138.22s-1.35,15.55,16.91,24.35,25.7,10.37,47.57,12.4,32.18,4.36,43.48,10.64S349.69,203.14,349.69,203.14Z"/><path class="cls-12" d="M349.69,203.14a62.78,62.78,0,0,0-6-7.32,59.19,59.19,0,0,0-7-6.36c-.64-.46-1.26-.94-1.92-1.4l-1-.66-.49-.33c-.16-.11-.33-.22-.5-.32-.69-.4-1.35-.83-2-1.19s-1.39-.75-2.1-1.1a65.89,65.89,0,0,0-8.73-3.68,79.42,79.42,0,0,0-9.14-2.48c-3.09-.64-6.21-1.15-9.34-1.59l-2.35-.31c-.78-.1-1.57-.19-2.36-.28-1.56-.19-3.14-.34-4.72-.51l-9.45-.9a146.47,146.47,0,0,1-18.8-2.81,83.31,83.31,0,0,1-9.13-2.71c-3-1.08-5.91-2.31-8.81-3.59-1.44-.66-2.89-1.32-4.31-2l-1.07-.51c-.36-.17-.72-.34-1.07-.52l-1.07-.54c-.35-.18-.7-.39-1-.58-.7-.38-1.37-.83-2-1.25l-1-.68-.49-.35-.47-.37-.47-.37-.23-.18-.23-.2-.9-.78-.87-.83c-.15-.14-.29-.28-.42-.42l-.43-.44a26.25,26.25,0,0,1-5.2-8,20.45,20.45,0,0,1-.81-2.25c-.23-.77-.43-1.55-.58-2.33a23.74,23.74,0,0,1-.34-2.38,16.4,16.4,0,0,1-.06-2.43l.25.35-11.72-2.71.41-.31a9.27,9.27,0,0,0,.07,1.22c0,.41.11.83.19,1.24a20.55,20.55,0,0,0,.63,2.43,28.18,28.18,0,0,0,2,4.63,39.91,39.91,0,0,0,6,8.16c1.17,1.24,2.39,2.41,3.65,3.54.32.28.64.55,1,.83s.64.56,1,.82c.67.53,1.33,1.07,2,1.57a63.14,63.14,0,0,0,8.55,5.5,69.12,69.12,0,0,0,9.37,4q4.82,1.66,9.79,2.85a203.66,203.66,0,0,0,20.06,3.7c6.76.93,13.53,1.63,20.31,2.29,3.39.34,6.79.66,10.17,1.06,1.69.2,3.39.43,5.07.73l.63.11.63.14c.42.09.83.19,1.25.3l2.48.64a94.77,94.77,0,0,1,9.74,3.14,60,60,0,0,1,9.2,4.47,43.71,43.71,0,0,1,8.1,6.23,38.21,38.21,0,0,1,6.26,8.05Zm0,0a38.17,38.17,0,0,0-6.32-8,43.58,43.58,0,0,0-8.12-6.15,59.83,59.83,0,0,0-9.21-4.38,94.47,94.47,0,0,0-9.74-3.05c-1.65-.42-3.29-.86-5-1.16s-3.36-.51-5.05-.71c-3.38-.39-6.78-.7-10.17-1-6.79-.63-13.58-1.3-20.34-2.2a195.21,195.21,0,0,1-20.14-3.64c-3.32-.8-6.61-1.74-9.84-2.85a69.72,69.72,0,0,1-9.45-4l-1.13-.6-.28-.15-.28-.16-.55-.33-1.1-.66c-.37-.22-.72-.47-1.08-.69l-1.07-.7L229.8,162l-1.05-.74-1-.77c-.7-.5-1.35-1-2-1.58-.34-.26-.66-.54-1-.82s-.66-.55-1-.84c-1.28-1.14-2.52-2.32-3.69-3.57a40.47,40.47,0,0,1-6.09-8.28,28.84,28.84,0,0,1-2.05-4.73,21.23,21.23,0,0,1-.65-2.51q-.13-.64-.2-1.29a9.73,9.73,0,0,1-.08-1.33.34.34,0,0,1,0-.07.33.33,0,0,1,.39-.25l11.72,2.71a.33.33,0,0,1,.26.36,15.89,15.89,0,0,0,.05,2.31,23.07,23.07,0,0,0,.33,2.32,21.3,21.3,0,0,0,.56,2.27c.23.75.48,1.49.78,2.21a25.61,25.61,0,0,0,5.06,7.83l.4.43c.13.14.27.28.41.41l.85.81.89.77.23.19.23.18.46.36.46.36.48.34,1,.68c.67.41,1.31.86,2,1.23.35.19.68.39,1,.58l1,.54c.35.18.7.35,1.06.52l1.07.51c1.42.69,2.86,1.34,4.3,2,2.89,1.29,5.8,2.51,8.76,3.59a82.75,82.75,0,0,0,9.06,2.69c3.07.72,6.18,1.29,9.31,1.74s6.27.81,9.42,1.13l9.45.94c1.56.17,3.14.33,4.72.53.78.1,1.57.18,2.36.29l2.35.32c3.14.45,6.26,1,9.36,1.64a76.4,76.4,0,0,1,9.17,2.53,66.13,66.13,0,0,1,8.72,3.76c.7.37,1.4.74,2.09,1.13s1.37.81,2,1.21a5.87,5.87,0,0,1,.5.32l.49.33,1,.68c.65.45,1.27.94,1.91,1.41a59.32,59.32,0,0,1,7,6.42,62.83,62.83,0,0,1,6,7.37Z"/><path class="cls-14" d="M372.69,112.52l-4.45-3.89a1.25,1.25,0,0,0-1.77.12l0,0L355.5,121.91a2,2,0,0,0,0,2.63,12.16,12.16,0,0,0,3.42,2.73c3.17,1.71,13.76-14.75,13.76-14.75Z"/><path class="cls-15" d="M357.28,262.21c1.48,5.62,5.43,15.31,18.87,15.19-13.3,0-13.05-13.28-12-17.52,1.44-6,6.76-19.09,18.19-25.47,13.79-7.71,28,6.09,22.91,20.81a0,0,0,0,1,0,0,43.44,43.44,0,0,1-8.41,12.62,46.66,46.66,0,0,0,8.49-10.38,44.71,44.71,0,0,0,2.48-4.75c5.94-14.13,1-24.25-8.64-29.53-5.92-3.25-15.51-2.4-28.33,6.84s-15,26.46-13.52,32.17Z"/><path class="cls-16" d="M376.15,277.4h.67l.53,0a26.38,26.38,0,0,0,9.16-2.23,32.69,32.69,0,0,0,10.29-7.26,43.82,43.82,0,0,0,8.41-12.62,0,0,0,0,1,0,0c5.12-14.72-9.12-28.52-22.91-20.81-11.42,6.38-16.75,19.47-18.19,25.47C363.09,264.12,362.85,277.4,376.15,277.4Z"/><path class="cls-15" d="M374.42,260.1c0,8.26,5.07,14.56,11.52,15l.58,0a32.69,32.69,0,0,0,10.29-7.26,43.82,43.82,0,0,0,8.41-12.62c-.52-7.77-3.46-12.89-11.44-14.11-9.15-1.4-19.35,9.62-19.35,19Z"/><path class="cls-17" d="M410.36,188.4l2.08,2L410,215.74S393.46,270,391.19,269.19s-5.24-2.48-5.35-4.35c-.1-1.7,4.53-58.51,5.41-69.37a2.78,2.78,0,0,1,1.84-2.39c3.61-1.29,12-4.28,15.12-5.18a2.21,2.21,0,0,1,2.16.51Z"/><path class="cls-18" d="M396.64,195.95a2.28,2.28,0,0,0-2.32,2l-6.93,66.62s-.65,5.11,7.91,5.11,10.67-11.27,11.2-17.13,5.94-62.22,5.94-62.22a26.57,26.57,0,0,1-8.42,4.51,22.64,22.64,0,0,1-7.38,1.07Z"/><path class="cls-14" d="M383.49,211.71c0,4.73,3.31,8.57,7.4,8.57a17.54,17.54,0,0,0,5.48-.55c2.06-.74,4.8-4.94,4.8-7.49,0-2.22-1.62-5.72-2.81-7.25-1.35-1.72-5.29-1.85-7.46-1.85-4.09,0-7.4,3.83-7.4,8.56Z"/><ellipse class="cls-19" cx="393.77" cy="211.71" rx="7.4" ry="8.57"/><path class="cls-20" d="M219.69,171.59c.21,0,18.11,9.84,18.11,9.84a251.23,251.23,0,0,1,15.07-34.89,257.22,257.22,0,0,1,17.87-29.28c12.35-17.41,28.4-34.83,48.37-46.82,7.14-4.28,32.53-6.68,38.93-6,5.71.63-23.34-12.07-46.93-5.22-10,2.89-17.25,10.25-23,14.35-9.84,7.06-28.55,23.63-46.74,53.68a271.15,271.15,0,0,0-15.69,30.14c-1.89,4.24-4.22,9.57-6,14.18Z"/><path class="cls-21" d="M198,144s-20.35,11.33-37.48,16.29-27.05,6.76-32.91,8.57-9,4.58-9,26.53,3,45.16,11.27,57,34.72,27.35,51.4,36.67l83.16,26.6c6.56-5.71,3.71-5.11,10.17-10.52s26.9-21.94,26.9-21.94,5.56-5.48,9.84-8,25.25-14.61,28.18-32.33,6.09-33.27-26.83-48.6c-13.53-5.86-65.83-9.24-83.41-18.49S202,156,199.78,148.82a12.4,12.4,0,0,1-.54-3.72,1.06,1.06,0,0,0-1.05-1.08H198Z"/><path class="cls-22" d="M251.16,319.28c15.48,2.19,17.91-13.79,18.36-19.8s0-36.07,0-41.78c0-11.42-9.32-30.88-37.5-40.58s-83.86-39-93.1-44.18-14.43-5.66-19.11,1.43c-2.67,4.06-1.94,35.21,0,51.17s1.77,26.3,31.36,44.44c25.94,15.91,66.83,41.05,94.7,48.66Z"/><path class="cls-23" d="M248.32,319.08c15.48,2.19,17.28-14.19,17.73-20.2s0-32.31,0-38c0-4.73-5.86-30.43-34-40.13s-83.86-39-93.1-44.18-16.64-7.89-18.12,0-1.31,35,.63,51,6.37,29.47,32.45,45.15,66.57,38.8,94.45,46.4"/><path class="cls-10" d="M238.5,179.38c-1.66-.7-3.26-1.48-4.86-2.25l-1.19-.59-1.19-.6-1.18-.61-1.18-.62-2.35-1.25c-.78-.43-1.55-.85-2.32-1.29l-1.15-.68L222,170.8c-.19-.11-.37-.23-.55-.35l-.54-.37-.52-.38-.25-.19-.12-.1-.1-.08-.69.52.14.15.13.13a2.67,2.67,0,0,0,.27.23l.54.43q.55.41,1.13.78,1.13.75,2.31,1.42c.78.45,1.58.87,2.36,1.3l1.2.62,1.21.59c1.61.79,3.24,1.54,4.9,2.21q1.24.51,2.52.94c.85.3,1.7.58,2.57.79Z"/><path class="cls-23" d="M283.42,279.79c-2,0-3.83-2.14-3.83-7.33s-.08-17.58,0-19.61c.11-2.93.53-3.76,2.71-5.22l75.14-40.28a5.64,5.64,0,0,1,4.4,5.56v24.2l-73.6,41.62a8.2,8.2,0,0,1-4,1.06Z"/><path class="cls-10" d="M282.06,248.23c-1.47,0-2.37,1.69-2.48,4.62-.08,2,0,14.43,0,19.61s1.8,7.33,3.83,7.33,2.93-1.35,2.93-3.61V254C286.35,250,283.53,248.23,282.06,248.23Zm7.21,5.41V276.3l71.8-40.69V214.3Z"/><path class="cls-24" d="M289.28,255.33v18.6s.2,1.48,2,.9c5-1.58,57.49-32.12,57.49-32.12v-19.5Z"/><path class="cls-25" d="M182,211.44a1.91,1.91,0,0,1,0,.27c0,.62,0,1.23,0,1.86a1.39,1.39,0,0,0,.53,1.05c.53.45,1.05.33,1.1-.25s0-1.19,0-1.78v-.36l.77.35c0,.79.05,1.59,0,2.34-.08,1.11-1.06,1.09-1.86.52a8.2,8.2,0,0,1-.68-.6l0,.26-.68-.3v-3.73l.79.37Zm-3.52-1.63c0,.83,0,1.66,0,2.43-.07,1-.83,1.28-1.73.69a8.4,8.4,0,0,1-.8-.68l0,.25-.69-.3v-3.9l.79.37V209c0,.66,0,1.34,0,2a1.39,1.39,0,0,0,.53,1c.56.46,1.06.31,1.1-.37s0-1.28,0-1.92v-.26l.77.35Zm-6.7-2.81a1.92,1.92,0,0,1,2,.7,1.89,1.89,0,0,1,.53,1.32.58.58,0,0,1-.64.65c-.23,0-.45-.06-.68-.08a1.64,1.64,0,0,0-.48,0c-.26,0-.25.4,0,.68a1.44,1.44,0,0,0,.36.26,1.32,1.32,0,0,0,1.17.06l.45.9a4.83,4.83,0,0,1-.79.11,2.22,2.22,0,0,1-1.58-.76,2,2,0,0,1-.59-1.37c0-.49.23-.73.59-.77a4,4,0,0,1,.69,0,2.31,2.31,0,0,0,.48,0,.23.23,0,0,0,.18-.21.74.74,0,0,0-.19-.39,1.35,1.35,0,0,0-.49-.3,4.18,4.18,0,0,0-.71-.09l-.37-.77Zm13.82,8.67c.5.59,1,.83,1.41.6s.39-.77.14-1.31a1.62,1.62,0,0,0-1.52-.92l-.47-.84c.71-.32,1.91.33,2.51,1.33s.54,2.32-.16,2.65-1.92-.25-2.5-1.23l.59-.29Zm-6.17-7.48.78.37v5.81l-.78-.34Zm11,7.05c-1-.46-1.76,0-1.76,1.05a3,3,0,0,0,1.77,2.59c1,.43,1.77,0,1.77-1a3.08,3.08,0,0,0-1.77-2.61Zm0,2.84a1.66,1.66,0,0,1-1-1.44c0-.59.41-.85,1-.59a1.68,1.68,0,0,1,1,1.44c0,.59-.4.84-1,.59Z"/></g></g></g></g></g></svg>