<svg xmlns="http://www.w3.org/2000/svg" xmlns:xlink="http://www.w3.org/1999/xlink" viewBox="0 0 983.41 515.04"><defs><style>.cls-1{stroke:#393e46;fill:url(#Degradado_sin_nombre_27);}.cls-1,.cls-10,.cls-18,.cls-2,.cls-3,.cls-4,.cls-5,.cls-6{stroke-miterlimit:10;}.cls-2{fill:#f9f9f9;}.cls-2,.cls-4{stroke:#3185ff;}.cls-10,.cls-18,.cls-3,.cls-4,.cls-5{fill:none;}.cls-3,.cls-5{stroke:#00adb5;}.cls-3{stroke-width:2px;}.cls-11,.cls-6{fill:#fcfcfc;}.cls-10,.cls-6{stroke:#222831;}.cls-7{fill:#222831;}.cls-8{fill-rule:evenodd;}.cls-13,.cls-9{fill:#00adb5;}.cls-11,.cls-13{font-size:51.4px;font-family:MyriadPro-Regular, Myriad Pro;}.cls-12{letter-spacing:-0.01em;}.cls-14{letter-spacing:0.01em;}.cls-15{letter-spacing:-0.03em;}.cls-16{letter-spacing:0em;}.cls-17{fill:aqua;opacity:0.17;}.cls-18{stroke:aqua;}</style><radialGradient id="Degradado_sin_nombre_27" cx="491.71" cy="457.41" r="349.68" gradientTransform="translate(3236.18 -34.29) rotate(90) scale(1 6)" gradientUnits="userSpaceOnUse"><stop offset="0"/><stop offset="0.16" stop-color="#393e46"/></radialGradient></defs><title>Recurso 1</title><g id="Capa_2" data-name="Capa 2"><g id="Capa_1-2" data-name="Capa 1"><ellipse class="cls-1" cx="491.71" cy="457.41" rx="491.21" ry="57.13"/><rect class="cls-2" x="268.71" y="34.27" width="563" height="411"/><line class="cls-3" x1="831.58" y1="34.93" x2="647.29" y2="1.53"/><line class="cls-4" x1="831.58" y1="445.27" x2="646.79" y2="358.31"/><line class="cls-3" x1="269.56" y1="442.05" x2="152.21" y2="359.67"/><line class="cls-3" x1="269.06" y1="34.93" x2="152.21" y2="0.96"/><polygon class="cls-5" points="151.71 359.27 269.06 359.27 646.71 359.27 646.71 34.93 646.71 1.27 151.71 1.27 151.71 359.27"/><polyline class="cls-3" points="646.71 33.77 646.71 1.27 151.71 1.27 151.71 359.27 268.21 359.27"/><circle class="cls-6" cx="521.81" cy="330.21" r="9.65"/><rect class="cls-6" x="510.71" y="340.27" width="22" height="39"/><rect class="cls-6" x="532.71" y="340.27" width="10" height="39"/><rect class="cls-6" x="501.71" y="340.27" width="9" height="39"/><rect class="cls-6" x="525.71" y="379.27" width="7" height="42"/><rect class="cls-6" x="510.71" y="379.27" width="8" height="42"/><rect class="cls-7" x="515.21" y="326.77" width="19" height="6"/><rect class="cls-7" x="510.21" y="326.77" width="7" height="4"/><polygon points="533.84 422.77 525.63 422.77 656.02 404.49 658.6 408.01 533.84 422.77"/><polygon points="518.09 422.77 509.89 422.77 650.06 397.66 654.68 401.98 518.09 422.77"/><polygon points="657.09 408.19 650.06 397.66 707.17 388.32 732.9 400.43 657.09 408.19"/><polygon points="747.23 327.31 711.16 328.83 699.58 350.73 707.17 388.32 732.9 400.43 747.23 327.31"/><path class="cls-8" d="M726.44,328.85c9.55-8.88,24.44-6.59,26.12-6.33.24,0,.45-1.49.69-1.34a1.7,1.7,0,0,0,.56.23c1.75.31,3.31-.53,4.77-1.61,2-1.49,3.89-3.2,5.88-4.71a6.28,6.28,0,0,1,2.47-1.22,3.42,3.42,0,0,0,2.21-1.91c.74-1.25,1.47-2.51,2.23-3.73a1.74,1.74,0,0,1,.76-.7c1.76-.64,2.69-2.49,3.64-4.33.39-.77.75-1.56,1.17-2.42l1.3,1.82h.25a38.69,38.69,0,0,1,4.56-13.2l1.15,5.12h.27a4.44,4.44,0,0,0,.28-1.07c0-2.58,0-5.17,0-7.75,0-.23-.4-.57-.64-.63-1.17-.28-2.43-.27-3.37-1.43-.57-.71-1-1.58-1.61-2.46.16,1.17.31,2.26.46,3.36.06.44.08.89.15,1.33.35,2.18-.17,3.67-1.72,4.74s-2.68,3.31-3.65,5.42c-.47,1-.94,2.07-1.39,3.12-1.12,2.62-3,3.29-5.16,3.72l.93-8.18c-.73.26-1.29.51-1.87.66-1.48.38-2.18-.3-2.16-2.29,0-2.73.16-5.46.35-8.18a86.51,86.51,0,0,0-.17-13.46,1.56,1.56,0,0,0-.6-1c-.7-.45-1.47-.7-2.17-1.15a1.57,1.57,0,0,1-.57-1c-.2-3.34-.33-6.69-.52-10,0-.83.11-1.14.76-1.24a12,12,0,0,0,2.51-.7,2.34,2.34,0,0,0,1.32-2.12c.1-1.06.13-2.13.12-3.2s-.65-1.34-1.19-1.75A15.29,15.29,0,0,1,763,248c-.33-.32-.85-1-.79-1.2a5.15,5.15,0,0,1,1.15-1.7,5.52,5.52,0,0,1,1.39-.78V244l-2.1-1.67c1.3-2.38,3.17-1.72,5-1.57-.35-1.7-1.69-1.79-2.31-2.9a5.08,5.08,0,0,1,6.58,2.35,29.08,29.08,0,0,1,1.85,4.27,3.4,3.4,0,0,1-.6,3.31A1.84,1.84,0,0,0,773,250a8.56,8.56,0,0,1,.35,5.69c-.21,1-.54,1.18-1.23,1s-1.16-.69-1.65.16a1.56,1.56,0,0,0-.21.92c.28,1.37.65,2.7.91,4.07a2.49,2.49,0,0,1-.12,1.44c-1.83,3.25-1.55,6.78-1,10.43.39,2.46,1.38,4,3.23,4.62.52.17.71.55.72,1.24,0,1.17.08,2.33.12,3.5l.24.13c.41-1.11.87-2.18,1.2-3.32a18.5,18.5,0,0,0,.34-6.16,32.67,32.67,0,0,1-.09-4.24c.1-1.28.52-2.5.73-3.76.28-1.71.57-3.43.7-5.16a8.78,8.78,0,0,1,2.48-5.86.81.81,0,0,1,1.13-.16c2.21,1.22,3.83,3.41,5.38,5.71a24.08,24.08,0,0,1,4.13,11.61,18.89,18.89,0,0,0,1.55,5.55,6.25,6.25,0,0,0,.11-.88c-.13-2.1-.23-4.2-.41-6.29a26.8,26.8,0,0,1,.3-7.62,18.65,18.65,0,0,0-1.7-12.53c-.46-.9-.54-1.53.27-2.14a1.51,1.51,0,0,0,.3-2.09c-.47-.94-.86-2-1.33-3l1.82-1.38c-.48-1-.9-1.88-1.35-2.76-1.38-2.73-1.6-6-2.21-9-.36-1.8-.76-3.59-1.27-5.31-.68-2.27-2.18-3.66-3.46-5.27-.47-.59-.88-1.27-1.32-1.9-.29-.41-.23-.75.14-1l2.77-1.67c-1.06-.62-2-1.27-3.07-1.8a4.9,4.9,0,0,1-2.52-3.66c-.35-1.74-1.2-2.73-2.57-3-1.13-.25-1.46-1-1.49-2.69,0-1.92,0-1.92-1.45-2.1a14.88,14.88,0,0,1-7.1-3.27c-1.62-1.25-3.22-2.53-4.86-3.74a1.25,1.25,0,0,1-.49-1.49,7.07,7.07,0,0,1,2.69-4.12,22.74,22.74,0,0,0,2.77-2.64,5.64,5.64,0,0,0,1.09-3.19,23.07,23.07,0,0,0-5.78,4.19,31.14,31.14,0,0,0-3.26,4.25,5,5,0,0,0-.42,2.4c0,1.3.27,2.61.27,3.91,0,1.88-.84,2.68-2.22,2.27l-1.49-.47c-.11,1.08-.24,2.09-.31,3.11,0,.65-.17,1.12-.73,1.24a2.47,2.47,0,0,0-.73.35c-.55.33-1.44.52-1.56,1a7,7,0,0,0,.19,4.23c.19.45.39.88.6,1.34-1.35.32-3.34-1.31-3.92-3.07a16.47,16.47,0,0,1-.5-5.51c0-.34,0-.68,0-1.24a10.33,10.33,0,0,0-2.11.84c-.2.13-.28,1-.2,1.41.16,1,.46,1.9.68,2.85a1,1,0,0,1-.44,1.25c-.69.47-1.33,1.1-2,1.57-.54.35-.6.81-.48,1.5.22,1.28.39,2.56.58,3.85-1.2.08-2.39-1-2.7-3a58.27,58.27,0,0,1-.46-6.15c0-.88.06-1.79.1-2.76-.16.05-.29,0-.33.12a2.4,2.4,0,0,1-2.81,1.39c-1.9-.24-2-.11-1.71,2.4.15,1.53.34,3.07.55,4.94-.94-.94-1.71-1.67-2.45-2.45a1.18,1.18,0,0,1-.21-.65c-.11-2-.23-3.93-.29-5.89a3.54,3.54,0,0,1,1.21-2.94,9.46,9.46,0,0,0,2.63-3.76c.31-.79.71-1,1.32-.83a26,26,0,0,0,2.92.68,1.42,1.42,0,0,0,1.08-.47,26.44,26.44,0,0,0,2-2.35c.33-.43.6-.49.93-.09.08.09.2.12.27.21,1.34,1.7,2.61,1.26,4,0a18.38,18.38,0,0,0,5-5.86,10.55,10.55,0,0,0-.29-9.38,9.5,9.5,0,0,0-.4,1.7c-.08,1.79-.1,3.59-.1,5.38a1.81,1.81,0,0,1-.69,1.66,6.53,6.53,0,0,0-1.46,1.55,3.92,3.92,0,0,1-3.5,1.88,20.35,20.35,0,0,1-3.43-.21c-3.35-.64-6.4.53-9.18,2.8s-5.88,3.22-9.19,2.44a.81.81,0,0,1-.74-.84c-.12-1.33-.24-2.67-.38-4.14-4.07.39-7.81,2.88-11.82,5a10.18,10.18,0,0,1,1-4.1c.95-1.94,2-3.78,3-5.67a22.86,22.86,0,0,0,2.48-7.75,17.1,17.1,0,0,0-7.34,4.86c-3.34,3.65-5.05,8.57-5.86,14.16.2-.39.42-.76.6-1.16,1.6-3.44,3-7.07,5.06-10.07a9.75,9.75,0,0,1,4.56-3.83,4.22,4.22,0,0,1,.43-.1l.18.25c-.82,1.38-1.61,2.8-2.48,4.13a28.6,28.6,0,0,0-3.74,7.23c-.87,2.77-.82,2.79,1.21,4,1.19.73,1.95.63,3-.59a9.92,9.92,0,0,1,3.43-2.36,45.88,45.88,0,0,1,4.5-1.7l.2.2c-.28.59-.46,1.5-.86,1.71a17,17,0,0,0-4.09,3.74c-1.1,1.21-2.26,2.33-3.41,3.45a2.59,2.59,0,0,0-.71,2.16c.07,1-.13,2.36.28,3s1.4.34,2.15.45a10.88,10.88,0,0,1,5.1,1.77,2.16,2.16,0,0,1,1,2.05,5.8,5.8,0,0,1-.63,0,22.62,22.62,0,0,0-9.54,1.95c-.46.18-.55.47-.5,1,.18,2.26.17,2.26-1.52,2.56-.8.15-1.6.32-2.4.42-.47.06-.66.32-.75.94a10.58,10.58,0,0,0,.64,6.2,3.4,3.4,0,0,1-.2,2.1c-.39,1-.16,1.44.55,1.73.3.12.59.28.89.39a2.05,2.05,0,0,1,.79,2.23c-1.66,3.91-4.18,6.15-7.55,6.68-.06,0-.14,0-.19-.07l2.08-3.83-3.67-.68c.57-.7,1-1.3,1.48-1.81a1,1,0,0,0,.1-1.55c-.87-1.1-.77-2.57-.74-4a8.74,8.74,0,0,0-1.37-5.35c-.26-.37-.65-.57-.92-1a4.73,4.73,0,0,0,2.28-3.72c-.71.37-1.34.69-2,1a19.77,19.77,0,0,1-2.52,1.38,4.11,4.11,0,0,1-2,.15c-1.14-.17-1.82.35-2.07,1.82,0,.27-.08.54-.11.82a3.79,3.79,0,0,1-2,3.23l1.27,2.16.17-.18c.16,1.16-.22,1.72-1.09,1.87a13.92,13.92,0,0,0-1.85.62c.26.5.45.92.68,1.32.42.75.46,1.86.08,1.85a2.49,2.49,0,0,1-1.57-.75c-.48-.45-.77-1.27-1.24-1.76-.21-.23-.67-.11-1,0a2.23,2.23,0,0,0,0,1c.13.9.3,1.79.45,2.68l-.28-.09a4.41,4.41,0,0,0-.85,1.31,9.2,9.2,0,0,1-5.31,6.75,16.7,16.7,0,0,0-7.15,5.89s-.09,0-.27.11a23.18,23.18,0,0,1,2.49-8.56l-.17-.24-3,2.14c.12-3.5,2.69-7.09,5.4-7.22,2.08-.1,4.17,0,6.25.06.7,0,1-.33.86-1.2-.16-1.57-.27-3.15-.53-4.69a2.91,2.91,0,0,0-.85-1.36c-.47-.5-.92-.59-1,.53a.69.69,0,0,1-.23.5c-1.29.53-2.57,1.26-4,.68s-2.21-2.27-1.93-4.64a49,49,0,0,1,1.21-6.18c.58-2.29,1.33-4.5,2-6.76.17-.58.42-.88.91-.91.73,0,1.45-.28,2.18-.26s1.07-.53,1.36-1.34c.72-2,1.42-4,2.31-5.86a18.77,18.77,0,0,1,2.14-3l.24.27c-.59,1.43-1.2,2.86-1.77,4.31q-1.07,2.71-2.08,5.45a2.5,2.5,0,0,1-1.93,1.85,22.62,22.62,0,0,0-2.4.45,1.09,1.09,0,0,0-.68.68c-.79,3.43-1.54,6.88-2.29,10.33a4.46,4.46,0,0,0-.07.82c-.06,2.44-.12,2.6,2,2.86a9.13,9.13,0,0,0,2.94-.41c.61-.13.81-.94.5-1.64a29.33,29.33,0,0,1-1.32-3,4.83,4.83,0,0,1-.14-2.09,25.84,25.84,0,0,1,.79-3,9.88,9.88,0,0,1,.38-1h.26l.59,4.86,4.48-2.83c-.06-.55-.13-1.33-.22-2.1-.07-.59.06-.89.54-1,.77-.17,1.52-.5,2.29-.63s.81-.38.56-1.21-.4-1.71-.61-2.58c-.39-1.65-.39-1.63.73-2.44a14.4,14.4,0,0,0,4.17-4.76c1.78-3.22,2.35-7,2.59-10.83.22-3.58.23-7.19.45-10.77.31-5.17,1.24-10.09,3.59-14.38.21-.38.43-.75.65-1.11l.21.06a11.39,11.39,0,0,1,0,1.57c-.38,2.75-.73,5.51-1.21,8.24a46.58,46.58,0,0,0-.13,14.91c.23,1.59.18,3.23.26,4.85a8.2,8.2,0,0,0,.27,1.77,17.37,17.37,0,0,0,2.31-5.72c.49-2.07.86-4.19,1.31-6.37.4.17.85.4,1.31.56s1,0,1.2-.74a34.73,34.73,0,0,0,2.08-8.11,13.77,13.77,0,0,1,1-3l1,2.73c.38,1,.87,1.12,1.37.22,1.41-2.52,2.82-5,4.19-7.59a15.73,15.73,0,0,0,.73-2,4.88,4.88,0,0,1,.47,2.93c0,1,0,2,0,3l.19.24,2.32-2.16a9.79,9.79,0,0,1,1.33.95c.57.56.89.24,1.29-.35,2.27-3.38,4.53-6.79,7.39-9.34a16.12,16.12,0,0,1,3-2,22.25,22.25,0,0,0-3.21,8.4c1.53-1.28,2.9-.6,4.16.47,2.87-4.36,7.36-8.72,10-9.61-.35.81-.61,1.52-.95,2.18a4.72,4.72,0,0,0,0,4.87,2.69,2.69,0,0,1,0,2.79c-.66,1.39-1.11,3-1.69,4.43a1.5,1.5,0,0,1-.62.73c-1,.53-2.05,1-3.08,1.49-1.32.63-1.86,2.07-2.29,3.76.14,0,.24.06.32,0,1.52-.81,3-1.61,4.56-2.45,1.88-1,2.88-3.16,3.8-5.41,1.25-3.08,2.83-5.79,5.19-7.56a12.41,12.41,0,0,1,5.88-2.28c.88-.12,1.77-.17,2.65-.22,2.12-.12,4-1.27,5.82-2.52,1.46-1,1.47-1,2.19,1a11,11,0,0,1,.4,1.34c.1.45.16.92.26,1.57,1.72-2.15,2.11-4.79,2.21-7.58h1.41a35.46,35.46,0,0,1-1,9.8,1,1,0,0,0,.41,1.22c.59.41,1.14.91,1.79,1.43a39.1,39.1,0,0,1-3,4.11,4.93,4.93,0,0,0-1.25,2.72c-.36,2.09-.74,4.17-1.07,6.27-.17,1.1-.25,2.23-.41,3.67.52-.35,1-.47,1.11-.79a27.16,27.16,0,0,0,.91-3.92c.21-1.49.17-3,.39-4.52a3.84,3.84,0,0,1,1.93-3.12c1.82-.82,3.67-1.55,5.51-2.32,2.68-1.12,5.36-2.29,8.21-2.43A8.26,8.26,0,0,1,791,167a5.29,5.29,0,0,1-1.61.89,19.54,19.54,0,0,0-7.16,3.43.86.86,0,0,0-.35,1.06c.33,1.2.66,2.4.93,3.62a.9.9,0,0,0,.85.82c2.21.46,4.43.86,6.61,1.52a42.38,42.38,0,0,1,4.74,2.1c-.88.86-1.31,1.88-2.31,2a9,9,0,0,0-2.31.65c-.57.2-.58.66-.21,1.22a6.74,6.74,0,0,1,1.23,3.5c0,.62.24.86.7,1a11.12,11.12,0,0,1,5,2.63c1.19,1.19,2.28,2.53,3.51,3.9l-2.08,1.83c.49,1.35,1,2.52,1.33,3.77a3.81,3.81,0,0,0,1.47,2.43,18.06,18.06,0,0,1,5.36,5.91c.62,1,1.14,2.07,1.78,3.25l-3.4,1.3a30.77,30.77,0,0,0,3.1,9.67,49.11,49.11,0,0,1,2.79,5.85,40.14,40.14,0,0,1,1.24,4.7l-3.79.76c.56,1.28.94,2.3,1.42,3.22a3.48,3.48,0,0,1,.07,3.48,3.79,3.79,0,0,0-.33,2.48,39.34,39.34,0,0,1,3,10.52c.34,2.17.45,4.41.68,6.76l-4.56-.75c.27,1.71.48,3.27.77,4.79a5.09,5.09,0,0,1-.56,3.62,7.89,7.89,0,0,0-.94,4.86q.11,1.23.24,2.47a48.73,48.73,0,0,1-.67,15.11c-.32,1.53-.37,1.59-1.47.92-.64-.39-1.25-.85-1.89-1.23s-1.34-.15-1.59.92a9.06,9.06,0,0,0-.3,2.23c0,1.59-.41,2.59-1.63,2.92-.63.18-.88.71-1,1.58-.57,3.9-1,7.85-2.22,11.52a18.58,18.58,0,0,1-2.74,5.39l-1.2-4.91c-1.22.52-1.62,1.07-2,2.61-.48,2.19-.48,2.21-2.13,2-.43-.06-.66.1-.84.63-.55,1.61-1.1,3.21-1.72,4.77a48.48,48.48,0,0,1-5.71,11.2,31.34,31.34,0,0,1-2.16,2.39l-.24-.22c.08-2.42.16-4.83.26-7.55a15.16,15.16,0,0,1-1.56,1.19c-.74.41-1.53,1-2.26,1-.55-.06-1.06-.21-1.51.2a19,19,0,0,0-1.69,1.82c-1.46,1.76-2.87,3.62-4.38,5.3a9.49,9.49,0,0,1-4,2.77,19,19,0,0,1-.26-1.95c0-.65.08-1.31.15-2.28-.83.82-1.43,1.48-2.08,2a1,1,0,0,1-.9.18c-1-.3-1.89-.77-2.86-1a1.62,1.62,0,0,0-1.4.29,3.61,3.61,0,0,1-3.51,1c-1.81-.51-19.88,3.56-20.41,6.24M696.7,208.59c2.66-.48,2.75-.48,2.75-3.63C698.17,205.29,696.58,207.37,696.7,208.59Z"/><rect class="cls-9" x="517.21" y="328.77" width="15" height="2"/><path class="cls-10" d="M653.07,222.41"/><path class="cls-10" d="M525.86,329.1"/><path class="cls-10" d="M831.58,156.54"/><path class="cls-10" d="M525.86,329.1"/><text class="cls-11" transform="translate(236.86 295.51) rotate(-90)">REALI<tspan class="cls-12" x="120.94" y="0">D</tspan><tspan x="154.45" y="0">AD</tspan></text><text class="cls-13" transform="translate(324.65 117.07)">VI<tspan class="cls-14" x="40.97" y="0">R</tspan><tspan x="69.08" y="0">T</tspan><tspan class="cls-15" x="94.63" y="0">U</tspan><tspan class="cls-16" x="126.13" y="0">AL</tspan></text><polygon class="cls-17" points="533.84 422.77 658.6 363.87 817.77 439.43 533.84 422.77"/><polygon class="cls-17" points="525.86 329.1 817.77 34.93 658.3 34.27 525.86 329.1"/><polygon class="cls-17" points="817.77 34.93 658.6 34.93 658.6 363.87 817.77 439.43 817.77 34.93"/><polygon class="cls-18" points="533.84 423.43 658.6 364.53 817.77 439.43 533.84 423.43"/><polygon class="cls-18" points="525.86 329.76 817.77 34.93 658.3 34.93 525.86 329.76"/><polygon class="cls-18" points="817.77 34.93 658.6 35.59 658.6 364.53 817.77 439.43 817.77 34.93"/></g></g></svg>