<svg xmlns="http://www.w3.org/2000/svg" viewBox="0 0 92.28 66.32"><defs><style>.cls-1{fill:#949b94;}.cls-2{fill:#871c03;}.cls-3{fill:#c9d8c8;}.cls-4{fill:#9d1010;}.cls-5{fill:#474640;}.cls-6{fill:#35332c;}.cls-7{fill:none;stroke:#0c0c0c;stroke-miterlimit:10;stroke-width:2px;}</style></defs><title>logo</title><g id="Capa_2" data-name="Capa 2"><g id="Capa_3" data-name="Capa 3"><path class="cls-1" d="M51.3,21.75l2.26.27s2.75,7.34-2.33,12.35l-6.08,3.94L40.44,38a1.1,1.1,0,0,0-1.19,1.19c-.08,1.3-.27,4.32-.27,4.32l6.39,9.06,5.14-3.07,19-7.69,9.06-9.06,5.64.89L82.59,23.2,92.28,19,84.12,8.41,76.9,9.91,74,8.31a8.29,8.29,0,0,1-5.92,1.84,24.43,24.43,0,0,0-4.44.05l2.15-1.51-1-2.42L63.06,3.57,60.76,1.89l-2.92-1-1.71,2C56,2.74,50.54.64,50.54.64L48.81.06,47.45.82,46.23,0,36.78,2.92a9.91,9.91,0,0,1,1,2.84c.1,1.12-1.14,6-1.14,6l3.75,1.25,3-3.93,2,3.26L44.57,15Z"/><polygon class="cls-2" points="10.99 50.13 14.41 46 25.42 35.7 37.71 22.69 43.52 17.59 48.73 22.8 43.47 28.05 30.57 40.23 19.05 52.47 16.19 55.33 10.99 50.13"/><polygon class="cls-3" points="43.52 16.06 44.57 15.02 45.33 15.78 50.54 20.98 51.3 21.75 50.26 22.8 48.73 22.8 43.52 17.59 43.52 16.06"/><polygon class="cls-1" points="9.54 65.2 10.38 66.04 13.64 62.77 13.56 60.45 14.87 60.12 16.19 55.33 14.18 51.78 10.99 50.13 6.2 51.45 5.86 52.75 3.54 52.68 0.28 55.94 1.12 56.78 0 57.91 4.86 62.76 5.43 63.34 8.41 66.32 9.54 65.2"/><polygon class="cls-3" points="50.51 49.47 69.52 41.78 78.58 32.72 84.22 33.61 82.59 23.2 92.28 19.02 84.12 8.41 73.56 14.48 69.74 26.26 55.51 38.04 38.99 43.47 45.37 52.54 50.51 49.47"/><path class="cls-4" d="M67,41.82a5,5,0,0,1,.55.74l1.92-.78,9.06-9.06.35.06.13-.15a.49.49,0,0,0,.11-.19c0-.11,0-.16-.12-.15l-.29,0a.41.41,0,0,1,.05-.39,1.8,1.8,0,0,0,.18-.53,2.35,2.35,0,0,0,.28-.46.15.15,0,0,0,0-.18c-.06-.06-.13,0-.18,0l-.46.37c-.2,0-.21,0-.27-.15a2.56,2.56,0,0,1-.08-.81.9.9,0,0,0-.2-.44l-.51-.67a.55.55,0,0,0-.63-.22c-.1,0-.19.07-.28.09a.32.32,0,0,1-.43-.25c-.05-.17-.22-.18-.3-.31s-.06,0-.09,0-.27.14-.3.28-.15.2-.29.21a.81.81,0,0,0-.57.25.42.42,0,0,1-.34.13.18.18,0,0,0-.16,0c-.13.16-.33.26-.41.45a1.09,1.09,0,0,1-.51.51.86.86,0,0,0-.45.5.23.23,0,0,1-.1.13.36.36,0,0,0-.12,0,.51.51,0,0,1-.58-.3c-.07-.16-.2-.16-.35-.05l-.12.09c-.16.11-.23.09-.35-.06a2.68,2.68,0,0,0-.27-.35c-.05-.05-.11-.11-.19-.09s-.12.11-.12.19a.6.6,0,0,1-.18.36.61.61,0,0,1-.35.15.88.88,0,0,0-.67.56c-.12.32-.12.32-.45.3h0a.33.33,0,0,0-.19-.09,1.2,1.2,0,0,1-.76-.37l0,0c-.34-.31-.76-.5-1.12-.78l0,0c-.12,0-.18-.09-.25-.18s-.14-.25-.27-.27a1,1,0,0,1-.56-.33l-1.11.92a.81.81,0,0,1,.17.12,2.32,2.32,0,0,1,.3.26.15.15,0,0,0,.22,0,.17.17,0,0,0,.08-.21.43.43,0,0,0-.07-.18c0-.14,0-.3.22-.34l.09.08a5.71,5.71,0,0,1,.66.45,8.77,8.77,0,0,0,.76.61.34.34,0,0,1,.08.22c0,.2,0,.2.24.22h0a.44.44,0,0,1,.49.24,2.35,2.35,0,0,0,.26.33.71.71,0,0,1,.15.28,1.56,1.56,0,0,0,.33.6.43.43,0,0,1,.13.21.58.58,0,0,0,.15.28,2.56,2.56,0,0,1,.17.24c.08.14.08.22-.06.32s-.13.22-.3.19,0,.14-.11.17a1.23,1.23,0,0,0-.53.28.33.33,0,0,0-.15.34,2.13,2.13,0,0,1,0,.8l-.07.06h0a.15.15,0,0,0-.11,0h0a1.62,1.62,0,0,0-.87,0,.13.13,0,0,0-.12.11.14.14,0,0,0,.09.14.44.44,0,0,0,.14.06l.67.11a.3.3,0,0,1,.2.44.62.62,0,0,1-.34.37c-.07,0-.14.08-.22,0s-.14,0-.17.08-.12.19,0,.25a.26.26,0,0,1,.14.21c.05.22.1.45.15.67h0a.25.25,0,0,0,.17.22,2.29,2.29,0,0,1,.26.14.39.39,0,0,1,.22.4c-.22.17-.31.16-.51,0l0,0h0s0,0,0,0,.06-.06,0-.1-.25-.18-.39,0a.68.68,0,0,1-.57.36.06.06,0,0,0-.07.06c0,.06,0,.07.08.06a.33.33,0,0,1,.35.14c.1.12.21.11.32,0h0a.21.21,0,0,1,.2.2c0,.12-.08.19-.09.28s.14.18.06.3-.22,0-.33,0a1.68,1.68,0,0,0-.53,0,.62.62,0,0,0-.57.27.43.43,0,0,1-.19.18c-.08,0-.14,0-.23.07.09.08.15,0,.22,0a3.75,3.75,0,0,0,.57,0c.17,0,.41,0,.51.19A.66.66,0,0,0,67,41.82Z"/><path class="cls-4" d="M83.85,31.26a.46.46,0,0,0-.43.22.37.37,0,0,1-.26.22c-.12.05-.25.06-.37.11s-.17.06-.23.15-.16.21-.4.1A.13.13,0,0,0,82,32a1.11,1.11,0,0,1-.3.61.73.73,0,0,0-.21.54l2.69.42Z"/><path class="cls-4" d="M70.9,25.88c.13.07.27.18.41.12a1.84,1.84,0,0,1,.66-.06.62.62,0,0,0,.29-.06,1.34,1.34,0,0,1,.64-.13c.26,0,.51,0,.76,0,.06,0,.12,0,.17,0s.23-.05.34,0l.57.22c.18.09.16.3.24.45a.89.89,0,0,0,.35.49c.2.16.18.16.06.37s-.25.25-.23.45a.28.28,0,0,1-.08.2.37.37,0,0,0-.26.12,1.25,1.25,0,0,0-.37.73.62.62,0,0,1-.29.5.14.14,0,0,0-.08.18c.06.14,0,.21-.13.28a.21.21,0,0,0-.13,0c-.36-.12-.37-.13-.6.12a.61.61,0,0,0-.23.52h0a.77.77,0,0,1-.34.34c-.11.07-.12.13,0,.21a.86.86,0,0,1,.25.46h0a.31.31,0,0,0,0,.17c.07.17.13.33.2.5a2.37,2.37,0,0,0,.68.58.34.34,0,0,0,.12,0,7.69,7.69,0,0,0,.86,0,.71.71,0,0,0,.27-.1c.2-.14.32-.37.55-.48,0-.17.2-.26.27-.4h0a.14.14,0,0,0,.1,0,.83.83,0,0,0,.24,0,.13.13,0,0,0,.11,0h0a.12.12,0,0,0,.1,0c.11.08.19.21.33.26h0c0,.07.1.1.15.15a1.34,1.34,0,0,1-.1.16.75.75,0,0,0-.2.53s0,.06,0,.09c-.18.15-.12.34-.07.52a1.25,1.25,0,0,0,.39.62c.12.11.12.15,0,.26a.81.81,0,0,0-.27.48l2-2h0a0,0,0,0,0,0,0,0,0,0,0,0,0-.06,0,0,0,0,0,0-.07h0a.1.1,0,0,0,0-.1v-.14h0a.06.06,0,0,0,0-.07,1.41,1.41,0,0,1,.14-.23.51.51,0,0,0,.11-.5.31.31,0,0,1,.13-.14.3.3,0,0,0,.28-.1l.24-.21a.26.26,0,0,1,.37,0h0a0,0,0,0,0,0,0,.11.11,0,0,0,.1,0c.06,0,.1,0,.12,0a.44.44,0,0,0,0-.21l.1-.11.07,0c.22,0,.25,0,.29-.2a.48.48,0,0,0,0-.09c.13-.18.27-.35.52-.32.05,0,.12.11.12,0s0-.08.07-.07.07,0,.06.06.12.16.14.27a.2.2,0,0,0,.25.17s0,.06.06.1.14.23.27.24a2,2,0,0,0,.58.09.21.21,0,0,0,.14-.09c.08-.12.2-.12.32-.14a.82.82,0,0,1,.66.19l0,0L82.59,23.2,91,19.59l.95-1,0,0-.61-.8,0,0a2.13,2.13,0,0,1-.9.41.78.78,0,0,0-.5.29,5.34,5.34,0,0,1-.75.3.62.62,0,0,1-.82-.34l-.09-.17a.41.41,0,0,1,.08-.53c.1,0,.19-.08.3-.1s.14-.12,0-.2a1.47,1.47,0,0,0-.23-.14c-.2-.12-.2-.12-.17-.33a.22.22,0,0,0,.05-.18,3.67,3.67,0,0,1,.34-1.52.65.65,0,0,1,.12-.19l.26-.33-.79-1a2.38,2.38,0,0,0-.1.27,1.06,1.06,0,0,1-.23.41l-.09.09-.06,0a.6.6,0,0,0-.23.27h0a.6.6,0,0,0-.17.35.29.29,0,0,0,.15.37,2.23,2.23,0,0,0,.27.13c.14.06.16.1.09.24a1.17,1.17,0,0,1-.15.25c-.09.09.05.19,0,.27a.32.32,0,0,0-.15.21c-.06.24-.24.44-.28.69h0a1.06,1.06,0,0,0-.32.25.15.15,0,0,1-.1.06,2.16,2.16,0,0,1-.51-.07c-.14,0-.17-.16-.25-.25a.7.7,0,0,0,0-.1.47.47,0,0,1,.18-.5,2.22,2.22,0,0,0,.21-.21.44.44,0,0,0,.09-.54c0-.09-.1-.17-.14-.26a.38.38,0,0,1,0-.44.37.37,0,0,0-.2-.52c-.07,0-.16,0-.2,0s-.28.41-.26.68a.29.29,0,0,1-.06.21,1.12,1.12,0,0,0-.33.73c0,.1-.07.15-.19.09s-.23,0-.22.16.07.15,0,.21-.17.33-.32.43a.66.66,0,0,0-.26.38c0,.11-.05.22-.09.33-.09.27-.23.3-.44.1a.62.62,0,0,1,0-.31c0-.08.08-.17,0-.23s-.17,0-.25,0-.22,0-.29-.1-.11-.16-.22-.1a.54.54,0,0,1-.55,0c-.21-.11-.23-.1-.4.08-.31.34-.31.34-.7.14a.11.11,0,0,0-.08-.06l-.14-.14a0,0,0,0,0,0,0,.07.07,0,0,1,0-.09c.09-.08.14-.2.29-.2s.22,0,.23-.26a1,1,0,0,1,.18-.67A.17.17,0,0,0,82,16c0-.19-.06-.37-.09-.56a.16.16,0,0,0-.15-.14c-.11,0-.2.08-.31,0s-.05-.22-.16-.27-.3-.1-.39-.24a.59.59,0,0,0-.15-.45.14.14,0,0,0-.16,0,.12.12,0,0,0-.09.13c0,.2,0,.41,0,.61a.44.44,0,0,1-.11.38.14.14,0,0,0,0,.22l.11.13a.32.32,0,0,1,0,.41.34.34,0,0,0,0,.41,1.07,1.07,0,0,1,.13.39.56.56,0,0,1-.19.36,1.26,1.26,0,0,1-.34,0,.57.57,0,0,0-.36,0,.48.48,0,0,1-.49,0,.59.59,0,0,0-.59,0l-.27,0a5.33,5.33,0,0,1-.77-.16c-.26-.08-.35,0-.37.26s0,.29,0,.44c0,.33-.06.34-.34.17-.09-.05-.18-.16-.29-.08a.24.24,0,0,0,0,.29,1.14,1.14,0,0,0,.2.47c.17.31.17.33-.14.5l-.09,0a.15.15,0,0,0-.07.14c-.09.08-.16.2-.27.23s-.15-.13-.24-.17h0a1,1,0,0,1-.48.06c-.07,0-.12,0-.16.1a4.39,4.39,0,0,0-.36.37c-.09.12-.28.09-.34.21s0,.29,0,.43a1.25,1.25,0,0,0,0,.68c0,.15.07.3.11.46a1.46,1.46,0,0,0,.84.76.48.48,0,0,1,.33.18c.22.23.35.54.59.76a.14.14,0,0,1,0,.07c0,.11,0,.13-.12.12s-.13-.06-.2-.08l0,0-.06,0a.18.18,0,0,0-.07,0,.37.37,0,0,0-.37-.15c-.13,0-.16,0-.15.17A.54.54,0,0,0,76,24c.06,0,.1.06.09.13a.38.38,0,0,1-.1.22,1.72,1.72,0,0,1-.46.4.55.55,0,0,0-.24.24,2.48,2.48,0,0,1-.46.54,1,1,0,0,1-.84-.18,1.39,1.39,0,0,0-.4-.18c-.05,0-.12,0-.17,0s-.38.13-.58.17a3.24,3.24,0,0,1-1.63,0,.81.81,0,0,0-.49,0,2.16,2.16,0,0,1-.6-.12l-.19.57Zm3.78,5.8h0Zm.73-3.74h0Zm7.21-9.44h0ZM81,30.07h0Zm-4.85-4.58h0Z"/><polygon class="cls-5" points="63.67 10.2 51.3 21.75 44.57 15.02 56.13 2.87 58.48 2.87 63.27 7.66 63.67 10.2"/><polygon class="cls-6" points="52.34 11.93 57.9 8.53 54.5 14.09 51.11 15.32 52.34 11.93"/><polygon class="cls-5" points="9.48 63.39 10.13 64.05 12.68 61.51 12.62 59.7 13.63 59.44 14.66 55.71 13.09 52.95 10.61 51.66 6.88 52.69 6.62 53.7 4.81 53.64 2.27 56.18 2.93 56.84 2.05 57.71 5.83 61.5 6.28 61.94 8.61 64.27 9.48 63.39"/><polyline class="cls-7" points="46.79 24.73 43.5 24.75 37.06 23.38 39.75 27.49 41.85 29.58 37.1 27.69 32.7 27.99"/><path class="cls-7" d="M21.7,39.18l5.48-.4s1.36,1.36.95,2.17a7.53,7.53,0,0,0-.47,2.38"/><polyline class="cls-7" points="25.18 35.93 27 35.75 27.18 38.78"/><polyline class="cls-7" points="32.82 38.11 32 35.85 27 35.75"/><polyline class="cls-7" points="36.7 34.23 36.89 32.18 29.03 31.88 30.57 32.18 32 35.85"/><line class="cls-7" x1="35.61" y1="27.79" x2="36.89" y2="32.18"/><line class="cls-7" x1="13.43" y1="47.18" x2="19.53" y2="46.43"/><polyline class="cls-7" points="19.35 43.4 19.53 46.43 19.05 52.47"/><polyline class="cls-7" points="23.79 38.96 24.35 43.5 19.35 43.4 16.75 43.65"/><line class="cls-7" x1="24.09" y1="47.11" x2="24.35" y2="43.5"/><line class="cls-7" x1="15.87" y1="46.88" x2="14.86" y2="52.99"/><path class="cls-3" d="M56.13,2.86C56,2.74,50.54.64,50.54.64L48.81.06,47.45.82,46.23,0,36.78,2.92a9.91,9.91,0,0,1,1,2.84c.1,1.12-1.14,6-1.14,6l3.75,1.25,3-3.93,2,3.26L44.57,15Z"/><polygon class="cls-1" points="47.63 11.8 44.03 6.07 40.23 10.68 38.42 9.84 39.33 5.06 39.08 3.28 45.56 1.68 48.04 2.93 50.25 1.9 54.65 4.34 47.63 11.8"/></g></g></svg>